<svg width="24" height="24" viewBox="0 0 24 24" fill="none" xmlns="http://www.w3.org/2000/svg">
<path d="M22.5591 16.2987L14.8891 3.57872C14.579 3.09353 14.1517 2.69424 13.6466 2.41766C13.1415 2.14107 12.575 1.99609 11.9991 1.99609C11.4233 1.99609 10.8567 2.14107 10.3516 2.41766C9.84657 2.69424 9.41927 3.09353 9.10912 3.57872L1.43912 16.2987C1.16818 16.7504 1.02091 17.2654 1.01214 17.792C1.00336 18.3186 1.13338 18.8383 1.38912 19.2987C1.6848 19.817 2.11278 20.2475 2.62932 20.5461C3.14587 20.8448 3.73245 21.001 4.32912 20.9987H19.6691C20.2619 21.005 20.8458 20.8549 21.362 20.5634C21.8782 20.272 22.3084 19.8495 22.6091 19.3387C22.8724 18.8735 23.0066 18.3464 22.9978 17.8119C22.989 17.2774 22.8375 16.755 22.5591 16.2987ZM20.8591 18.3487C20.7389 18.5553 20.5645 18.7251 20.3548 18.8397C20.145 18.9542 19.9079 19.0092 19.6691 18.9987H4.32912C4.09035 19.0092 3.85324 18.9542 3.64348 18.8397C3.43372 18.7251 3.25931 18.5553 3.13912 18.3487C3.05136 18.1967 3.00515 18.0243 3.00515 17.8487C3.00515 17.6732 3.05136 17.5007 3.13912 17.3487L10.8191 4.61872C10.9571 4.43642 11.1355 4.28858 11.3402 4.18679C11.545 4.085 11.7705 4.03203 11.9991 4.03203C12.2278 4.03203 12.4533 4.085 12.658 4.18679C12.8628 4.28858 13.0411 4.43642 13.1791 4.61872L20.8491 17.3387C20.9403 17.491 20.9893 17.6649 20.991 17.8424C20.9928 18.0199 20.9473 18.1946 20.8591 18.3487Z" fill="black"/>
<path d="M12 17C12.5523 17 13 16.5523 13 16C13 15.4477 12.5523 15 12 15C11.4477 15 11 15.4477 11 16C11 16.5523 11.4477 17 12 17Z" fill="black"/>
<path d="M12 8C11.7348 8 11.4804 8.10536 11.2929 8.29289C11.1054 8.48043 11 8.73478 11 9V13C11 13.2652 11.1054 13.5196 11.2929 13.7071C11.4804 13.8946 11.7348 14 12 14C12.2652 14 12.5196 13.8946 12.7071 13.7071C12.8946 13.5196 13 13.2652 13 13V9C13 8.73478 12.8946 8.48043 12.7071 8.29289C12.5196 8.10536 12.2652 8 12 8Z" fill="black"/>
</svg>
