<svg width="24" height="24" viewBox="0 0 24 24" fill="none" xmlns="http://www.w3.org/2000/svg">
<path d="M21.0018 6C21.0018 5.20435 20.6857 4.44129 20.1231 3.87868C19.5605 3.31607 18.7974 3 18.0018 3H6.00177C5.39776 3.00358 4.80889 3.1894 4.31222 3.53315C3.81556 3.8769 3.43422 4.36257 3.21811 4.92661C3.00201 5.49065 2.96119 6.10679 3.10102 6.6944C3.24084 7.28202 3.55478 7.81374 4.00177 8.22V18C4.00177 18.7956 4.31784 19.5587 4.88045 20.1213C5.44306 20.6839 6.20612 21 7.00177 21H17.0018C17.7974 21 18.5605 20.6839 19.1231 20.1213C19.6857 19.5587 20.0018 18.7956 20.0018 18V8.22C20.3144 7.94042 20.5649 7.59839 20.7371 7.21601C20.9094 6.83363 20.9995 6.41938 21.0018 6ZM6.00177 5H18.0018C18.267 5 18.5213 5.10536 18.7089 5.29289C18.8964 5.48043 19.0018 5.73478 19.0018 6C19.0018 6.26522 18.8964 6.51957 18.7089 6.70711C18.5213 6.89464 18.267 7 18.0018 7H6.00177C5.73655 7 5.4822 6.89464 5.29466 6.70711C5.10713 6.51957 5.00177 6.26522 5.00177 6C5.00177 5.73478 5.10713 5.48043 5.29466 5.29289C5.4822 5.10536 5.73655 5 6.00177 5ZM18.0018 18C18.0018 18.2652 17.8964 18.5196 17.7089 18.7071C17.5213 18.8946 17.267 19 17.0018 19H7.00177C6.73655 19 6.4822 18.8946 6.29466 18.7071C6.10713 18.5196 6.00177 18.2652 6.00177 18V9H18.0018V18Z" fill="black"/>
<path d="M14.13 12H9.87C9.38951 12 9 12.3895 9 12.87V13.13C9 13.6105 9.38951 14 9.87 14H14.13C14.6105 14 15 13.6105 15 13.13V12.87C15 12.3895 14.6105 12 14.13 12Z" fill="black"/>
</svg>
