<svg width="24" height="24" viewBox="0 0 24 24" fill="none" xmlns="http://www.w3.org/2000/svg">
<path d="M13.8297 19.0013C13.6803 19.0018 13.5327 18.9688 13.3977 18.9048C13.2627 18.8407 13.1438 18.7473 13.0497 18.6313L8.21968 12.6313C8.07259 12.4523 7.99219 12.2279 7.99219 11.9963C7.99219 11.7646 8.07259 11.5402 8.21968 11.3613L13.2197 5.36125C13.3894 5.15704 13.6333 5.02861 13.8978 5.00423C14.1622 4.97985 14.4255 5.06151 14.6297 5.23125C14.8339 5.40099 14.9623 5.6449 14.9867 5.90933C15.0111 6.17375 14.9294 6.43704 14.7597 6.64125L10.2897 12.0013L14.6097 17.3613C14.732 17.508 14.8096 17.6868 14.8335 17.8763C14.8574 18.0659 14.8265 18.2583 14.7444 18.4308C14.6624 18.6034 14.5326 18.7488 14.3705 18.8499C14.2084 18.9509 14.0207 19.0035 13.8297 19.0013Z" fill="black"/>
</svg>
