<svg width="24" height="24" viewBox="0 0 24 24" fill="none" xmlns="http://www.w3.org/2000/svg">
<path d="M10.46 18.0012C10.146 17.9993 9.83587 17.9312 9.55 17.8012C9.24083 17.6649 8.97741 17.4425 8.79122 17.1606C8.60503 16.8786 8.50393 16.549 8.5 16.2112V7.79117C8.50393 7.45331 8.60503 7.12373 8.79122 6.84179C8.97741 6.55984 9.24083 6.33745 9.55 6.20117C9.90574 6.03314 10.3015 5.96842 10.6923 6.01438C11.083 6.06035 11.453 6.21516 11.76 6.46117L16.86 10.6712C17.06 10.8304 17.2215 11.0327 17.3325 11.2629C17.4435 11.4932 17.5012 11.7455 17.5012 12.0012C17.5012 12.2568 17.4435 12.5091 17.3325 12.7394C17.2215 12.9697 17.06 13.172 16.86 13.3312L11.76 17.5412C11.3924 17.8393 10.9333 18.0017 10.46 18.0012ZM10.46 8.00117V15.9012L15.32 12.0012L10.46 8.00117Z" fill="black"/>
</svg>
