<svg width="24" height="24" viewBox="0 0 24 24" fill="none" xmlns="http://www.w3.org/2000/svg">
<path d="M18.7712 13.36C18.6873 13.2587 18.5842 13.175 18.4679 13.1137C18.3515 13.0523 18.2242 13.0145 18.0932 13.0025C17.9622 12.9904 17.8302 13.0043 17.7046 13.0433C17.579 13.0824 17.4623 13.1458 17.3612 13.23L13.0012 16.86V5C13.0012 4.73478 12.8959 4.48043 12.7084 4.29289C12.5208 4.10536 12.2665 4 12.0012 4C11.736 4 11.4817 4.10536 11.2941 4.29289C11.1066 4.48043 11.0012 4.73478 11.0012 5V16.86L6.64125 13.23C6.54013 13.146 6.42345 13.0826 6.29787 13.0437C6.17228 13.0047 6.04026 12.9909 5.90933 13.003C5.7784 13.0151 5.65112 13.0528 5.53478 13.1141C5.41844 13.1753 5.3153 13.2589 5.23125 13.36C5.1472 13.4611 5.0839 13.5778 5.04494 13.7034C5.00599 13.829 4.99216 13.961 5.00423 14.0919C5.0163 14.2229 5.05404 14.3501 5.1153 14.4665C5.17656 14.5828 5.26013 14.686 5.36125 14.77L11.3612 19.77L11.5112 19.86L11.6412 19.93C11.8729 20.0194 12.1296 20.0194 12.3612 19.93L12.4912 19.86L12.6412 19.77L18.6412 14.77C18.7425 14.6861 18.8262 14.583 18.8876 14.4666C18.9489 14.3503 18.9867 14.2229 18.9988 14.092C19.0109 13.961 18.997 13.8289 18.9579 13.7033C18.9189 13.5777 18.8555 13.461 18.7712 13.36Z" fill="black"/>
</svg>
