<svg width="24" height="24" viewBox="0 0 24 24" fill="none" xmlns="http://www.w3.org/2000/svg">
<path d="M16 11.0009H10.34L11.59 9.69086C11.773 9.49858 11.8721 9.24148 11.8656 8.97611C11.859 8.71075 11.7473 8.45886 11.555 8.27586C11.3627 8.09286 11.1056 7.99374 10.8403 8.00031C10.5749 8.00687 10.323 8.11858 10.14 8.31086L7.28 11.3109C7.24662 11.3518 7.21652 11.3952 7.19 11.4409C7.14384 11.4982 7.10674 11.5623 7.08 11.6309C7.04485 11.7203 7.02458 11.8149 7.02 11.9109L7 12.0009C7.00158 12.1315 7.02876 12.2606 7.08 12.3809C7.12874 12.5001 7.20005 12.6087 7.29 12.7009L10.29 15.7009C10.383 15.7946 10.4936 15.869 10.6154 15.9198C10.7373 15.9705 10.868 15.9967 11 15.9967C11.132 15.9967 11.2627 15.9705 11.3846 15.9198C11.5064 15.869 11.617 15.7946 11.71 15.7009C11.8037 15.6079 11.8781 15.4973 11.9289 15.3754C11.9797 15.2536 12.0058 15.1229 12.0058 14.9909C12.0058 14.8589 11.9797 14.7281 11.9289 14.6063C11.8781 14.4844 11.8037 14.3738 11.71 14.2809L10.41 13.0009H16C16.2652 13.0009 16.5196 12.8955 16.7071 12.708C16.8946 12.5204 17 12.2661 17 12.0009C17 11.7356 16.8946 11.4813 16.7071 11.2938C16.5196 11.1062 16.2652 11.0009 16 11.0009Z" fill="black"/>
<path d="M12 2C10.0222 2 8.08879 2.58649 6.4443 3.6853C4.79981 4.78412 3.51809 6.3459 2.76121 8.17317C2.00433 10.0004 1.8063 12.0111 2.19215 13.9509C2.578 15.8907 3.53041 17.6725 4.92894 19.0711C6.32746 20.4696 8.10929 21.422 10.0491 21.8079C11.9889 22.1937 13.9996 21.9957 15.8268 21.2388C17.6541 20.4819 19.2159 19.2002 20.3147 17.5557C21.4135 15.9112 22 13.9778 22 12C22 10.6868 21.7413 9.38642 21.2388 8.17317C20.7363 6.95991 19.9997 5.85752 19.0711 4.92893C18.1425 4.00035 17.0401 3.26375 15.8268 2.7612C14.6136 2.25866 13.3132 2 12 2ZM12 20C10.4178 20 8.87104 19.5308 7.55544 18.6518C6.23985 17.7727 5.21447 16.5233 4.60897 15.0615C4.00347 13.5997 3.84504 11.9911 4.15372 10.4393C4.4624 8.88743 5.22433 7.46197 6.34315 6.34315C7.46197 5.22433 8.88743 4.4624 10.4393 4.15372C11.9911 3.84504 13.5997 4.00346 15.0615 4.60896C16.5233 5.21447 17.7727 6.23984 18.6518 7.55544C19.5308 8.87103 20 10.4177 20 12C20 14.1217 19.1572 16.1566 17.6569 17.6569C16.1566 19.1571 14.1217 20 12 20Z" fill="black"/>
</svg>
