<svg width="24" height="24" viewBox="0 0 24 24" fill="none" xmlns="http://www.w3.org/2000/svg">
<path d="M13.5412 18.0012C13.0679 18.0017 12.6088 17.8393 12.2412 17.5412L7.14118 13.3312C6.94119 13.172 6.77967 12.9697 6.66866 12.7394C6.55765 12.5091 6.5 12.2568 6.5 12.0012C6.5 11.7455 6.55765 11.4932 6.66866 11.2629C6.77967 11.0327 6.94119 10.8304 7.14118 10.6712L12.2412 6.46117C12.5482 6.21516 12.9182 6.06035 13.3089 6.01438C13.6996 5.96842 14.0954 6.03314 14.4512 6.20117C14.7604 6.33745 15.0238 6.55984 15.21 6.84179C15.3961 7.12373 15.4972 7.45331 15.5012 7.79117V16.2112C15.4972 16.549 15.3961 16.8786 15.21 17.1606C15.0238 17.4425 14.7604 17.6649 14.4512 17.8012C14.1653 17.9312 13.8552 17.9993 13.5412 18.0012ZM8.68118 12.0012L13.5012 16.0012V8.09117L8.68118 12.0012Z" fill="black"/>
</svg>
