<svg width="24" height="24" viewBox="0 0 24 24" fill="none" xmlns="http://www.w3.org/2000/svg">
<path d="M6.62982 11.6114L11.9998 7.29139L17.3698 11.7714C17.5471 11.9183 17.7696 11.9995 17.9998 12.0014C18.1467 12.0016 18.2919 11.9695 18.425 11.9073C18.5581 11.8451 18.6758 11.7543 18.7698 11.6414C18.854 11.5403 18.9175 11.4237 18.9565 11.2981C18.9956 11.1725 19.0094 11.0404 18.9974 10.9094C18.9853 10.7784 18.9475 10.6511 18.8861 10.5348C18.8248 10.4184 18.7411 10.3153 18.6398 10.2314L12.6398 5.23139C12.4609 5.08431 12.2364 5.00391 12.0048 5.00391C11.7732 5.00391 11.5488 5.08431 11.3698 5.23139L5.36982 10.0614C5.26709 10.1439 5.18169 10.2459 5.11852 10.3616C5.05534 10.4772 5.01564 10.6042 5.0017 10.7352C4.98777 10.8662 4.99986 10.9987 5.03729 11.1251C5.07472 11.2514 5.13675 11.3691 5.21982 11.4714C5.30306 11.5734 5.40562 11.6579 5.52161 11.7202C5.6376 11.7825 5.76474 11.8212 5.89575 11.8342C6.02675 11.8472 6.15903 11.8342 6.285 11.796C6.41097 11.7578 6.52815 11.695 6.62982 11.6114Z" fill="black"/>
<path d="M12.6398 12.2314C12.4609 12.0843 12.2364 12.0039 12.0048 12.0039C11.7732 12.0039 11.5488 12.0843 11.3698 12.2314L5.36982 17.0614C5.26709 17.1439 5.18169 17.2459 5.11852 17.3616C5.05534 17.4772 5.01564 17.6042 5.0017 17.7352C4.98777 17.8662 4.99986 17.9987 5.03729 18.1251C5.07472 18.2514 5.13675 18.3691 5.21982 18.4714C5.30234 18.5741 5.40435 18.6595 5.51999 18.7227C5.63563 18.7859 5.76261 18.8256 5.89364 18.8395C6.02467 18.8534 6.15716 18.8414 6.2835 18.8039C6.40984 18.7665 6.52753 18.7045 6.62982 18.6214L11.9998 14.2914L17.3698 18.7714C17.5471 18.9183 17.7696 18.9995 17.9998 19.0014C18.1467 19.0016 18.2919 18.9695 18.425 18.9073C18.5581 18.8451 18.6758 18.7543 18.7698 18.6414C18.854 18.5403 18.9175 18.4237 18.9565 18.2981C18.9956 18.1725 19.0094 18.0404 18.9974 17.9094C18.9853 17.7784 18.9475 17.6511 18.8861 17.5348C18.8248 17.4184 18.7411 17.3153 18.6398 17.2314L12.6398 12.2314Z" fill="black"/>
</svg>
