<svg width="24" height="24" viewBox="0 0 24 24" fill="none" xmlns="http://www.w3.org/2000/svg">
<path d="M12.7109 7.29C12.6187 7.20005 12.5101 7.12874 12.3909 7.08C12.2675 7.02746 12.1349 7.00026 12.0009 7H11.9009C11.8081 7.00457 11.7168 7.02486 11.6309 7.06C11.5623 7.08674 11.4982 7.12384 11.4409 7.17C11.3952 7.19652 11.3518 7.22662 11.3109 7.26L8.31086 10.12C8.11858 10.303 8.00687 10.5549 8.00031 10.8203C7.99374 11.0856 8.09286 11.3427 8.27586 11.535C8.45886 11.7273 8.71075 11.839 8.97611 11.8456C9.24148 11.8521 9.49858 11.753 9.69086 11.57L11.0009 10.34V16C11.0009 16.2652 11.1062 16.5196 11.2938 16.7071C11.4813 16.8946 11.7356 17 12.0009 17C12.2661 17 12.5204 16.8946 12.708 16.7071C12.8955 16.5196 13.0009 16.2652 13.0009 16V10.41L14.2909 11.71C14.3838 11.8037 14.4944 11.8781 14.6163 11.9289C14.7381 11.9797 14.8689 12.0058 15.0009 12.0058C15.1329 12.0058 15.2636 11.9797 15.3854 11.9289C15.5073 11.8781 15.6179 11.8037 15.7109 11.71C15.8046 11.617 15.879 11.5064 15.9298 11.3846C15.9805 11.2627 16.0067 11.132 16.0067 11C16.0067 10.868 15.9805 10.7373 15.9298 10.6154C15.879 10.4936 15.8046 10.383 15.7109 10.29L12.7109 7.29Z" fill="black"/>
<path d="M12 2C10.0222 2 8.08879 2.58649 6.4443 3.6853C4.79981 4.78412 3.51809 6.3459 2.76121 8.17317C2.00433 10.0004 1.8063 12.0111 2.19215 13.9509C2.578 15.8907 3.53041 17.6725 4.92894 19.0711C6.32746 20.4696 8.10929 21.422 10.0491 21.8079C11.9889 22.1937 13.9996 21.9957 15.8268 21.2388C17.6541 20.4819 19.2159 19.2002 20.3147 17.5557C21.4135 15.9112 22 13.9778 22 12C22 10.6868 21.7413 9.38642 21.2388 8.17317C20.7363 6.95991 19.9997 5.85752 19.0711 4.92893C18.1425 4.00035 17.0401 3.26375 15.8268 2.7612C14.6136 2.25866 13.3132 2 12 2ZM12 20C10.4178 20 8.87104 19.5308 7.55544 18.6518C6.23985 17.7727 5.21447 16.5233 4.60897 15.0615C4.00347 13.5997 3.84504 11.9911 4.15372 10.4393C4.4624 8.88743 5.22433 7.46197 6.34315 6.34315C7.46197 5.22433 8.88743 4.4624 10.4393 4.15372C11.9911 3.84504 13.5997 4.00346 15.0615 4.60896C16.5233 5.21447 17.7727 6.23984 18.6518 7.55544C19.5308 8.87103 20 10.4177 20 12C20 14.1217 19.1572 16.1566 17.6569 17.6569C16.1566 19.1571 14.1217 20 12 20Z" fill="black"/>
</svg>
