<svg width="24" height="24" viewBox="0 0 24 24" fill="none" xmlns="http://www.w3.org/2000/svg">
<path d="M17.3713 12.3912L12.0012 16.7112L6.64125 12.2312C6.54013 12.1472 6.42345 12.0839 6.29787 12.0449C6.17228 12.006 6.04026 11.9922 5.90933 12.0042C5.7784 12.0163 5.65112 12.054 5.53478 12.1153C5.41844 12.1766 5.3153 12.2601 5.23125 12.3612C5.1472 12.4624 5.0839 12.579 5.04494 12.7046C5.00599 12.8302 4.99216 12.9622 5.00423 13.0932C5.0163 13.2241 5.05404 13.3514 5.1153 13.4677C5.17656 13.5841 5.26013 13.6872 5.36125 13.7712L11.3612 18.7712C11.5402 18.9183 11.7646 18.9987 11.9962 18.9987C12.2279 18.9987 12.4523 18.9183 12.6312 18.7712L18.6312 13.9412C18.734 13.8587 18.8194 13.7567 18.8826 13.6411C18.9457 13.5254 18.9854 13.3985 18.9994 13.2674C19.0133 13.1364 19.0012 13.0039 18.9638 12.8776C18.9263 12.7512 18.8643 12.6335 18.7812 12.5312C18.698 12.4293 18.5955 12.3447 18.4795 12.2824C18.3635 12.2202 18.2363 12.1814 18.1053 12.1684C17.9743 12.1554 17.842 12.1684 17.7161 12.2066C17.5901 12.2449 17.4729 12.3076 17.3713 12.3912Z" fill="black"/>
<path d="M11.3613 11.7713C11.5402 11.9183 11.7646 11.9987 11.9963 11.9987C12.2279 11.9987 12.4523 11.9183 12.6313 11.7713L18.6313 6.94125C18.734 6.85873 18.8194 6.75672 18.8826 6.64108C18.9457 6.52545 18.9854 6.39846 18.9994 6.26743C19.0133 6.13641 19.0012 6.00391 18.9638 5.87758C18.9264 5.75124 18.8643 5.63354 18.7813 5.53125C18.6987 5.42853 18.5967 5.34312 18.4811 5.27995C18.3654 5.21677 18.2385 5.17708 18.1074 5.16314C17.9764 5.1492 17.8439 5.16129 17.7176 5.19872C17.5912 5.23615 17.4735 5.29819 17.3713 5.38125L12.0013 9.71125L6.64125 5.23125C6.43704 5.06151 6.17375 4.97985 5.90933 5.00423C5.6449 5.02861 5.40099 5.15704 5.23125 5.36125C5.06151 5.56547 4.97985 5.82875 5.00423 6.09318C5.02861 6.3576 5.15704 6.60151 5.36125 6.77125L11.3613 11.7713Z" fill="black"/>
</svg>
