<svg width="24" height="24" viewBox="0 0 24 24" fill="none" xmlns="http://www.w3.org/2000/svg">
<path d="M11.6414 5.23176C11.5403 5.14756 11.4237 5.08412 11.2981 5.04507C11.1725 5.00603 11.0404 4.99215 10.9094 5.00422C10.7784 5.0163 10.6511 5.0541 10.5348 5.11545C10.4184 5.1768 10.3153 5.2605 10.2314 5.36176L5.23139 11.3618C5.08431 11.5407 5.00391 11.7651 5.00391 11.9968C5.00391 12.2284 5.08431 12.4528 5.23139 12.6318L10.0614 18.6318C10.1555 18.7478 10.2744 18.8412 10.4094 18.9053C10.5444 18.9693 10.692 19.0023 10.8414 19.0018C11.0306 19.0024 11.2162 18.9493 11.3764 18.8487C11.5367 18.7481 11.6652 18.6041 11.7468 18.4334C11.8285 18.2627 11.8601 18.0723 11.8379 17.8844C11.8157 17.6965 11.7406 17.5187 11.6214 17.3718L7.29139 12.0018L11.7714 6.63176C11.9383 6.42826 12.0183 6.16714 11.994 5.90506C11.9696 5.64297 11.843 5.40104 11.6414 5.23176Z" fill="black"/>
<path d="M14.2914 11.9995L18.7714 6.62953C18.9411 6.42532 19.0228 6.16204 18.9984 5.89761C18.974 5.63318 18.8456 5.38927 18.6414 5.21953C18.4372 5.04979 18.1739 4.96813 17.9095 4.99251C17.645 5.01689 17.4011 5.14532 17.2314 5.34953L12.2314 11.3495C12.0843 11.5285 12.0039 11.7529 12.0039 11.9845C12.0039 12.2162 12.0843 12.4406 12.2314 12.6195L17.0614 18.6195C17.1555 18.7356 17.2744 18.829 17.4094 18.893C17.5444 18.9571 17.692 18.99 17.8414 18.9895C18.0306 18.9902 18.2162 18.9371 18.3764 18.8365C18.5367 18.7359 18.6652 18.5919 18.7468 18.4212C18.8285 18.2505 18.8601 18.0601 18.8379 17.8722C18.8157 17.6843 18.7406 17.5065 18.6214 17.3595L14.2914 11.9995Z" fill="black"/>
</svg>
