<svg width="24" height="24" viewBox="0 0 24 24" fill="none" xmlns="http://www.w3.org/2000/svg">
<path d="M5.23176 10.641C5.31571 10.7422 5.41881 10.8259 5.53516 10.8873C5.6515 10.9486 5.77881 10.9864 5.90979 10.9985C6.04077 11.0106 6.17284 10.9967 6.29844 10.9576C6.42405 10.9186 6.54071 10.8552 6.64176 10.771L11.0018 7.14095V19.001C11.0018 19.2662 11.1071 19.5205 11.2947 19.7081C11.4822 19.8956 11.7365 20.001 12.0018 20.001C12.267 20.001 12.5213 19.8956 12.7089 19.7081C12.8964 19.5205 13.0018 19.2662 13.0018 19.001V7.14095L17.3618 10.771C17.4629 10.855 17.5796 10.9183 17.7051 10.9573C17.8307 10.9962 17.9628 11.01 18.0937 10.998C18.2246 10.9859 18.3519 10.9482 18.4682 10.8869C18.5846 10.8256 18.6877 10.7421 18.7718 10.641C18.8558 10.5398 18.9191 10.4232 18.9581 10.2976C18.997 10.172 19.0109 10.04 18.9988 9.90903C18.9867 9.7781 18.949 9.65083 18.8877 9.53448C18.8265 9.41814 18.7429 9.315 18.6418 9.23095L12.6418 4.23095L12.4918 4.14095L12.3618 4.07095C12.1301 3.98156 11.8734 3.98156 11.6418 4.07095L11.5118 4.14095L11.3618 4.23095L5.36176 9.23095C5.2605 9.3149 5.1768 9.418 5.11545 9.53435C5.0541 9.6507 5.0163 9.77801 5.00422 9.90898C4.99215 10.04 5.00603 10.172 5.04507 10.2976C5.08412 10.4232 5.14756 10.5399 5.23176 10.641Z" fill="black"/>
</svg>
