<svg width="24" height="24" viewBox="0 0 24 24" fill="none" xmlns="http://www.w3.org/2000/svg">
<path d="M12.9989 1.99894C10.6343 1.77185 8.26606 2.39396 6.31832 3.75386C4.37057 5.11376 2.97055 7.12261 2.36896 9.42068C1.76737 11.7187 2.00352 14.1559 3.0351 16.2957C4.06669 18.4356 5.82633 20.1383 7.99892 21.0989C9.25715 21.6679 10.6182 21.9742 11.9989 21.9989C14.1969 21.9991 16.3337 21.2751 18.0789 19.9389C18.2895 19.7783 18.4278 19.5407 18.4635 19.2782C18.4991 19.0158 18.4291 18.7499 18.2689 18.5389C18.1893 18.4332 18.0895 18.3443 17.9753 18.2775C17.8611 18.2106 17.7348 18.1671 17.6036 18.1494C17.4725 18.1317 17.3391 18.1403 17.2113 18.1745C17.0834 18.2088 16.9637 18.2681 16.8589 18.3489C15.8218 19.1323 14.6094 19.6512 13.3267 19.8608C12.0439 20.0703 10.7294 19.9641 9.49692 19.5514C8.26443 19.1387 7.15105 18.4319 6.25311 17.4922C5.35517 16.5525 4.69972 15.4082 4.34345 14.1582C3.98719 12.9082 3.94085 11.5903 4.20844 10.3184C4.47603 9.04647 5.04949 7.85891 5.87921 6.85845C6.70893 5.85799 7.76991 5.07476 8.97038 4.57652C10.1708 4.07828 11.4746 3.88003 12.7689 3.99894C14.7776 4.23143 16.6288 5.20058 17.9642 6.71894C19.2997 8.23731 20.0247 10.197 19.9989 12.2189V12.8989C19.9978 13.1287 19.9503 13.3558 19.8595 13.5668C19.7686 13.7778 19.6361 13.9683 19.47 14.127C19.3038 14.2857 19.1074 14.4092 18.8925 14.4903C18.6775 14.5714 18.4485 14.6083 18.2189 14.5989C17.7611 14.5487 17.3394 14.3267 17.0388 13.9779C16.7382 13.629 16.581 13.1791 16.5989 12.7189V8.39894C16.5989 8.13372 16.4936 7.87937 16.306 7.69183C16.1185 7.5043 15.8641 7.39894 15.5989 7.39894C15.3548 7.39687 15.1183 7.4842 14.9341 7.64446C14.7499 7.80472 14.6307 8.02684 14.5989 8.26894C13.6683 7.39252 12.4373 6.90585 11.1589 6.90894C10.2901 6.91545 9.43741 7.14426 8.68203 7.57357C7.92666 8.00287 7.29376 8.6184 6.84359 9.36152C6.39341 10.1046 6.14096 10.9506 6.11026 11.8189C6.07956 12.6872 6.27163 13.549 6.6682 14.322C7.06476 15.0951 7.65262 15.7538 8.37578 16.2353C9.09895 16.7169 9.93335 17.0054 10.7995 17.0732C11.6657 17.1411 12.5349 16.9861 13.3242 16.623C14.1136 16.2599 14.7968 15.7008 15.3089 14.9989C15.5992 15.448 15.9858 15.8267 16.4407 16.1076C16.8957 16.3886 17.4075 16.5646 17.9389 16.623C18.4704 16.6814 19.0082 16.6207 19.5133 16.4453C20.0184 16.2699 20.4781 15.9842 20.8589 15.6089C21.2255 15.2602 21.516 14.8394 21.7121 14.3731C21.9083 13.9067 22.006 13.4048 21.9989 12.8989V12.2189C22.0213 9.70592 21.1151 7.27309 19.4542 5.38705C17.7933 3.501 15.4946 2.2945 12.9989 1.99894ZM11.1789 15.0889C10.5678 15.0889 9.97036 14.9077 9.46221 14.5682C8.95406 14.2286 8.55801 13.7461 8.32413 13.1814C8.09026 12.6168 8.02906 11.9955 8.14829 11.3961C8.26752 10.7967 8.56181 10.2461 8.99396 9.81398C9.4261 9.38183 9.97669 9.08754 10.5761 8.96831C11.1755 8.84908 11.7968 8.91028 12.3614 9.14415C12.926 9.37803 13.4086 9.77408 13.7482 10.2822C14.0877 10.7904 14.2689 11.3878 14.2689 11.9989C14.2663 12.8176 13.9399 13.6021 13.361 14.181C12.7821 14.7599 11.9976 15.0863 11.1789 15.0889Z" fill="black"/>
</svg>
