<svg width="24" height="24" viewBox="0 0 24 24" fill="none" xmlns="http://www.w3.org/2000/svg">
<path d="M12 22.0012C10.4491 22.0388 8.94653 21.4599 7.82179 20.3914C6.69705 19.3229 6.0419 17.852 6 16.3012V6.13121C6.02883 5.01012 6.50064 3.94611 7.31216 3.17208C8.12368 2.39804 9.20879 1.97704 10.33 2.00121C11.4529 1.97435 12.5406 2.39416 13.3543 3.16848C14.168 3.9428 14.6412 5.00835 14.67 6.13121V16.3112C14.6284 16.9898 14.3295 17.627 13.8343 18.0928C13.3391 18.5585 12.6849 18.8179 12.005 18.8179C11.3251 18.8179 10.6709 18.5585 10.1757 18.0928C9.68047 17.627 9.38159 16.9898 9.34 16.3112V6.92121C9.34 6.656 9.44536 6.40164 9.63289 6.21411C9.82043 6.02657 10.0748 5.92121 10.34 5.92121C10.6052 5.92121 10.8596 6.02657 11.0471 6.21411C11.2346 6.40164 11.34 6.656 11.34 6.92121V16.3112C11.3599 16.4735 11.4386 16.623 11.5611 16.7313C11.6836 16.8397 11.8415 16.8995 12.005 16.8995C12.1685 16.8995 12.3264 16.8397 12.4489 16.7313C12.5714 16.623 12.6501 16.4735 12.67 16.3112V6.13121C12.6389 5.53962 12.3758 4.98416 11.9377 4.58539C11.4996 4.18661 10.9219 3.9767 10.33 4.00121C9.73979 3.9794 9.16467 4.19052 8.72876 4.58901C8.29285 4.98751 8.0311 5.54142 8 6.13121V16.3012C8.04163 17.3216 8.48597 18.284 9.23569 18.9775C9.98541 19.671 10.9794 20.0391 12 20.0012C13.0206 20.0391 14.0146 19.671 14.7643 18.9775C15.514 18.284 15.9584 17.3216 16 16.3012V6.13121C16 5.866 16.1054 5.61164 16.2929 5.42411C16.4804 5.23657 16.7348 5.13121 17 5.13121C17.2652 5.13121 17.5196 5.23657 17.7071 5.42411C17.8946 5.61164 18 5.866 18 6.13121V16.3012C17.9581 17.852 17.303 19.3229 16.1782 20.3914C15.0535 21.4599 13.5509 22.0388 12 22.0012Z" fill="black"/>
</svg>
