<svg width="24" height="24" viewBox="0 0 24 24" fill="none" xmlns="http://www.w3.org/2000/svg">
<path d="M20.1416 4.00011H10.3716C9.6316 4.00452 8.91929 4.28232 8.37165 4.78011L8.27165 4.89011L2.27165 12.3701C2.11142 12.5693 2.03353 12.8222 2.05399 13.077C2.07445 13.3318 2.1917 13.5691 2.38165 13.7401L8.38165 19.2201C8.92929 19.7179 9.6416 19.9957 10.3816 20.0001H20.1516C20.6379 20.0028 21.1055 19.8128 21.4522 19.4718C21.7988 19.1308 21.9964 18.6664 22.0016 18.1801V5.82011C21.999 5.57847 21.9489 5.33972 21.854 5.11748C21.7591 4.89524 21.6213 4.69386 21.4486 4.52486C21.2759 4.35585 21.0716 4.22253 20.8473 4.13249C20.6231 4.04245 20.3833 3.99747 20.1416 4.00011ZM20.0016 18.0001H10.3716C10.1238 17.9995 9.88505 17.9068 9.70165 17.7401L4.37165 12.8901L9.75165 6.22011C9.92759 6.07895 10.1461 6.00142 10.3716 6.00011H20.0016V18.0001Z" fill="black"/>
<path d="M11.2919 14.7102C11.3849 14.8039 11.4955 14.8783 11.6173 14.9291C11.7392 14.9798 11.8699 15.006 12.0019 15.006C12.1339 15.006 12.2646 14.9798 12.3865 14.9291C12.5083 14.8783 12.6189 14.8039 12.7119 14.7102L14.0019 13.4102L15.2919 14.7102C15.3849 14.8039 15.4955 14.8783 15.6173 14.9291C15.7392 14.9798 15.8699 15.006 16.0019 15.006C16.1339 15.006 16.2646 14.9798 16.3865 14.9291C16.5083 14.8783 16.6189 14.8039 16.7119 14.7102C16.8056 14.6172 16.88 14.5066 16.9308 14.3848C16.9816 14.2629 17.0077 14.1322 17.0077 14.0002C17.0077 13.8682 16.9816 13.7375 16.9308 13.6156C16.88 13.4937 16.8056 13.3831 16.7119 13.2902L15.4119 12.0002L16.7119 10.7102C16.9002 10.5219 17.006 10.2665 17.006 10.0002C17.006 9.73388 16.9002 9.47849 16.7119 9.29018C16.5236 9.10188 16.2682 8.99609 16.0019 8.99609C15.7356 8.99609 15.4802 9.10188 15.2919 9.29018L14.0019 10.5902L12.7119 9.29018C12.5236 9.10188 12.2682 8.99609 12.0019 8.99609C11.7356 8.99609 11.4802 9.10188 11.2919 9.29018C11.1036 9.47849 10.9978 9.73388 10.9978 10.0002C10.9978 10.2665 11.1036 10.5219 11.2919 10.7102L12.5919 12.0002L11.2919 13.2902C11.1982 13.3831 11.1238 13.4937 11.073 13.6156C11.0222 13.7375 10.9961 13.8682 10.9961 14.0002C10.9961 14.1322 11.0222 14.2629 11.073 14.3848C11.1238 14.5066 11.1982 14.6172 11.2919 14.7102Z" fill="black"/>
</svg>
