<svg width="24" height="24" viewBox="0 0 24 24" fill="none" xmlns="http://www.w3.org/2000/svg">
<path d="M21 13.2051V12.7499H15.8496V4.59283H16.2148V4H7.78516V4.59283H8.15036V12.7499H3V13.2051H3.68288V18.8558H3V19.311H21V18.8558H20.3171V13.2051H21ZM15.4394 12.7499H12.2151V9.00028H15.4394V12.7499ZM15.4394 4.59283V8.57004H12.2151V4.59283H15.4394ZM11.7824 4.59283V8.57004H8.55809V4.59283H11.7824ZM8.55809 9.00028H11.7824V12.7474H8.55809V9.00028ZM5.14119 18.8558H4.27571V13.2051H5.14119V18.8558ZM6.5995 18.8558H5.73402V13.2051H6.5995V18.8558ZM8.05781 18.8558H7.19233V13.2051H8.05781V18.8558ZM9.51612 18.8558H8.65064V13.2051H9.51612V18.8558ZM10.9744 18.8558H10.1089V13.2051H10.9744V18.8558ZM12.4327 18.8558H11.5673V13.2051H12.4327V18.8558ZM13.8911 18.8558H13.0256V13.2051H13.8911V18.8558ZM15.3494 18.8558H14.4839V13.2051H15.3494V18.8558ZM16.8077 18.8558H15.9422V13.2051H16.8077V18.8558ZM18.266 18.8558H17.4005V13.2051H18.266V18.8558ZM19.7243 18.8558H18.8588V13.2051H19.7243V18.8558Z" fill="black"/>
</svg>
