<svg width="24" height="24" viewBox="0 0 24 24" fill="none" xmlns="http://www.w3.org/2000/svg">
<path d="M15.8294 6H4.16943C3.56004 6.03612 2.98972 6.31198 2.58311 6.76732C2.17649 7.22265 1.96665 7.82042 1.99943 8.43V15.57C1.96665 16.1796 2.17649 16.7774 2.58311 17.2327C2.98972 17.688 3.56004 17.9639 4.16943 18H15.8294C16.4388 17.9639 17.0091 17.688 17.4158 17.2327C17.8224 16.7774 18.0322 16.1796 17.9994 15.57V8.43C18.0322 7.82042 17.8224 7.22265 17.4158 6.76732C17.0091 6.31198 16.4388 6.03612 15.8294 6ZM15.9994 15.57C16.0062 15.6499 15.9943 15.7303 15.9649 15.8049C15.9354 15.8795 15.889 15.9463 15.8294 16H4.17943C4.11676 15.9483 4.06762 15.8822 4.03625 15.8073C4.00489 15.7323 3.99225 15.6509 3.99943 15.57V8.43C3.99344 8.35014 4.00562 8.26996 4.03506 8.19548C4.06451 8.12101 4.11045 8.05417 4.16943 8H15.8194C15.8821 8.05166 15.9312 8.11782 15.9626 8.19274C15.994 8.26766 16.0066 8.3491 15.9994 8.43V15.57Z" fill="black"/>
<path d="M21 9C20.7348 9 20.4804 9.10536 20.2929 9.29289C20.1054 9.48043 20 9.73478 20 10V14C20 14.2652 20.1054 14.5196 20.2929 14.7071C20.4804 14.8946 20.7348 15 21 15C21.2652 15 21.5196 14.8946 21.7071 14.7071C21.8946 14.5196 22 14.2652 22 14V10C22 9.73478 21.8946 9.48043 21.7071 9.29289C21.5196 9.10536 21.2652 9 21 9Z" fill="black"/>
</svg>
