<svg width="24" height="24" viewBox="0 0 24 24" fill="none" xmlns="http://www.w3.org/2000/svg">
<path d="M12 2C10.0222 2 8.08879 2.58649 6.4443 3.6853C4.79981 4.78412 3.51809 6.3459 2.76121 8.17317C2.00433 10.0004 1.8063 12.0111 2.19215 13.9509C2.578 15.8907 3.53041 17.6725 4.92894 19.0711C6.32746 20.4696 8.10929 21.422 10.0491 21.8079C11.9889 22.1937 13.9996 21.9957 15.8268 21.2388C17.6541 20.4819 19.2159 19.2002 20.3147 17.5557C21.4135 15.9112 22 13.9778 22 12C22 10.6868 21.7413 9.38642 21.2388 8.17317C20.7363 6.95991 19.9997 5.85752 19.0711 4.92893C18.1425 4.00035 17.0401 3.26375 15.8268 2.7612C14.6136 2.25866 13.3132 2 12 2ZM12 20C10.4178 20 8.87104 19.5308 7.55544 18.6518C6.23985 17.7727 5.21447 16.5233 4.60897 15.0615C4.00347 13.5997 3.84504 11.9911 4.15372 10.4393C4.4624 8.88743 5.22433 7.46197 6.34315 6.34315C7.46197 5.22433 8.88743 4.4624 10.4393 4.15372C11.9911 3.84504 13.5997 4.00346 15.0615 4.60896C16.5233 5.21447 17.7727 6.23984 18.6518 7.55544C19.5308 8.87103 20 10.4177 20 12C20 14.1217 19.1572 16.1566 17.6569 17.6569C16.1566 19.1571 14.1217 20 12 20Z" fill="black"/>
<path d="M10.52 11.78C10.8462 11.7137 11.1381 11.5334 11.3434 11.2713C11.5486 11.0092 11.6538 10.6826 11.64 10.35C11.64 9.35 10.87 8.75 9.7 8.75H7V15.25H9.7C11 15.2 12 14.53 12 13.37C12.0094 13.1679 11.9783 12.966 11.9086 12.776C11.839 12.5861 11.7321 12.412 11.5942 12.2639C11.4564 12.1158 11.2904 11.9967 11.1059 11.9136C10.9214 11.8305 10.7222 11.7851 10.52 11.78ZM8.26 9.67H9.41C10.01 9.67 10.36 9.99 10.36 10.52C10.36 11.05 9.98 11.41 9.11 11.41H8.26V9.67ZM9.26 14.24H8.26V12.3H9.49C10.24 12.3 10.66 12.68 10.66 13.3C10.66 13.92 10.24 14.24 9.22 14.24H9.26Z" fill="black"/>
<path d="M14.7515 10.3003C14.4483 10.275 14.1432 10.3156 13.8571 10.4193C13.5711 10.523 13.3108 10.6874 13.0943 10.9011C12.8777 11.1148 12.7099 11.3729 12.6024 11.6575C12.4949 11.9422 12.4503 12.2467 12.4715 12.5503V13.0003C12.4469 13.3125 12.4908 13.6263 12.6001 13.9198C12.7094 14.2132 12.8815 14.4793 13.1044 14.6993C13.3273 14.9193 13.5955 15.088 13.8904 15.1935C14.1853 15.2991 14.4996 15.3389 14.8115 15.3103C15.3051 15.3689 15.8029 15.2416 16.2078 14.9532C16.6126 14.6648 16.8956 14.2359 17.0015 13.7503H15.7915C15.7289 13.9583 15.5932 14.1366 15.4094 14.2524C15.2256 14.3682 15.0061 14.4136 14.7915 14.3803C14.6386 14.3841 14.4867 14.3551 14.346 14.2952C14.2052 14.2354 14.079 14.1461 13.9757 14.0333C13.8724 13.9205 13.7945 13.7869 13.7472 13.6415C13.6999 13.4961 13.6843 13.3422 13.7015 13.1903V13.0503H17.0015V12.5803C17.0251 12.2774 16.9833 11.973 16.8789 11.6878C16.7746 11.4025 16.6102 11.143 16.3968 10.9268C16.1835 10.7105 15.9262 10.5427 15.6423 10.4346C15.3584 10.3265 15.0546 10.2807 14.7515 10.3003ZM15.7515 12.3003H13.7315C13.719 12.1616 13.7355 12.0218 13.7801 11.8899C13.8248 11.758 13.8964 11.6368 13.9906 11.5342C14.0847 11.4316 14.1992 11.3498 14.3268 11.294C14.4544 11.2382 14.5922 11.2097 14.7315 11.2103C14.8707 11.2097 15.0086 11.2382 15.1362 11.294C15.2638 11.3498 15.3783 11.4316 15.4724 11.5342C15.5666 11.6368 15.6382 11.758 15.6828 11.8899C15.7275 12.0218 15.744 12.1616 15.7315 12.3003H15.7515Z" fill="black"/>
<path d="M16.25 9.19922H13.25V9.69922H16.25V9.19922Z" fill="black"/>
</svg>
