<svg width="24" height="24" viewBox="0 0 24 24" fill="none" xmlns="http://www.w3.org/2000/svg">
<path d="M20.5186 15.2116L18.7186 13.4016V8.9416C18.7426 7.28543 18.1665 5.67651 17.0967 4.41194C16.027 3.14737 14.5358 2.31254 12.8986 2.0616C11.9484 1.93647 10.9825 2.01542 10.0652 2.29318C9.14795 2.57094 8.30048 3.04113 7.57933 3.67236C6.85819 4.3036 6.27995 5.08138 5.88322 5.9538C5.48648 6.82622 5.28036 7.77321 5.27861 8.7316V13.4016L3.47861 15.2116C3.25251 15.4415 3.09919 15.7329 3.03781 16.0494C2.97643 16.3659 3.0097 16.6935 3.13349 16.9912C3.25727 17.289 3.46606 17.5436 3.73376 17.7233C4.00146 17.903 4.31619 17.9998 4.63861 18.0016H7.99861V18.3416C8.04532 19.3568 8.49256 20.3121 9.24233 20.9981C9.99211 21.6842 10.9833 22.045 11.9986 22.0016C13.014 22.045 14.0051 21.6842 14.7549 20.9981C15.5047 20.3121 15.9519 19.3568 15.9986 18.3416V18.0016H19.3586C19.681 17.9998 19.9958 17.903 20.2635 17.7233C20.5312 17.5436 20.7399 17.289 20.8637 16.9912C20.9875 16.6935 21.0208 16.3659 20.9594 16.0494C20.898 15.7329 20.7447 15.4415 20.5186 15.2116ZM13.9986 18.3416C13.9432 18.8226 13.7043 19.2637 13.3317 19.5729C12.9591 19.8821 12.4816 20.0357 11.9986 20.0016C11.5156 20.0357 11.0381 19.8821 10.6655 19.5729C10.293 19.2637 10.0541 18.8226 9.99861 18.3416V18.0016H13.9986V18.3416ZM5.50861 16.0016L6.68861 14.8216C6.87578 14.6355 7.02427 14.4143 7.12553 14.1706C7.22679 13.9269 7.27882 13.6655 7.27861 13.4016V8.7316C7.27915 8.057 7.42399 7.39033 7.7034 6.77631C7.98281 6.1623 8.39033 5.61516 8.89861 5.1716C9.40003 4.71729 9.99418 4.37735 10.6399 4.17534C11.2857 3.97332 11.9677 3.91404 12.6386 4.0016C13.7951 4.18938 14.8448 4.78861 15.5945 5.68898C16.3442 6.58935 16.7434 7.73024 16.7186 8.9016V13.4016C16.7171 13.6648 16.7675 13.9257 16.8671 14.1694C16.9666 14.4131 17.1132 14.6347 17.2986 14.8216L18.4886 16.0016H5.50861Z" fill="black"/>
</svg>
