<svg width="24" height="24" viewBox="0 0 24 24" fill="none" xmlns="http://www.w3.org/2000/svg">
<path d="M8.9 5.16941C9.40142 4.71509 9.99557 4.37516 10.6413 4.17314C11.2871 3.97113 11.9691 3.91185 12.64 3.99941C13.7965 4.18719 14.8462 4.78642 15.5959 5.68679C16.3456 6.58716 16.7448 7.72805 16.72 8.89941V13.3994C16.7223 13.6001 16.756 13.7992 16.82 13.9894L20.42 17.5894C20.616 17.4284 20.7703 17.2226 20.87 16.9894C20.9959 16.6917 21.0299 16.363 20.9675 16.0458C20.9051 15.7286 20.7493 15.4373 20.52 15.2094L18.72 13.3994V8.93941C18.7439 7.28324 18.1679 5.67432 17.0981 4.40975C16.0284 3.14518 14.5372 2.31035 12.9 2.05941C11.9497 1.93211 10.9831 2.00993 10.0655 2.28766C9.14777 2.56538 8.30025 3.03654 7.58 3.66941C7.37645 3.83812 7.1828 4.01842 7 4.20941L8.47 5.63941C8.60275 5.47338 8.7464 5.31636 8.9 5.16941Z" fill="black"/>
<path d="M14.001 16.8594L13.171 15.9994H5.51104L6.69104 14.8194C6.87821 14.6333 7.02671 14.4121 7.12797 14.1683C7.22923 13.9246 7.28125 13.6633 7.28104 13.3994V10.1094L5.28104 8.10938C5.27082 8.30591 5.27082 8.50284 5.28104 8.69938V13.3994L3.48104 15.2094C3.25005 15.4374 3.09239 15.7291 3.02824 16.0473C2.9641 16.3655 2.9964 16.6955 3.121 16.9952C3.2456 17.2949 3.45684 17.5506 3.72764 17.7295C3.99845 17.9084 4.3165 18.0024 4.64104 17.9994H8.00104V18.3394C8.04775 19.3546 8.495 20.3099 9.24477 20.9959C9.99454 21.6819 10.9857 22.0428 12.001 21.9994C12.9456 22.0422 13.8734 21.7387 14.6099 21.1457C15.3465 20.5528 15.8412 19.7113 16.001 18.7794L15.171 17.9994L14.001 16.8594ZM12.001 19.9994C11.5181 20.0335 11.0405 19.8799 10.668 19.5707C10.2954 19.2614 10.0565 18.8204 10.001 18.3394V17.9994H14.001V18.3394C13.9456 18.8204 13.7067 19.2614 13.3341 19.5707C12.9615 19.8799 12.484 20.0335 12.001 19.9994Z" fill="black"/>
<path d="M20.7102 19.2902L19.4102 18.0002L17.4102 16.0002L7.89019 6.47019L6.42019 5.00019L4.71019 3.29019C4.61695 3.19695 4.50626 3.12299 4.38443 3.07253C4.26261 3.02207 4.13204 2.99609 4.00019 2.99609C3.86833 2.99609 3.73776 3.02207 3.61594 3.07253C3.49411 3.12299 3.38342 3.19695 3.29019 3.29019C3.10188 3.47849 2.99609 3.73388 2.99609 4.00019C2.99609 4.26649 3.10188 4.52188 3.29019 4.71019L5.53019 7.00019L7.28019 8.70019L14.5902 16.0002L14.6602 16.0702L16.0002 17.4102L16.5902 18.0002L19.2902 20.7102C19.3831 20.8039 19.4937 20.8783 19.6156 20.9291C19.7375 20.9798 19.8682 21.006 20.0002 21.006C20.1322 21.006 20.2629 20.9798 20.3848 20.9291C20.5066 20.8783 20.6172 20.8039 20.7102 20.7102C20.8039 20.6172 20.8783 20.5066 20.9291 20.3848C20.9798 20.2629 21.006 20.1322 21.006 20.0002C21.006 19.8682 20.9798 19.7375 20.9291 19.6156C20.8783 19.4937 20.8039 19.3831 20.7102 19.2902Z" fill="black"/>
</svg>
