<svg width="24" height="24" viewBox="0 0 24 24" fill="none" xmlns="http://www.w3.org/2000/svg">
<path d="M13.6289 12.0015L17.6289 8.21154C17.7532 8.09527 17.8499 7.95265 17.9118 7.79412C17.9738 7.6356 17.9995 7.46521 17.9871 7.29546C17.9746 7.12571 17.9243 6.9609 17.8398 6.81314C17.7553 6.66537 17.6388 6.5384 17.4989 6.44154L12.8289 3.21154C12.6537 3.08893 12.4483 3.01665 12.235 3.00255C12.0217 2.98845 11.8086 3.03306 11.6189 3.13154C11.435 3.22696 11.2804 3.37023 11.1713 3.54625C11.0621 3.72226 11.0026 3.92448 10.9989 4.13154V10.3315L7.80885 6.33154C7.63646 6.12467 7.38895 5.99476 7.12078 5.97038C6.8526 5.946 6.58572 6.02915 6.37885 6.20154C6.17198 6.37393 6.04207 6.62144 6.01769 6.88962C5.99331 7.1578 6.07646 7.42467 6.24885 7.63154L9.71885 12.0015L6.21885 16.4315C6.05534 16.6388 5.9804 16.9022 6.01038 17.1645C6.04035 17.4268 6.1728 17.6665 6.37885 17.8315C6.56117 17.9549 6.77911 18.0147 6.99885 18.0015C7.14906 18.0009 7.29718 17.9663 7.43221 17.9005C7.56725 17.8348 7.68572 17.7394 7.77885 17.6215L10.9989 13.5615V19.8515C11.0015 20.1575 11.1249 20.4499 11.3421 20.6653C11.5594 20.8807 11.8529 21.0016 12.1589 21.0015C12.3985 21.0024 12.6326 20.9291 12.8289 20.7915L17.4689 17.6115C17.6072 17.5138 17.7227 17.3871 17.8073 17.2404C17.8919 17.0936 17.9436 16.9303 17.9589 16.7615C17.972 16.5942 17.9484 16.4261 17.8897 16.2689C17.8309 16.1117 17.7385 15.9692 17.6189 15.8515L13.6289 12.0015ZM12.9989 5.76154L15.4989 7.49154L12.9989 9.85154V5.76154ZM12.9989 18.2515V14.1815L15.4689 16.5615L12.9989 18.2515Z" fill="black"/>
</svg>
