<svg width="24" height="24" viewBox="0 0 24 24" fill="none" xmlns="http://www.w3.org/2000/svg">
<path d="M20.6203 4.22113C20.5041 4.12715 20.3684 4.0604 20.223 4.02579C20.0776 3.99118 19.9264 3.98959 19.7803 4.02113L12.0003 5.77113L4.2203 4.00113C4.07193 3.96762 3.91786 3.9684 3.76983 4.00341C3.62181 4.03842 3.48371 4.10674 3.36607 4.20317C3.24843 4.2996 3.15434 4.42159 3.09095 4.55987C3.02757 4.69815 2.99656 4.84906 3.0003 5.00113V17.2011C2.99465 17.4323 3.06929 17.6583 3.2115 17.8406C3.35372 18.0229 3.55472 18.1503 3.7803 18.2011L11.7803 20.0011H12.2203L20.2203 18.2011C20.4459 18.1503 20.6469 18.0229 20.7891 17.8406C20.9313 17.6583 21.006 17.4323 21.0003 17.2011V5.00113C20.9996 4.85093 20.9651 4.70281 20.8993 4.56777C20.8335 4.43274 20.7382 4.31426 20.6203 4.22113ZM5.0003 6.25113L11.0003 7.60113V17.7511L5.0003 16.4011V6.25113ZM19.0003 16.4011L13.0003 17.7511V7.60113L19.0003 6.25113V16.4011Z" fill="black"/>
</svg>
