<svg width="24" height="24" viewBox="0 0 24 24" fill="none" xmlns="http://www.w3.org/2000/svg">
<path fill-rule="evenodd" clip-rule="evenodd" d="M5.75 5.875C4.7835 5.875 4 6.6585 4 7.625C4 8.5915 4.7835 9.375 5.75 9.375C6.7165 9.375 7.5 8.5915 7.5 7.625C7.5 6.6585 6.7165 5.875 5.75 5.875ZM2.5 7.625C2.5 5.83007 3.95507 4.375 5.75 4.375C7.54493 4.375 9 5.83007 9 7.625C9 9.41993 7.54493 10.875 5.75 10.875C3.95507 10.875 2.5 9.41993 2.5 7.625Z" fill="black"/>
<path fill-rule="evenodd" clip-rule="evenodd" d="M3.00996 11.76C3.73666 11.0333 4.72229 10.625 5.75 10.625C6.77771 10.625 7.76334 11.0333 8.49004 11.76C9.21674 12.4867 9.625 13.4723 9.625 14.5V16.375C9.625 16.7892 9.28921 17.125 8.875 17.125H8.28709L7.74421 21.468C7.69729 21.8433 7.37824 22.125 7 22.125H4.5C4.12176 22.125 3.80271 21.8433 3.75579 21.468L3.21291 17.125H2.625C2.21079 17.125 1.875 16.7892 1.875 16.375V14.5C1.875 13.4723 2.28326 12.4867 3.00996 11.76ZM5.75 12.125C5.12011 12.125 4.51602 12.3752 4.07062 12.8206C3.62522 13.266 3.375 13.8701 3.375 14.5V15.625H3.875C4.25324 15.625 4.57229 15.9067 4.61921 16.282L5.16209 20.625H6.33791L6.88079 16.282C6.92771 15.9067 7.24676 15.625 7.625 15.625H8.125V14.5C8.125 13.8701 7.87478 13.266 7.42938 12.8206C6.98398 12.3752 6.37989 12.125 5.75 12.125Z" fill="black"/>
<path fill-rule="evenodd" clip-rule="evenodd" d="M8.71079 2.46079C9.08586 2.08571 9.59457 1.875 10.125 1.875H20.125C20.6554 1.875 21.1641 2.08571 21.5392 2.46079C21.9143 2.83586 22.125 3.34457 22.125 3.875V13.875C22.125 14.4054 21.9143 14.9141 21.5392 15.2892C21.1641 15.6643 20.6554 15.875 20.125 15.875H17.9357L14.4053 19.4053C14.1908 19.6198 13.8682 19.684 13.588 19.5679C13.3077 19.4518 13.125 19.1783 13.125 18.875V15.875H11.375C10.9608 15.875 10.625 15.5392 10.625 15.125C10.625 14.7108 10.9608 14.375 11.375 14.375H13.875C14.2892 14.375 14.625 14.7108 14.625 15.125V17.0643L17.0947 14.5947C17.2353 14.454 17.4261 14.375 17.625 14.375H20.125C20.2576 14.375 20.3848 14.3223 20.4786 14.2286C20.5723 14.1348 20.625 14.0076 20.625 13.875V3.875C20.625 3.74239 20.5723 3.61522 20.4786 3.52145C20.3848 3.42768 20.2576 3.375 20.125 3.375H10.125C9.99239 3.375 9.86521 3.42768 9.77145 3.52145C9.67768 3.61521 9.625 3.74239 9.625 3.875C9.625 4.28921 9.28921 4.625 8.875 4.625C8.46079 4.625 8.125 4.28921 8.125 3.875C8.125 3.34457 8.33571 2.83586 8.71079 2.46079Z" fill="black"/>
<path fill-rule="evenodd" clip-rule="evenodd" d="M12.625 6.45703C13.0392 6.45703 13.375 6.79282 13.375 7.20703V11.2487H16.875V7.20703C16.875 6.79282 17.2108 6.45703 17.625 6.45703C18.0392 6.45703 18.375 6.79282 18.375 7.20703V11.3737C18.375 11.7384 18.2301 12.0881 17.9723 12.346C17.7144 12.6038 17.3647 12.7487 17 12.7487H13.25C12.8853 12.7487 12.5356 12.6038 12.2777 12.346C12.0199 12.0881 11.875 11.7384 11.875 11.3737V7.20703C11.875 6.79282 12.2108 6.45703 12.625 6.45703Z" fill="black"/>
<path fill-rule="evenodd" clip-rule="evenodd" d="M14.6449 4.54883C14.923 4.31706 15.327 4.31706 15.6052 4.54883L19.3552 7.67383C19.6734 7.93901 19.7164 8.41193 19.4512 8.73014C19.186 9.04835 18.7131 9.09134 18.3949 8.82617L15.125 6.10128L11.8552 8.82617C11.5369 9.09134 11.064 9.04835 10.7989 8.73014C10.5337 8.41193 10.5767 7.93901 10.8949 7.67383L14.6449 4.54883Z" fill="black"/>
</svg>
