<svg width="24" height="24" viewBox="0 0 24 24" fill="none" xmlns="http://www.w3.org/2000/svg">
<path d="M20.0003 6.83117C20.0052 6.45978 19.9352 6.09122 19.7943 5.74756C19.6534 5.4039 19.4445 5.09222 19.1803 4.83117C18.6423 4.31534 17.9257 4.02734 17.1803 4.02734C16.4349 4.02734 15.7184 4.31534 15.1803 4.83117L8.58032 11.4312H8.36032C7.22777 11.4616 6.15015 11.9257 5.34995 12.7278C4.54976 13.5299 4.08811 14.6086 4.06032 15.7412L4.00032 19.0012C3.99689 19.1361 4.02081 19.2704 4.07065 19.3958C4.12049 19.5213 4.19521 19.6354 4.29032 19.7312C4.485 19.9066 4.73826 20.0029 5.00032 20.0012L8.26032 19.9412C9.39294 19.9134 10.4716 19.4517 11.2737 18.6515C12.0758 17.8514 12.5399 16.7737 12.5703 15.6412V15.4112L19.1803 8.81118C19.443 8.55317 19.651 8.24486 19.7919 7.90467C19.9328 7.56448 20.0037 7.19937 20.0003 6.83117ZM8.25032 17.9412L6.00032 18.0012V15.7712C6.01082 15.1416 6.2683 14.5414 6.71726 14.0999C7.16621 13.6584 7.77067 13.4111 8.40032 13.4112C8.68606 13.4111 8.96895 13.468 9.23244 13.5786C9.49593 13.6891 9.73474 13.8511 9.93492 14.055C10.1351 14.2589 10.2926 14.5006 10.3983 14.7661C10.504 15.0316 10.5556 15.3155 10.5503 15.6012C10.5356 16.2103 10.2898 16.791 9.86265 17.2256C9.43553 17.6601 8.85912 17.916 8.25032 17.9412ZM17.7703 7.39117L11.9003 13.2612C11.7467 13.0325 11.5727 12.8183 11.3803 12.6212C11.1858 12.4259 10.9713 12.2516 10.7403 12.1012L16.6103 6.24117C16.7666 6.09202 16.9743 6.00879 17.1903 6.00879C17.4063 6.00879 17.6141 6.09202 17.7703 6.24117C17.8463 6.31903 17.9059 6.4114 17.9454 6.51277C17.9849 6.61414 18.0036 6.72243 18.0003 6.83117C18.0007 6.93506 17.9806 7.03799 17.9411 7.13408C17.9016 7.23017 17.8436 7.31754 17.7703 7.39117Z" fill="black"/>
</svg>
