<svg width="24" height="24" viewBox="0 0 24 24" fill="none" xmlns="http://www.w3.org/2000/svg">
<path fill-rule="evenodd" clip-rule="evenodd" d="M4.70833 10.875C4.68623 10.875 4.66504 10.8838 4.64941 10.8994C4.63378 10.915 4.625 10.9362 4.625 10.9583V20.625H11.875V10.9583C11.875 10.9362 11.8662 10.915 11.8506 10.8994C11.835 10.8838 11.8138 10.875 11.7917 10.875H4.70833ZM4.70833 9.375H11.7917C12.2116 9.375 12.6143 9.54182 12.9113 9.83875C13.2082 10.1357 13.375 10.5384 13.375 10.9583V21.375C13.375 21.7892 13.0392 22.125 12.625 22.125H3.875C3.46079 22.125 3.125 21.7892 3.125 21.375V10.9583C3.125 10.5384 3.29181 10.1357 3.58875 9.83875C3.88568 9.54182 4.28841 9.375 4.70833 9.375Z" fill="black"/>
<path fill-rule="evenodd" clip-rule="evenodd" d="M9.96079 2.46079C10.3359 2.08571 10.8446 1.875 11.375 1.875H18.875C19.4054 1.875 19.9141 2.08571 20.2892 2.46079C20.6643 2.83586 20.875 3.34457 20.875 3.875V21.375C20.875 21.7892 20.5392 22.125 20.125 22.125H15.125C14.7108 22.125 14.375 21.7892 14.375 21.375C14.375 20.9608 14.7108 20.625 15.125 20.625H19.375V3.875C19.375 3.74239 19.3223 3.61522 19.2286 3.52145C19.1348 3.42768 19.0076 3.375 18.875 3.375H11.375C11.2424 3.375 11.1152 3.42768 11.0214 3.52145C10.9277 3.61521 10.875 3.74239 10.875 3.875V6.875H11.375C11.7892 6.875 12.125 7.21079 12.125 7.625C12.125 8.03921 11.7892 8.375 11.375 8.375H10.125C9.71079 8.375 9.375 8.03921 9.375 7.625V3.875C9.375 3.34457 9.58571 2.83586 9.96079 2.46079Z" fill="black"/>
<path fill-rule="evenodd" clip-rule="evenodd" d="M1.875 21.375C1.875 20.9608 2.21079 20.625 2.625 20.625H3.875C4.28921 20.625 4.625 20.9608 4.625 21.375C4.625 21.7892 4.28921 22.125 3.875 22.125H2.625C2.21079 22.125 1.875 21.7892 1.875 21.375Z" fill="black"/>
<path fill-rule="evenodd" clip-rule="evenodd" d="M19.375 21.375C19.375 20.9608 19.7108 20.625 20.125 20.625H21.375C21.7892 20.625 22.125 20.9608 22.125 21.375C22.125 21.7892 21.7892 22.125 21.375 22.125H20.125C19.7108 22.125 19.375 21.7892 19.375 21.375Z" fill="black"/>
<path fill-rule="evenodd" clip-rule="evenodd" d="M9.375 5.125C9.375 4.71079 9.71079 4.375 10.125 4.375H13.875C14.2892 4.375 14.625 4.71079 14.625 5.125C14.625 5.53921 14.2892 5.875 13.875 5.875H10.125C9.71079 5.875 9.375 5.53921 9.375 5.125Z" fill="black"/>
<path fill-rule="evenodd" clip-rule="evenodd" d="M3.125 12.625C3.125 12.2108 3.46079 11.875 3.875 11.875H5.75C6.16421 11.875 6.5 12.2108 6.5 12.625C6.5 13.0392 6.16421 13.375 5.75 13.375H3.875C3.46079 13.375 3.125 13.0392 3.125 12.625Z" fill="black"/>
<path fill-rule="evenodd" clip-rule="evenodd" d="M7.625 18.375C7.49239 18.375 7.36522 18.4277 7.27145 18.5214C7.17768 18.6152 7.125 18.7424 7.125 18.875V20.625H8.125V18.875C8.125 18.7424 8.07232 18.6152 7.97855 18.5214C7.88478 18.4277 7.75761 18.375 7.625 18.375ZM6.21079 17.4608C6.58586 17.0857 7.09457 16.875 7.625 16.875C8.15543 16.875 8.66414 17.0857 9.03921 17.4608C9.41429 17.8359 9.625 18.3446 9.625 18.875V21.375C9.625 21.7892 9.28921 22.125 8.875 22.125H6.375C5.96079 22.125 5.625 21.7892 5.625 21.375V18.875C5.625 18.3446 5.83571 17.8359 6.21079 17.4608Z" fill="black"/>
<path fill-rule="evenodd" clip-rule="evenodd" d="M16.375 17.125C16.2424 17.125 16.1152 17.1777 16.0214 17.2714C15.9277 17.3652 15.875 17.4924 15.875 17.625V20.625H16.875V17.625C16.875 17.4924 16.8223 17.3652 16.7286 17.2714C16.6348 17.1777 16.5076 17.125 16.375 17.125ZM14.9608 16.2108C15.3359 15.8357 15.8446 15.625 16.375 15.625C16.9054 15.625 17.4141 15.8357 17.7892 16.2108C18.1643 16.5859 18.375 17.0946 18.375 17.625V21.375C18.375 21.7892 18.0392 22.125 17.625 22.125H15.125C14.7108 22.125 14.375 21.7892 14.375 21.375V17.625C14.375 17.0946 14.5857 16.5859 14.9608 16.2108Z" fill="black"/>
</svg>
