<svg width="24" height="24" viewBox="0 0 24 24" fill="none" xmlns="http://www.w3.org/2000/svg">
<path d="M21.5984 11.22L16.9984 7.52V5C17.0229 4.49494 16.8461 4.00078 16.5068 3.62587C16.1675 3.25095 15.6934 3.02588 15.1884 3H3.78839C3.28696 3.03096 2.81792 3.25823 2.48287 3.63258C2.14783 4.00693 1.97376 4.49822 1.99839 5V15C1.98911 15.3971 2.09829 15.788 2.312 16.1228C2.52572 16.4576 2.83429 16.7212 3.19839 16.88C3.01423 17.3305 2.94245 17.8191 2.98926 18.3036C3.03607 18.7881 3.20005 19.2539 3.46706 19.6609C3.73408 20.0678 4.0961 20.4037 4.52189 20.6395C4.94769 20.8753 5.42446 21.004 5.91108 21.0144C6.3977 21.0249 6.87956 20.9167 7.31506 20.6994C7.75056 20.482 8.12664 20.1619 8.41084 19.7668C8.69504 19.3717 8.87883 18.9133 8.94635 18.4313C9.01387 17.9492 8.96309 17.458 8.79839 17H15.1584C14.9939 17.4531 14.9411 17.9392 15.0043 18.4171C15.0676 18.895 15.245 19.3506 15.5217 19.7454C15.7984 20.1401 16.1661 20.4624 16.5937 20.6849C17.0214 20.9074 17.4963 21.0235 17.9784 21.0235C18.4604 21.0235 18.9354 20.9074 19.363 20.6849C19.7907 20.4624 20.1584 20.1401 20.4351 19.7454C20.7117 19.3506 20.8892 18.895 20.9525 18.4171C21.0157 17.9392 20.9629 17.4531 20.7984 17H20.9984C21.2636 17 21.518 16.8946 21.7055 16.7071C21.893 16.5196 21.9984 16.2652 21.9984 16V12C21.9953 11.8481 21.9577 11.699 21.8884 11.5638C21.8191 11.4287 21.7199 11.3111 21.5984 11.22ZM19.9984 12.48V15H16.9984V10.08L19.9984 12.48ZM6.99839 18C6.99839 18.1978 6.93974 18.3911 6.82986 18.5556C6.71998 18.72 6.5638 18.8482 6.38108 18.9239C6.19835 18.9996 5.99728 19.0194 5.8033 18.9808C5.60932 18.9422 5.43114 18.847 5.29129 18.7071C5.15143 18.5673 5.05619 18.3891 5.01761 18.1951C4.97902 18.0011 4.99883 17.8 5.07451 17.6173C5.1502 17.4346 5.27837 17.2784 5.44282 17.1685C5.60727 17.0586 5.80061 17 5.99839 17C6.26361 17 6.51796 17.1054 6.7055 17.2929C6.89303 17.4804 6.99839 17.7348 6.99839 18ZM11.9984 15H3.99839V5H14.9984V15H11.9984ZM18.9984 18C18.9984 18.1978 18.9397 18.3911 18.8299 18.5556C18.72 18.72 18.5638 18.8482 18.3811 18.9239C18.1983 18.9996 17.9973 19.0194 17.8033 18.9808C17.6093 18.9422 17.4311 18.847 17.2913 18.7071C17.1514 18.5673 17.0562 18.3891 17.0176 18.1951C16.979 18.0011 16.9988 17.8 17.0745 17.6173C17.1502 17.4346 17.2784 17.2784 17.4428 17.1685C17.6073 17.0586 17.8006 17 17.9984 17C18.2636 17 18.518 17.1054 18.7055 17.2929C18.893 17.4804 18.9984 17.7348 18.9984 18Z" fill="black"/>
</svg>
