<svg width="24" height="24" viewBox="0 0 24 24" fill="none" xmlns="http://www.w3.org/2000/svg">
<path d="M18.4012 3H5.60124C4.88857 3.02609 4.21517 3.33306 3.72804 3.85391C3.24091 4.37476 2.97963 5.06718 3.00124 5.78V7C3.00124 7.26522 3.1066 7.51957 3.29413 7.70711C3.48167 7.89464 3.73602 8 4.00124 8C4.26646 8 4.52081 7.89464 4.70835 7.70711C4.89588 7.51957 5.00124 7.26522 5.00124 7V5.78C4.9836 5.59812 5.03577 5.41634 5.14719 5.2715C5.2586 5.12666 5.42092 5.0296 5.60124 5H18.4012C18.5816 5.0296 18.7439 5.12666 18.8553 5.2715C18.9667 5.41634 19.0189 5.59812 19.0012 5.78V18.22C19.0189 18.4019 18.9667 18.5837 18.8553 18.7285C18.7439 18.8733 18.5816 18.9704 18.4012 19H17.0012C16.736 19 16.4817 19.1054 16.2941 19.2929C16.1066 19.4804 16.0012 19.7348 16.0012 20C16.0012 20.2652 16.1066 20.5196 16.2941 20.7071C16.4817 20.8946 16.736 21 17.0012 21H18.4012C19.1139 20.9739 19.7873 20.6669 20.2744 20.1461C20.7616 19.6252 21.0229 18.9328 21.0012 18.22V5.78C21.0229 5.06718 20.7616 4.37476 20.2744 3.85391C19.7873 3.33306 19.1139 3.02609 18.4012 3Z" fill="black"/>
<path d="M3.8603 14.0012C3.72546 14.018 3.59547 14.0622 3.47826 14.131C3.36106 14.1997 3.25911 14.2917 3.17863 14.4012C3.09815 14.5107 3.04082 14.6354 3.01016 14.7678C2.9795 14.9002 2.97614 15.0374 3.0003 15.1712C3.04212 15.432 3.18549 15.6658 3.3991 15.8213C3.6127 15.9768 3.87917 16.0415 4.1403 16.0012C4.52534 15.9473 4.91764 15.9844 5.28578 16.1094C5.65392 16.2345 5.98767 16.444 6.2603 16.7212C6.62586 17.0854 6.87079 17.553 6.962 18.0609C7.05321 18.5688 6.98629 19.0925 6.7703 19.5612C6.65763 19.8012 6.6449 20.0761 6.73491 20.3255C6.82492 20.5749 7.01031 20.7784 7.2503 20.8912C7.38269 20.9495 7.52562 20.9801 7.6703 20.9812C7.86156 20.9816 8.04895 20.9272 8.21024 20.8244C8.37154 20.7216 8.49996 20.5747 8.5803 20.4012C8.92718 19.6638 9.06828 18.8464 8.98866 18.0354C8.90904 17.2244 8.61166 16.45 8.128 15.7942C7.64433 15.1384 6.99237 14.6255 6.24111 14.3099C5.48984 13.9943 4.66722 13.8876 3.8603 14.0012Z" fill="black"/>
<path d="M3.86194 10.0796C3.59673 10.1167 3.35712 10.2577 3.19584 10.4715C3.03456 10.6853 2.96481 10.9544 3.00194 11.2196C3.03907 11.4848 3.18004 11.7244 3.39383 11.8857C3.60762 12.047 3.87673 12.1167 4.14194 12.0796C5.06489 11.9497 6.0054 12.0366 6.88891 12.3334C7.77242 12.6302 8.57463 13.1288 9.23194 13.7896C9.99952 14.5514 10.5469 15.5065 10.8162 16.5539C11.0856 17.6013 11.0668 18.702 10.7619 19.7396C10.7221 19.8669 10.7082 20.001 10.721 20.1338C10.7338 20.2666 10.773 20.3955 10.8364 20.5129C10.8997 20.6303 10.986 20.7339 11.09 20.8175C11.194 20.9011 11.3136 20.963 11.4419 20.9996C11.5347 21.0142 11.6292 21.0142 11.7219 20.9996C11.9451 21.0085 12.1648 20.9424 12.346 20.8119C12.5273 20.6814 12.6596 20.494 12.7219 20.2796C13.1055 18.9919 13.1585 17.6283 12.8761 16.3147C12.5937 15.0011 11.985 13.7798 11.1061 12.7634C10.2273 11.7471 9.10665 10.9685 7.84756 10.4994C6.58848 10.0304 5.23154 9.88598 3.90194 10.0796H3.86194Z" fill="black"/>
<path d="M4 20C4.55228 20 5 19.5523 5 19C5 18.4477 4.55228 18 4 18C3.44772 18 3 18.4477 3 19C3 19.5523 3.44772 20 4 20Z" fill="black"/>
</svg>
