<svg width="24" height="24" viewBox="0 0 24 24" fill="none" xmlns="http://www.w3.org/2000/svg">
<path d="M21 9C20.7348 9 20.4804 9.10536 20.2929 9.29289C20.1054 9.48043 20 9.73478 20 10V14C20 14.2652 20.1054 14.5196 20.2929 14.7071C20.4804 14.8946 20.7348 15 21 15C21.2652 15 21.5196 14.8946 21.7071 14.7071C21.8946 14.5196 22 14.2652 22 14V10C22 9.73478 21.8946 9.48043 21.7071 9.29289C21.5196 9.10536 21.2652 9 21 9Z" fill="black"/>
<path d="M15.8298 6H12.7298L11.5898 8H15.8198C15.8825 8.05166 15.9317 8.11782 15.963 8.19274C15.9944 8.26766 16.007 8.3491 15.9998 8.43V15.57C16.0066 15.6499 15.9948 15.7303 15.9653 15.8049C15.9358 15.8795 15.8894 15.9463 15.8298 16H12.9998L11.8498 18H15.8498C16.4557 17.9588 17.0209 17.6808 17.4233 17.226C17.8257 16.7712 18.0328 16.1763 17.9998 15.57V8.43C18.0326 7.82042 17.8228 7.22265 17.4162 6.76732C17.0096 6.31198 16.4392 6.03612 15.8298 6Z" fill="black"/>
<path d="M3.99958 15.57V8.43C3.99358 8.35014 4.00577 8.26996 4.03521 8.19548C4.06466 8.12101 4.11059 8.05417 4.16958 8H6.99958L8.12958 6H4.12958C3.52733 6.04616 2.96712 6.32636 2.56897 6.78058C2.17083 7.2348 1.96643 7.8269 1.99958 8.43V15.57C1.9668 16.1796 2.17664 16.7774 2.58325 17.2327C2.98987 17.688 3.56019 17.9639 4.16958 18H7.26958L8.40958 16H4.17958C4.1169 15.9483 4.06776 15.8822 4.0364 15.8073C4.00504 15.7323 3.9924 15.6509 3.99958 15.57Z" fill="black"/>
<path d="M9.00179 19.9995C8.82591 20.0002 8.65297 19.9545 8.50039 19.8671C8.34782 19.7796 8.22102 19.6534 8.13278 19.5013C8.04454 19.3491 7.99798 19.1764 7.99781 19.0005C7.99763 18.8247 8.04385 18.6519 8.13179 18.4995L11.2818 12.9995H7.00179C6.82727 12.9985 6.65607 12.9518 6.5052 12.8641C6.35433 12.7764 6.22904 12.6507 6.14179 12.4995C6.05402 12.3475 6.00781 12.1751 6.00781 11.9995C6.00781 11.824 6.05402 11.6516 6.14179 11.4995L10.1418 4.49954C10.2744 4.2688 10.4932 4.10019 10.7502 4.0308C11.0071 3.96142 11.281 3.99693 11.5118 4.12954C11.7425 4.26215 11.9111 4.48099 11.9805 4.73791C12.0499 4.99484 12.0144 5.2688 11.8818 5.49954L8.72179 10.9995H13.0018C13.1763 11.0006 13.3475 11.0473 13.4984 11.135C13.6492 11.2227 13.7745 11.3484 13.8618 11.4995C13.9496 11.6516 13.9958 11.824 13.9958 11.9995C13.9958 12.1751 13.9496 12.3475 13.8618 12.4995L9.86179 19.4995C9.77453 19.6507 9.64924 19.7763 9.49837 19.8641C9.3475 19.9518 9.1763 19.9985 9.00179 19.9995Z" fill="black"/>
</svg>
