<svg width="24" height="24" viewBox="0 0 24 24" fill="none" xmlns="http://www.w3.org/2000/svg">
<path d="M9.71019 11.2885C9.52188 11.1002 9.26649 10.9944 9.00019 10.9944C8.73388 10.9944 8.47849 11.1002 8.29019 11.2885C8.10188 11.4768 7.99609 11.7322 7.99609 11.9985C7.99609 12.2648 8.10188 12.5202 8.29019 12.7085L11.2902 15.7085C11.3836 15.8012 11.4944 15.8745 11.6163 15.9243C11.7381 15.9741 11.8686 15.9993 12.0002 15.9985C12.1371 15.9942 12.2716 15.9618 12.3955 15.9033C12.5193 15.8448 12.6299 15.7615 12.7202 15.6585L19.7202 7.65853C19.8818 7.45786 19.9597 7.20254 19.9377 6.94581C19.9157 6.68908 19.7955 6.45076 19.602 6.28054C19.4086 6.11031 19.1569 6.02133 18.8995 6.03213C18.642 6.04293 18.3987 6.1527 18.2202 6.33853L12.0002 13.5385L9.71019 11.2885Z" fill="black"/>
<path d="M20.9988 11C20.7336 11 20.4793 11.1054 20.2917 11.2929C20.1042 11.4804 19.9988 11.7348 19.9988 12C19.9988 14.1217 19.156 16.1566 17.6557 17.6569C16.1554 19.1571 14.1206 20 11.9988 20C10.4189 19.9993 8.8746 19.5308 7.5606 18.6535C6.2466 17.7763 5.22176 16.5297 4.61532 15.0708C4.00887 13.6119 3.84798 12.0061 4.15293 10.4559C4.45787 8.90569 5.215 7.48048 6.32884 6.36C7.06954 5.60938 7.95252 5.01404 8.92609 4.60881C9.89967 4.20358 10.9443 3.99661 11.9988 4C12.6383 4.004 13.2754 4.07777 13.8988 4.22C14.0293 4.26035 14.1667 4.27356 14.3024 4.2588C14.4382 4.24404 14.5695 4.20163 14.6882 4.13418C14.807 4.06673 14.9107 3.97567 14.9929 3.86662C15.0751 3.75757 15.1341 3.63284 15.1662 3.50011C15.1984 3.36739 15.203 3.22948 15.1798 3.0949C15.1566 2.96032 15.1061 2.83191 15.0314 2.71759C14.9567 2.60327 14.8594 2.50547 14.7454 2.43021C14.6315 2.35495 14.5033 2.30383 14.3688 2.28C13.592 2.09724 12.7969 2.00331 11.9988 2C10.0232 2.01026 8.09482 2.60552 6.45713 3.71065C4.81944 4.81578 3.54581 6.38126 2.79696 8.20953C2.0481 10.0378 1.8576 12.0469 2.24947 13.9834C2.64135 15.9198 3.59805 17.6968 4.99884 19.09C6.85553 20.9475 9.37249 21.9939 11.9988 22C14.651 22 17.1945 20.9464 19.0699 19.0711C20.9453 17.1957 21.9988 14.6522 21.9988 12C21.9988 11.7348 21.8935 11.4804 21.7059 11.2929C21.5184 11.1054 21.2641 11 20.9988 11Z" fill="black"/>
</svg>
