<svg width="24" height="24" viewBox="0 0 24 24" fill="none" xmlns="http://www.w3.org/2000/svg">
<path d="M18 3H6C5.20435 3 4.44129 3.31607 3.87868 3.87868C3.31607 4.44129 3 5.20435 3 6V18C3 18.7956 3.31607 19.5587 3.87868 20.1213C4.44129 20.6839 5.20435 21 6 21H18C18.7956 21 19.5587 20.6839 20.1213 20.1213C20.6839 19.5587 21 18.7956 21 18V6C21 5.20435 20.6839 4.44129 20.1213 3.87868C19.5587 3.31607 18.7956 3 18 3ZM19 18C19 18.2652 18.8946 18.5196 18.7071 18.7071C18.5196 18.8946 18.2652 19 18 19H6C5.73478 19 5.48043 18.8946 5.29289 18.7071C5.10536 18.5196 5 18.2652 5 18V6C5 5.73478 5.10536 5.48043 5.29289 5.29289C5.48043 5.10536 5.73478 5 6 5H18C18.2652 5 18.5196 5.10536 18.7071 5.29289C18.8946 5.48043 19 5.73478 19 6V18Z" fill="black"/>
<path d="M14.7012 8.38822L10.9212 13.3882L9.29117 11.2782C9.12806 11.0687 8.8884 10.9326 8.62491 10.8997C8.36142 10.8669 8.09569 10.9401 7.88617 11.1032C7.67664 11.2663 7.5405 11.506 7.50768 11.7695C7.47486 12.033 7.54806 12.2987 7.71117 12.5082L10.1412 15.6182C10.2353 15.7374 10.3554 15.8336 10.4923 15.8994C10.6292 15.9652 10.7793 15.999 10.9312 15.9982C11.0839 15.9979 11.2345 15.9625 11.3714 15.8949C11.5084 15.8273 11.628 15.7292 11.7212 15.6082L16.2912 9.60822C16.4529 9.39605 16.5238 9.1283 16.4882 8.86387C16.4526 8.59945 16.3133 8.36001 16.1012 8.19822C15.889 8.03644 15.6212 7.96557 15.3568 8.0012C15.0924 8.03683 14.8529 8.17605 14.6912 8.38822H14.7012Z" fill="black"/>
</svg>
