<svg width="24" height="24" viewBox="0 0 24 24" fill="none" xmlns="http://www.w3.org/2000/svg">
<path d="M16.0019 14.5015C15.8703 14.5022 15.7398 14.477 15.618 14.4273C15.4961 14.3775 15.3853 14.3042 15.2919 14.2115L12.0019 10.9015L8.70189 14.0815C8.51453 14.2677 8.26108 14.3723 7.99689 14.3723C7.73271 14.3723 7.47925 14.2677 7.29189 14.0815C7.19816 13.9885 7.12377 13.8779 7.073 13.7561C7.02223 13.6342 6.99609 13.5035 6.99609 13.3715C6.99609 13.2395 7.02223 13.1088 7.073 12.9869C7.12377 12.865 7.19816 12.7544 7.29189 12.6615L11.2919 8.80148C11.4788 8.61826 11.7301 8.51562 11.9919 8.51562C12.2536 8.51562 12.505 8.61826 12.6919 8.80148L16.6919 12.8015C16.7856 12.8944 16.86 13.005 16.9108 13.1269C16.9616 13.2488 16.9877 13.3795 16.9877 13.5115C16.9877 13.6435 16.9616 13.7742 16.9108 13.8961C16.86 14.0179 16.7856 14.1285 16.6919 14.2215C16.5065 14.4002 16.2594 14.5005 16.0019 14.5015Z" fill="black"/>
</svg>
