<svg width="24" height="24" viewBox="0 0 24 24" fill="none" xmlns="http://www.w3.org/2000/svg">
<path d="M10.5019 17.0002C10.3703 17.0009 10.2398 16.9757 10.118 16.9259C9.99615 16.8762 9.88533 16.8029 9.79189 16.7102C9.69816 16.6172 9.62377 16.5066 9.573 16.3848C9.52223 16.2629 9.49609 16.1322 9.49609 16.0002C9.49609 15.8682 9.52223 15.7375 9.573 15.6156C9.62377 15.4937 9.69816 15.3831 9.79189 15.2902L13.1019 12.0002L9.92189 8.69017C9.73564 8.50281 9.6311 8.24936 9.6311 7.98517C9.6311 7.72099 9.73564 7.46754 9.92189 7.28017C10.0149 7.18644 10.1255 7.11205 10.2473 7.06128C10.3692 7.01051 10.4999 6.98438 10.6319 6.98438C10.7639 6.98438 10.8946 7.01051 11.0165 7.06128C11.1383 7.11205 11.2489 7.18644 11.3419 7.28017L15.2019 11.2802C15.3851 11.4671 15.4877 11.7184 15.4877 11.9802C15.4877 12.2419 15.3851 12.4932 15.2019 12.6802L11.2019 16.6802C11.1121 16.7771 11.0041 16.8553 10.8839 16.9102C10.7638 16.9651 10.6339 16.9957 10.5019 17.0002Z" fill="#636363"/>
</svg>
