<svg width="24" height="24" viewBox="0 0 24 24" fill="none" xmlns="http://www.w3.org/2000/svg">
<path d="M13.362 17.0002C13.2272 16.9997 13.094 16.9719 12.9703 16.9187C12.8466 16.8654 12.7349 16.7877 12.642 16.6902L8.78195 12.6902C8.59872 12.5033 8.49609 12.2519 8.49609 11.9902C8.49609 11.7284 8.59872 11.4771 8.78195 11.2902L12.782 7.29019C12.8752 7.19695 12.9859 7.12299 13.1077 7.07253C13.2295 7.02207 13.3601 6.99609 13.492 6.99609C13.6238 6.99609 13.7544 7.02207 13.8762 7.07253C13.998 7.12299 14.1087 7.19695 14.202 7.29019C14.2952 7.38342 14.3692 7.49411 14.4196 7.61594C14.4701 7.73776 14.496 7.86833 14.496 8.00019C14.496 8.13204 14.4701 8.26261 14.4196 8.38444C14.3692 8.50626 14.2952 8.61695 14.202 8.71019L10.902 12.0002L14.082 15.3002C14.2682 15.4875 14.3727 15.741 14.3727 16.0052C14.3727 16.2694 14.2682 16.5228 14.082 16.7102C13.9873 16.8041 13.8749 16.8781 13.7512 16.9279C13.6276 16.9777 13.4952 17.0023 13.362 17.0002Z" fill="black"/>
</svg>
