<svg width="24" height="24" viewBox="0 0 24 24" fill="none" xmlns="http://www.w3.org/2000/svg">
<path d="M13.4119 12.0002L17.7119 7.71019C17.9002 7.52188 18.006 7.26649 18.006 7.00019C18.006 6.73388 17.9002 6.47849 17.7119 6.29019C17.5236 6.10188 17.2682 5.99609 17.0019 5.99609C16.7356 5.99609 16.4802 6.10188 16.2919 6.29019L12.0019 10.5902L7.71189 6.29019C7.52359 6.10188 7.26819 5.99609 7.00189 5.99609C6.73559 5.99609 6.4802 6.10188 6.29189 6.29019C6.10359 6.47849 5.9978 6.73388 5.9978 7.00019C5.9978 7.26649 6.10359 7.52188 6.29189 7.71019L10.5919 12.0002L6.29189 16.2902C6.19816 16.3831 6.12377 16.4937 6.073 16.6156C6.02223 16.7375 5.99609 16.8682 5.99609 17.0002C5.99609 17.1322 6.02223 17.2629 6.073 17.3848C6.12377 17.5066 6.19816 17.6172 6.29189 17.7102C6.38486 17.8039 6.49546 17.8783 6.61732 17.9291C6.73917 17.9798 6.86988 18.006 7.00189 18.006C7.1339 18.006 7.26461 17.9798 7.38647 17.9291C7.50833 17.8783 7.61893 17.8039 7.71189 17.7102L12.0019 13.4102L16.2919 17.7102C16.3849 17.8039 16.4955 17.8783 16.6173 17.9291C16.7392 17.9798 16.8699 18.006 17.0019 18.006C17.1339 18.006 17.2646 17.9798 17.3865 17.9291C17.5083 17.8783 17.6189 17.8039 17.7119 17.7102C17.8056 17.6172 17.88 17.5066 17.9308 17.3848C17.9816 17.2629 18.0077 17.1322 18.0077 17.0002C18.0077 16.8682 17.9816 16.7375 17.9308 16.6156C17.88 16.4937 17.8056 16.3831 17.7119 16.2902L13.4119 12.0002Z" fill="black"/>
</svg>
