<svg width="24" height="24" viewBox="0 0 24 24" fill="none" xmlns="http://www.w3.org/2000/svg">
<path d="M18 3H6C5.20435 3 4.44129 3.31607 3.87868 3.87868C3.31607 4.44129 3 5.20435 3 6V18C3 18.7956 3.31607 19.5587 3.87868 20.1213C4.44129 20.6839 5.20435 21 6 21H18C18.7956 21 19.5587 20.6839 20.1213 20.1213C20.6839 19.5587 21 18.7956 21 18V6C21 5.20435 20.6839 4.44129 20.1213 3.87868C19.5587 3.31607 18.7956 3 18 3ZM19 18C19 18.2652 18.8946 18.5196 18.7071 18.7071C18.5196 18.8946 18.2652 19 18 19H6C5.73478 19 5.48043 18.8946 5.29289 18.7071C5.10536 18.5196 5 18.2652 5 18V6C5 5.73478 5.10536 5.48043 5.29289 5.29289C5.48043 5.10536 5.73478 5 6 5H18C18.2652 5 18.5196 5.10536 18.7071 5.29289C18.8946 5.48043 19 5.73478 19 6V18Z" fill="black"/>
<path d="M14.7119 9.29189C14.6189 9.19816 14.5083 9.12377 14.3865 9.073C14.2646 9.02223 14.1339 8.99609 14.0019 8.99609C13.8699 8.99609 13.7392 9.02223 13.6173 9.073C13.4955 9.12377 13.3849 9.19816 13.2919 9.29189L12.0019 10.5919L10.7119 9.29189C10.5236 9.10359 10.2682 8.9978 10.0019 8.9978C9.73559 8.9978 9.4802 9.10359 9.29189 9.29189C9.10359 9.4802 8.9978 9.73559 8.9978 10.0019C8.9978 10.2682 9.10359 10.5236 9.29189 10.7119L10.5919 12.0019L9.29189 13.2919C9.19816 13.3849 9.12377 13.4955 9.073 13.6173C9.02223 13.7392 8.99609 13.8699 8.99609 14.0019C8.99609 14.1339 9.02223 14.2646 9.073 14.3865C9.12377 14.5083 9.19816 14.6189 9.29189 14.7119C9.38486 14.8056 9.49546 14.88 9.61732 14.9308C9.73917 14.9816 9.86988 15.0077 10.0019 15.0077C10.1339 15.0077 10.2646 14.9816 10.3865 14.9308C10.5083 14.88 10.6189 14.8056 10.7119 14.7119L12.0019 13.4119L13.2919 14.7119C13.3849 14.8056 13.4955 14.88 13.6173 14.9308C13.7392 14.9816 13.8699 15.0077 14.0019 15.0077C14.1339 15.0077 14.2646 14.9816 14.3865 14.9308C14.5083 14.88 14.6189 14.8056 14.7119 14.7119C14.8056 14.6189 14.88 14.5083 14.9308 14.3865C14.9816 14.2646 15.0077 14.1339 15.0077 14.0019C15.0077 13.8699 14.9816 13.7392 14.9308 13.6173C14.88 13.4955 14.8056 13.3849 14.7119 13.2919L13.4119 12.0019L14.7119 10.7119C14.8056 10.6189 14.88 10.5083 14.9308 10.3865C14.9816 10.2646 15.0077 10.1339 15.0077 10.0019C15.0077 9.86988 14.9816 9.73917 14.9308 9.61732C14.88 9.49546 14.8056 9.38486 14.7119 9.29189Z" fill="black"/>
</svg>
