<svg width="24" height="24" viewBox="0 0 24 24" fill="none" xmlns="http://www.w3.org/2000/svg">
<path d="M14.3102 16.38L13.0002 17.64V12C13.0002 11.7348 12.8948 11.4804 12.7073 11.2929C12.5198 11.1054 12.2654 11 12.0002 11C11.735 11 11.4806 11.1054 11.2931 11.2929C11.1055 11.4804 11.0002 11.7348 11.0002 12V17.59L9.71019 16.29C9.61695 16.1968 9.50626 16.1228 9.38444 16.0723C9.26261 16.0219 9.13204 15.9959 9.00019 15.9959C8.86833 15.9959 8.73776 16.0219 8.61594 16.0723C8.49411 16.1228 8.38342 16.1968 8.29019 16.29C8.19695 16.3832 8.12299 16.4939 8.07253 16.6158C8.02207 16.7376 7.99609 16.8681 7.99609 17C7.99609 17.1319 8.02207 17.2624 8.07253 17.3842C8.12299 17.5061 8.19695 17.6168 8.29019 17.71L11.2902 20.71C11.3836 20.8027 11.4944 20.876 11.6163 20.9258C11.7381 20.9755 11.8686 21.0008 12.0002 21C12.2577 20.999 12.5048 20.8987 12.6902 20.72L15.6902 17.82C15.7963 17.7324 15.8832 17.6239 15.9455 17.5013C16.0077 17.3786 16.044 17.2444 16.052 17.107C16.0601 16.9697 16.0397 16.8322 15.9921 16.7031C15.9446 16.574 15.8709 16.4561 15.7757 16.3568C15.6805 16.2575 15.5659 16.1788 15.4389 16.1259C15.312 16.0729 15.1754 16.0466 15.0379 16.0488C14.9003 16.051 14.7647 16.0815 14.6395 16.1385C14.5143 16.1955 14.4022 16.2777 14.3102 16.38Z" fill="black"/>
<path d="M17.6684 6.99852C17.2604 5.81957 16.495 4.79713 15.4788 4.07348C14.4625 3.34982 13.246 2.96094 11.9984 2.96094C10.7509 2.96094 9.53433 3.34982 8.5181 4.07348C7.50186 4.79713 6.73647 5.81957 6.32843 6.99852C5.42998 7.11885 4.58115 7.48117 3.87273 8.04671C3.16431 8.61225 2.62297 9.35973 2.3066 10.2092C1.99023 11.0587 1.91074 11.9782 2.07664 12.8693C2.24253 13.7605 2.64758 14.5898 3.24843 15.2685C3.32101 15.3964 3.42088 15.5066 3.54094 15.5915C3.66099 15.6763 3.79828 15.7336 3.94302 15.7594C4.08776 15.7851 4.23639 15.7786 4.37833 15.7403C4.52027 15.7021 4.65203 15.633 4.76423 15.538C4.87643 15.443 4.9663 15.3244 5.02745 15.1908C5.08859 15.0571 5.11952 14.9115 5.11801 14.7645C5.1165 14.6175 5.0826 14.4727 5.01872 14.3403C4.95484 14.2079 4.86255 14.0912 4.74843 13.9985C4.36155 13.566 4.10842 13.0305 4.01972 12.457C3.93102 11.8835 4.01056 11.2966 4.2487 10.7674C4.48685 10.2382 4.87337 9.78941 5.36142 9.47545C5.84948 9.16148 6.41812 8.99581 6.99843 8.99852H7.09843C7.33238 9.00323 7.56057 8.92576 7.74329 8.77959C7.92601 8.63341 8.05168 8.42779 8.09843 8.19852C8.28204 7.29428 8.77261 6.48134 9.48702 5.89741C10.2014 5.31349 11.0957 4.99451 12.0184 4.99451C12.9411 4.99451 13.8354 5.31349 14.5498 5.89741C15.2642 6.48134 15.7548 7.29428 15.9384 8.19852C15.9852 8.42779 16.1109 8.63341 16.2936 8.77959C16.4763 8.92576 16.7045 9.00323 16.9384 8.99852H16.9984C17.5787 8.99581 18.1474 9.16148 18.6354 9.47545C19.1235 9.78941 19.51 10.2382 19.7482 10.7674C19.9863 11.2966 20.0658 11.8835 19.9771 12.457C19.8884 13.0305 19.6353 13.566 19.2484 13.9985C19.1603 14.0973 19.0927 14.2126 19.0495 14.3377C19.0063 14.4628 18.9884 14.5952 18.9968 14.7273C19.0052 14.8594 19.0397 14.9885 19.0983 15.1072C19.157 15.2258 19.2386 15.3316 19.3384 15.4185C19.5207 15.5793 19.7554 15.6682 19.9984 15.6685C20.1404 15.6683 20.2807 15.6379 20.4101 15.5793C20.5394 15.5207 20.6547 15.4352 20.7484 15.3285C21.366 14.651 21.7853 13.8167 21.9607 12.9169C22.136 12.017 22.0606 11.0863 21.7427 10.2265C21.4247 9.36664 20.8765 8.61075 20.158 8.04145C19.4394 7.47215 18.5782 7.11136 17.6684 6.99852Z" fill="black"/>
</svg>
