<svg width="24" height="24" viewBox="0 0 24 24" fill="none" xmlns="http://www.w3.org/2000/svg">
<path d="M12.7089 11.2898C12.5219 11.1065 12.2706 11.0039 12.0089 11.0039C11.7471 11.0039 11.4958 11.1065 11.3089 11.2898L8.30886 14.1898C8.20275 14.2773 8.11584 14.3858 8.05358 14.5085C7.99132 14.6312 7.95504 14.7654 7.94702 14.9027C7.93899 15.0401 7.95938 15.1776 8.00693 15.3067C8.05447 15.4358 8.12814 15.5537 8.22332 15.653C8.31851 15.7523 8.43317 15.8309 8.56012 15.8839C8.68708 15.9369 8.8236 15.9631 8.96115 15.961C9.09871 15.9588 9.23433 15.9282 9.35954 15.8712C9.48476 15.8143 9.59686 15.7321 9.68886 15.6298L10.9989 14.3598V19.9998C10.9989 20.265 11.1042 20.5193 11.2917 20.7069C11.4793 20.8944 11.7336 20.9998 11.9989 20.9998C12.2641 20.9998 12.5184 20.8944 12.706 20.7069C12.8935 20.5193 12.9989 20.265 12.9989 19.9998V14.4098L14.2889 15.7098C14.3818 15.8035 14.4924 15.8779 14.6143 15.9287C14.7361 15.9794 14.8668 16.0056 14.9989 16.0056C15.1309 16.0056 15.2616 15.9794 15.3834 15.9287C15.5053 15.8779 15.6159 15.8035 15.7089 15.7098C15.8026 15.6168 15.877 15.5062 15.9277 15.3843C15.9785 15.2625 16.0047 15.1318 16.0047 14.9998C16.0047 14.8678 15.9785 14.737 15.9277 14.6152C15.877 14.4933 15.8026 14.3827 15.7089 14.2898L12.7089 11.2898Z" fill="black"/>
<path d="M17.6684 6.99852C17.2604 5.81957 16.495 4.79713 15.4788 4.07348C14.4625 3.34982 13.246 2.96094 11.9984 2.96094C10.7509 2.96094 9.53433 3.34982 8.5181 4.07348C7.50186 4.79713 6.73647 5.81957 6.32843 6.99852C5.42998 7.11885 4.58115 7.48117 3.87273 8.04671C3.16431 8.61225 2.62297 9.35973 2.3066 10.2092C1.99023 11.0587 1.91074 11.9782 2.07664 12.8693C2.24253 13.7605 2.64758 14.5898 3.24843 15.2685C3.32101 15.3964 3.42088 15.5066 3.54094 15.5915C3.66099 15.6763 3.79828 15.7336 3.94302 15.7594C4.08776 15.7851 4.23639 15.7786 4.37833 15.7403C4.52027 15.7021 4.65203 15.633 4.76423 15.538C4.87643 15.443 4.9663 15.3244 5.02745 15.1908C5.08859 15.0571 5.11952 14.9115 5.11801 14.7645C5.1165 14.6175 5.0826 14.4727 5.01872 14.3403C4.95484 14.2079 4.86255 14.0912 4.74843 13.9985C4.36155 13.566 4.10842 13.0305 4.01972 12.457C3.93102 11.8835 4.01056 11.2966 4.2487 10.7674C4.48685 10.2382 4.87337 9.78941 5.36142 9.47545C5.84948 9.16148 6.41812 8.99581 6.99843 8.99852H7.09843C7.33238 9.00323 7.56057 8.92576 7.74329 8.77959C7.92601 8.63341 8.05168 8.42779 8.09843 8.19852C8.28204 7.29428 8.77261 6.48134 9.48702 5.89741C10.2014 5.31349 11.0957 4.99451 12.0184 4.99451C12.9411 4.99451 13.8354 5.31349 14.5498 5.89741C15.2642 6.48134 15.7548 7.29428 15.9384 8.19852C15.9852 8.42779 16.1109 8.63341 16.2936 8.77959C16.4763 8.92576 16.7045 9.00323 16.9384 8.99852H16.9984C17.5787 8.99581 18.1474 9.16148 18.6354 9.47545C19.1235 9.78941 19.51 10.2382 19.7482 10.7674C19.9863 11.2966 20.0658 11.8835 19.9771 12.457C19.8884 13.0305 19.6353 13.566 19.2484 13.9985C19.1603 14.0973 19.0927 14.2126 19.0495 14.3377C19.0063 14.4628 18.9884 14.5952 18.9968 14.7273C19.0052 14.8594 19.0397 14.9885 19.0983 15.1072C19.157 15.2258 19.2386 15.3316 19.3384 15.4185C19.5207 15.5793 19.7554 15.6682 19.9984 15.6685C20.1404 15.6683 20.2807 15.6379 20.4101 15.5793C20.5394 15.5207 20.6547 15.4352 20.7484 15.3285C21.366 14.651 21.7853 13.8167 21.9607 12.9169C22.136 12.017 22.0606 11.0863 21.7427 10.2265C21.4247 9.36664 20.8765 8.61075 20.158 8.04145C19.4394 7.47215 18.5782 7.11136 17.6684 6.99852Z" fill="black"/>
</svg>
