<svg width="24" height="24" viewBox="0 0 24 24" fill="none" xmlns="http://www.w3.org/2000/svg">
<path d="M8.64139 5.23176C8.54035 5.14756 8.42368 5.08412 8.29808 5.04507C8.17247 5.00603 8.0404 4.99215 7.90942 5.00422C7.77845 5.0163 7.65114 5.0541 7.53479 5.11545C7.41844 5.1768 7.31534 5.2605 7.23139 5.36176L2.23139 11.3618C2.08431 11.5407 2.00391 11.7651 2.00391 11.9968C2.00391 12.2284 2.08431 12.4528 2.23139 12.6318L7.06139 18.6318C7.15551 18.7478 7.27443 18.8412 7.40941 18.9053C7.54439 18.9693 7.692 19.0023 7.84139 19.0018C8.03063 19.0024 8.21616 18.9493 8.37644 18.8487C8.53672 18.7481 8.66516 18.6041 8.74684 18.4334C8.82853 18.2627 8.8601 18.0723 8.83789 17.8844C8.81569 17.6965 8.74061 17.5187 8.62139 17.3718L4.29139 12.0018L8.77139 6.64176C8.8556 6.54071 8.91904 6.42405 8.95808 6.29844C8.99712 6.17284 9.01101 6.04077 8.99893 5.90979C8.98686 5.77881 8.94906 5.6515 8.88771 5.53516C8.82635 5.41881 8.74265 5.31571 8.64139 5.23176Z" fill="black"/>
<path d="M21.7818 11.3698L17.0018 5.36982C16.9192 5.26709 16.8172 5.18169 16.7016 5.11852C16.586 5.05534 16.459 5.01564 16.3279 5.0017C16.1969 4.98777 16.0644 4.99986 15.9381 5.03729C15.8117 5.07472 15.694 5.13675 15.5918 5.21982C15.489 5.30234 15.4036 5.40435 15.3405 5.51999C15.2773 5.63563 15.2376 5.76261 15.2236 5.89364C15.2097 6.02467 15.2218 6.15716 15.2592 6.2835C15.2967 6.40984 15.3587 6.52753 15.4418 6.62982L19.7118 11.9998L15.2318 17.3698C15.1476 17.4709 15.0841 17.5875 15.0451 17.7131C15.006 17.8387 14.9921 17.9708 15.0042 18.1018C15.0163 18.2328 15.0541 18.3601 15.1154 18.4764C15.1768 18.5928 15.2605 18.6959 15.3618 18.7798C15.543 18.9253 15.7693 19.0031 16.0018 18.9998C16.1487 19.0001 16.2938 18.9679 16.4269 18.9057C16.56 18.8435 16.6777 18.7527 16.7718 18.6398L21.7718 12.6398C21.9203 12.462 22.0024 12.2382 22.0043 12.0066C22.0061 11.775 21.9274 11.5499 21.7818 11.3698Z" fill="black"/>
</svg>
