<svg width="24" height="24" viewBox="0 0 24 24" fill="none" xmlns="http://www.w3.org/2000/svg">
<path d="M4.29139 12.0012L8.77139 6.64125C8.85544 6.54013 8.91875 6.42345 8.9577 6.29787C8.99665 6.17228 9.01049 6.04026 8.99841 5.90933C8.98634 5.7784 8.9486 5.65112 8.88734 5.53478C8.82609 5.41844 8.74251 5.3153 8.64139 5.23125C8.54028 5.1472 8.42359 5.0839 8.29801 5.04494C8.17243 5.00599 8.0404 4.99216 7.90947 5.00423C7.77854 5.0163 7.65127 5.05404 7.53492 5.1153C7.41858 5.17656 7.31544 5.26013 7.23139 5.36125L2.23139 11.3612C2.08431 11.5402 2.00391 11.7646 2.00391 11.9962C2.00391 12.2279 2.08431 12.4523 2.23139 12.6312L7.06139 18.6312C7.15551 18.7473 7.27443 18.8407 7.40941 18.9048C7.54439 18.9688 7.692 19.0018 7.84139 19.0012C8.03063 19.0019 8.21616 18.9488 8.37644 18.8482C8.53672 18.7476 8.66516 18.6036 8.74684 18.4329C8.82853 18.2622 8.8601 18.0718 8.83789 17.8839C8.81569 17.696 8.74061 17.5182 8.62139 17.3713L4.29139 12.0012Z" fill="black"/>
<path d="M21.7818 11.3687L17.0018 5.36874C16.8347 5.16187 16.5923 5.02985 16.3278 5.00172C16.0634 4.97359 15.7986 5.05166 15.5918 5.21874C15.3849 5.38583 15.2529 5.62825 15.2247 5.89268C15.1966 6.1571 15.2747 6.42188 15.4418 6.62874L19.7118 11.9987L15.2318 17.3687C15.1476 17.4698 15.0841 17.5865 15.0451 17.7121C15.006 17.8377 14.9921 17.9697 15.0042 18.1007C15.0163 18.2317 15.0541 18.359 15.1154 18.4753C15.1768 18.5917 15.2605 18.6948 15.3618 18.7787C15.543 18.9242 15.7693 19.002 16.0018 18.9987C16.1487 18.999 16.2938 18.9668 16.4269 18.9046C16.56 18.8424 16.6777 18.7516 16.7718 18.6387L21.7718 12.6387C21.9203 12.461 22.0024 12.2372 22.0043 12.0055C22.0061 11.7739 21.9274 11.5488 21.7818 11.3687Z" fill="black"/>
<path d="M15.7202 11.41C15.5328 11.2237 15.2794 11.1192 15.0152 11.1192C14.751 11.1192 14.4975 11.2237 14.3102 11.41L13.0002 12.64V8C13.0002 7.73478 12.8948 7.48043 12.7073 7.29289C12.5198 7.10536 12.2654 7 12.0002 7C11.735 7 11.4806 7.10536 11.2931 7.29289C11.1055 7.48043 11.0002 7.73478 11.0002 8V12.59L9.71019 11.29C9.52188 11.1017 9.26649 10.9959 9.00019 10.9959C8.73388 10.9959 8.47849 11.1017 8.29019 11.29C8.10188 11.4783 7.99609 11.7337 7.99609 12C7.99609 12.2663 8.10188 12.5217 8.29019 12.71L11.2902 15.71C11.3836 15.8027 11.4944 15.876 11.6163 15.9258C11.7381 15.9755 11.8686 16.0008 12.0002 16C12.2577 15.999 12.5048 15.8987 12.6902 15.72L15.6902 12.82C15.8805 12.6366 15.9904 12.3854 15.9961 12.1212C16.0017 11.857 15.9025 11.6013 15.7202 11.41Z" fill="black"/>
</svg>
