<svg width="24" height="24" viewBox="0 0 24 24" fill="none" xmlns="http://www.w3.org/2000/svg">
<path d="M19 9.00019H16.42L19.71 5.71019C19.8983 5.52188 20.0041 5.26649 20.0041 5.00019C20.0041 4.73388 19.8983 4.47849 19.71 4.29019C19.5217 4.10188 19.2663 3.99609 19 3.99609C18.7337 3.99609 18.4783 4.10188 18.29 4.29019L15 7.57019V5.00019C15 4.73497 14.8946 4.48062 14.7071 4.29308C14.5196 4.10554 14.2652 4.00019 14 4.00019C13.7348 4.00019 13.4804 4.10554 13.2929 4.29308C13.1054 4.48062 13 4.73497 13 5.00019V10.0002C13 10.2654 13.1054 10.5198 13.2929 10.7073C13.4804 10.8948 13.7348 11.0002 14 11.0002H19C19.2652 11.0002 19.5196 10.8948 19.7071 10.7073C19.8946 10.5198 20 10.2654 20 10.0002C20 9.73497 19.8946 9.48062 19.7071 9.29308C19.5196 9.10554 19.2652 9.00019 19 9.00019Z" fill="black"/>
<path d="M10.0019 13H5.00189C4.73668 13 4.48232 13.1054 4.29479 13.2929C4.10725 13.4804 4.00189 13.7348 4.00189 14C4.00189 14.2652 4.10725 14.5196 4.29479 14.7071C4.48232 14.8946 4.73668 15 5.00189 15H7.57189L4.29189 18.29C4.19816 18.383 4.12377 18.4936 4.073 18.6154C4.02223 18.7373 3.99609 18.868 3.99609 19C3.99609 19.132 4.02223 19.2627 4.073 19.3846C4.12377 19.5064 4.19816 19.617 4.29189 19.71C4.38486 19.8037 4.49546 19.8781 4.61732 19.9289C4.73917 19.9797 4.86988 20.0058 5.00189 20.0058C5.1339 20.0058 5.26461 19.9797 5.38647 19.9289C5.50833 19.8781 5.61893 19.8037 5.71189 19.71L9.00189 16.42V19C9.00189 19.2652 9.10725 19.5196 9.29479 19.7071C9.48232 19.8946 9.73668 20 10.0019 20C10.2671 20 10.5215 19.8946 10.709 19.7071C10.8965 19.5196 11.0019 19.2652 11.0019 19V14C11.0019 13.7348 10.8965 13.4804 10.709 13.2929C10.5215 13.1054 10.2671 13 10.0019 13Z" fill="black"/>
</svg>
