<svg width="24" height="24" viewBox="0 0 24 24" fill="none" xmlns="http://www.w3.org/2000/svg">
<path d="M19.5418 5.08112C18.5391 4.08554 17.3477 3.30026 16.0375 2.77136C14.7272 2.24246 13.3246 1.98059 11.9117 2.00112C9.25958 1.99449 6.71341 3.0417 4.83336 4.91237C2.95331 6.78305 1.89338 9.32396 1.88675 11.9761C1.88012 14.6283 2.92733 17.1745 4.798 19.0545C6.66868 20.9346 9.20958 21.9945 11.8617 22.0011C12.4332 22.0108 12.9918 21.8305 13.4497 21.4884C13.9076 21.1464 14.239 20.6619 14.3918 20.1111C14.4891 19.7134 14.4881 19.2979 14.3888 18.9006C14.2895 18.5033 14.0949 18.1362 13.8217 17.8311C13.7586 17.7593 13.7174 17.6708 13.703 17.5762C13.6887 17.4816 13.7017 17.3849 13.7407 17.2975C13.7796 17.2101 13.8428 17.1358 13.9228 17.0832C14.0027 17.0307 14.0961 17.0022 14.1917 17.0011H15.8418C17.3947 17.0084 18.8929 16.4279 20.0355 15.3761C21.1781 14.3244 21.8806 12.8794 22.0018 11.3311C22.039 10.1767 21.8399 9.02691 21.4169 7.95218C20.9939 6.87745 20.3558 5.90045 19.5418 5.08112ZM15.8818 15.0011H14.2317C13.7499 14.9984 13.2776 15.1355 12.8721 15.3959C12.4666 15.6563 12.1454 16.0288 11.9475 16.4681C11.7495 16.9075 11.6833 17.3948 11.7568 17.8711C11.8303 18.3473 12.0405 18.792 12.3617 19.1511C12.4243 19.2142 12.4685 19.2932 12.4897 19.3795C12.5108 19.4658 12.5081 19.5562 12.4817 19.6411C12.4317 19.8511 12.2018 19.9811 11.8918 20.0011C10.7561 19.9866 9.63651 19.7304 8.60754 19.2495C7.57856 18.7687 6.66376 18.0743 5.92399 17.2125C5.18422 16.3507 4.63643 15.3412 4.31706 14.2513C3.99769 13.1613 3.91407 12.0159 4.07175 10.8911C4.35692 9.00107 5.3013 7.27275 6.73789 6.01186C8.17447 4.75096 10.0107 4.03872 11.9218 4.00112H12.0017C13.1326 3.98631 14.255 4.19813 15.3026 4.62406C16.3503 5.05 17.302 5.68143 18.1018 6.48112C18.7258 7.10552 19.216 7.85047 19.5427 8.67056C19.8694 9.49065 20.0256 10.3687 20.0018 11.2511C19.8982 12.2742 19.4203 13.2229 18.6599 13.9151C17.8994 14.6072 16.91 14.994 15.8818 15.0011Z" fill="black"/>
<path d="M12 8C12.8284 8 13.5 7.32843 13.5 6.5C13.5 5.67157 12.8284 5 12 5C11.1716 5 10.5 5.67157 10.5 6.5C10.5 7.32843 11.1716 8 12 8Z" fill="black"/>
<path d="M15.2497 7.20114C14.9929 7.3495 14.7858 7.57067 14.6546 7.8367C14.5235 8.10272 14.4741 8.40166 14.5128 8.69573C14.5515 8.98979 14.6765 9.26578 14.8721 9.48881C15.0676 9.71185 15.3248 9.87191 15.6113 9.94876C15.8978 10.0256 16.2006 10.0158 16.4815 9.92062C16.7624 9.82541 17.0088 9.64906 17.1895 9.41385C17.3702 9.17865 17.4771 8.89516 17.4967 8.59921C17.5163 8.30326 17.4478 8.00813 17.2997 7.75114C17.2013 7.58034 17.0702 7.43061 16.9139 7.31052C16.7575 7.19042 16.5791 7.10232 16.3887 7.05124C16.1983 7.00016 15.9997 6.9871 15.8043 7.01282C15.6088 7.03855 15.4204 7.10254 15.2497 7.20114Z" fill="black"/>
<path d="M8.74886 7.20031C8.49187 7.05223 8.19674 6.98367 7.90079 7.00329C7.60484 7.0229 7.32135 7.12982 7.08615 7.31052C6.85095 7.49122 6.67459 7.73759 6.57938 8.01849C6.48417 8.2994 6.47438 8.60222 6.55124 8.88869C6.62809 9.17516 6.78815 9.43242 7.01119 9.62794C7.23422 9.82346 7.51021 9.94847 7.80427 9.98718C8.09834 10.0259 8.39728 9.97653 8.6633 9.84537C8.92933 9.71422 9.1505 9.50714 9.29886 9.25031C9.39746 9.07962 9.46145 8.89116 9.48718 8.69573C9.5129 8.50029 9.49984 8.3017 9.44876 8.11131C9.39768 7.92092 9.30958 7.74246 9.18948 7.58615C9.06939 7.42983 8.91966 7.29872 8.74886 7.20031Z" fill="black"/>
<path d="M6.16061 11.2608C5.91457 11.4269 5.72337 11.6623 5.6112 11.9371C5.49903 12.212 5.47094 12.514 5.53049 12.8048C5.59003 13.0956 5.73454 13.3622 5.94571 13.5709C6.15687 13.7796 6.42521 13.9209 6.71673 13.9769C7.00825 14.033 7.30986 14.0013 7.58335 13.8858C7.85685 13.7704 8.08994 13.5764 8.2531 13.3284C8.41627 13.0804 8.50218 12.7895 8.49996 12.4927C8.49773 12.1958 8.40747 11.9063 8.24061 11.6608C8.13098 11.4971 7.99 11.3568 7.82581 11.248C7.66162 11.1392 7.47749 11.064 7.28406 11.0268C7.09063 10.9896 6.89174 10.9911 6.69891 11.0313C6.50607 11.0715 6.32311 11.1494 6.16061 11.2608Z" fill="black"/>
</svg>
