<svg width="24" height="24" viewBox="0 0 24 24" fill="none" xmlns="http://www.w3.org/2000/svg">
<path d="M19.4003 7.33853L16.6603 4.59853C16.3118 4.24551 15.8403 4.04106 15.3444 4.02801C14.8485 4.01496 14.3669 4.19433 14.0003 4.52853L12.0003 6.52853L10.7103 5.28853C10.6171 5.19529 10.5064 5.12133 10.3845 5.07087C10.2627 5.02041 10.1322 4.99444 10.0003 4.99444C9.73399 4.99444 9.4786 5.10022 9.2903 5.28853C9.19706 5.38177 9.1231 5.49246 9.07264 5.61428C9.02218 5.7361 8.99621 5.86667 8.99621 5.99853C8.99621 6.26483 9.10199 6.52022 9.2903 6.70853L10.5303 7.99853L5.0003 13.5285C4.67706 13.8545 4.4758 14.2817 4.4303 14.7385L4.0003 18.9085C3.98683 19.055 4.00583 19.2026 4.05596 19.3409C4.10608 19.4792 4.1861 19.6047 4.2903 19.7085C4.38374 19.8012 4.49455 19.8745 4.61639 19.9243C4.73823 19.9741 4.86869 19.9993 5.0003 19.9985H5.0903L9.2603 19.6185C9.71709 19.573 10.1443 19.3718 10.4703 19.0485L16.0503 13.4685L17.2903 14.7085C17.3833 14.8023 17.4939 14.8766 17.6157 14.9274C17.7376 14.9782 17.8683 15.0043 18.0003 15.0043C18.1323 15.0043 18.263 14.9782 18.3849 14.9274C18.5067 14.8766 18.6173 14.8023 18.7103 14.7085C18.804 14.6156 18.8784 14.505 18.9292 14.3831C18.98 14.2612 19.0061 14.1305 19.0061 13.9985C19.0061 13.8665 18.98 13.7358 18.9292 13.614C18.8784 13.4921 18.804 13.3815 18.7103 13.2885L17.4703 12.0485L19.4703 10.0485C19.8196 9.67949 20.0084 9.18704 19.9953 8.67906C19.9822 8.17109 19.7682 7.68903 19.4003 7.33853ZM9.0803 17.6185L6.0803 17.8985L6.3503 14.8985L12.0003 9.35853L14.6903 12.0585L9.0803 17.6185ZM16.0803 10.6185L13.3603 7.99853L15.2703 5.99853L18.0003 8.72853L16.0803 10.6185Z" fill="black"/>
</svg>
