<svg width="24" height="24" viewBox="0 0 24 24" fill="none" xmlns="http://www.w3.org/2000/svg">
<path d="M15.9993 10H7.0793L9.7793 6.62002C9.87436 6.51932 9.94746 6.39998 9.99398 6.26955C10.0405 6.13913 10.0594 6.00046 10.0496 5.86234C10.0397 5.72422 10.0012 5.58965 9.93666 5.46716C9.87207 5.34467 9.78275 5.23694 9.67435 5.15077C9.56595 5.06461 9.44083 5.00189 9.30693 4.96661C9.17303 4.93132 9.03326 4.92423 8.89647 4.94578C8.75968 4.96733 8.62886 5.01706 8.5123 5.0918C8.39573 5.16655 8.29596 5.2647 8.2193 5.38002L4.2193 10.38C4.0798 10.5566 4.00391 10.775 4.00391 11C4.00391 11.225 4.0798 11.4435 4.2193 11.62L8.2193 16.62C8.31243 16.7379 8.43091 16.8332 8.56595 16.899C8.70098 16.9648 8.8491 16.9993 8.9993 17C9.22487 16.9987 9.44337 16.9212 9.6193 16.78C9.82535 16.615 9.95781 16.3752 9.98778 16.113C10.0178 15.8507 9.94281 15.5872 9.7793 15.38L7.0793 12H15.9993C16.2645 12 16.5189 12.1054 16.7064 12.2929C16.8939 12.4804 16.9993 12.7348 16.9993 13V18C16.9993 18.2652 17.1047 18.5196 17.2922 18.7071C17.4797 18.8947 17.7341 19 17.9993 19C18.2645 19 18.5189 18.8947 18.7064 18.7071C18.8939 18.5196 18.9993 18.2652 18.9993 18V13C18.9993 12.2044 18.6832 11.4413 18.1206 10.8787C17.558 10.3161 16.795 10 15.9993 10Z" fill="black"/>
</svg>
