<svg width="24" height="24" viewBox="0 0 24 24" fill="none" xmlns="http://www.w3.org/2000/svg">
<path d="M18.62 8.2193L13.62 4.2193C13.4435 4.0798 13.225 4.00391 13 4.00391C12.775 4.00391 12.5565 4.0798 12.38 4.2193L7.38 8.2193C7.19782 8.39127 7.08682 8.62536 7.06897 8.87525C7.05112 9.12514 7.12771 9.37263 7.2836 9.56875C7.43949 9.76487 7.66332 9.89533 7.91079 9.93432C8.15827 9.97331 8.41136 9.91799 8.62 9.7793L12 7.0793V15.9993C12 16.2645 11.8946 16.5189 11.7071 16.7064C11.5196 16.8939 11.2652 16.9993 11 16.9993H6C5.73478 16.9993 5.48043 17.1047 5.29289 17.2922C5.10536 17.4797 5 17.7341 5 17.9993C5 18.2645 5.10536 18.5189 5.29289 18.7064C5.48043 18.8939 5.73478 18.9993 6 18.9993H11C11.7956 18.9993 12.5587 18.6832 13.1213 18.1206C13.6839 17.558 14 16.795 14 15.9993V7.0793L17.38 9.7793C17.5559 9.92046 17.7744 9.998 18 9.9993C18.1502 9.99861 18.2983 9.96409 18.4334 9.8983C18.5684 9.83252 18.6869 9.73716 18.78 9.6193C18.9435 9.41207 19.0184 9.1486 18.9885 8.88634C18.9585 8.62407 18.826 8.3843 18.62 8.2193Z" fill="black"/>
</svg>
