<svg width="25" height="25" viewBox="0 0 25 25" fill="none" xmlns="http://www.w3.org/2000/svg">
<g clip-path="url(#clip0)">
<path d="M20.0006 6C20.0006 5.73478 19.8953 5.48043 19.7077 5.29289C19.5202 5.10536 19.2658 5 19.0006 5C18.7354 5 18.4811 5.10536 18.2935 5.29289C18.106 5.48043 18.0006 5.73478 18.0006 6V11C18.0014 11.1316 17.9762 11.2621 17.9264 11.3839C17.8766 11.5057 17.8033 11.6166 17.7106 11.71C17.6172 11.8027 17.5064 11.876 17.3845 11.9258C17.2627 11.9755 17.1322 12.0008 17.0006 12H8.08063L10.7706 8.61C10.8485 8.40871 10.8591 8.18765 10.8009 7.97983C10.7427 7.77201 10.6189 7.58858 10.4479 7.45695C10.2769 7.32531 10.0679 7.25253 9.85207 7.24948C9.63628 7.24642 9.4253 7.31326 9.25063 7.44L5.25063 12.44C5.10862 12.6174 5.03125 12.8378 5.03125 13.065C5.03125 13.2922 5.10862 13.5126 5.25063 13.69L9.25063 18.69C9.34474 18.806 9.46366 18.8995 9.59864 18.9635C9.73362 19.0275 9.88123 19.0605 10.0306 19.06C10.2562 19.0587 10.4747 18.9812 10.6506 18.84C10.7534 18.7575 10.8388 18.6555 10.9019 18.5398C10.9651 18.4242 11.0048 18.2972 11.0187 18.1662C11.0327 18.0352 11.0206 17.9027 10.9832 17.7763C10.9457 17.65 10.8837 17.5323 10.8006 17.43L8.14063 14.07H17.0606C17.8563 14.07 18.6193 13.7539 19.1819 13.1913C19.7446 12.6287 20.0606 11.8656 20.0606 11.07L20.0006 6Z" fill="black"/>
</g>
<defs>
<clipPath id="clip0">
<rect width="24.1" height="24.1" fill="white"/>
</clipPath>
</defs>
</svg>
