<svg width="24" height="24" viewBox="0 0 24 24" fill="none" xmlns="http://www.w3.org/2000/svg">
<path d="M18 16.9993H13C12.7348 16.9993 12.4804 16.8939 12.2929 16.7064C12.1053 16.5189 12 16.2645 12 15.9993V7.0793L15.38 9.7793C15.5559 9.92046 15.7744 9.998 16 9.9993C16.1502 9.99861 16.2983 9.96409 16.4333 9.8983C16.5684 9.83252 16.6869 9.73716 16.78 9.6193C16.9435 9.41207 17.0184 9.1486 16.9885 8.88634C16.9585 8.62407 16.826 8.3843 16.62 8.2193L11.62 4.2193C11.4434 4.0798 11.225 4.00391 11 4.00391C10.775 4.00391 10.5565 4.0798 10.38 4.2193L5.37998 8.2193C5.1978 8.39127 5.0868 8.62536 5.06895 8.87525C5.0511 9.12514 5.1277 9.37263 5.28358 9.56875C5.43947 9.76487 5.6633 9.89533 5.91077 9.93432C6.15825 9.97331 6.41134 9.91799 6.61998 9.7793L9.99998 7.0793V15.9993C9.99998 16.795 10.3161 17.558 10.8787 18.1206C11.4413 18.6832 12.2043 18.9993 13 18.9993H18C18.2652 18.9993 18.5196 18.8939 18.7071 18.7064C18.8946 18.5189 19 18.2645 19 17.9993C19 17.7341 18.8946 17.4797 18.7071 17.2922C18.5196 17.1047 18.2652 16.9993 18 16.9993Z" fill="black"/>
</svg>
