<svg width="24" height="24" viewBox="0 0 24 24" fill="none" xmlns="http://www.w3.org/2000/svg">
<path d="M20.66 7.26128C20.66 7.19128 20.56 7.12128 20.51 7.05128L20.42 6.95128C20.1872 6.66377 19.8934 6.43152 19.56 6.27128L13.16 3.27128C12.8057 3.10799 12.4201 3.02344 12.03 3.02344C11.6399 3.02344 11.2543 3.10799 10.9 3.27128L4.5 6.27128C4.16826 6.43424 3.87507 6.66606 3.64 6.95128L3.52 7.00128C3.46183 7.0614 3.41144 7.1286 3.37 7.20127C3.13144 7.57849 3.00326 8.01497 3 8.46128V15.5213C3.00134 15.9983 3.13964 16.4648 3.39847 16.8655C3.65729 17.2661 4.02574 17.584 4.46 17.7813L10.86 20.7813C11.2157 20.9461 11.603 21.0314 11.995 21.0314C12.387 21.0314 12.7743 20.9461 13.13 20.7813L19.53 17.7813C19.9631 17.5869 20.3315 17.2727 20.592 16.8758C20.8524 16.479 20.994 16.0159 21 15.5413V8.46128C20.9949 8.03823 20.8775 7.62413 20.66 7.26128ZM11.71 5.06128C11.8015 5.02165 11.9002 5.0012 12 5.0012C12.0998 5.0012 12.1985 5.02165 12.29 5.06128L17.62 7.54128L12 10.1513L6.38 7.54128L11.71 5.06128ZM5.3 16.0013C5.21293 15.9675 5.1379 15.9086 5.08447 15.832C5.03104 15.7554 5.00163 15.6646 5 15.5713V9.10128L11 11.8913V18.6113L5.3 16.0013ZM18.69 16.0013L13 18.6113V11.8913L19 9.10128V15.5413C19.0023 15.6406 18.9737 15.7382 18.9182 15.8206C18.8626 15.903 18.7829 15.9661 18.69 16.0013Z" fill="black"/>
</svg>
