<svg width="24" height="24" viewBox="0 0 24 24" fill="none" xmlns="http://www.w3.org/2000/svg">
<path d="M17.71 6.29189C17.617 6.19816 17.5064 6.12377 17.3846 6.073C17.2627 6.02223 17.132 5.99609 17 5.99609C16.868 5.99609 16.7373 6.02223 16.6154 6.073C16.4936 6.12377 16.383 6.19816 16.29 6.29189L8 14.5919V9.00189C8 8.73668 7.89464 8.48232 7.70711 8.29479C7.51957 8.10725 7.26522 8.00189 7 8.00189C6.73478 8.00189 6.48043 8.10725 6.29289 8.29479C6.10536 8.48232 6 8.73668 6 9.00189V17.0019C6 17.2671 6.10536 17.5215 6.29289 17.709C6.48043 17.8965 6.73478 18.0019 7 18.0019H15C15.2652 18.0019 15.5196 17.8965 15.7071 17.709C15.8946 17.5215 16 17.2671 16 17.0019C16 16.7367 15.8946 16.4823 15.7071 16.2948C15.5196 16.1072 15.2652 16.0019 15 16.0019H9.41L17.71 7.71189C17.8037 7.61893 17.8781 7.50833 17.9289 7.38647C17.9797 7.26461 18.0058 7.1339 18.0058 7.00189C18.0058 6.86988 17.9797 6.73917 17.9289 6.61732C17.8781 6.49546 17.8037 6.38486 17.71 6.29189Z" fill="black"/>
</svg>
