<svg width="24" height="24" viewBox="0 0 24 24" fill="none" xmlns="http://www.w3.org/2000/svg">
<path d="M17.0002 8.00019C16.735 8.00019 16.4806 8.10554 16.2931 8.29308C16.1055 8.48062 16.0002 8.73497 16.0002 9.00019V14.5902L7.71019 6.29019C7.52188 6.10188 7.26649 5.99609 7.00019 5.99609C6.73388 5.99609 6.47849 6.10188 6.29019 6.29019C6.10188 6.47849 5.99609 6.73388 5.99609 7.00019C5.99609 7.26649 6.10188 7.52188 6.29019 7.71019L14.5902 16.0002H9.00019C8.73497 16.0002 8.48062 16.1055 8.29308 16.2931C8.10554 16.4806 8.00019 16.735 8.00019 17.0002C8.00019 17.2654 8.10554 17.5198 8.29308 17.7073C8.48062 17.8948 8.73497 18.0002 9.00019 18.0002H17.0002C17.2654 18.0002 17.5198 17.8948 17.7073 17.7073C17.8948 17.5198 18.0002 17.2654 18.0002 17.0002V9.00019C18.0002 8.73497 17.8948 8.48062 17.7073 8.29308C17.5198 8.10554 17.2654 8.00019 17.0002 8.00019Z" fill="black"/>
</svg>
