<svg width="24" height="24" viewBox="0 0 24 24" fill="none" xmlns="http://www.w3.org/2000/svg">
<path d="M17.7108 16.29L9.42078 8H15.0008C15.266 8 15.5204 7.89464 15.7079 7.70711C15.8954 7.51957 16.0008 7.26522 16.0008 7C16.0008 6.73478 15.8954 6.48043 15.7079 6.29289C15.5204 6.10536 15.266 6 15.0008 6H7.05078C6.78556 6 6.53121 6.10536 6.34367 6.29289C6.15614 6.48043 6.05078 6.73478 6.05078 7V15C6.05078 15.2652 6.15614 15.5196 6.34367 15.7071C6.53121 15.8946 6.78556 16 7.05078 16H7.00078C7.266 16 7.52035 15.8946 7.70789 15.7071C7.89542 15.5196 8.00078 15.2652 8.00078 15V9.45L16.2608 17.71C16.3537 17.8037 16.4643 17.8781 16.5862 17.9289C16.7081 17.9797 16.8388 18.0058 16.9708 18.0058C17.1028 18.0058 17.2335 17.9797 17.3554 17.9289C17.4772 17.8781 17.5878 17.8037 17.6808 17.71C17.7765 17.619 17.8533 17.51 17.9066 17.3892C17.96 17.2684 17.9889 17.1383 17.9917 17.0063C17.9945 16.8742 17.9711 16.743 17.9229 16.62C17.8747 16.4971 17.8026 16.3849 17.7108 16.29Z" fill="black"/>
</svg>
