<svg width="24" height="24" viewBox="0 0 24 24" fill="none" xmlns="http://www.w3.org/2000/svg">
<path d="M16.62 6.20815C16.5165 6.1262 16.3977 6.06555 16.2707 6.02972C16.1436 5.99388 16.0107 5.98357 15.8796 5.99938C15.7485 6.01518 15.6218 6.05679 15.5069 6.1218C15.392 6.18681 15.2911 6.27394 15.21 6.37816L8.20999 15.3782L4.77999 11.1982C4.69954 11.0911 4.59839 11.0012 4.48255 10.934C4.3667 10.8667 4.23853 10.8234 4.10563 10.8067C3.97273 10.7899 3.83782 10.8 3.70891 10.8364C3.57999 10.8727 3.4597 10.9346 3.35516 11.0184C3.25063 11.1022 3.16399 11.2061 3.10039 11.324C3.03679 11.4418 2.99752 11.5713 2.98491 11.7047C2.9723 11.838 2.98661 11.9726 3.027 12.1003C3.06738 12.228 3.13301 12.3463 3.21999 12.4482L7.38999 17.6282C7.48411 17.7442 7.60303 17.8376 7.73801 17.9017C7.87299 17.9657 8.0206 17.9987 8.16999 17.9982C8.32857 18.0052 8.48656 17.9745 8.63088 17.9084C8.77521 17.8423 8.90174 17.7428 8.99999 17.6182L16.83 7.61815C16.9098 7.51218 16.9678 7.39138 17.0004 7.26279C17.0331 7.1342 17.0399 7.0004 17.0203 6.86917C17.0008 6.73794 16.9553 6.61191 16.8866 6.49842C16.8179 6.38494 16.7272 6.28627 16.62 6.20815Z" fill="black"/>
<path d="M21.6198 6.20815C21.5163 6.1262 21.3976 6.06555 21.2705 6.02972C21.1434 5.99388 21.0105 5.98357 20.8794 5.99938C20.7483 6.01518 20.6217 6.05679 20.5068 6.1218C20.3918 6.18681 20.2909 6.27394 20.2098 6.37816L13.2098 15.3782L12.5998 14.6282L11.3398 16.2482L12.4398 17.6182C12.534 17.7342 12.6529 17.8276 12.7879 17.8917C12.9228 17.9557 13.0704 17.9887 13.2198 17.9882C13.37 17.9875 13.5182 17.9529 13.6532 17.8872C13.7882 17.8214 13.9067 17.726 13.9998 17.6082L21.8298 7.60816C21.9081 7.50249 21.9648 7.38243 21.9966 7.25484C22.0284 7.12725 22.0347 6.99464 22.0152 6.8646C21.9957 6.73456 21.9507 6.60964 21.8829 6.497C21.8151 6.38436 21.7257 6.28621 21.6198 6.20815Z" fill="black"/>
<path d="M8.70982 13.0599L9.99982 11.4399L9.79982 11.1999C9.72087 11.0905 9.62061 10.9982 9.50506 10.9286C9.38952 10.859 9.26109 10.8135 9.12749 10.7948C8.9939 10.7761 8.8579 10.7846 8.72769 10.8199C8.59748 10.8551 8.47575 10.9164 8.36982 10.9999C8.26709 11.0824 8.18169 11.1844 8.11852 11.3001C8.05534 11.4157 8.01564 11.5427 8.0017 11.6737C7.98777 11.8047 7.99986 11.9372 8.03729 12.0636C8.07472 12.1899 8.13675 12.3076 8.21982 12.4099L8.70982 13.0599Z" fill="black"/>
</svg>
