<svg width="24" height="24" viewBox="0 0 24 24" fill="none" xmlns="http://www.w3.org/2000/svg">
<path d="M11.999 19.0003C11.2754 19.0009 10.5591 18.856 9.89252 18.5742C9.22599 18.2925 8.62289 17.8797 8.11903 17.3603C7.2159 16.4285 6.65583 15.2176 6.53048 13.926C6.40513 12.6344 6.72193 11.3384 7.42903 10.2503L5.99903 8.82031C4.92651 10.2943 4.40865 12.0995 4.53671 13.9179C4.66476 15.7363 5.43052 17.4512 6.69903 18.7603C7.38708 19.47 8.21088 20.0341 9.1214 20.4189C10.0319 20.8037 11.0105 21.0015 11.999 21.0003C13.6615 21.0028 15.2757 20.4424 16.579 19.4103L15.149 18.0003C14.2284 18.6528 13.1274 19.0024 11.999 19.0003Z" fill="black"/>
<path d="M12.0005 5.43002L15.8805 9.43002C16.5314 10.1009 17.0077 10.9213 17.2675 11.8193C17.5273 12.7172 17.5626 13.6652 17.3705 14.58L19.0005 16.15C19.5268 14.772 19.6474 13.2721 19.3479 11.8278C19.0484 10.3834 18.3414 9.05508 17.3105 8.00002L12.7105 3.30002C12.6179 3.20553 12.5074 3.13036 12.3855 3.07886C12.2637 3.02737 12.1328 3.00057 12.0005 3.00002C11.8665 2.99923 11.7337 3.02539 11.61 3.07692C11.4863 3.12846 11.3743 3.20433 11.2805 3.30002L8.73047 5.90002L10.1505 7.32002L12.0005 5.43002Z" fill="black"/>
<path d="M20.7102 19.2902L4.71019 3.29019C4.61695 3.19695 4.50626 3.12299 4.38443 3.07253C4.26261 3.02207 4.13204 2.99609 4.00019 2.99609C3.86833 2.99609 3.73776 3.02207 3.61594 3.07253C3.49411 3.12299 3.38342 3.19695 3.29019 3.29019C3.10188 3.47849 2.99609 3.73388 2.99609 4.00019C2.99609 4.26649 3.10188 4.52188 3.29019 4.71019L19.2902 20.7102C19.3831 20.8039 19.4937 20.8783 19.6156 20.9291C19.7375 20.9798 19.8682 21.006 20.0002 21.006C20.1322 21.006 20.2629 20.9798 20.3848 20.9291C20.5066 20.8783 20.6172 20.8039 20.7102 20.7102C20.8039 20.6172 20.8783 20.5066 20.9291 20.3848C20.9798 20.2629 21.006 20.1322 21.006 20.0002C21.006 19.8682 20.9798 19.7375 20.9291 19.6156C20.8783 19.4937 20.8039 19.3831 20.7102 19.2902Z" fill="black"/>
</svg>
