<svg width="25" height="25" viewBox="0 0 25 25" fill="none" xmlns="http://www.w3.org/2000/svg">
<g clip-path="url(#clip0)">
<path d="M12.0007 21.0979C11.013 21.0895 10.037 20.8834 9.13015 20.4918C8.22334 20.1003 7.40409 19.5311 6.72071 18.8179C5.33325 17.3624 4.5676 15.4234 4.58627 13.4126C4.60494 11.4018 5.40646 9.47743 6.82071 8.0479L11.4607 3.3979C11.5511 3.30056 11.6612 3.22349 11.7835 3.17178C11.9059 3.12007 12.0379 3.09489 12.1707 3.0979C12.3037 3.09975 12.435 3.12812 12.557 3.18135C12.6789 3.23458 12.7889 3.3116 12.8807 3.4079L17.4407 8.1279C18.8295 9.58215 19.5969 11.5204 19.5801 13.5312C19.5633 15.542 18.7636 17.4671 17.3507 18.8979C16.6548 19.6083 15.8217 20.1698 14.9019 20.548C13.9822 20.9262 12.9951 21.1133 12.0007 21.0979ZM12.1307 5.5279L8.24071 9.4479C7.19034 10.5101 6.59544 11.9399 6.58237 13.4337C6.5693 14.9275 7.13909 16.3675 8.17071 17.4479C8.66887 17.9618 9.2637 18.3721 9.921 18.6552C10.5783 18.9384 11.2851 19.0888 12.0007 19.0979C12.7254 19.1039 13.4439 18.9645 14.1138 18.688C14.7837 18.4114 15.3913 18.0034 15.9007 17.4879C16.9544 16.4269 17.5507 14.9954 17.562 13.5001C17.5732 12.0048 16.9984 10.5646 15.9607 9.4879L12.1307 5.5279Z" fill="black"/>
</g>
<defs>
<clipPath id="clip0">
<rect width="24.2" height="24.2" fill="white"/>
</clipPath>
</defs>
</svg>
