<svg width="24" height="24" viewBox="0 0 24 24" fill="none" xmlns="http://www.w3.org/2000/svg">
<path d="M19.4003 7.34083L16.6603 4.60083C16.3027 4.26493 15.8341 4.07219 15.3436 4.05929C14.8532 4.04638 14.3751 4.2142 14.0003 4.53083L5.0003 13.5308C4.67706 13.8568 4.4758 14.284 4.4303 14.7408L4.0003 18.9108C3.98683 19.0573 4.00583 19.2049 4.05596 19.3432C4.10608 19.4815 4.1861 19.607 4.2903 19.7108C4.38374 19.8035 4.49455 19.8768 4.61639 19.9266C4.73823 19.9764 4.86869 20.0016 5.0003 20.0008H5.0903L9.2603 19.6208C9.71709 19.5753 10.1443 19.3741 10.4703 19.0508L19.4703 10.0508C19.8196 9.6818 20.0084 9.18934 19.9953 8.68137C19.9822 8.1734 19.7682 7.69134 19.4003 7.34083ZM9.0803 17.6208L6.0803 17.9008L6.3503 14.9008L12.0003 9.32083L14.7003 12.0208L9.0803 17.6208ZM16.0003 10.6808L13.3203 8.00083L15.2703 6.00083L18.0003 8.73083L16.0003 10.6808Z" fill="black"/>
</svg>
