<svg width="25" height="23" viewBox="0 0 25 23" fill="none" xmlns="http://www.w3.org/2000/svg">
<path d="M0.408163 0.224609C0.182857 0.224609 0 0.407058 0 0.632773V18.592C0 18.8177 0.182857 19.0001 0.408163 19.0001H14.2873C15.0885 20.9156 16.9808 22.2654 19.1837 22.2654C22.1094 22.2654 24.4898 19.885 24.4898 16.9593C24.4898 15.9246 24.1878 14.9611 23.6735 14.1444V0.632773C23.6735 0.407058 23.4906 0.224609 23.2653 0.224609H0.408163ZM0.816326 1.04094H22.8571V13.1312C22.7878 13.0642 22.713 13.0043 22.6403 12.9414C22.6044 12.9108 22.5702 12.8788 22.5335 12.849C22.4376 12.7706 22.3374 12.698 22.2361 12.6266C22.1986 12.6 22.1621 12.571 22.1237 12.5452C22.0237 12.4787 21.9205 12.4183 21.816 12.3587C21.7715 12.333 21.729 12.3055 21.6837 12.2814C21.6522 12.2646 21.6206 12.2475 21.5888 12.2311C21.6619 12.074 21.635 11.8833 21.5003 11.76L16.6024 7.27021C16.5224 7.19715 16.4184 7.15726 16.3082 7.16338C16.2 7.16828 16.0983 7.21572 16.0252 7.29572L12.0273 11.6747L10.0917 9.73832C9.93902 9.58608 9.69448 9.57915 9.53284 9.72078L2.25845 16.2315C2.08906 16.3804 2.072 16.6385 2.22098 16.8078C2.3018 16.8997 2.41484 16.9465 2.5279 16.9465C2.62341 16.9465 2.7198 16.9135 2.79735 16.8453L9.78476 10.5873L13.99 14.7917C14.0728 14.8746 14.1819 14.9122 14.2905 14.9089C14.0252 15.5399 13.8776 16.2328 13.8776 16.9593C13.8776 17.1605 13.8914 17.3577 13.9134 17.5532C13.9171 17.5838 13.9229 17.6143 13.927 17.6449C13.9498 17.8196 13.9803 17.9913 14.0195 18.1599C14.0215 18.1676 14.0222 18.176 14.0242 18.1838H0.816326V1.04094V1.04094ZM6.53061 4.71441C5.27714 4.71441 4.25781 5.73374 4.25781 6.98721C4.25781 8.24067 5.27714 9.2608 6.53061 9.2608C7.78408 9.2608 8.80341 8.24106 8.80341 6.988C8.80341 5.73413 7.78408 4.71441 6.53061 4.71441ZM6.53061 5.53073C7.33388 5.53073 7.98709 6.18435 7.98709 6.98721C7.98709 7.79006 7.33388 8.44448 6.53061 8.44448C5.72735 8.44448 5.07414 7.79086 5.07414 6.988C5.07414 6.18515 5.72735 5.53073 6.53061 5.53073ZM16.3528 8.14872L20.3093 11.7759C20.282 11.7698 20.2553 11.7629 20.228 11.7576C20.1231 11.7364 20.016 11.7237 19.9099 11.709C19.8438 11.7 19.7792 11.686 19.7122 11.6795C19.5379 11.6623 19.3612 11.6532 19.1837 11.6532C17.2355 11.6532 15.5338 12.7118 14.611 14.2807C14.5963 14.2587 14.5863 14.2342 14.5671 14.2146L12.6052 12.2527L16.3528 8.14872ZM19.1837 12.4695C19.3576 12.4695 19.5301 12.4818 19.7003 12.5014C19.7521 12.5075 19.8023 12.518 19.8533 12.5253C19.9721 12.5433 20.0898 12.5645 20.2057 12.5915C20.2632 12.6049 20.3199 12.6198 20.3771 12.6353C20.4865 12.6655 20.5942 12.6998 20.7007 12.7382C20.7554 12.7578 20.8099 12.7771 20.8634 12.7988C20.9838 12.8473 21.1018 12.9026 21.2173 12.9614C21.2512 12.9785 21.2867 12.9928 21.3202 13.0108C21.4597 13.0863 21.5941 13.1709 21.7251 13.2611C21.7786 13.2979 21.8287 13.3391 21.8806 13.3783C21.9618 13.4395 22.0418 13.5027 22.1189 13.5696C22.1708 13.6145 22.2214 13.6606 22.2712 13.7076C22.35 13.7827 22.4257 13.8619 22.4992 13.9427C22.5376 13.9848 22.5773 14.025 22.614 14.0687C22.7205 14.1956 22.8227 14.3277 22.9161 14.4673C23.3941 15.1812 23.6735 16.0381 23.6735 16.9593C23.6735 19.4348 21.6592 21.4491 19.1837 21.4491C17.2298 21.4491 15.5677 20.1922 14.9522 18.4461C14.9138 18.3371 14.8807 18.227 14.8509 18.1168C14.8448 18.0932 14.8387 18.0696 14.8326 18.0459C14.8081 17.9487 14.7868 17.8521 14.7688 17.7541C14.759 17.6998 14.7511 17.6454 14.7433 17.5907C14.7327 17.5172 14.7215 17.4433 14.7146 17.3699C14.7024 17.2343 14.6939 17.0977 14.6939 16.9593C14.6939 14.4838 16.7082 12.4695 19.1837 12.4695ZM19.1837 14.1022C18.9584 14.1022 18.7755 14.2846 18.7755 14.5103V16.5511H16.7347C16.5094 16.5511 16.3265 16.7336 16.3265 16.9593C16.3265 17.185 16.5094 17.3675 16.7347 17.3675H18.7755V19.4083C18.7755 19.634 18.9584 19.8164 19.1837 19.8164C19.409 19.8164 19.5918 19.634 19.5918 19.4083V17.3675H21.6327C21.858 17.3675 22.0408 17.185 22.0408 16.9593C22.0408 16.7336 21.858 16.5511 21.6327 16.5511H19.5918V14.5103C19.5918 14.2846 19.409 14.1022 19.1837 14.1022Z" fill="white"/>
</svg>
