<svg width="24" height="24" viewBox="0 0 24 24" fill="none" xmlns="http://www.w3.org/2000/svg">
<g clip-path="url(#clip0)">
<path fill-rule="evenodd" clip-rule="evenodd" d="M3.27931 3C3.12828 3.01655 3 3.15931 3 3.31034V20.3648C3 20.5283 3.14897 20.6752 3.31034 20.6752C9.54 20.6752 14.6793 20.6752 20.6876 20.6752C20.851 20.6752 20.9979 20.5262 20.9979 20.3648V3.31034C20.9979 3.1469 20.849 3 20.6876 3H3.31034C3.3 3 3.28966 3 3.27931 3ZM3.62276 3.62276H20.3793V20.0545H17.4372V7.73587C17.4372 7.57242 17.2883 7.42552 17.1269 7.42552C13.7048 7.42138 10.2972 7.42552 6.8731 7.42552C6.70965 7.42552 6.56276 7.57449 6.56276 7.73587V20.0545H3.62276V3.62276ZM7.18345 8.04621H11.6917V20.0545H7.18345V8.04621ZM12.3145 8.04621H16.8166V20.0545H12.3145V8.04621Z" fill="black"/>
<path fill-rule="evenodd" clip-rule="evenodd" d="M8.66972 4.48438C8.498 4.48438 8.35938 4.623 8.35938 4.79472V6.303C8.35938 6.47473 8.498 6.61335 8.66972 6.61335H15.2966C15.4683 6.61335 15.607 6.47473 15.607 6.303V4.79472C15.607 4.623 15.4683 4.48438 15.2966 4.48438H8.66972ZM8.98006 5.10506H14.9863V5.99266H8.98006V5.10506Z" fill="black"/>
<path fill-rule="evenodd" clip-rule="evenodd" d="M18.0507 11.9258C17.8997 11.9423 17.7714 12.083 17.7735 12.2361C17.7735 13.3782 17.7735 14.5161 17.7735 15.6561C17.7735 15.8196 17.9204 15.9665 18.0838 15.9665H19.6748C19.8383 15.9665 19.9852 15.8196 19.9852 15.6561C19.9852 14.5141 19.9852 13.3761 19.9852 12.2361C19.9852 12.0727 19.8383 11.9258 19.6748 11.9258H18.0838C18.0714 11.9258 18.061 11.9258 18.0507 11.9258ZM18.3942 12.5465H19.3645V13.6327H18.3942V12.5465ZM18.3942 14.2534H19.3645V15.3458H18.3942V14.2534Z" fill="black"/>
</g>
<defs>
<clipPath id="clip0">
<rect width="18" height="17.6772" fill="white" transform="translate(3 3)"/>
</clipPath>
</defs>
</svg>
