<svg width="24" height="24" viewBox="0 0 24 24" fill="none" xmlns="http://www.w3.org/2000/svg">
<path d="M20.4455 15.6907C20.4455 16.5591 20.4455 17.4238 20.4455 18.2922C20.4455 18.6728 20.4455 19.0534 20.4455 19.4341C20.4455 19.6669 20.2386 19.6743 20.0723 19.6743C18.5462 19.6743 17.0237 19.6743 15.4975 19.6743C13.1104 19.6743 10.7232 19.6743 8.33233 19.6743C6.85051 19.6743 5.37239 19.6743 3.89057 19.6743C3.72428 19.6743 3.5543 19.6373 3.5543 19.4193C3.5543 19.0202 3.5543 18.6211 3.5543 18.222C3.5543 17.3795 3.5543 16.5369 3.5543 15.6907C3.5543 15.3323 3 15.3323 3 15.6907C3 16.5591 3 17.4238 3 18.2922C3 18.6728 3 19.0534 3 19.4341C3 19.9107 3.39909 20.2285 3.84992 20.2285C5.26522 20.2285 6.68422 20.2285 8.09952 20.2285C10.4867 20.2285 12.8702 20.2285 15.2573 20.2285C16.8426 20.2285 18.4279 20.2285 20.0132 20.2285C20.2164 20.2285 20.3864 20.2249 20.5786 20.1362C21.0627 19.9181 20.9961 19.3417 20.9961 18.9056C20.9961 18.0003 20.9961 17.0949 20.9961 16.1896C20.9961 16.0233 20.9961 15.857 20.9961 15.6907C20.9998 15.3323 20.4455 15.3323 20.4455 15.6907Z" fill="black"/>
<path d="M12.4034 18.0709C12.3849 18.5919 11.6126 18.5919 11.5941 18.0709C11.5756 17.5498 12.3849 17.5498 12.4034 18.0709C12.4181 18.4256 12.9724 18.4293 12.9577 18.0709C12.9392 17.5351 12.5327 17.1323 12.0006 17.1138C11.4648 17.0953 11.062 17.5683 11.0435 18.0709C11.025 18.6067 11.498 19.0095 12.0006 19.028C12.5364 19.0464 12.9392 18.5734 12.9577 18.0709C12.9724 17.7161 12.4181 17.7161 12.4034 18.0709Z" fill="black"/>
<path d="M20.2129 4.00045C19.0305 4.00045 17.8516 4.00045 16.6691 4.00045C14.3078 4.00045 11.9429 4.00045 9.58155 4.00045C7.8078 4.00045 6.03406 4.00045 4.25662 4.00045C4.1125 4.00045 3.96838 4.00045 3.82426 4.00045C3.37344 4.00045 3.00391 4.34412 3.00391 4.80603C3.00391 5.34185 3.00391 5.87397 3.00391 6.40979C3.00391 8.69349 3.00391 10.9809 3.00391 13.2646C3.00391 14.2438 3.00391 15.2231 3.00391 16.2024C3.00391 16.3539 3.12955 16.4795 3.28105 16.4795C4.41182 16.4795 5.53889 16.4795 6.66965 16.4795C9.00878 16.4795 11.3516 16.4795 13.6907 16.4795C15.6714 16.4795 17.6484 16.4795 19.6291 16.4795C19.9949 16.4795 20.3571 16.4795 20.7229 16.4795C20.8744 16.4795 21 16.3539 21 16.2024C21 14.691 21 13.1796 21 11.6682C21 9.57297 21 7.47774 21 5.3788C21 5.20512 21 5.03144 21 4.85407C21 4.38846 20.6933 4.02262 20.2129 4.00045C19.8545 3.98198 19.8582 4.53627 20.2129 4.55475C20.479 4.56583 20.4458 4.8319 20.4458 5.01666C20.4458 5.3049 20.4458 5.59682 20.4458 5.88506C20.4458 6.89757 20.4458 7.91009 20.4458 8.9226C20.4458 11.0807 20.4458 13.2387 20.4458 15.4005C20.4458 15.6665 20.4458 15.9326 20.4458 16.1987C20.5381 16.1063 20.6305 16.0139 20.7229 15.9215C19.5921 15.9215 18.4651 15.9215 17.3343 15.9215C14.9952 15.9215 12.6524 15.9215 10.3132 15.9215C8.33254 15.9215 6.35555 15.9215 4.37487 15.9215C4.00903 15.9215 3.64689 15.9215 3.28105 15.9215C3.37344 16.0139 3.46582 16.1063 3.5582 16.1987C3.5582 14.6873 3.5582 13.1759 3.5582 11.6645C3.5582 9.56928 3.5582 7.47404 3.5582 5.37511C3.5582 5.18665 3.5582 5.00188 3.5582 4.81342C3.5582 4.62496 3.69493 4.54736 3.86122 4.54736C4.34161 4.54736 4.82569 4.54736 5.30608 4.54736C7.43458 4.54736 9.55938 4.54736 11.6879 4.54736C13.8903 4.54736 16.0927 4.54736 18.2951 4.54736C18.9344 4.54736 19.5737 4.54736 20.2093 4.54736C20.5677 4.55475 20.5677 4.00045 20.2129 4.00045Z" fill="black"/>
<path d="M16.1673 9.99961C16.5257 9.99961 16.5257 9.44531 16.1673 9.44531C15.8088 9.44531 15.8088 9.99961 16.1673 9.99961Z" fill="black"/>
<path d="M12.75 11.4062C12.2512 11.4062 11.756 11.4062 11.2571 11.4062C10.8987 11.4062 10.8987 11.9605 11.2571 11.9605C11.756 11.9605 12.2512 11.9605 12.75 11.9605C13.1048 11.9605 13.1048 11.4062 12.75 11.4062Z" fill="black"/>
<path d="M16.3955 9.57533C16.1811 9.29079 15.9151 9.03581 15.6786 8.77345C15.298 8.35588 14.921 7.93461 14.5404 7.51704C14.4554 7.42096 14.3667 7.32858 14.2817 7.2325C14.1635 7.10317 13.9972 7.01818 13.8272 6.99231C13.5575 6.95166 13.3025 7.0773 13.0401 7.14012C12.5228 7.26576 11.9833 7.28054 11.4548 7.22881C11.2036 7.20294 10.9597 7.14751 10.7158 7.0773C10.4534 7.0034 10.2132 6.93318 9.95454 7.06252C9.7513 7.16229 9.61088 7.35814 9.46306 7.52074C9.22287 7.7868 8.97898 8.05286 8.73878 8.32262C8.4875 8.59977 8.23622 8.87691 7.98494 9.15406C7.8593 9.29448 7.71888 9.42751 7.60802 9.57902C7.51564 9.70097 7.58954 9.88943 7.70779 9.95964C7.84821 10.0409 7.99603 9.98181 8.08841 9.85986C7.99972 9.97442 8.07363 9.88204 8.0995 9.85617C8.15123 9.79704 8.20666 9.73792 8.25839 9.67879C8.42838 9.49033 8.59836 9.30557 8.76465 9.11711C9.13788 8.70323 9.5148 8.28936 9.88802 7.87549C9.96563 7.79049 10.0395 7.7092 10.1171 7.62421C10.2649 7.46161 10.4608 7.57986 10.6308 7.6279C10.9005 7.7055 11.1777 7.74985 11.4548 7.7831C11.9907 7.84592 12.5376 7.80897 13.066 7.7055C13.1916 7.67964 13.3136 7.65007 13.4355 7.61312C13.5279 7.58725 13.6388 7.52443 13.7348 7.53921C13.8161 7.5503 13.8679 7.60203 13.9196 7.65746C14.2891 8.06395 14.655 8.47043 15.0245 8.87691C15.2388 9.11341 15.4532 9.34991 15.6638 9.58641C15.734 9.66401 15.8079 9.74531 15.8781 9.82291C15.904 9.84878 16.0111 9.98181 15.9188 9.85986C16.0075 9.98181 16.1553 10.0409 16.2994 9.95964C16.4176 9.88204 16.4878 9.69358 16.3955 9.57533Z" fill="black"/>
<path d="M9.27692 8.85158C8.26071 8.86636 7.37753 9.51674 7.05974 10.4812C6.77889 11.3311 7.07082 12.2993 7.72489 12.8942C8.36788 13.4818 9.32866 13.6518 10.1342 13.3266C10.9546 12.9977 11.4904 12.2476 11.5865 11.3755C11.738 10.0304 10.5925 8.87006 9.27692 8.85158C8.91848 8.84789 8.91848 9.40218 9.27692 9.40588C10.0899 9.41696 10.7809 9.96017 10.9915 10.7436C11.2022 11.5344 10.7994 12.351 10.0973 12.739C9.3767 13.1344 8.48243 12.9275 7.94661 12.3363C7.36275 11.6933 7.38123 10.6697 7.93922 10.023C8.27549 9.63129 8.76327 9.41696 9.27692 9.40957C9.63167 9.40218 9.63167 8.84789 9.27692 8.85158Z" fill="black"/>
<path d="M16.3396 9.50381C15.6227 8.83496 14.6028 8.67975 13.7159 9.08624C12.9288 9.44838 12.4411 10.2724 12.4078 11.1224C12.3745 11.9871 12.8808 12.8074 13.6272 13.2176C14.3922 13.6389 15.3677 13.5686 16.0735 13.0624C17.245 12.2272 17.3558 10.5126 16.3396 9.50381C16.0846 9.25252 15.6929 9.64423 15.9479 9.89551C16.5946 10.5311 16.6611 11.5067 16.1401 12.242C15.6781 12.885 14.7617 13.1141 14.0411 12.8037C13.3021 12.4859 12.8549 11.6877 12.9843 10.8932C13.1136 10.1061 13.7788 9.48533 14.5769 9.41512C15.0832 9.37077 15.5821 9.55184 15.9516 9.89551C16.2066 10.1394 16.5983 9.7477 16.3396 9.50381Z" fill="black"/>
</svg>
