<svg width="24" height="24" viewBox="0 0 24 24" fill="none" xmlns="http://www.w3.org/2000/svg">
<path d="M20.0019 5C20.0019 4.73478 19.8965 4.48043 19.709 4.29289C19.5215 4.10536 19.2671 4 19.0019 4H14.0019C13.7367 4 13.4823 4.10536 13.2948 4.29289C13.1072 4.48043 13.0019 4.73478 13.0019 5C13.0019 5.26522 13.1072 5.51957 13.2948 5.70711C13.4823 5.89464 13.7367 6 14.0019 6H16.5719L13.2919 9.29C13.1982 9.38296 13.1238 9.49356 13.073 9.61542C13.0222 9.73728 12.9961 9.86799 12.9961 10C12.9961 10.132 13.0222 10.2627 13.073 10.3846C13.1238 10.5064 13.1982 10.617 13.2919 10.71C13.3849 10.8037 13.4955 10.8781 13.6173 10.9289C13.7392 10.9797 13.8699 11.0058 14.0019 11.0058C14.1339 11.0058 14.2646 10.9797 14.3865 10.9289C14.5083 10.8781 14.6189 10.8037 14.7119 10.71L18.0019 7.42V10C18.0019 10.2652 18.1072 10.5196 18.2948 10.7071C18.4823 10.8946 18.7367 11 19.0019 11C19.2671 11 19.5215 10.8946 19.709 10.7071C19.8965 10.5196 20.0019 10.2652 20.0019 10V5Z" fill="black"/>
<path d="M10.71 13.2919C10.617 13.1982 10.5064 13.1238 10.3846 13.073C10.2627 13.0222 10.132 12.9961 10 12.9961C9.86799 12.9961 9.73728 13.0222 9.61542 13.073C9.49356 13.1238 9.38296 13.1982 9.29 13.2919L6 16.5719V14.0019C6 13.7367 5.89464 13.4823 5.70711 13.2948C5.51957 13.1072 5.26522 13.0019 5 13.0019C4.73478 13.0019 4.48043 13.1072 4.29289 13.2948C4.10536 13.4823 4 13.7367 4 14.0019V19.0019C4 19.2671 4.10536 19.5215 4.29289 19.709C4.48043 19.8965 4.73478 20.0019 5 20.0019H10C10.2652 20.0019 10.5196 19.8965 10.7071 19.709C10.8946 19.5215 11 19.2671 11 19.0019C11 18.7367 10.8946 18.4823 10.7071 18.2948C10.5196 18.1072 10.2652 18.0019 10 18.0019H7.42L10.71 14.7119C10.8037 14.6189 10.8781 14.5083 10.9289 14.3865C10.9797 14.2646 11.0058 14.1339 11.0058 14.0019C11.0058 13.8699 10.9797 13.7392 10.9289 13.6173C10.8781 13.4955 10.8037 13.3849 10.71 13.2919Z" fill="black"/>
</svg>
