<svg width="24" height="24" viewBox="0 0 24 24" fill="none" xmlns="http://www.w3.org/2000/svg">
<path d="M20 11C19.7348 11 19.4804 11.1054 19.2929 11.2929C19.1054 11.4804 19 11.7348 19 12V18C19 18.2652 18.8946 18.5196 18.7071 18.7071C18.5196 18.8946 18.2652 19 18 19H6C5.73478 19 5.48043 18.8946 5.29289 18.7071C5.10536 18.5196 5 18.2652 5 18V6C5 5.73478 5.10536 5.48043 5.29289 5.29289C5.48043 5.10536 5.73478 5 6 5H12C12.2652 5 12.5196 4.89464 12.7071 4.70711C12.8946 4.51957 13 4.26522 13 4C13 3.73478 12.8946 3.48043 12.7071 3.29289C12.5196 3.10536 12.2652 3 12 3H6C5.20435 3 4.44129 3.31607 3.87868 3.87868C3.31607 4.44129 3 5.20435 3 6V18C3 18.7956 3.31607 19.5587 3.87868 20.1213C4.44129 20.6839 5.20435 21 6 21H18C18.7956 21 19.5587 20.6839 20.1213 20.1213C20.6839 19.5587 21 18.7956 21 18V12C21 11.7348 20.8946 11.4804 20.7071 11.2929C20.5196 11.1054 20.2652 11 20 11Z" fill="black"/>
<path d="M16.0019 5H17.5819L11.2919 11.28C11.1982 11.373 11.1238 11.4836 11.073 11.6054C11.0222 11.7273 10.9961 11.858 10.9961 11.99C10.9961 12.122 11.0222 12.2527 11.073 12.3746C11.1238 12.4964 11.1982 12.607 11.2919 12.7C11.3849 12.7937 11.4955 12.8681 11.6173 12.9189C11.7392 12.9697 11.8699 12.9958 12.0019 12.9958C12.1339 12.9958 12.2646 12.9697 12.3865 12.9189C12.5083 12.8681 12.6189 12.7937 12.7119 12.7L19.0019 6.42V8C19.0019 8.26522 19.1072 8.51957 19.2948 8.70711C19.4823 8.89464 19.7367 9 20.0019 9C20.2671 9 20.5215 8.89464 20.709 8.70711C20.8965 8.51957 21.0019 8.26522 21.0019 8V4C21.0019 3.73478 20.8965 3.48043 20.709 3.29289C20.5215 3.10536 20.2671 3 20.0019 3H16.0019C15.7367 3 15.4823 3.10536 15.2948 3.29289C15.1072 3.48043 15.0019 3.73478 15.0019 4C15.0019 4.26522 15.1072 4.51957 15.2948 4.70711C15.4823 4.89464 15.7367 5 16.0019 5Z" fill="black"/>
</svg>
