<svg width="24" height="24" viewBox="0 0 24 24" fill="none" xmlns="http://www.w3.org/2000/svg">
<path d="M17.8094 13.3894C19.5698 11.9433 20.711 9.87919 20.9994 7.61936C21.0151 7.48804 21.0049 7.3549 20.9692 7.22754C20.9335 7.10019 20.873 6.98111 20.7913 6.87711C20.7096 6.77311 20.6082 6.68622 20.4929 6.6214C20.3776 6.55659 20.2507 6.51512 20.1194 6.49936C19.988 6.4836 19.8549 6.49386 19.7275 6.52956C19.6002 6.56526 19.4811 6.62569 19.3771 6.7074C19.2731 6.78912 19.1862 6.89052 19.1214 7.00581C19.0566 7.12111 19.0151 7.24804 18.9994 7.37936C18.7603 9.06565 17.9205 10.609 16.6345 11.7255C15.3484 12.8421 13.7025 13.4569 11.9994 13.4569C10.2962 13.4569 8.65031 12.8421 7.36425 11.7255C6.0782 10.609 5.23843 9.06565 4.99936 7.37936C4.9836 7.24804 4.94213 7.12111 4.87732 7.00581C4.81251 6.89052 4.72562 6.78912 4.62162 6.7074C4.51761 6.62569 4.39854 6.56526 4.27118 6.52956C4.14382 6.49386 4.01068 6.4836 3.87936 6.49936C3.74804 6.51512 3.62111 6.55659 3.50581 6.6214C3.39052 6.68622 3.28912 6.77311 3.2074 6.87711C3.12569 6.98111 3.06526 7.10019 3.02956 7.22754C2.99386 7.3549 2.9836 7.48804 2.99936 7.61936C3.2852 9.8777 4.42269 11.9416 6.17936 13.3894L3.87936 15.7094C3.71554 15.9007 3.62993 16.1467 3.63965 16.3984C3.64937 16.6501 3.7537 16.8888 3.9318 17.0669C4.10989 17.245 4.34863 17.3494 4.60031 17.3591C4.85198 17.3688 5.09806 17.2832 5.28936 17.1194L7.89936 14.5194C8.86916 15.0094 9.91922 15.3211 10.9994 15.4394V18.9994C10.9994 19.2646 11.1047 19.5189 11.2923 19.7065C11.4798 19.894 11.7341 19.9994 11.9994 19.9994C12.2646 19.9994 12.5189 19.894 12.7065 19.7065C12.894 19.5189 12.9994 19.2646 12.9994 18.9994V15.4394C14.0795 15.3211 15.1296 15.0094 16.0994 14.5194L18.7094 17.1194C18.9007 17.2832 19.1467 17.3688 19.3984 17.3591C19.6501 17.3494 19.8888 17.245 20.0669 17.0669C20.245 16.8888 20.3493 16.6501 20.3591 16.3984C20.3688 16.1467 20.2832 15.9007 20.1194 15.7094L17.8094 13.3894Z" fill="black"/>
</svg>
