<svg width="24" height="24" viewBox="0 0 24 24" fill="none" xmlns="http://www.w3.org/2000/svg">
<path d="M4.46484 7.00781H19.5314H19.8127V7.28906V10.6875V10.9688H19.5314H4.46484H4.18359V10.6875V7.28906V7.00781H4.46484ZM19.2502 7.57031H4.74609V10.4063H19.2502V7.57031Z" fill="black"/>
<path d="M14.754 10.4062H19.5327H19.8139V10.6875V14.0175V14.2987H19.5327H15.6117H15.3305V14.0175V12.7507H14.7539H14.4727V12.4695V10.6875V10.4062H14.754ZM19.2514 10.9688H15.0353V12.1881H15.6118H15.8931V12.4693V13.7361H19.2515L19.2514 10.9688Z" fill="black"/>
<path d="M4.46484 10.4062H9.24353H9.52478V10.6875V12.4694V12.7506H9.24353H8.3181V14.0174V14.2987H8.03685H4.46484H4.18359V14.0174V10.6875V10.4062H4.46484ZM8.96228 10.9688H4.7461V13.7363H7.75559V12.4695V12.1882H8.03685H8.96228V10.9688Z" fill="black"/>
<path d="M15.6133 13.7344H19.5343H19.8155V14.0156V17.3798V17.6611H19.5343H15.6133H15.332V17.3798V14.0156V13.7344H15.6133ZM19.253 14.2969H15.8945V17.0986H19.253V14.2969Z" fill="black"/>
<path d="M4.46484 13.7344H8.03684H8.31809V14.0156V17.3798V17.6611H8.03684H4.46484H4.18359V17.3798V14.0156V13.7344H4.46484ZM7.75559 14.2969H4.74609V17.0986H7.75559V14.2969Z" fill="black"/>
<path d="M3.28125 5H20.7188H21V5.28125V7.2882V7.56945H20.7188H3.28125H3V7.2882V5.28125V5H3.28125ZM20.4375 5.5625H3.5625V7.00695H20.4375V5.5625Z" fill="black"/>
<path d="M4.46875 17.1016H19.5324H19.8136V17.3828V19.3247V19.606H19.5324H4.46875H4.1875V19.3247V17.3828V17.1016H4.46875ZM19.2511 17.6641H4.75V19.0435H19.2511V17.6641Z" fill="black"/>
<path d="M11.8705 12.4542C11.8434 12.9029 11.5592 13.5625 10.5276 14.4014C10.3329 14.874 10.459 15.2905 10.7423 15.5802C10.8877 15.729 11.074 15.8471 11.2809 15.9256C11.4905 16.0052 11.7191 16.0437 11.946 16.0319C12.4702 16.0047 12.9905 15.701 13.2447 15.0039C13.3053 14.4293 13.1295 13.8449 12.8032 13.3523C12.5615 12.9873 12.2392 12.6745 11.8705 12.4542ZM10.123 14.0066C11.7736 12.6885 11.2564 12.1493 11.255 12.1477L11.2555 12.1472C11.1906 12.0749 11.1652 11.9708 11.1979 11.8719C11.2464 11.7251 11.4048 11.6454 11.5517 11.6939C12.2474 11.9258 12.8604 12.4221 13.2714 13.0424C13.673 13.6486 13.8856 14.3767 13.7998 15.0977L13.7992 15.0976C13.7969 15.1174 13.7923 15.1373 13.7855 15.157C13.4474 16.1301 12.7157 16.5537 11.9746 16.5921C11.6689 16.6079 11.3625 16.5568 11.083 16.4506C10.8007 16.3434 10.5437 16.1795 10.3401 15.9711C9.89335 15.5141 9.70081 14.8553 10.0394 14.1164C10.0571 14.0748 10.0851 14.0368 10.123 14.0066Z" fill="black"/>
</svg>
