<svg width="24" height="24" viewBox="0 0 24 24" fill="none" xmlns="http://www.w3.org/2000/svg">
<path d="M20.7102 19.2902L4.71019 3.29019C4.61695 3.19695 4.50626 3.12299 4.38443 3.07253C4.26261 3.02207 4.13204 2.99609 4.00019 2.99609C3.86833 2.99609 3.73776 3.02207 3.61594 3.07253C3.49411 3.12299 3.38342 3.19695 3.29019 3.29019C3.10188 3.47849 2.99609 3.73388 2.99609 4.00019C2.99609 4.26649 3.10188 4.52188 3.29019 4.71019L19.2902 20.7102C19.3831 20.8039 19.4937 20.8783 19.6156 20.9291C19.7375 20.9798 19.8682 21.006 20.0002 21.006C20.1322 21.006 20.2629 20.9798 20.3848 20.9291C20.5066 20.8783 20.6172 20.8039 20.7102 20.7102C20.8039 20.6172 20.8783 20.5066 20.9291 20.3848C20.9798 20.2629 21.006 20.1322 21.006 20.0002C21.006 19.8682 20.9798 19.7375 20.9291 19.6156C20.8783 19.4937 20.8039 19.3831 20.7102 19.2902Z" fill="black"/>
<path d="M12.5415 18.06L12.8115 15.64L10.0015 12.8H6.87151L8.11151 10.94L6.67151 9.5L4.17151 13.24C4.06977 13.3905 4.01096 13.5659 4.00139 13.7473C3.99182 13.9287 4.03185 14.1093 4.11718 14.2697C4.20251 14.4301 4.32992 14.5642 4.48572 14.6576C4.64153 14.7511 4.81984 14.8003 5.00151 14.8H10.8915L10.1215 21.89C10.0967 22.1125 10.1472 22.3369 10.2651 22.5273C10.3829 22.7177 10.5613 22.863 10.7715 22.94C10.8805 22.9796 10.9956 22.9999 11.1115 23C11.2753 23.0002 11.4367 22.9603 11.5814 22.8835C11.7261 22.8068 11.8498 22.6957 11.9415 22.56L15.0615 17.89L13.6215 16.45L12.5415 18.06Z" fill="black"/>
<path d="M11.4614 5.94088L11.1914 8.36088L14.0014 11.2009H17.1014L15.8614 13.0609L17.3014 14.5009L19.8014 10.7609C19.9018 10.6125 19.9605 10.4398 19.9714 10.261C19.9822 10.0821 19.9448 9.90361 19.863 9.74416C19.7812 9.58472 19.6581 9.45017 19.5066 9.3546C19.355 9.25903 19.1805 9.20594 19.0014 9.20088H13.1114L13.8814 2.11088C13.8948 1.89649 13.8389 1.68347 13.7218 1.50337C13.6047 1.32326 13.4328 1.18564 13.2314 1.11088C13.0219 1.03478 12.793 1.03084 12.5811 1.09969C12.3691 1.16853 12.1862 1.30622 12.0614 1.49088L8.94141 6.11088L10.3814 7.55088L11.4614 5.94088Z" fill="black"/>
</svg>
