<svg width="24" height="24" viewBox="0 0 24 24" fill="none" xmlns="http://www.w3.org/2000/svg">
<path d="M11.1115 23.0001C10.9956 23 10.8805 22.9797 10.7715 22.9401C10.5613 22.8631 10.3829 22.7178 10.2651 22.5274C10.1472 22.337 10.0967 22.1126 10.1215 21.8901L10.8915 14.8001H5.00151C4.81984 14.8004 4.64153 14.7512 4.48572 14.6577C4.32992 14.5643 4.20251 14.4302 4.11718 14.2698C4.03185 14.1094 3.99182 13.9288 4.00139 13.7474C4.01096 13.566 4.06977 13.3906 4.17151 13.2401L12.0615 1.4401C12.1863 1.25544 12.3692 1.11775 12.5812 1.04891C12.7931 0.980061 13.022 0.983999 13.2315 1.0601C13.4329 1.13486 13.6048 1.27248 13.7219 1.45259C13.839 1.63269 13.8949 1.84571 13.8815 2.0601L13.1115 9.2001H19.0015C19.1832 9.19982 19.3615 9.24904 19.5173 9.34247C19.6731 9.4359 19.8005 9.57001 19.8858 9.73039C19.9712 9.89077 20.0112 10.0714 20.0016 10.2528C19.9921 10.4342 19.9332 10.6096 19.8315 10.7601L11.9415 22.5601C11.8498 22.6958 11.7261 22.8069 11.5814 22.8836C11.4367 22.9603 11.2753 23.0003 11.1115 23.0001ZM6.87151 12.8001H12.0015C12.1411 12.8004 12.279 12.83 12.4064 12.8868C12.5339 12.9436 12.648 13.0265 12.7415 13.1301C12.8359 13.2351 12.9069 13.3589 12.95 13.4933C12.9931 13.6278 13.0073 13.7698 12.9915 13.9101L12.5415 18.0601L17.1315 11.2001H12.0015C11.8604 11.201 11.7207 11.1719 11.5916 11.1149C11.4625 11.058 11.3469 10.9743 11.2525 10.8695C11.158 10.7646 11.0868 10.641 11.0436 10.5066C11.0003 10.3723 10.986 10.2304 11.0015 10.0901L11.4515 5.9401L6.87151 12.8001Z" fill="black"/>
</svg>
