<svg width="24" height="24" viewBox="0 0 24 24" fill="none" xmlns="http://www.w3.org/2000/svg">
<path d="M6.09 19H18.09L16.79 20.29C16.6017 20.4783 16.4959 20.7337 16.4959 21C16.4959 21.2663 16.6017 21.5217 16.79 21.71C16.9783 21.8983 17.2337 22.0041 17.5 22.0041C17.7663 22.0041 18.0217 21.8983 18.21 21.71L21.21 18.71C21.3037 18.617 21.3781 18.5064 21.4289 18.3846C21.4797 18.2627 21.5058 18.132 21.5058 18C21.5058 17.868 21.4797 17.7373 21.4289 17.6154C21.3781 17.4936 21.3037 17.383 21.21 17.29L18.21 14.29C18.117 14.1963 18.0064 14.1219 17.8846 14.0711C17.7627 14.0203 17.632 13.9942 17.5 13.9942C17.368 13.9942 17.2373 14.0203 17.1154 14.0711C16.9936 14.1219 16.883 14.1963 16.79 14.29C16.6963 14.383 16.6219 14.4936 16.5711 14.6154C16.5203 14.7373 16.4942 14.868 16.4942 15C16.4942 15.132 16.5203 15.2627 16.5711 15.3846C16.6219 15.5064 16.6963 15.617 16.79 15.71L18.09 17H6.09C5.88513 17.004 5.68148 16.9676 5.49069 16.8928C5.29989 16.8181 5.1257 16.7065 4.97804 16.5644C4.83039 16.4223 4.71218 16.2525 4.63015 16.0647C4.54813 15.877 4.5039 15.6749 4.5 15.47V13C4.5 12.7348 4.39464 12.4804 4.20711 12.2929C4.01957 12.1054 3.76522 12 3.5 12C3.23478 12 2.98043 12.1054 2.79289 12.2929C2.60536 12.4804 2.5 12.7348 2.5 13V15.47C2.50392 15.9375 2.59989 16.3997 2.78244 16.8301C2.96498 17.2605 3.23051 17.6508 3.56388 17.9785C3.89724 18.3063 4.29191 18.5653 4.72534 18.7405C5.15878 18.9158 5.62249 19.004 6.09 19Z" fill="black"/>
<path d="M5.79189 9.71189C5.9802 9.9002 6.23559 10.006 6.50189 10.006C6.76819 10.006 7.02359 9.9002 7.21189 9.71189C7.4002 9.52359 7.50598 9.26819 7.50598 9.00189C7.50598 8.73559 7.4002 8.4802 7.21189 8.29189L5.91189 7.00189H17.9119C18.1168 6.99791 18.3204 7.03434 18.5112 7.10908C18.702 7.18383 18.8762 7.29542 19.0238 7.43751C19.1715 7.57959 19.2897 7.74937 19.3717 7.93714C19.4538 8.12492 19.498 8.32702 19.5019 8.53189V11.0019C19.5019 11.2671 19.6072 11.5215 19.7948 11.709C19.9823 11.8965 20.2367 12.0019 20.5019 12.0019C20.7671 12.0019 21.0215 11.8965 21.209 11.709C21.3965 11.5215 21.5019 11.2671 21.5019 11.0019V8.53189C21.498 8.06438 21.402 7.60222 21.2195 7.1718C21.0369 6.74138 20.7714 6.35114 20.438 6.02334C20.1046 5.69555 19.71 5.43663 19.2765 5.26137C18.8431 5.08611 18.3794 4.99794 17.9119 5.00189H5.91189L7.21189 3.71189C7.30562 3.61893 7.38001 3.50833 7.43078 3.38647C7.48155 3.26461 7.50769 3.1339 7.50769 3.00189C7.50769 2.86988 7.48155 2.73917 7.43078 2.61732C7.38001 2.49546 7.30562 2.38486 7.21189 2.29189C7.11893 2.19816 7.00833 2.12377 6.88647 2.073C6.76461 2.02223 6.6339 1.99609 6.50189 1.99609C6.36988 1.99609 6.23917 2.02223 6.11732 2.073C5.99546 2.12377 5.88486 2.19816 5.79189 2.29189L2.79189 5.29189C2.69816 5.38486 2.62377 5.49546 2.573 5.61732C2.52223 5.73917 2.49609 5.86988 2.49609 6.00189C2.49609 6.1339 2.52223 6.26461 2.573 6.38647C2.62377 6.50833 2.69816 6.61893 2.79189 6.71189L5.79189 9.71189Z" fill="black"/>
</svg>
