<svg width="24" height="24" viewBox="0 0 24 24" fill="none" xmlns="http://www.w3.org/2000/svg">
<path d="M5.00019 6.09V18.09L3.71019 16.79C3.52188 16.6017 3.26649 16.4959 3.00019 16.4959C2.73388 16.4959 2.47849 16.6017 2.29019 16.79C2.10188 16.9783 1.99609 17.2337 1.99609 17.5C1.99609 17.7663 2.10188 18.0217 2.29019 18.21L5.29019 21.21C5.38315 21.3037 5.49375 21.3781 5.61561 21.4289C5.73747 21.4797 5.86817 21.5058 6.00019 21.5058C6.1322 21.5058 6.2629 21.4797 6.38476 21.4289C6.50662 21.3781 6.61722 21.3037 6.71019 21.21L9.71019 18.21C9.80391 18.117 9.87831 18.0064 9.92908 17.8846C9.97985 17.7627 10.006 17.632 10.006 17.5C10.006 17.368 9.97985 17.2373 9.92908 17.1154C9.87831 16.9936 9.80391 16.883 9.71019 16.79C9.61722 16.6963 9.50662 16.6219 9.38476 16.5711C9.2629 16.5203 9.1322 16.4942 9.00019 16.4942C8.86817 16.4942 8.73747 16.5203 8.61561 16.5711C8.49375 16.6219 8.38315 16.6963 8.29019 16.79L7.00019 18.09V6.09C6.99621 5.88513 7.03263 5.68148 7.10737 5.49069C7.18212 5.29989 7.29372 5.1257 7.4358 4.97804C7.57788 4.83039 7.74766 4.71218 7.93544 4.63015C8.12321 4.54813 8.32531 4.5039 8.53019 4.5H11.0002C11.2654 4.5 11.5198 4.39464 11.7073 4.20711C11.8948 4.01957 12.0002 3.76522 12.0002 3.5C12.0002 3.23478 11.8948 2.98043 11.7073 2.79289C11.5198 2.60536 11.2654 2.5 11.0002 2.5H8.53019C8.06267 2.50392 7.60052 2.59989 7.1701 2.78244C6.73968 2.96498 6.34943 3.23051 6.02163 3.56388C5.69384 3.89724 5.43492 4.29191 5.25966 4.72534C5.0844 5.15878 4.99623 5.62249 5.00019 6.09Z" fill="black"/>
<path d="M14.29 5.79189C14.1017 5.9802 13.9959 6.23559 13.9959 6.50189C13.9959 6.76819 14.1017 7.02359 14.29 7.21189C14.4783 7.4002 14.7337 7.50598 15 7.50598C15.2663 7.50598 15.5217 7.4002 15.71 7.21189L17 5.91189V17.9119C17.004 18.1168 16.9676 18.3204 16.8928 18.5112C16.8181 18.702 16.7065 18.8762 16.5644 19.0238C16.4223 19.1715 16.2525 19.2897 16.0647 19.3717C15.877 19.4538 15.6749 19.498 15.47 19.5019H13C12.7348 19.5019 12.4804 19.6072 12.2929 19.7948C12.1054 19.9823 12 20.2367 12 20.5019C12 20.7671 12.1054 21.0215 12.2929 21.209C12.4804 21.3965 12.7348 21.5019 13 21.5019H15.47C15.9375 21.498 16.3997 21.402 16.8301 21.2195C17.2605 21.0369 17.6508 20.7714 17.9785 20.438C18.3063 20.1046 18.5653 19.71 18.7405 19.2765C18.9158 18.8431 19.004 18.3794 19 17.9119V5.91189L20.29 7.21189C20.383 7.30562 20.4936 7.38001 20.6154 7.43078C20.7373 7.48155 20.868 7.50769 21 7.50769C21.132 7.50769 21.2627 7.48155 21.3846 7.43078C21.5064 7.38001 21.617 7.30562 21.71 7.21189C21.8037 7.11893 21.8781 7.00833 21.9289 6.88647C21.9797 6.76461 22.0058 6.6339 22.0058 6.50189C22.0058 6.36988 21.9797 6.23917 21.9289 6.11732C21.8781 5.99546 21.8037 5.88486 21.71 5.79189L18.71 2.79189C18.617 2.69816 18.5064 2.62377 18.3846 2.573C18.2627 2.52223 18.132 2.49609 18 2.49609C17.868 2.49609 17.7373 2.52223 17.6154 2.573C17.4936 2.62377 17.383 2.69816 17.29 2.79189L14.29 5.79189Z" fill="black"/>
</svg>
