<svg width="24" height="24" viewBox="0 0 24 24" fill="none" xmlns="http://www.w3.org/2000/svg">
<path d="M13.8982 22C13.6818 22 13.4713 21.9298 13.2982 21.8L9.29818 18.75C9.17582 18.6558 9.07693 18.5346 9.00927 18.3958C8.94161 18.257 8.90701 18.1044 8.90818 17.95V14.68L4.10818 5.46C4.02913 5.30741 3.99073 5.13703 3.9967 4.96529C4.00266 4.79354 4.05279 4.62623 4.14223 4.4795C4.23168 4.33276 4.35743 4.21155 4.50736 4.12757C4.65729 4.04358 4.82633 3.99964 4.99818 4H18.9982C19.1717 4.00003 19.3423 4.04523 19.4931 4.13114C19.6438 4.21705 19.7697 4.34072 19.8582 4.49C19.9459 4.64202 19.9922 4.81447 19.9922 4.99C19.9922 5.16554 19.9459 5.33798 19.8582 5.49L14.8582 14.7V21C14.8595 21.1864 14.8087 21.3694 14.7115 21.5284C14.6143 21.6874 14.4746 21.8161 14.3082 21.9C14.1802 21.9621 14.0404 21.9962 13.8982 22ZM10.8982 17.46L12.8982 18.99V14.44C12.8976 14.2876 12.9318 14.1371 12.9982 14L17.2982 6H6.63818L10.7682 14C10.8411 14.1423 10.8788 14.3001 10.8782 14.46L10.8982 17.46Z" fill="black"/>
</svg>
