<svg width="24" height="24" viewBox="0 0 24 24" fill="none" xmlns="http://www.w3.org/2000/svg">
<path d="M19.1992 7.00061H18.8092C18.9291 6.68053 18.9933 6.34233 18.9992 6.00061C18.9783 5.18719 18.6363 4.41513 18.0479 3.85303C17.4596 3.29094 16.6727 2.98448 15.8592 3.00061C15.0598 3.01787 14.2796 3.24976 13.6006 3.67199C12.9215 4.09422 12.3684 4.69127 11.9992 5.40061C11.6301 4.69127 11.077 4.09422 10.3979 3.67199C9.71881 3.24976 8.93869 3.01787 8.13923 3.00061C7.3257 2.98448 6.53885 3.29094 5.95053 3.85303C5.3622 4.41513 5.0202 5.18719 4.99923 6.00061C5.00514 6.34233 5.06939 6.68053 5.18923 7.00061H4.79923C4.53608 7.02559 4.2805 7.10249 4.04726 7.22686C3.81402 7.35123 3.60775 7.5206 3.44037 7.72517C3.27299 7.92975 3.14782 8.16548 3.0721 8.41873C2.99638 8.67198 2.97161 8.93772 2.99923 9.2006V12.8006C2.95251 13.2848 3.07701 13.7701 3.35106 14.1721C3.62512 14.574 4.03139 14.8672 4.49923 15.0006V19.3706C4.5301 19.8242 4.73627 20.2479 5.0741 20.5522C5.41193 20.8564 5.8549 21.0172 6.30923 21.0006H17.6892C18.1501 21.0169 18.5988 20.8506 18.9377 20.5379C19.2766 20.2252 19.4784 19.7913 19.4992 19.3306V15.0006C19.9671 14.8672 20.3733 14.574 20.6474 14.1721C20.9214 13.7701 21.0459 13.2848 20.9992 12.8006V9.2006C21.0268 8.93772 21.0021 8.67198 20.9264 8.41873C20.8506 8.16548 20.7255 7.92975 20.5581 7.72517C20.3907 7.5206 20.1844 7.35123 19.9512 7.22686C19.718 7.10249 19.4624 7.02559 19.1992 7.00061ZM18.9992 9.2006V12.8006C19.0112 12.8667 19.0112 12.9345 18.9992 13.0006H12.9992V9.00061H18.9992C19.0112 9.06673 19.0112 9.13448 18.9992 9.2006ZM15.8592 5.00061C16.1425 4.9841 16.4209 5.07975 16.6343 5.26688C16.8476 5.45401 16.9787 5.71758 16.9992 6.00061C16.9787 6.28363 16.8476 6.5472 16.6343 6.73433C16.4209 6.92146 16.1425 7.01711 15.8592 7.00061H13.3992C13.5742 6.46638 13.8992 5.99376 14.3354 5.63914C14.7715 5.28451 15.3005 5.06286 15.8592 5.00061ZM6.99923 6.00061C7.01977 5.71758 7.15087 5.45401 7.3642 5.26688C7.57753 5.07975 7.85594 4.9841 8.13923 5.00061C8.69614 5.06467 9.22299 5.28715 9.65725 5.64165C10.0915 5.99615 10.415 6.46779 10.5892 7.00061H8.13923C7.85594 7.01711 7.57753 6.92146 7.3642 6.73433C7.15087 6.5472 7.01977 6.28363 6.99923 6.00061ZM4.99923 9.2006C4.98723 9.13448 4.98723 9.06673 4.99923 9.00061H10.9992V13.0006H4.99923C4.98723 12.9345 4.98723 12.8667 4.99923 12.8006V9.2006ZM6.49923 15.0006H10.9992V19.0006H6.49923V15.0006ZM12.9992 19.0006V15.0006H17.4992V19.0006H12.9992Z" fill="black"/>
</svg>
