<svg width="24" height="24" viewBox="0 0 24 24" fill="none" xmlns="http://www.w3.org/2000/svg">
<path d="M12.0006 21.9985H11.5706C9.05548 21.8545 6.68356 20.7812 4.91517 18.9869C3.14678 17.1927 2.10806 14.8054 2.0006 12.2885C1.94965 10.5919 2.33139 8.9102 3.10988 7.40186C3.88837 5.89353 5.03799 4.60818 6.45045 3.66687C7.86292 2.72557 9.49174 2.15928 11.1835 2.02135C12.8753 1.88343 14.5743 2.1784 16.1206 2.87848C16.3 2.96294 16.4606 3.08258 16.5929 3.23032C16.7252 3.37805 16.8264 3.55086 16.8906 3.73848C16.9538 3.92846 16.9775 4.12934 16.9603 4.32881C16.9431 4.52828 16.8854 4.72213 16.7906 4.89848L15.5006 7.27848C15.33 7.59384 15.0479 7.83421 14.7094 7.95257C14.371 8.07094 14.0006 8.05878 13.6706 7.91848C12.8389 7.59164 11.9288 7.51982 11.0561 7.71216C10.1835 7.9045 9.38782 8.35229 8.7706 8.99848C8.35729 9.44506 8.04086 9.97233 7.84122 10.5471C7.64159 11.122 7.56307 11.7319 7.6106 12.3385C7.67019 12.9248 7.84802 13.4929 8.13333 14.0085C8.41865 14.5241 8.80553 14.9766 9.2706 15.3385C9.74679 15.7321 10.2986 16.0239 10.892 16.1959C11.4854 16.3679 12.1077 16.4164 12.7206 16.3385C13.2424 16.2684 13.7446 16.0931 14.1966 15.8232C14.6487 15.5534 15.0413 15.1945 15.3506 14.7685H12.4506C12.0678 14.7685 11.7005 14.6171 11.4288 14.3473C11.1572 14.0776 11.0032 13.7113 11.0006 13.3285V10.6485C11.0006 10.2639 11.1534 9.89511 11.4253 9.62318C11.6972 9.35125 12.066 9.19848 12.4506 9.19848H20.5506C20.9326 9.20107 21.2985 9.3533 21.5695 9.62251C21.8406 9.89172 21.9954 10.2565 22.0006 10.6385V12.5185C21.8673 15.0795 20.7551 17.4914 18.894 19.2557C17.0329 21.0201 14.5651 22.002 12.0006 21.9985ZM12.0006 3.99848C10.9295 3.998 9.86925 4.21261 8.88267 4.62957C7.89608 5.04653 7.00327 5.65736 6.25717 6.42584C5.51108 7.19431 4.9269 8.10478 4.53927 9.10326C4.15165 10.1017 3.96847 11.1679 4.0006 12.2385C4.0866 14.2502 4.91702 16.1583 6.33065 17.5922C7.74428 19.0262 9.64027 19.8838 11.6506 19.9985C13.7613 20.0937 15.824 19.3501 17.3884 17.93C18.9527 16.5099 19.8918 14.5285 20.0006 12.4185V11.1985H13.0006V12.7785H18.3106L17.9006 14.0785C17.577 15.182 16.9431 16.1692 16.0744 16.9227C15.2057 17.6762 14.1387 18.1641 13.0006 18.3285C12.1206 18.4562 11.2238 18.4041 10.3644 18.1755C9.50502 17.9469 8.7009 17.5465 8.0006 16.9985C7.31058 16.4572 6.74057 15.7784 6.32673 15.0051C5.91288 14.2319 5.66423 13.3811 5.59653 12.5067C5.52884 11.6323 5.64358 10.7534 5.93348 9.92571C6.22338 9.09799 6.68212 8.33955 7.2806 7.69848C8.11762 6.79634 9.19286 6.1495 10.382 5.83275C11.5712 5.51599 12.8257 5.54225 14.0006 5.90848L14.7706 4.47848C13.8834 4.15416 12.9452 3.99159 12.0006 3.99848Z" fill="black"/>
</svg>
