<svg width="24" height="24" viewBox="0 0 24 24" fill="none" xmlns="http://www.w3.org/2000/svg">
<path d="M20 13.9999H15.7L16.43 9.99988H20C20.2652 9.99988 20.5196 9.89452 20.7071 9.70698C20.8946 9.51945 21 9.26509 21 8.99988C21 8.73466 20.8946 8.48031 20.7071 8.29277C20.5196 8.10524 20.2652 7.99988 20 7.99988H16.79L17.48 4.18988C17.5073 4.05618 17.5069 3.91832 17.4789 3.78478C17.4509 3.65124 17.3958 3.52484 17.3171 3.41337C17.2385 3.3019 17.1378 3.20771 17.0213 3.1366C16.9049 3.06549 16.7751 3.01896 16.64 2.99988C16.5057 2.96788 16.3662 2.96404 16.2303 2.98863C16.0944 3.01321 15.965 3.06567 15.8504 3.14271C15.7358 3.21974 15.6384 3.31968 15.5643 3.43623C15.4902 3.55277 15.4411 3.6834 15.42 3.81988L14.67 7.99988H10.79L11.48 4.18988C11.5073 4.05618 11.5069 3.91832 11.4789 3.78478C11.4509 3.65124 11.3958 3.52484 11.3171 3.41337C11.2384 3.3019 11.1378 3.20771 11.0213 3.1366C10.9049 3.06549 10.7751 3.01896 10.64 2.99988C10.5057 2.96788 10.3662 2.96404 10.2303 2.98863C10.0944 3.01321 9.96504 3.06567 9.85042 3.14271C9.73581 3.21974 9.63839 3.31968 9.56431 3.43623C9.49024 3.55277 9.4411 3.6834 9.42 3.81988L8.67 7.99988H4C3.73478 7.99988 3.48043 8.10524 3.29289 8.29277C3.10536 8.48031 3 8.73466 3 8.99988C3 9.26509 3.10536 9.51945 3.29289 9.70698C3.48043 9.89452 3.73478 9.99988 4 9.99988H8.3L7.57 13.9999H4C3.73478 13.9999 3.48043 14.1052 3.29289 14.2928C3.10536 14.4803 3 14.7347 3 14.9999C3 15.2651 3.10536 15.5194 3.29289 15.707C3.48043 15.8945 3.73478 15.9999 4 15.9999H7.21L6.52 19.8099C6.49273 19.9436 6.49312 20.0814 6.52113 20.215C6.54914 20.3485 6.60418 20.4749 6.68286 20.5864C6.76155 20.6979 6.86222 20.792 6.97867 20.8632C7.09512 20.9343 7.22489 20.9808 7.36 20.9999C7.49434 21.0319 7.63385 21.0357 7.76974 21.0111C7.90563 20.9865 8.03496 20.9341 8.14958 20.8571C8.26419 20.78 8.36161 20.6801 8.43569 20.5635C8.50976 20.447 8.5589 20.3164 8.58 20.1799L9.33 15.9999H13.21L12.52 19.8099C12.4927 19.9436 12.4931 20.0814 12.5211 20.215C12.5491 20.3485 12.6042 20.4749 12.6829 20.5864C12.7616 20.6979 12.8622 20.792 12.9787 20.8632C13.0951 20.9343 13.2249 20.9808 13.36 20.9999C13.4943 21.0319 13.6338 21.0357 13.7697 21.0111C13.9056 20.9865 14.035 20.9341 14.1496 20.8571C14.2642 20.78 14.3616 20.6801 14.4357 20.5635C14.5098 20.447 14.5589 20.3164 14.58 20.1799L15.33 15.9999H20C20.2652 15.9999 20.5196 15.8945 20.7071 15.707C20.8946 15.5194 21 15.2651 21 14.9999C21 14.7347 20.8946 14.4803 20.7071 14.2928C20.5196 14.1052 20.2652 13.9999 20 13.9999ZM9.7 13.9999L10.43 9.99988H14.3L13.57 13.9999H9.7Z" fill="black"/>
</svg>
