<svg width="24" height="24" viewBox="0 0 24 24" fill="none" xmlns="http://www.w3.org/2000/svg">
<path d="M12.0015 2C9.30137 2.05257 6.73233 3.17378 4.85772 5.11775C2.9831 7.06173 1.95593 9.66979 2.00145 12.37V17C2.00145 17.7911 2.23605 18.5645 2.67557 19.2223C3.1151 19.8801 3.73981 20.3928 4.47072 20.6955C5.20162 20.9983 6.00589 21.0775 6.78181 20.9231C7.55774 20.7688 8.27047 20.3878 8.82988 19.8284C9.38929 19.269 9.77025 18.5563 9.92459 17.7804C10.0789 17.0044 9.99972 16.2002 9.69697 15.4693C9.39422 14.7384 8.88153 14.1136 8.22373 13.6741C7.56594 13.2346 6.79258 13 6.00145 13C5.29649 13.003 4.60544 13.1964 4.00145 13.56V12.37C3.95582 10.2002 4.77225 8.10075 6.27182 6.53183C7.77139 4.96291 9.83178 4.05245 12.0015 4C14.1711 4.05245 16.2315 4.96291 17.7311 6.53183C19.2306 8.10075 20.0471 10.2002 20.0015 12.37V13.56C19.3975 13.1964 18.7064 13.003 18.0015 13C17.2103 13 16.437 13.2346 15.7792 13.6741C15.1214 14.1136 14.6087 14.7384 14.3059 15.4693C14.0032 16.2002 13.924 17.0044 14.0783 17.7804C14.2326 18.5563 14.6136 19.269 15.173 19.8284C15.7324 20.3878 16.4452 20.7688 17.2211 20.9231C17.997 21.0775 18.8013 20.9983 19.5322 20.6955C20.2631 20.3928 20.8878 19.8801 21.3273 19.2223C21.7669 18.5645 22.0015 17.7911 22.0015 17V12.37C22.047 9.66979 21.0198 7.06173 19.1452 5.11775C17.2706 3.17378 14.7015 2.05257 12.0015 2ZM6.00145 15C6.39701 15 6.78369 15.1173 7.11259 15.3371C7.44149 15.5568 7.69783 15.8692 7.84921 16.2346C8.00059 16.6001 8.04019 17.0022 7.96302 17.3902C7.88585 17.7781 7.69537 18.1345 7.41566 18.4142C7.13596 18.6939 6.77959 18.8844 6.39163 18.9616C6.00367 19.0387 5.60154 18.9991 5.23608 18.8478C4.87063 18.6964 4.55827 18.44 4.33851 18.1111C4.11875 17.7822 4.00145 17.3956 4.00145 17C4.00145 16.4696 4.21216 15.9609 4.58724 15.5858C4.96231 15.2107 5.47102 15 6.00145 15ZM18.0015 19C17.6059 19 17.2192 18.8827 16.8903 18.6629C16.5614 18.4432 16.3051 18.1308 16.1537 17.7654C16.0023 17.3999 15.9627 16.9978 16.0399 16.6098C16.1171 16.2219 16.3075 15.8655 16.5872 15.5858C16.8669 15.3061 17.2233 15.1156 17.6113 15.0384C17.9992 14.9613 18.4014 15.0009 18.7668 15.1522C19.1323 15.3036 19.4446 15.56 19.6644 15.8889C19.8842 16.2178 20.0015 16.6044 20.0015 17C20.0015 17.5304 19.7907 18.0391 19.4157 18.4142C19.0406 18.7893 18.5319 19 18.0015 19Z" fill="black"/>
</svg>
