<svg width="24" height="24" viewBox="0 0 24 24" fill="none" xmlns="http://www.w3.org/2000/svg">
<path d="M12.0013 20.9995C11.8697 21.0003 11.7393 20.9751 11.6174 20.9253C11.4956 20.8755 11.3848 20.8022 11.2913 20.7095L3.52134 12.9295C2.5467 11.9447 2 10.6151 2 9.22953C2 7.84396 2.5467 6.51435 3.52134 5.52953C4.5036 4.55004 5.83417 4 7.22134 4C8.60851 4 9.93908 4.55004 10.9213 5.52953L12.0013 6.60953L13.0813 5.52953C14.0636 4.55004 15.3942 4 16.7813 4C18.1685 4 19.4991 4.55004 20.4813 5.52953C21.456 6.51435 22.0027 7.84396 22.0027 9.22953C22.0027 10.6151 21.456 11.9447 20.4813 12.9295L12.7113 20.7095C12.6179 20.8022 12.5071 20.8755 12.3852 20.9253C12.2634 20.9751 12.1329 21.0003 12.0013 20.9995ZM7.22134 5.99953C6.79801 5.99761 6.37852 6.07971 5.98715 6.24106C5.59577 6.40242 5.24031 6.63982 4.94134 6.93953C4.3374 7.54665 3.99837 8.36818 3.99837 9.22453C3.99837 10.0809 4.3374 10.9024 4.94134 11.5095L12.0013 18.5795L19.0613 11.5095C19.6653 10.9024 20.0043 10.0809 20.0043 9.22453C20.0043 8.36818 19.6653 7.54665 19.0613 6.93953C18.445 6.35724 17.6292 6.03282 16.7813 6.03282C15.9334 6.03282 15.1177 6.35724 14.5013 6.93953L12.7113 8.73953C12.6184 8.83326 12.5078 8.90765 12.3859 8.95842C12.2641 9.00919 12.1333 9.03533 12.0013 9.03533C11.8693 9.03533 11.7386 9.00919 11.6168 8.95842C11.4949 8.90765 11.3843 8.83326 11.2913 8.73953L9.50134 6.93953C9.20237 6.63982 8.8469 6.40242 8.45553 6.24106C8.06416 6.07971 7.64466 5.99761 7.22134 5.99953Z" fill="black"/>
</svg>
