<svg width="24" height="24" viewBox="0 0 24 24" fill="none" xmlns="http://www.w3.org/2000/svg">
<path fill-rule="evenodd" clip-rule="evenodd" d="M5.125 11.125C5.53921 11.125 5.875 11.4608 5.875 11.875V20.125C5.875 20.2576 5.92768 20.3848 6.02145 20.4786C6.11522 20.5723 6.24239 20.625 6.375 20.625H9.375V17C9.375 16.6353 9.51987 16.2856 9.77773 16.0277C10.0356 15.7699 10.3853 15.625 10.75 15.625H13.25C13.6147 15.625 13.9644 15.7699 14.2223 16.0277C14.4801 16.2856 14.625 16.6353 14.625 17V20.625H17.625C17.7576 20.625 17.8848 20.5723 17.9786 20.4786C18.0723 20.3848 18.125 20.2576 18.125 20.125V11.875C18.125 11.4608 18.4608 11.125 18.875 11.125C19.2892 11.125 19.625 11.4608 19.625 11.875V20.125C19.625 20.6554 19.4143 21.1641 19.0392 21.5392C18.6641 21.9143 18.1554 22.125 17.625 22.125H13.875C13.4608 22.125 13.125 21.7892 13.125 21.375V17.125H10.875V21.375C10.875 21.7892 10.5392 22.125 10.125 22.125H6.375C5.84457 22.125 5.33586 21.9143 4.96079 21.5392C4.58571 21.1641 4.375 20.6554 4.375 20.125V11.875C4.375 11.4608 4.71079 11.125 5.125 11.125Z" fill="black"/>
<path fill-rule="evenodd" clip-rule="evenodd" d="M11.5315 5.78935C11.8054 5.57022 12.1946 5.57022 12.4685 5.78935L21.8435 13.2893C22.167 13.5481 22.2194 14.0201 21.9607 14.3435C21.7019 14.667 21.23 14.7194 20.9065 14.4607L12 7.33547L3.09355 14.4607C2.7701 14.7194 2.29813 14.667 2.03938 14.3435C1.78062 14.0201 1.83306 13.5481 2.15651 13.2893L11.5315 5.78935Z" fill="black"/>
<path fill-rule="evenodd" clip-rule="evenodd" d="M16.375 1.875C16.7892 1.875 17.125 2.21079 17.125 2.625V9.875C17.125 10.2892 16.7892 10.625 16.375 10.625C15.9608 10.625 15.625 10.2892 15.625 9.875V2.625C15.625 2.21079 15.9608 1.875 16.375 1.875Z" fill="black"/>
<path fill-rule="evenodd" clip-rule="evenodd" d="M15.625 2.625C15.625 2.21079 15.9608 1.875 16.375 1.875H21.375C21.7892 1.875 22.125 2.21079 22.125 2.625V6.375C22.125 6.78921 21.7892 7.125 21.375 7.125H16.375C15.9608 7.125 15.625 6.78921 15.625 6.375V2.625ZM17.125 3.375V5.625H20.625V3.375H17.125Z" fill="black"/>
</svg>
