<svg width="24" height="24" viewBox="0 0 24 24" fill="none" xmlns="http://www.w3.org/2000/svg">
<path d="M19.0002 2H9.00019C7.89719 2 7.00019 2.897 7.00019 4V9.586L2.29319 14.293C2.00719 14.579 1.92119 15.009 2.07619 15.383C2.23119 15.757 2.59619 16 3.00019 16V17V21C3.00019 21.553 3.44819 22 4.00019 22H12.0002H20.0002C20.5532 22 21.0002 21.553 21.0002 21V4C21.0002 2.897 20.1032 2 19.0002 2ZM11.0002 20H5.00019V17V15V14.414L8.00019 11.414L11.0002 14.414V15V18V20ZM19.0002 20H13.0002V18V16C13.4042 16 13.7702 15.757 13.9242 15.383C14.0792 15.009 13.9932 14.579 13.7072 14.293L9.00019 9.586V4H19.0002V20Z" fill="black"/>
<path d="M11 6H13V8H11V6ZM15 6H17V8H15V6ZM15 10.031H17V12H15V10.031ZM15 14H17V16H15V14ZM7 15H9V17H7V15Z" fill="black"/>
</svg>
