<svg width="24" height="24" viewBox="0 0 24 24" fill="none" xmlns="http://www.w3.org/2000/svg">
<path d="M21.0014 11.3492C20.9899 11.1632 20.9267 10.9842 20.819 10.8323C20.7112 10.6803 20.5631 10.5615 20.3914 10.4892L18.2414 9.56918L20.5014 8.26919C20.6616 8.17703 20.7932 8.04226 20.8815 7.87986C20.9697 7.71745 21.0112 7.53376 21.0014 7.34918C20.9899 7.16325 20.9267 6.98421 20.819 6.83226C20.7112 6.68031 20.5631 6.56149 20.3914 6.48918L12.3914 3.07919C12.268 3.02693 12.1354 3 12.0014 3C11.8674 3 11.7348 3.02693 11.6114 3.07919L3.61141 6.48918C3.43972 6.56149 3.29164 6.68031 3.18386 6.83226C3.07608 6.98421 3.01289 7.16325 3.00141 7.34918C2.99159 7.53376 3.03311 7.71745 3.12138 7.87986C3.20964 8.04226 3.34119 8.17703 3.50141 8.26919L5.76141 9.56918L3.61141 10.4892C3.43972 10.5615 3.29164 10.6803 3.18386 10.8323C3.07608 10.9842 3.01289 11.1632 3.00141 11.3492C2.99159 11.5338 3.03311 11.7175 3.12138 11.8799C3.20964 12.0423 3.34119 12.177 3.50141 12.2692L5.76141 13.5692L3.61141 14.4892C3.43972 14.5615 3.29164 14.6803 3.18386 14.8323C3.07608 14.9842 3.01289 15.1632 3.00141 15.3492C2.99159 15.5338 3.03311 15.7175 3.12138 15.8799C3.20964 16.0423 3.34119 16.177 3.50141 16.2692L11.5014 20.8692C11.6534 20.957 11.8259 21.0032 12.0014 21.0032C12.177 21.0032 12.3494 20.957 12.5014 20.8692L20.5014 16.2692C20.6616 16.177 20.7932 16.0423 20.8815 15.8799C20.9697 15.7175 21.0112 15.5338 21.0014 15.3492C20.9899 15.1632 20.9267 14.9842 20.819 14.8323C20.7112 14.6803 20.5631 14.5615 20.3914 14.4892L18.2414 13.5692L20.5014 12.2692C20.6616 12.177 20.7932 12.0423 20.8815 11.8799C20.9697 11.7175 21.0112 11.5338 21.0014 11.3492ZM12.0014 5.08919L17.7614 7.53919L12.0014 10.8492L6.24141 7.53919L12.0014 5.08919ZM11.5014 12.8692C11.6534 12.957 11.8259 13.0032 12.0014 13.0032C12.177 13.0032 12.3494 12.957 12.5014 12.8692L16.0714 10.8692L17.7614 11.5892L12.0014 14.8492L6.24141 11.5392L7.93141 10.8192L11.5014 12.8692ZM17.7614 15.5392L12.0014 18.8492L6.24141 15.5392L7.93141 14.8192L11.5014 16.8692C11.6534 16.957 11.8259 17.0032 12.0014 17.0032C12.177 17.0032 12.3494 16.957 12.5014 16.8692L16.0714 14.8192L17.7614 15.5392Z" fill="black"/>
</svg>
