<svg width="24" height="24" viewBox="0 0 24 24" fill="none" xmlns="http://www.w3.org/2000/svg">
<path d="M13.2919 9.29018L9.29189 13.2902C9.19816 13.3831 9.12377 13.4937 9.073 13.6156C9.02223 13.7375 8.99609 13.8682 8.99609 14.0002C8.99609 14.1322 9.02223 14.2629 9.073 14.3848C9.12377 14.5066 9.19816 14.6172 9.29189 14.7102C9.38486 14.8039 9.49546 14.8783 9.61732 14.9291C9.73917 14.9798 9.86988 15.006 10.0019 15.006C10.1339 15.006 10.2646 14.9798 10.3865 14.9291C10.5083 14.8783 10.6189 14.8039 10.7119 14.7102L14.7119 10.7102C14.9002 10.5219 15.006 10.2665 15.006 10.0002C15.006 9.73388 14.9002 9.47849 14.7119 9.29018C14.5236 9.10188 14.2682 8.99609 14.0019 8.99609C13.7356 8.99609 13.4802 9.10188 13.2919 9.29018Z" fill="black"/>
<path d="M12.2795 17.4019L10.9995 18.6719C10.281 19.4123 9.31498 19.8624 8.28583 19.9361C7.25668 20.0099 6.23638 19.7023 5.41954 19.0719C4.98781 18.7161 4.63551 18.2738 4.38538 17.7734C4.13526 17.273 3.99287 16.7257 3.96743 16.1669C3.94198 15.608 4.03404 15.0501 4.23766 14.529C4.44128 14.008 4.75193 13.5354 5.14954 13.1419L6.56954 11.7119C6.66327 11.6189 6.73767 11.5083 6.78843 11.3865C6.8392 11.2646 6.86534 11.1339 6.86534 11.0019C6.86534 10.8699 6.8392 10.7392 6.78843 10.6173C6.73767 10.4955 6.66327 10.3849 6.56954 10.2919C6.47658 10.1982 6.36598 10.1238 6.24412 10.073C6.12226 10.0222 5.99155 9.99609 5.85954 9.99609C5.72753 9.99609 5.59683 10.0222 5.47497 10.073C5.35311 10.1238 5.24251 10.1982 5.14954 10.2919L3.87954 11.5719C2.8097 12.6079 2.15213 13.9969 2.02891 15.4811C1.90569 16.9652 2.3252 18.4436 3.20954 19.6419C3.73442 20.3228 4.39818 20.8843 5.15673 21.2889C5.91528 21.6936 6.75125 21.9323 7.60912 21.989C8.46699 22.0458 9.32711 21.9193 10.1324 21.6181C10.9376 21.3169 11.6695 20.8477 12.2795 20.2419L13.6995 18.8219C13.8878 18.6336 13.9936 18.3782 13.9936 18.1119C13.9936 17.8456 13.8878 17.5902 13.6995 17.4019C13.5112 17.2136 13.2558 17.1078 12.9895 17.1078C12.7232 17.1078 12.4678 17.2136 12.2795 17.4019Z" fill="black"/>
<path d="M19.6591 3.2215C18.4526 2.32797 16.962 1.90419 15.4659 2.02933C13.9698 2.15446 12.5704 2.81996 11.5291 3.9015L10.4491 5.0015C10.3256 5.09124 10.2224 5.2059 10.1461 5.33806C10.0698 5.47022 10.0221 5.61693 10.006 5.7687C9.99 5.92046 10.006 6.07391 10.0531 6.21909C10.1001 6.36427 10.1771 6.49796 10.2791 6.6115C10.372 6.70523 10.4826 6.77962 10.6045 6.83039C10.7264 6.88116 10.8571 6.9073 10.9891 6.9073C11.1211 6.9073 11.2518 6.88116 11.3736 6.83039C11.4955 6.77962 11.6061 6.70523 11.6991 6.6115L12.9991 5.3015C13.7137 4.55782 14.6785 4.10534 15.7072 4.03146C16.7359 3.95759 17.7555 4.26756 18.5691 4.9015C19.004 5.2573 19.3591 5.70076 19.6112 6.20297C19.8633 6.70518 20.0068 7.25487 20.0323 7.81623C20.0578 8.37759 19.9647 8.93802 19.7591 9.461C19.5535 9.98398 19.24 10.4578 18.8391 10.8515L17.4191 12.2815C17.3253 12.3745 17.2509 12.4851 17.2002 12.6069C17.1494 12.7288 17.1233 12.8595 17.1233 12.9915C17.1233 13.1235 17.1494 13.2542 17.2002 13.3761C17.2509 13.4979 17.3253 13.6085 17.4191 13.7015C17.512 13.7952 17.6226 13.8696 17.7445 13.9204C17.8664 13.9712 17.9971 13.9973 18.1291 13.9973C18.2611 13.9973 18.3918 13.9712 18.5136 13.9204C18.6355 13.8696 18.7461 13.7952 18.8391 13.7015L20.2591 12.2815C20.8632 11.6716 21.3309 10.9403 21.6311 10.136C21.9313 9.33178 22.0573 8.4729 22.0005 7.61631C21.9438 6.75971 21.7057 5.92494 21.3021 5.16729C20.8984 4.40964 20.3384 3.7464 19.6591 3.2215Z" fill="black"/>
</svg>
