<svg width="24" height="24" viewBox="0 0 24 24" fill="none" xmlns="http://www.w3.org/2000/svg">
<path d="M8 12C8 12.2652 8.10536 12.5196 8.29289 12.7071C8.48043 12.8946 8.73478 13 9 13H15C15.2652 13 15.5196 12.8946 15.7071 12.7071C15.8946 12.5196 16 12.2652 16 12C16 11.7348 15.8946 11.4804 15.7071 11.2929C15.5196 11.1054 15.2652 11 15 11H9C8.73478 11 8.48043 11.1054 8.29289 11.2929C8.10536 11.4804 8 11.7348 8 12Z" fill="black"/>
<path d="M8.99833 16.0005H7.20833C6.18069 16.028 5.17976 15.6712 4.4012 14.9999C3.62264 14.3286 3.12242 13.391 2.99833 12.3705C2.94672 11.815 3.01189 11.2548 3.18967 10.726C3.36744 10.1971 3.65389 9.71131 4.0306 9.29976C4.40731 8.8882 4.86595 8.56001 5.37705 8.33626C5.88815 8.11251 6.4404 7.99816 6.99833 8.00055H8.99833C9.26355 8.00055 9.5179 7.89519 9.70544 7.70766C9.89297 7.52012 9.99833 7.26577 9.99833 7.00055C9.99833 6.73533 9.89297 6.48098 9.70544 6.29344C9.5179 6.10591 9.26355 6.00055 8.99833 6.00055H7.20833C5.72605 5.98074 4.2865 6.497 3.15463 7.45431C2.02277 8.41161 1.27478 9.74553 1.04833 11.2105C0.935776 12.0579 1.0056 12.9196 1.25311 13.7378C1.50063 14.5561 1.92013 15.3119 2.48352 15.9549C3.0469 16.5978 3.74117 17.1129 4.51981 17.4657C5.29845 17.8185 6.14349 18.0009 6.99833 18.0005H8.99833C9.26355 18.0005 9.5179 17.8952 9.70544 17.7077C9.89297 17.5201 9.99833 17.2658 9.99833 17.0005C9.99833 16.7353 9.89297 16.481 9.70544 16.2934C9.5179 16.1059 9.26355 16.0005 8.99833 16.0005Z" fill="black"/>
<path d="M23 11.2418C22.7764 9.75832 22.0191 8.40744 20.8702 7.44266C19.7213 6.47789 18.2598 5.96556 16.76 6.0018H15.25C14.44 6.0018 14 6.4518 14 7.0018C14 7.26702 14.1054 7.52137 14.2929 7.70891C14.4804 7.89644 14.7348 8.0018 15 8.0018H16.79C17.8176 7.97437 18.8186 8.33118 19.5971 9.00248C20.3757 9.67378 20.8759 10.6113 21 11.6318C21.0516 12.1873 20.9864 12.7475 20.8087 13.2764C20.6309 13.8052 20.3444 14.291 19.9677 14.7026C19.591 15.1141 19.1324 15.4423 18.6213 15.6661C18.1102 15.8898 17.5579 16.0042 17 16.0018H15C14.7348 16.0018 14.4804 16.1072 14.2929 16.2947C14.1054 16.4822 14 16.7366 14 17.0018C14 17.267 14.1054 17.5214 14.2929 17.7089C14.4804 17.8964 14.7348 18.0018 15 18.0018H17C17.8562 18.0087 18.7039 17.8323 19.4862 17.4844C20.2686 17.1365 20.9674 16.6252 21.5357 15.9849C22.1041 15.3445 22.5288 14.59 22.7814 13.7719C23.0339 12.9538 23.1085 12.0911 23 11.2418Z" fill="black"/>
</svg>
