<svg width="24" height="24" viewBox="0 0 24 24" fill="none" xmlns="http://www.w3.org/2000/svg">
<path d="M20 21.9991H18.33C17.7996 21.9991 17.2909 21.7883 16.9158 21.4133C16.5407 21.0382 16.33 20.5295 16.33 19.9991V14.6291C16.3389 14.4185 16.2753 14.2112 16.1497 14.0419C16.0241 13.8726 15.8442 13.7516 15.64 13.6991C15.5212 13.681 15.4 13.6886 15.2844 13.7214C15.1688 13.7541 15.0616 13.8113 14.97 13.8891C14.8757 13.9691 14.8 14.0687 14.7482 14.1809C14.6964 14.2932 14.6697 14.4154 14.67 14.5391V19.9991C14.67 20.5295 14.4593 21.0382 14.0842 21.4133C13.7091 21.7883 13.2004 21.9991 12.67 21.9991H11C10.4696 21.9991 9.96086 21.7883 9.58579 21.4133C9.21071 21.0382 9 20.5295 9 19.9991V14.5391C9 12.8152 9.68482 11.1619 10.9038 9.94287C12.1228 8.72388 13.7761 8.03906 15.5 8.03906C17.2239 8.03906 18.8772 8.72388 20.0962 9.94287C21.3152 11.1619 22 12.8152 22 14.5391V19.9991C22 20.5295 21.7893 21.0382 21.4142 21.4133C21.0391 21.7883 20.5304 21.9991 20 21.9991ZM15.5 11.6891C15.6565 11.6792 15.8135 11.6792 15.97 11.6891C16.6414 11.8182 17.2458 12.1796 17.6774 12.7099C18.1089 13.2402 18.34 13.9055 18.33 14.5891V19.9991H20V14.5391C20 13.3456 19.5259 12.201 18.682 11.3571C17.8381 10.5132 16.6935 10.0391 15.5 10.0391C14.3065 10.0391 13.1619 10.5132 12.318 11.3571C11.4741 12.201 11 13.3456 11 14.5391V19.9991H12.67V14.5391C12.67 13.7866 12.9675 13.0648 13.4977 12.5308C14.0278 11.9969 14.7476 11.6943 15.5 11.6891Z" fill="black"/>
<path d="M6 22H4C3.46957 22 2.96086 21.7893 2.58579 21.4142C2.21071 21.0391 2 20.5304 2 20V10C2 9.46957 2.21071 8.96086 2.58579 8.58579C2.96086 8.21071 3.46957 8 4 8H6C6.53043 8 7.03914 8.21071 7.41421 8.58579C7.78929 8.96086 8 9.46957 8 10V20C8 20.5304 7.78929 21.0391 7.41421 21.4142C7.03914 21.7893 6.53043 22 6 22ZM4 10V20H6V10H4Z" fill="black"/>
<path d="M5 7C4.40666 7 3.82664 6.82405 3.33329 6.49441C2.83994 6.16477 2.45543 5.69623 2.22836 5.14805C2.0013 4.59987 1.94189 3.99667 2.05765 3.41473C2.1734 2.83279 2.45912 2.29824 2.87868 1.87868C3.29824 1.45912 3.83279 1.1734 4.41473 1.05765C4.99667 0.94189 5.59987 1.0013 6.14805 1.22836C6.69623 1.45543 7.16477 1.83994 7.49441 2.33329C7.82405 2.82664 8 3.40666 8 4C8 4.79565 7.68393 5.55871 7.12132 6.12132C6.55871 6.68393 5.79565 7 5 7ZM5 3C4.80222 3 4.60888 3.05865 4.44443 3.16853C4.27998 3.27841 4.15181 3.43459 4.07612 3.61732C4.00043 3.80004 3.98063 4.00111 4.01922 4.19509C4.0578 4.38907 4.15304 4.56726 4.29289 4.70711C4.43275 4.84696 4.61093 4.9422 4.80491 4.98079C4.99889 5.01937 5.19996 4.99957 5.38268 4.92388C5.56541 4.84819 5.72159 4.72002 5.83147 4.55557C5.94135 4.39112 6 4.19778 6 4C6 3.73478 5.89464 3.48043 5.70711 3.29289C5.51957 3.10536 5.26522 3 5 3Z" fill="black"/>
</svg>
