<svg width="24" height="24" viewBox="0 0 24 24" fill="none" xmlns="http://www.w3.org/2000/svg">
<path d="M16 4C16 4.55228 16.4477 5 17 5C17.5523 5 18 4.55228 18 4C18 3.44772 17.5523 3 17 3C16.4477 3 16 3.44772 16 4Z" fill="black"/>
<path d="M11 4C11 4.55228 11.4477 5 12 5C12.5523 5 13 4.55228 13 4C13 3.44772 12.5523 3 12 3C11.4477 3 11 3.44772 11 4Z" fill="black"/>
<path d="M6 4C6 4.55228 6.44772 5 7 5C7.55228 5 8 4.55228 8 4C8 3.44772 7.55228 3 7 3C6.44772 3 6 3.44772 6 4Z" fill="black"/>
<path d="M13 20.06L13 7.94C13 7.42085 12.5791 7 12.06 7L11.94 7C11.4209 7 11 7.42085 11 7.94L11 20.06C11 20.5791 11.4209 21 11.94 21L12.06 21C12.5791 21 13 20.5791 13 20.06Z" fill="black"/>
<path d="M8 20.06L8 7.94C8 7.42085 7.57915 7 7.06 7L6.94 7C6.42085 7 6 7.42085 6 7.94L6 20.06C6 20.5791 6.42085 21 6.94 21L7.06 21C7.57915 21 8 20.5791 8 20.06Z" fill="black"/>
<path d="M18 20.06L18 7.94C18 7.42085 17.5791 7 17.06 7L16.94 7C16.4209 7 16 7.42085 16 7.94L16 20.06C16 20.5791 16.4209 21 16.94 21L17.06 21C17.5791 21 18 20.5791 18 20.06Z" fill="black"/>
</svg>
