<svg width="24" height="24" viewBox="0 0 24 24" fill="none" xmlns="http://www.w3.org/2000/svg">
<path d="M20.7188 18.4951H18.3844V18.0395L18.5531 18.2138C18.6319 18.2898 18.7556 18.2898 18.8344 18.2138C18.9131 18.1295 18.9131 18.0001 18.8344 17.9157L18.66 17.7357H18.6909C18.7444 17.7357 18.7978 17.7132 18.8344 17.6738C18.9131 17.5895 18.9131 17.4601 18.8344 17.3757L18.66 17.1957H18.6909C18.7444 17.1957 18.7978 17.1732 18.8344 17.1338C18.9131 17.0495 18.9131 16.9201 18.8344 16.8357L18.66 16.6557H18.6909C18.7444 16.6557 18.7978 16.6332 18.8344 16.5938C18.9131 16.5095 18.9131 16.3801 18.8344 16.2957L18.66 16.1157H18.6909C18.7444 16.1157 18.7978 16.0932 18.8344 16.0538C18.9131 15.9695 18.9131 15.8401 18.8344 15.7557C18.8344 15.7557 18.3956 15.2973 18.3169 15.2213C18.2381 15.1454 18.1144 15.1454 18.0356 15.2213L17.5181 15.7557C17.4394 15.8401 17.4394 15.9695 17.5181 16.0538C17.5631 16.0988 17.6278 16.1213 17.6925 16.1101L17.5181 16.2901C17.4394 16.3745 17.4394 16.5038 17.5181 16.5882C17.5631 16.6332 17.6278 16.6557 17.6925 16.6445L17.5181 16.8245C17.4394 16.9088 17.4394 17.0382 17.5181 17.1226C17.5631 17.1676 17.6278 17.1901 17.6925 17.1788L17.5181 17.3588C17.4394 17.4432 17.4394 17.5726 17.5181 17.657C17.5631 17.702 17.6278 17.7245 17.6925 17.7132L17.5181 17.8932C17.4394 17.9776 17.4394 18.107 17.5181 18.1913C17.5969 18.2673 17.7206 18.2673 17.7994 18.1913L17.9681 18.017V18.4951H16.635V10.0576C16.635 9.98727 16.6097 9.91695 16.5619 9.86352L12.1969 5.08227C12.0872 4.97258 11.91 4.97258 11.8003 5.08227L7.43531 9.86352C7.3875 9.91695 7.36219 9.98727 7.36219 10.0576V18.4951H5.97281V17.4179L6.40031 17.8595C6.47906 17.9354 6.60281 17.9354 6.68156 17.8595C6.76031 17.7751 6.76031 17.6457 6.68156 17.5613L5.97281 16.8076V16.6023L6.40031 17.0438C6.47906 17.1198 6.60281 17.1198 6.68156 17.0438C6.76031 16.9595 6.76031 16.8301 6.68156 16.7457L5.97281 16.0201V15.8148L6.40031 16.2451C6.47906 16.321 6.60281 16.321 6.68156 16.2451C6.76031 16.1607 6.76031 16.0313 6.68156 15.947L5.96438 15.2073V15.002L6.39188 15.4435C6.47063 15.5195 6.59438 15.5195 6.67313 15.4435C6.75188 15.3591 6.75188 15.2298 6.67313 15.1454L5.97281 14.417V14.2116L6.40031 14.6532C6.47906 14.7291 6.60281 14.7291 6.68156 14.6532C6.76031 14.5688 6.76031 14.4395 6.68156 14.3551L5.90531 13.5535C5.82656 13.4776 5.70281 13.4776 5.62406 13.5535L4.84781 14.3551C4.76906 14.4395 4.76906 14.5688 4.84781 14.6532C4.92656 14.7291 5.05031 14.7291 5.12906 14.6532L5.55656 14.2116V14.417L4.84781 15.1566C4.76906 15.241 4.76906 15.3704 4.84781 15.4548C4.92656 15.5307 5.05031 15.5307 5.12906 15.4548L5.55656 15.0132V15.2185L4.84781 15.9638C4.76906 16.0482 4.76906 16.1776 4.84781 16.262C4.92656 16.3379 5.05031 16.3379 5.12906 16.262L5.55656 15.8204V16.0257L4.84781 16.7598C4.76906 16.8441 4.76906 16.9735 4.84781 17.0579C4.92656 17.1338 5.05031 17.1338 5.12906 17.0579L5.55656 16.6163V16.8076L4.84781 17.5585C4.76906 17.6429 4.76906 17.7723 4.84781 17.8566C4.92656 17.9326 5.05031 17.9326 5.12906 17.8566L5.55656 17.4151V18.4951H3.28125C3.12656 18.4951 3 18.6216 3 18.7763C3 18.931 3.12656 19.0576 3.28125 19.0576H20.7188C20.8734 19.0576 21 18.931 21 18.7763C21 18.6216 20.8734 18.4951 20.7188 18.4951ZM11.1141 18.4951V14.206H12.8859V18.4951H11.1141ZM13.2966 14.206H16.0922V14.6279H13.2966V14.206ZM13.2966 15.0498H16.0922V15.4716H13.2966V15.0498ZM7.90781 10.1701L12 5.68695L16.0922 10.1701V13.7841H10.9088C10.7934 13.787 10.7006 13.8798 10.7034 13.9951V18.4951H7.90781V10.1701ZM13.2966 18.4951V15.8935H16.0922V18.4951H13.2966Z" fill="black"/>
<path d="M10.1649 8.85943C10.0862 8.82568 9.99616 8.84818 9.93991 8.91005L8.57584 10.4035C8.53928 10.4429 8.51959 10.4935 8.51959 10.5469V13.9951C8.51678 14.1104 8.60959 14.2032 8.72491 14.206H10.089C10.2043 14.2032 10.2971 14.1104 10.2943 13.9951V9.0563C10.2943 8.97193 10.2437 8.89318 10.1649 8.85943ZM9.88366 12.9404H8.93022V11.956H9.88366V12.9404ZM9.88366 9.58786V11.5341H8.93022V10.6201L9.88366 9.58786ZM8.93022 13.3622H9.88366V13.7841H8.93022V13.3622Z" fill="black"/>
<path d="M14.1826 11.6758H15.2738C15.3891 11.673 15.4819 11.5802 15.4791 11.4649V10.3399C15.4819 10.2246 15.3891 10.1318 15.2738 10.129H14.1826C14.0672 10.1262 13.9716 10.2162 13.9688 10.3315C13.9688 10.3343 13.9688 10.3371 13.9688 10.3399V11.4649C13.966 11.5802 14.0588 11.673 14.1741 11.6758C14.1769 11.6758 14.1797 11.6758 14.1826 11.6758ZM14.3879 10.5508H15.0685V11.254H14.3851L14.3879 10.5508Z" fill="black"/>
</svg>
