<svg width="24" height="24" viewBox="0 0 24 24" fill="none" xmlns="http://www.w3.org/2000/svg">
<path d="M17 7.99938H16V6.10938C16 5.04851 15.5786 4.03109 14.8284 3.28095C14.0783 2.5308 13.0609 2.10938 12 2.10938C10.9391 2.10938 9.92172 2.5308 9.17157 3.28095C8.42143 4.03109 8 5.04851 8 6.10938V7.99938H7C6.20435 7.99938 5.44129 8.31545 4.87868 8.87805C4.31607 9.44066 4 10.2037 4 10.9994V18.9994C4 19.795 4.31607 20.5581 4.87868 21.1207C5.44129 21.6833 6.20435 21.9994 7 21.9994H17C17.7956 21.9994 18.5587 21.6833 19.1213 21.1207C19.6839 20.5581 20 19.795 20 18.9994V10.9994C20 10.2037 19.6839 9.44066 19.1213 8.87805C18.5587 8.31545 17.7956 7.99938 17 7.99938ZM10 6.10938C9.98655 5.56467 10.1894 5.03682 10.5643 4.64137C10.9391 4.24592 11.4554 4.01508 12 3.99938C12.5446 4.01508 13.0609 4.24592 13.4357 4.64137C13.8106 5.03682 14.0135 5.56467 14 6.10938V7.99938H10V6.10938ZM18 18.9994C18 19.2646 17.8946 19.5189 17.7071 19.7065C17.5196 19.894 17.2652 19.9994 17 19.9994H7C6.73478 19.9994 6.48043 19.894 6.29289 19.7065C6.10536 19.5189 6 19.2646 6 18.9994V10.9994C6 10.7342 6.10536 10.4798 6.29289 10.2923C6.48043 10.1047 6.73478 9.99938 7 9.99938H17C17.2652 9.99938 17.5196 10.1047 17.7071 10.2923C17.8946 10.4798 18 10.7342 18 10.9994V18.9994Z" fill="black"/>
<path d="M12 12C11.4067 12 10.8266 12.1759 10.3333 12.5056C9.83994 12.8352 9.45543 13.3038 9.22836 13.8519C9.0013 14.4001 8.94189 15.0033 9.05765 15.5853C9.1734 16.1672 9.45912 16.7018 9.87868 17.1213C10.2982 17.5409 10.8328 17.8266 11.4147 17.9424C11.9967 18.0581 12.5999 17.9987 13.1481 17.7716C13.6962 17.5446 14.1648 17.1601 14.4944 16.6667C14.8241 16.1734 15 15.5933 15 15C15 14.2044 14.6839 13.4413 14.1213 12.8787C13.5587 12.3161 12.7957 12 12 12ZM12 16C11.8022 16 11.6089 15.9414 11.4444 15.8315C11.28 15.7216 11.1518 15.5654 11.0761 15.3827C11.0004 15.2 10.9806 14.9989 11.0192 14.8049C11.0578 14.6109 11.153 14.4327 11.2929 14.2929C11.4327 14.153 11.6109 14.0578 11.8049 14.0192C11.9989 13.9806 12.2 14.0004 12.3827 14.0761C12.5654 14.1518 12.7216 14.28 12.8315 14.4444C12.9414 14.6089 13 14.8022 13 15C13 15.2652 12.8946 15.5196 12.7071 15.7071C12.5196 15.8946 12.2652 16 12 16Z" fill="black"/>
</svg>
