<svg width="24" height="24" viewBox="0 0 24 24" fill="none" xmlns="http://www.w3.org/2000/svg">
<path d="M7 6C7.26522 6 7.51957 5.89464 7.70711 5.70711C7.89464 5.51957 8 5.26522 8 5C8 4.73478 7.89464 4.48043 7.70711 4.29289C7.51957 4.10536 7.26522 4 7 4H5C4.73478 4 4.48043 4.10536 4.29289 4.29289C4.10536 4.48043 4 4.73478 4 5V19C4 19.2652 4.10536 19.5196 4.29289 19.7071C4.48043 19.8946 4.73478 20 5 20H7C7.26522 20 7.51957 19.8946 7.70711 19.7071C7.89464 19.5196 8 19.2652 8 19C8 18.7348 7.89464 18.4804 7.70711 18.2929C7.51957 18.1054 7.26522 18 7 18H6V6H7Z" fill="black"/>
<path d="M20.82 11.4214L18 7.42142C17.8471 7.20583 17.615 7.05956 17.3545 7.01459C17.0941 6.96961 16.8264 7.02959 16.61 7.18142C16.5018 7.2572 16.4098 7.35366 16.3391 7.46522C16.2684 7.57678 16.2206 7.70124 16.1982 7.8314C16.1759 7.96156 16.1796 8.09486 16.2091 8.22359C16.2386 8.35232 16.2933 8.47393 16.37 8.58142L18.09 11.0014H10C9.73478 11.0014 9.48043 11.1068 9.29289 11.2943C9.10536 11.4818 9 11.7362 9 12.0014C9 12.2666 9.10536 12.521 9.29289 12.7085C9.48043 12.8961 9.73478 13.0014 10 13.0014H18L16.2 15.4014C16.1212 15.5065 16.0639 15.626 16.0313 15.7532C15.9987 15.8804 15.9915 16.0128 16.01 16.1428C16.0286 16.2728 16.0726 16.3979 16.1395 16.5109C16.2064 16.6239 16.2949 16.7226 16.4 16.8014C16.5731 16.9312 16.7836 17.0014 17 17.0014C17.1552 17.0014 17.3084 16.9653 17.4472 16.8958C17.5861 16.8264 17.7069 16.7256 17.8 16.6014L20.8 12.6014C20.9281 12.4323 20.999 12.2268 21.0026 12.0147C21.0062 11.8026 20.9423 11.5948 20.82 11.4214Z" fill="black"/>
</svg>
