<svg width="24" height="24" viewBox="0 0 24 24" fill="none" xmlns="http://www.w3.org/2000/svg">
<path d="M20.4083 5.89L16.4083 4.09H15.5883L11.9983 5.7L8.40829 4.09H8.35829L8.23829 4H7.63829L3.63829 5.8C3.43878 5.87645 3.269 6.01479 3.15382 6.19474C3.03865 6.3747 2.98414 6.58681 2.99829 6.8V19C2.99857 19.1673 3.04082 19.3319 3.12119 19.4786C3.20156 19.6254 3.31746 19.7496 3.45829 19.84C3.61924 19.944 3.80668 19.9995 3.99829 20C4.13978 19.9993 4.27953 19.9687 4.40829 19.91L7.99829 18.3L11.5883 19.91H11.6383C11.751 19.9627 11.8739 19.99 11.9983 19.99C12.1227 19.99 12.2456 19.9627 12.3583 19.91H12.4083L15.9983 18.3L19.5883 19.91C19.717 19.9687 19.8568 19.9993 19.9983 20C20.1899 19.9995 20.3773 19.944 20.5383 19.84C20.6791 19.7496 20.795 19.6254 20.8754 19.4786C20.9558 19.3319 20.998 19.1673 20.9983 19V6.8C20.9979 6.60764 20.942 6.41948 20.8374 6.25807C20.7327 6.09667 20.5837 5.96887 20.4083 5.89ZM4.99829 7.44L6.99829 6.55V16.55L4.99829 17.44V7.44ZM8.99829 6.55L10.9983 7.44V17.44L8.99829 16.55V6.55ZM12.9983 7.44L14.9983 6.55V16.55L12.9983 17.44V7.44ZM18.9983 17.44L16.9983 16.55V6.55L18.9983 7.44V17.44Z" fill="black"/>
</svg>
