<svg width="24" height="24" viewBox="0 0 24 24" fill="none" xmlns="http://www.w3.org/2000/svg">
<path d="M20.0519 11.0002H5.91189L7.21189 9.71019C7.4002 9.52188 7.50598 9.26649 7.50598 9.00019C7.50598 8.73388 7.4002 8.47849 7.21189 8.29019C7.02359 8.10188 6.76819 7.99609 6.50189 7.99609C6.23559 7.99609 5.9802 8.10188 5.79189 8.29019L2.79189 11.2902C2.69816 11.3831 2.62377 11.4937 2.573 11.6156C2.52223 11.7375 2.49609 11.8682 2.49609 12.0002C2.49609 12.1322 2.52223 12.2629 2.573 12.3848C2.62377 12.5066 2.69816 12.6172 2.79189 12.7102L5.79189 15.7102C5.88486 15.8039 5.99546 15.8783 6.11732 15.9291C6.23917 15.9798 6.36988 16.006 6.50189 16.006C6.6339 16.006 6.76461 15.9798 6.88647 15.9291C7.00833 15.8783 7.11893 15.8039 7.21189 15.7102C7.30562 15.6172 7.38001 15.5066 7.43078 15.3848C7.48155 15.2629 7.50769 15.1322 7.50769 15.0002C7.50769 14.8682 7.48155 14.7375 7.43078 14.6156C7.38001 14.4937 7.30562 14.3831 7.21189 14.2902L5.91189 13.0002H20.0519C20.2999 12.9881 20.5346 12.8841 20.7102 12.7085C20.8858 12.5329 20.9898 12.2982 21.0019 12.0502V12.0002C21.0022 11.7434 20.9037 11.4963 20.7269 11.3102C20.55 11.124 20.3083 11.013 20.0519 11.0002Z" fill="black"/>
<path d="M20.05 17H3.95C3.42533 17 3 17.4253 3 17.95V18.05C3 18.5747 3.42533 19 3.95 19H20.05C20.5747 19 21 18.5747 21 18.05V17.95C21 17.4253 20.5747 17 20.05 17Z" fill="black"/>
<path d="M20.05 5H3.95C3.42533 5 3 5.42533 3 5.95V6.05C3 6.57467 3.42533 7 3.95 7H20.05C20.5747 7 21 6.57467 21 6.05V5.95C21 5.42533 20.5747 5 20.05 5Z" fill="black"/>
</svg>
