<svg width="24" height="24" viewBox="0 0 24 24" fill="none" xmlns="http://www.w3.org/2000/svg">
<path d="M12 13C12.5523 13 13 12.5523 13 12C13 11.4477 12.5523 11 12 11C11.4477 11 11 11.4477 11 12C11 12.5523 11.4477 13 12 13Z" fill="black"/>
<path d="M16 13C16.5523 13 17 12.5523 17 12C17 11.4477 16.5523 11 16 11C15.4477 11 15 11.4477 15 12C15 12.5523 15.4477 13 16 13Z" fill="black"/>
<path d="M8 13C8.55228 13 9 12.5523 9 12C9 11.4477 8.55228 11 8 11C7.44772 11 7 11.4477 7 12C7 12.5523 7.44772 13 8 13Z" fill="black"/>
<path d="M19.0706 4.92856C17.4298 3.27706 15.2642 2.24977 12.9472 2.0238C10.6302 1.79783 8.30696 2.38734 6.37799 3.69069C4.44903 4.99404 3.03524 6.92956 2.38037 9.16357C1.7255 11.3976 1.87058 13.7901 2.79061 15.9286C2.8865 16.1273 2.91796 16.3511 2.88061 16.5686L2.00061 20.7986C1.9667 20.9607 1.97363 21.1288 2.02075 21.2876C2.06788 21.4465 2.15374 21.5911 2.27061 21.7086C2.36641 21.8037 2.48048 21.8784 2.60594 21.9282C2.7314 21.9781 2.86565 22.002 3.00061 21.9986H3.20061L7.48061 21.1386C7.69814 21.1124 7.91873 21.1434 8.12061 21.2286C10.2591 22.1486 12.6516 22.2937 14.8856 21.6388C17.1196 20.9839 19.0551 19.5701 20.3585 17.6412C21.6618 15.7122 22.2513 13.389 22.0254 11.0719C21.7994 8.75492 20.7721 6.58934 19.1206 4.94856L19.0706 4.92856ZM19.9006 13.2886C19.7051 14.4825 19.2413 15.6166 18.5442 16.6055C17.847 17.5943 16.9347 18.4121 15.8758 18.9974C14.8169 19.5827 13.639 19.9202 12.4308 19.9845C11.2227 20.0487 10.0156 19.8382 8.90061 19.3686C8.50515 19.2003 8.08034 19.112 7.65061 19.1086C7.46289 19.1099 7.27559 19.1266 7.09061 19.1586L4.27061 19.7286L4.84061 16.9086C4.95413 16.2978 4.88095 15.6671 4.63061 15.0986C4.161 13.9835 3.95041 12.7765 4.0147 11.5683C4.07899 10.3602 4.41647 9.18231 5.00175 8.12341C5.58703 7.06451 6.40486 6.15216 7.3937 5.45501C8.38254 4.75786 9.51663 4.29407 10.7106 4.09856C11.9639 3.89287 13.2481 3.98853 14.4571 4.37762C15.6661 4.76671 16.765 5.43804 17.6631 6.33609C18.5611 7.23415 19.2325 8.33311 19.6215 9.54208C20.0106 10.7511 20.1063 12.0353 19.9006 13.2886Z" fill="black"/>
</svg>
