<svg width="24" height="24" viewBox="0 0 24 24" fill="none" xmlns="http://www.w3.org/2000/svg">
<path d="M9.99813 5.99822C9.99813 5.46779 10.2088 4.95908 10.5839 4.58401C10.959 4.20894 11.4677 3.99822 11.9981 3.99822C12.5286 3.99822 13.0373 4.20894 13.4123 4.58401C13.7874 4.95908 13.9981 5.46779 13.9981 5.99822V10.9982C14.0024 11.0515 14.0024 11.105 13.9981 11.1582L15.5981 12.7482C15.8623 12.2027 15.9991 11.6043 15.9981 10.9982V5.99822C15.9871 5.01042 15.6109 4.06164 14.942 3.33466C14.2732 2.60768 13.3589 2.15392 12.3755 2.06079C11.392 1.96766 10.4089 2.24175 9.61544 2.83025C8.822 3.41876 8.2744 4.28005 8.07812 5.24822L9.99813 7.16822V5.99822Z" fill="black"/>
<path d="M18.9986 11C18.9986 10.7348 18.8932 10.4804 18.7057 10.2929C18.5182 10.1054 18.2638 10 17.9986 10C17.7334 10 17.479 10.1054 17.2915 10.2929C17.104 10.4804 16.9986 10.7348 16.9986 11C16.9957 11.8737 16.7573 12.7304 16.3086 13.48L17.7786 15C18.5833 13.8221 19.009 12.4265 18.9986 11Z" fill="black"/>
<path d="M12 14.9981H12.16L8 10.8281V10.9981C8 12.059 8.42143 13.0764 9.17157 13.8266C9.92172 14.5767 10.9391 14.9981 12 14.9981Z" fill="black"/>
<path d="M20.7102 19.2902L4.71019 3.29019C4.61695 3.19695 4.50626 3.12299 4.38443 3.07253C4.26261 3.02207 4.13204 2.99609 4.00019 2.99609C3.86833 2.99609 3.73776 3.02207 3.61594 3.07253C3.49411 3.12299 3.38342 3.19695 3.29019 3.29019C3.10188 3.47849 2.99609 3.73388 2.99609 4.00019C2.99609 4.26649 3.10188 4.52188 3.29019 4.71019L19.2902 20.7102C19.3831 20.8039 19.4937 20.8783 19.6156 20.9291C19.7375 20.9798 19.8682 21.006 20.0002 21.006C20.1322 21.006 20.2629 20.9798 20.3848 20.9291C20.5066 20.8783 20.6172 20.8039 20.7102 20.7102C20.8039 20.6172 20.8783 20.5066 20.9291 20.3848C20.9798 20.2629 21.006 20.1322 21.006 20.0002C21.006 19.8682 20.9798 19.7375 20.9291 19.6156C20.8783 19.4937 20.8039 19.3831 20.7102 19.2902Z" fill="black"/>
<path d="M15 20H13V17.92C13.5659 17.8412 14.12 17.6935 14.65 17.48L13.05 15.88C12.7058 15.9605 12.3535 16.0007 12 16C10.6739 16 9.40215 15.4732 8.46447 14.5355C7.52678 13.5979 7 12.3261 7 11C7 10.7348 6.89464 10.4804 6.70711 10.2929C6.51957 10.1054 6.26522 10 6 10C5.73478 10 5.48043 10.1054 5.29289 10.2929C5.10536 10.4804 5 10.7348 5 11C5.00197 12.6818 5.60941 14.3068 6.71118 15.5775C7.81295 16.8482 9.3354 17.6797 11 17.92V20H9C8.73478 20 8.48043 20.1054 8.29289 20.2929C8.10536 20.4804 8 20.7348 8 21C8 21.2652 8.10536 21.5196 8.29289 21.7071C8.48043 21.8946 8.73478 22 9 22H15C15.2652 22 15.5196 21.8946 15.7071 21.7071C15.8946 21.5196 16 21.2652 16 21C16 20.7348 15.8946 20.4804 15.7071 20.2929C15.5196 20.1054 15.2652 20 15 20Z" fill="black"/>
</svg>
