<svg width="24" height="24" viewBox="0 0 24 24" fill="none" xmlns="http://www.w3.org/2000/svg">
<path d="M7.11606 6.17576L16.0986 8.37499C16.3578 8.43882 16.5164 8.69994 16.4526 8.96106C16.3888 9.22219 16.1277 9.37886 15.8665 9.31503L6.88588 7.11387C6.24758 6.95333 5.59768 7.34017 5.43714 7.98041C5.43134 8.00168 5.42747 8.02102 5.4236 8.0423C5.36944 8.30536 5.11412 8.47364 4.853 8.41948C4.59188 8.36532 4.42167 8.11 4.47582 7.84888C4.70793 6.67867 5.84526 5.91658 7.01548 6.14869C7.04642 6.15449 7.07737 6.16222 7.10832 6.16996L7.11606 6.17576ZM9.3501 4.58002C9.67118 4.00362 10.3965 3.79665 10.9729 4.11774C10.9884 4.12548 11.0039 4.13515 11.0193 4.14482L18.9942 9.06745C19.2166 9.21445 19.5164 9.15255 19.6634 8.93012C19.8104 8.70768 19.7485 8.40787 19.5261 8.26087C19.5184 8.25507 19.5106 8.2512 19.5029 8.2454L11.528 3.32277C10.5126 2.69608 9.18182 3.00942 8.55513 4.02489C8.53772 4.05197 8.52224 4.08099 8.50484 4.11C8.37524 4.34404 8.45842 4.63805 8.69246 4.76764C8.9265 4.89723 9.2205 4.81406 9.3501 4.58002ZM14.3017 15.816C14.3017 17.0868 13.2708 18.1177 12 18.1177C10.7292 18.1177 9.69826 17.0868 9.69826 15.816C9.69826 14.5452 10.7292 13.5143 12 13.5143C13.2708 13.5143 14.2998 14.5452 14.3017 15.816ZM13.3346 15.816C13.3346 15.0791 12.7369 14.4814 12 14.4814C11.2631 14.4814 10.6654 15.0791 10.6654 15.816C10.6654 16.5529 11.2631 17.1506 12 17.1506C12.7369 17.1487 13.3327 16.5529 13.3346 15.816ZM21 19.6206C20.9981 20.8025 20.0406 21.7599 18.8588 21.7618H5.1412C3.95938 21.7599 3.00194 20.8025 3 19.6206V12.0133C2.99807 10.8295 3.95745 9.86822 5.1412 9.86628H18.8588C20.0426 9.86822 21.0019 10.8295 21 12.0133V19.6206ZM20.0329 12.0133C20.0348 11.3634 19.5106 10.8353 18.8607 10.8334H18.8588H5.1412C4.4913 10.8334 3.96519 11.3614 3.96712 12.0114V12.0133V19.6206C3.96905 20.2686 4.49323 20.7928 5.1412 20.7947H18.8588C19.5068 20.7928 20.0309 20.2686 20.0329 19.6206V12.0133ZM19.0986 14.5471V17.0868C19.0986 17.3131 18.942 17.5084 18.7215 17.5587C17.7582 17.7773 17.0058 18.5297 16.7872 19.493C16.7369 19.7135 16.5416 19.8702 16.3153 19.8702H7.67505C7.44874 19.8702 7.25339 19.7135 7.2031 19.493C7.00194 18.6206 6.3617 17.9146 5.51257 17.6322C5.14894 17.5123 4.90136 17.1719 4.90136 16.7889V14.8547C4.90136 14.4717 5.14894 14.1313 5.51257 14.0114C6.3617 13.729 7.00387 13.023 7.2031 12.1487C7.25339 11.9282 7.44874 11.7715 7.67505 11.7715H16.325C16.5513 11.7715 16.7466 11.9282 16.7969 12.1487C17.0155 13.1119 17.7679 13.8643 18.7311 14.0829C18.9458 14.1351 19.0967 14.3266 19.0986 14.5471ZM18.1315 14.9108C17.1161 14.5549 16.3172 13.756 15.9613 12.7406H8.03095C7.67698 13.7541 6.88008 14.5529 5.86847 14.9108V16.7231C6.88395 17.079 7.68279 17.8779 8.03869 18.8934H15.9691C16.325 17.8798 17.1199 17.081 18.1315 16.7231V14.9108Z" fill="black"/>
</svg>
