<svg width="24" height="24" viewBox="0 0 24 24" fill="none" xmlns="http://www.w3.org/2000/svg">
<path d="M12.301 21.9997H12.201C10.8295 21.9892 9.47387 21.7052 8.21352 21.1644C6.95316 20.6235 5.81339 19.8366 4.86095 18.8497C3.0948 16.961 2.09084 14.485 2.04282 11.8996C1.99481 9.31421 2.90614 6.80267 4.60095 4.84968C5.69284 3.62603 7.06548 2.68576 8.60095 2.10968C8.78012 2.04074 8.97534 2.02482 9.1633 2.06384C9.35126 2.10285 9.52402 2.19514 9.66095 2.32968C9.78777 2.459 9.87708 2.62034 9.91935 2.79647C9.96162 2.97259 9.95526 3.15689 9.90095 3.32968C9.35291 4.83062 9.24433 6.45673 9.58795 8.0172C9.93158 9.57768 10.7131 11.0078 11.841 12.1397C12.9793 13.264 14.4128 14.043 15.9755 14.3863C17.5382 14.7296 19.1662 14.6233 20.671 14.0797C20.8501 14.0166 21.0434 14.0059 21.2284 14.0487C21.4134 14.0915 21.5824 14.1861 21.7156 14.3214C21.8488 14.4567 21.9407 14.6271 21.9807 14.8128C22.0206 14.9984 22.0068 15.1916 21.941 15.3697C21.4301 16.7334 20.6321 17.9714 19.601 18.9997C18.6418 19.956 17.5031 20.7133 16.2503 21.2282C14.9976 21.743 13.6554 22.0052 12.301 21.9997ZM7.46095 4.91968C6.95863 5.27198 6.49889 5.68138 6.09095 6.13968C4.71549 7.71582 3.97437 9.7466 4.01133 11.8382C4.04828 13.9298 4.86067 15.9331 6.29095 17.4597C7.05948 18.2579 7.98022 18.8939 8.99875 19.3302C10.0173 19.7664 11.1129 19.9941 12.221 19.9997H12.301C13.6271 19.9989 14.934 19.6819 16.1132 19.0749C17.2923 18.468 18.3097 17.5886 19.081 16.5097C17.5093 16.7133 15.9119 16.554 14.4114 16.0441C12.9109 15.5341 11.5472 14.687 10.4252 13.5678C9.30311 12.4487 8.45249 11.0872 7.93863 9.58803C7.42478 8.08886 7.26137 6.49185 7.46095 4.91968Z" fill="black"/>
</svg>
