<svg width="24" height="24" viewBox="0 0 24 24" fill="none" xmlns="http://www.w3.org/2000/svg">
<path d="M18.9995 14.9986V3.99862C18.9988 3.84842 18.9642 3.7003 18.8985 3.56527C18.8327 3.43023 18.7373 3.31175 18.6195 3.21862C18.5033 3.12465 18.3675 3.0579 18.2222 3.02329C18.0768 2.98868 17.9255 2.98708 17.7795 3.01862L8.77945 5.01862C8.55727 5.06873 8.35885 5.19318 8.21702 5.37138C8.07518 5.54959 7.99843 5.77087 7.99945 5.99862V14.3386C7.31678 14.0163 6.54802 13.9241 5.80849 14.0757C5.06895 14.2274 4.39853 14.6147 3.89779 15.1797C3.39705 15.7446 3.09299 16.4567 3.03123 17.2091C2.96947 17.9615 3.15334 18.7136 3.55525 19.3526C3.95716 19.9917 4.55545 20.4832 5.26035 20.7534C5.96525 21.0236 6.73877 21.058 7.46486 20.8513C8.19094 20.6447 8.83045 20.2082 9.28744 19.6073C9.74443 19.0064 9.99426 18.2735 9.99945 17.5186C10.0098 17.3454 10.0098 17.1718 9.99945 16.9986V6.79862L16.9995 5.24862V12.3386C16.3164 12.0161 15.5472 11.924 14.8073 12.076C14.0674 12.2279 13.3967 12.6159 12.8961 13.1815C12.3955 13.7471 12.0919 14.4599 12.0309 15.2128C11.9699 15.9656 12.1548 16.718 12.5578 17.3568C12.9609 17.9956 13.5603 18.4865 14.2661 18.7556C14.9719 19.0247 15.7459 19.0576 16.472 18.8492C17.198 18.6409 17.8369 18.2027 18.2927 17.6003C18.7484 16.9979 18.9964 16.264 18.9995 15.5086C19.0089 15.3388 19.0089 15.1685 18.9995 14.9986ZM6.53945 18.9986C6.25763 18.9985 5.98162 18.9185 5.74344 18.7679C5.50527 18.6172 5.31471 18.4021 5.19387 18.1475C5.07304 17.8929 5.02689 17.6092 5.06078 17.3295C5.09467 17.0497 5.20721 16.7852 5.38533 16.5669C5.56346 16.3485 5.79987 16.1851 6.06713 16.0956C6.33438 16.0062 6.62152 15.9944 6.89521 16.0616C7.16891 16.1288 7.41793 16.2722 7.61339 16.4752C7.80884 16.6783 7.94271 16.9326 7.99945 17.2086C8.00928 17.3084 8.00928 17.4089 7.99945 17.5086C7.99953 17.8987 7.84667 18.2732 7.5737 18.5517C7.30073 18.8303 6.9294 18.9908 6.53945 18.9986ZM15.5395 16.9986C15.2547 17.0008 14.9752 16.922 14.7336 16.7712C14.4921 16.6205 14.2984 16.4041 14.1753 16.1473C14.0521 15.8906 14.0046 15.6041 14.0383 15.3213C14.0719 15.0386 14.1854 14.7712 14.3654 14.5506C14.5454 14.3299 14.7844 14.1651 15.0546 14.0752C15.3249 13.9854 15.6151 13.9744 15.8913 14.0434C16.1676 14.1124 16.4185 14.2586 16.6147 14.465C16.8109 14.6713 16.9444 14.9292 16.9995 15.2086C17.0093 15.3084 17.0093 15.4089 16.9995 15.5086C16.9968 15.903 16.839 16.2805 16.5601 16.5593C16.2813 16.8382 15.9038 16.996 15.5095 16.9986H15.5395Z" fill="black"/>
</svg>
