<svg width="24" height="24" viewBox="0 0 24 24" fill="none" xmlns="http://www.w3.org/2000/svg">
<path d="M13.6713 21.9984H13.6113C13.3912 21.9851 13.1817 21.8994 13.0153 21.7548C12.8489 21.6101 12.735 21.4145 12.6913 21.1984L11.0013 12.9984L2.80129 11.3084C2.58476 11.2653 2.38855 11.1519 2.24325 10.9857C2.09794 10.8195 2.01172 10.6099 1.99802 10.3896C1.98432 10.1692 2.04392 9.95056 2.16751 9.76764C2.29111 9.58472 2.47176 9.44785 2.68129 9.37835L18.6813 4.04835C18.8609 3.97419 19.0582 3.95397 19.2491 3.99014C19.44 4.02631 19.6163 4.11732 19.7563 4.25203C19.8963 4.38675 19.994 4.55934 20.0375 4.74871C20.0811 4.93808 20.0685 5.13603 20.0013 5.31835L14.6713 21.3183C14.6017 21.5253 14.4663 21.7038 14.2857 21.8266C14.1052 21.9494 13.8894 22.0097 13.6713 21.9984ZM6.87129 10.0984L12.0613 11.1584C12.2553 11.1958 12.4339 11.2898 12.5745 11.4287C12.7151 11.5675 12.8114 11.7448 12.8513 11.9384L13.9013 17.1284L17.4213 6.57835L6.87129 10.0984Z" fill="black"/>
</svg>
