<svg width="24" height="24" viewBox="0 0 24 24" fill="none" xmlns="http://www.w3.org/2000/svg">
<path d="M19.9995 20.0019C19.8029 20.0041 19.6106 19.9446 19.4495 19.8319L11.9995 14.9019L4.54955 19.8319C4.36593 19.9502 4.14862 20.0052 3.93082 19.9883C3.71302 19.9715 3.50672 19.8838 3.34345 19.7387C3.18018 19.5936 3.06892 19.399 3.02669 19.1847C2.98445 18.9703 3.01355 18.7481 3.10955 18.5519L11.1095 2.55185C11.1935 2.38805 11.321 2.25059 11.478 2.15459C11.635 2.0586 11.8155 2.00781 11.9995 2.00781C12.1836 2.00781 12.3641 2.0586 12.5211 2.15459C12.6781 2.25059 12.8056 2.38805 12.8895 2.55185L20.8895 18.5519C20.9892 18.7492 21.0207 18.9739 20.9791 19.1911C20.9375 19.4082 20.8251 19.6054 20.6595 19.7519C20.4772 19.9126 20.2426 20.0015 19.9995 20.0019ZM11.9995 12.7019C12.1956 12.7034 12.3868 12.7625 12.5495 12.8719L17.4295 16.1019L11.9995 5.24185L6.56955 16.1019L11.4495 12.8719C11.6123 12.7625 11.8035 12.7034 11.9995 12.7019Z" fill="black"/>
</svg>
