<svg width="24" height="24" viewBox="0 0 24 24" fill="none" xmlns="http://www.w3.org/2000/svg">
<path fill-rule="evenodd" clip-rule="evenodd" d="M8.33203 17.3633C8.74624 17.3633 9.08203 17.6991 9.08203 18.1133V21.3741C9.08203 21.7883 8.74624 22.1241 8.33203 22.1241C7.91782 22.1241 7.58203 21.7883 7.58203 21.3741V18.1133C7.58203 17.6991 7.91782 17.3633 8.33203 17.3633Z" fill="black"/>
<path fill-rule="evenodd" clip-rule="evenodd" d="M13.2227 17.3633C13.6369 17.3633 13.9727 17.6991 13.9727 18.1133V21.3741C13.9727 21.7883 13.6369 22.1241 13.2227 22.1241C12.8084 22.1241 12.4727 21.7883 12.4727 21.3741V18.1133C12.4727 17.6991 12.8084 17.3633 13.2227 17.3633Z" fill="black"/>
<path fill-rule="evenodd" clip-rule="evenodd" d="M5.94922 18.1133C5.94922 17.6991 6.28501 17.3633 6.69922 17.3633H14.8517C15.2659 17.3633 15.6017 17.6991 15.6017 18.1133C15.6017 18.5275 15.2659 18.8633 14.8517 18.8633H6.69922C6.28501 18.8633 5.94922 18.5275 5.94922 18.1133Z" fill="black"/>
<path fill-rule="evenodd" clip-rule="evenodd" d="M3.46712 7.75009C3.44355 7.74905 3.42054 7.7574 3.40311 7.7733C3.38787 7.78721 3.37799 7.80591 3.375 7.82615V21.3758C3.375 21.79 3.03921 22.1258 2.625 22.1258C2.21079 22.1258 1.875 21.79 1.875 21.3758V7.79914C1.875 7.78721 1.87528 7.77528 1.87585 7.76337C1.89591 7.34344 2.08154 6.94856 2.39211 6.6652C2.69799 6.38613 3.1005 6.23763 3.51385 6.25081H10.4862C10.8995 6.23763 11.302 6.38613 11.6079 6.6652C11.9185 6.94856 12.1041 7.34344 12.1241 7.76337C12.1247 7.77528 12.125 7.78721 12.125 7.79914V15.1258C12.125 15.54 11.7892 15.8758 11.375 15.8758C10.9608 15.8758 10.625 15.54 10.625 15.1258V7.82615C10.622 7.80591 10.6121 7.78721 10.5969 7.7733C10.5795 7.7574 10.5564 7.74905 10.5329 7.75009C10.5219 7.75057 10.511 7.75081 10.5 7.75081H3.5C3.48904 7.75081 3.47807 7.75057 3.46712 7.75009Z" fill="black"/>
<path fill-rule="evenodd" clip-rule="evenodd" d="M5.61017 3.75071H8.39119C8.69724 3.74053 8.99591 3.84828 9.22517 4.05224C9.46075 4.26183 9.60394 4.55603 9.62355 4.87073C9.62452 4.88626 9.625 4.90181 9.625 4.91737V7.00071C9.625 7.41492 9.28921 7.75071 8.875 7.75071H5.125C4.71079 7.75071 4.375 7.41492 4.375 7.00071V4.91737C4.375 4.90184 4.37548 4.88631 4.37645 4.87081C4.39605 4.5557 4.53956 4.26115 4.77562 4.0515C5.00515 3.84765 5.30404 3.74018 5.61017 3.75071ZM5.875 5.25071V6.25071H8.125V5.25071H5.875Z" fill="black"/>
<path fill-rule="evenodd" clip-rule="evenodd" d="M7.00926 2.01178C7.42344 2.01709 7.75489 2.35716 7.74957 2.77134L7.73041 4.26551C7.7251 4.67969 7.38503 5.01114 6.97085 5.00583C6.55667 5.00051 6.22522 4.66045 6.23053 4.24627L6.2497 2.7521C6.25501 2.33792 6.59508 2.00647 7.00926 2.01178Z" fill="black"/>
<path fill-rule="evenodd" clip-rule="evenodd" d="M4.375 10.125C4.375 9.71079 4.71079 9.375 5.125 9.375H8.875C9.28921 9.375 9.625 9.71079 9.625 10.125C9.625 10.5392 9.28921 10.875 8.875 10.875H5.125C4.71079 10.875 4.375 10.5392 4.375 10.125Z" fill="black"/>
<path fill-rule="evenodd" clip-rule="evenodd" d="M4.375 13.875C4.375 13.4608 4.71079 13.125 5.125 13.125H8.875C9.28921 13.125 9.625 13.4608 9.625 13.875C9.625 14.2892 9.28921 14.625 8.875 14.625H5.125C4.71079 14.625 4.375 14.2892 4.375 13.875Z" fill="black"/>
<path fill-rule="evenodd" clip-rule="evenodd" d="M1.875 21.375C1.875 20.9608 2.21079 20.625 2.625 20.625H21.375C21.7892 20.625 22.125 20.9608 22.125 21.375C22.125 21.7892 21.7892 22.125 21.375 22.125H2.625C2.21079 22.125 1.875 21.7892 1.875 21.375Z" fill="black"/>
<path fill-rule="evenodd" clip-rule="evenodd" d="M18.25 10.25C16.9383 10.25 15.875 11.3133 15.875 12.625C15.875 13.9367 16.9383 15 18.25 15C19.5617 15 20.625 13.9367 20.625 12.625C20.625 11.3133 19.5617 10.25 18.25 10.25ZM14.375 12.625C14.375 10.4849 16.1099 8.75 18.25 8.75C20.3901 8.75 22.125 10.4849 22.125 12.625C22.125 14.7651 20.3901 16.5 18.25 16.5C16.1099 16.5 14.375 14.7651 14.375 12.625Z" fill="black"/>
<path fill-rule="evenodd" clip-rule="evenodd" d="M18.25 12.5C18.6642 12.5 19 12.8358 19 13.25V21.375C19 21.7892 18.6642 22.125 18.25 22.125C17.8358 22.125 17.5 21.7892 17.5 21.375V13.25C17.5 12.8358 17.8358 12.5 18.25 12.5Z" fill="black"/>
</svg>
