<svg width="24" height="24" viewBox="0 0 24 24" fill="none" xmlns="http://www.w3.org/2000/svg">
<path d="M6.99991 14.18V3C6.99991 2.73478 6.89456 2.48043 6.70702 2.29289C6.51948 2.10536 6.26513 2 5.99991 2C5.7347 2 5.48034 2.10536 5.29281 2.29289C5.10527 2.48043 4.99991 2.73478 4.99991 3V14.18C4.42076 14.3902 3.92037 14.7736 3.56676 15.2782C3.21314 15.7827 3.02344 16.3839 3.02344 17C3.02344 17.6161 3.21314 18.2173 3.56676 18.7218C3.92037 19.2264 4.42076 19.6098 4.99991 19.82V21C4.99991 21.2652 5.10527 21.5196 5.29281 21.7071C5.48034 21.8946 5.7347 22 5.99991 22C6.26513 22 6.51948 21.8946 6.70702 21.7071C6.89456 21.5196 6.99991 21.2652 6.99991 21V19.82C7.57907 19.6098 8.07945 19.2264 8.43307 18.7218C8.78669 18.2173 8.97639 17.6161 8.97639 17C8.97639 16.3839 8.78669 15.7827 8.43307 15.2782C8.07945 14.7736 7.57907 14.3902 6.99991 14.18ZM5.99991 18C5.80213 18 5.60879 17.9414 5.44434 17.8315C5.27989 17.7216 5.15172 17.5654 5.07603 17.3827C5.00035 17.2 4.98054 16.9989 5.01913 16.8049C5.05771 16.6109 5.15296 16.4327 5.29281 16.2929C5.43266 16.153 5.61084 16.0578 5.80482 16.0192C5.9988 15.9806 6.19987 16.0004 6.3826 16.0761C6.56532 16.1518 6.7215 16.28 6.83138 16.4444C6.94127 16.6089 6.99991 16.8022 6.99991 17C6.99991 17.2652 6.89456 17.5196 6.70702 17.7071C6.51948 17.8946 6.26513 18 5.99991 18Z" fill="black"/>
<path d="M20.9999 13C20.9982 12.3811 20.805 11.7778 20.447 11.2729C20.0889 10.7681 19.5835 10.3863 18.9999 10.18V3C18.9999 2.73478 18.8946 2.48043 18.707 2.29289C18.5195 2.10536 18.2651 2 17.9999 2C17.7347 2 17.4803 2.10536 17.2928 2.29289C17.1053 2.48043 16.9999 2.73478 16.9999 3V10.18C16.4208 10.3902 15.9204 10.7736 15.5668 11.2782C15.2131 11.7827 15.0234 12.3839 15.0234 13C15.0234 13.6161 15.2131 14.2173 15.5668 14.7218C15.9204 15.2264 16.4208 15.6098 16.9999 15.82V21C16.9999 21.2652 17.1053 21.5196 17.2928 21.7071C17.4803 21.8946 17.7347 22 17.9999 22C18.2651 22 18.5195 21.8946 18.707 21.7071C18.8946 21.5196 18.9999 21.2652 18.9999 21V15.82C19.5835 15.6137 20.0889 15.2319 20.447 14.7271C20.805 14.2222 20.9982 13.6189 20.9999 13ZM17.9999 14C17.8021 14 17.6088 13.9414 17.4443 13.8315C17.2799 13.7216 17.1517 13.5654 17.076 13.3827C17.0003 13.2 16.9805 12.9989 17.0191 12.8049C17.0577 12.6109 17.153 12.4327 17.2928 12.2929C17.4327 12.153 17.6108 12.0578 17.8048 12.0192C17.9988 11.9806 18.1999 12.0004 18.3826 12.0761C18.5653 12.1518 18.7215 12.28 18.8314 12.4444C18.9413 12.6089 18.9999 12.8022 18.9999 13C18.9999 13.2652 18.8946 13.5196 18.707 13.7071C18.5195 13.8946 18.2651 14 17.9999 14Z" fill="black"/>
<path d="M15 5.00061C15.0015 4.45026 14.8517 3.91009 14.5668 3.43921C14.2819 2.96834 13.8729 2.58491 13.3847 2.33088C12.8965 2.07685 12.3478 1.96202 11.7987 1.99895C11.2496 2.03588 10.7212 2.22315 10.2714 2.54027C9.82159 2.85738 9.46768 3.29212 9.2484 3.7969C9.02913 4.30169 8.95293 4.85706 9.02816 5.40225C9.10338 5.94744 9.32713 6.46143 9.67492 6.88797C10.0227 7.31451 10.4811 7.63716 11 7.82061V21.0006C11 21.2658 11.1053 21.5202 11.2929 21.7077C11.4804 21.8953 11.7348 22.0006 12 22.0006C12.2652 22.0006 12.5196 21.8953 12.7071 21.7077C12.8946 21.5202 13 21.2658 13 21.0006V7.82061C13.5835 7.6143 14.089 7.23254 14.4471 6.72768C14.8051 6.22281 14.9983 5.61956 15 5.00061ZM12 6.00061C11.8022 6.00061 11.6089 5.94196 11.4444 5.83208C11.28 5.7222 11.1518 5.56602 11.0761 5.38329C11.0004 5.20057 10.9806 4.9995 11.0192 4.80552C11.0578 4.61154 11.153 4.43336 11.2929 4.2935C11.4327 4.15365 11.6109 4.05841 11.8049 4.01983C11.9989 3.98124 12.1999 4.00104 12.3827 4.07673C12.5654 4.15242 12.7216 4.28059 12.8315 4.44504C12.9413 4.60949 13 4.80283 13 5.00061C13 5.26583 12.8946 5.52018 12.7071 5.70772C12.5196 5.89525 12.2652 6.00061 12 6.00061Z" fill="black"/>
</svg>
