<svg width="24" height="24" viewBox="0 0 24 24" fill="none" xmlns="http://www.w3.org/2000/svg">
<path d="M20.9995 3.9996C20.9891 3.90773 20.9689 3.81723 20.9395 3.7296V3.6396C20.8915 3.5283 20.8238 3.42665 20.7395 3.3396C20.6546 3.25986 20.5565 3.19556 20.4495 3.1496H20.3595C20.2673 3.07921 20.1619 3.02818 20.0495 2.9996H19.9995C19.9 2.98451 19.7989 2.98451 19.6995 2.9996L1.69947 8.9996C1.4994 9.06535 1.3252 9.1926 1.2017 9.36319C1.07821 9.53377 1.01172 9.739 1.01172 9.94959C1.01172 10.1602 1.07821 10.3654 1.2017 10.536C1.3252 10.7066 1.4994 10.8338 1.69947 10.8996L10.2295 13.7396L13.0695 22.2696C13.1352 22.4697 13.2625 22.6439 13.4331 22.7674C13.6036 22.8909 13.8089 22.9573 14.0195 22.9573C14.2301 22.9573 14.4353 22.8909 14.6059 22.7674C14.7765 22.6439 14.9037 22.4697 14.9695 22.2696L20.9695 4.2696C20.9917 4.18138 21.0018 4.09054 20.9995 3.9996ZM16.2995 6.2896L10.7295 11.8596L5.15947 9.9996L16.2995 6.2896ZM13.9995 18.8396L12.1395 13.2696L17.7095 7.69959L13.9995 18.8396Z" fill="black"/>
</svg>
