<svg width="24" height="24" viewBox="0 0 24 24" fill="none" xmlns="http://www.w3.org/2000/svg">
<path d="M14.7 18.0016V15.3016C14.7 15.0436 14.592 14.8006 14.4 14.6296L13.911 12.3016C13.767 11.6026 13.155 11.1016 12.441 11.1016H5.559C4.845 11.1016 4.233 11.6026 4.089 12.3016L3.6 14.6296C3.408 14.8006 3.3 15.0436 3.3 15.3016V18.0016C3.135 18.0016 3 18.1366 3 18.3016V19.5016C3 19.6666 3.135 19.8016 3.3 19.8016V20.7016C3.3 20.8666 3.435 21.0016 3.6 21.0016H5.1C5.265 21.0016 5.4 20.8666 5.4 20.7016V19.8016H12.6V20.7016C12.6 20.8666 12.735 21.0016 12.9 21.0016H14.4C14.565 21.0016 14.7 20.8666 14.7 20.7016V19.8016C14.865 19.8016 15 19.6666 15 19.5016V18.3016C15 18.1366 14.865 18.0016 14.7 18.0016ZM5.1 19.2016H3.6V18.6016H14.4V19.2016H5.1ZM4.677 12.4186C4.764 12.0016 5.133 11.7016 5.559 11.7016H12.441C12.867 11.7016 13.236 12.0016 13.323 12.4186L13.731 14.4016H4.269L4.677 12.4186ZM3.9 15.3016C3.9 15.1366 4.035 15.0016 4.2 15.0016H13.8C13.965 15.0016 14.1 15.1366 14.1 15.3016V18.0016H3.9V15.3016ZM4.8 20.4016H3.9V19.8016H4.8V20.4016ZM14.1 20.4016H13.2V19.8016H14.1V20.4016Z" fill="black"/>
<path d="M5.09922 15.3008C4.60122 15.3008 4.19922 15.7028 4.19922 16.2008C4.19922 16.6988 4.60122 17.1008 5.09922 17.1008C5.59722 17.1008 5.99922 16.6988 5.99922 16.2008C5.99922 15.7028 5.59722 15.3008 5.09922 15.3008ZM5.09922 16.5008C4.93422 16.5008 4.79922 16.3658 4.79922 16.2008C4.79922 16.0358 4.93422 15.9008 5.09922 15.9008C5.26422 15.9008 5.39922 16.0358 5.39922 16.2008C5.39922 16.3658 5.26422 16.5008 5.09922 16.5008Z" fill="black"/>
<path d="M12.9 15.3008C12.402 15.3008 12 15.7028 12 16.2008C12 16.6988 12.402 17.1008 12.9 17.1008C13.398 17.1008 13.8 16.6988 13.8 16.2008C13.8 15.7028 13.398 15.3008 12.9 15.3008ZM12.9 16.5008C12.735 16.5008 12.6 16.3658 12.6 16.2008C12.6 16.0358 12.735 15.9008 12.9 15.9008C13.065 15.9008 13.2 16.0358 13.2 16.2008C13.2 16.3658 13.065 16.5008 12.9 16.5008Z" fill="black"/>
<path d="M11.1016 15.3008H6.90156C6.73656 15.3008 6.60156 15.4358 6.60156 15.6008C6.60156 15.7658 6.73656 15.9008 6.90156 15.9008H11.1016C11.2666 15.9008 11.4016 15.7658 11.4016 15.6008C11.4016 15.4358 11.2666 15.3008 11.1016 15.3008Z" fill="black"/>
<path d="M11.1016 16.1992H6.90156C6.73656 16.1992 6.60156 16.3342 6.60156 16.4992C6.60156 16.6642 6.73656 16.7992 6.90156 16.7992H11.1016C11.2666 16.7992 11.4016 16.6642 11.4016 16.4992C11.4016 16.3342 11.2666 16.1992 11.1016 16.1992Z" fill="black"/>
<path d="M11.1016 17.1016H6.90156C6.73656 17.1016 6.60156 17.2366 6.60156 17.4016C6.60156 17.5666 6.73656 17.7016 6.90156 17.7016H11.1016C11.2666 17.7016 11.4016 17.5666 11.4016 17.4016C11.4016 17.2366 11.2666 17.1016 11.1016 17.1016Z" fill="black"/>
<path d="M20.7008 3H14.1008C13.9358 3 13.8008 3.135 13.8008 3.3V9.9C13.8008 10.065 13.9358 10.2 14.1008 10.2H16.5008V20.7C16.5008 20.865 16.6358 21 16.8008 21H18.0008C18.1658 21 18.3008 20.865 18.3008 20.7V10.2H20.7008C20.8658 10.2 21.0008 10.065 21.0008 9.9V3.3C21.0008 3.135 20.8658 3 20.7008 3ZM17.7008 20.4H17.1008V10.2H17.7008V20.4ZM20.4008 9.6H14.4008V3.6H20.4008V9.6Z" fill="black"/>
<path d="M16.4992 8.99927C16.6642 8.99927 16.7992 8.86427 16.7992 8.69927V6.59927H17.6992C18.0202 6.60227 18.3292 6.47627 18.5572 6.24827C19.0252 5.78027 19.0252 5.02127 18.5572 4.55027C18.3292 4.32227 18.0202 4.19627 17.6992 4.19927H16.4992C16.3342 4.19927 16.1992 4.33427 16.1992 4.49927V8.69927C16.1992 8.86427 16.3342 8.99927 16.4992 8.99927ZM16.7992 4.79927H17.6992C17.8612 4.79927 18.0202 4.86527 18.1372 4.97627C18.3712 5.21027 18.3712 5.58827 18.1372 5.82227C18.0202 5.93327 17.8612 5.99927 17.6992 5.99927H16.7992V4.79927Z" fill="black"/>
</svg>
