<svg width="24" height="24" viewBox="0 0 24 24" fill="none" xmlns="http://www.w3.org/2000/svg">
<path d="M21.6585 4.24866C21.4594 4.07386 21.1992 3.98516 20.9348 4.00203C20.6705 4.01891 20.4236 4.13997 20.2485 4.33866L18.3785 6.48866L17.7485 5.77866C17.5721 5.57975 17.3239 5.45905 17.0586 5.4431C16.7932 5.42716 16.5324 5.51729 16.3335 5.69366C16.1345 5.87003 16.0138 6.11819 15.9979 6.38356C15.982 6.64892 16.0721 6.90975 16.2485 7.10866L17.6385 8.66866C17.7331 8.77351 17.8488 8.85713 17.9781 8.91401C18.1074 8.97088 18.2472 8.99974 18.3885 8.99866C18.5287 8.99707 18.6671 8.96598 18.7946 8.9074C18.9221 8.84882 19.0359 8.76407 19.1285 8.65866L21.7385 5.65866C21.9145 5.46092 22.0049 5.20144 21.9899 4.93712C21.9749 4.67281 21.8557 4.42523 21.6585 4.24866Z" fill="black"/>
<path d="M10 11C10.7911 11 11.5645 10.7654 12.2223 10.3259C12.8801 9.88635 13.3928 9.26164 13.6955 8.53074C13.9983 7.79983 14.0775 6.99556 13.9231 6.21964C13.7688 5.44372 13.3878 4.73098 12.8284 4.17157C12.269 3.61216 11.5563 3.2312 10.7804 3.07686C10.0044 2.92252 9.20017 3.00173 8.46927 3.30448C7.73836 3.60723 7.11365 4.11992 6.67412 4.77772C6.2346 5.43552 6 6.20888 6 7C6 8.06087 6.42143 9.07828 7.17157 9.82843C7.92172 10.5786 8.93913 11 10 11ZM10 5C10.3956 5 10.7822 5.1173 11.1111 5.33706C11.44 5.55683 11.6964 5.86918 11.8478 6.23463C11.9991 6.60009 12.0387 7.00222 11.9616 7.39018C11.8844 7.77814 11.6939 8.13451 11.4142 8.41422C11.1345 8.69392 10.7781 8.8844 10.3902 8.96157C10.0022 9.03874 9.60009 8.99914 9.23463 8.84776C8.86918 8.69639 8.55682 8.44004 8.33706 8.11114C8.1173 7.78224 8 7.39556 8 7C8 6.46957 8.21071 5.96086 8.58579 5.58579C8.96086 5.21072 9.46957 5 10 5Z" fill="black"/>
<path d="M10 13C8.14348 13 6.36301 13.7375 5.05025 15.0503C3.7375 16.363 3 18.1435 3 20C3 20.2652 3.10536 20.5196 3.29289 20.7071C3.48043 20.8946 3.73478 21 4 21C4.26522 21 4.51957 20.8946 4.70711 20.7071C4.89464 20.5196 5 20.2652 5 20C5 18.6739 5.52678 17.4021 6.46447 16.4645C7.40215 15.5268 8.67392 15 10 15C11.3261 15 12.5979 15.5268 13.5355 16.4645C14.4732 17.4021 15 18.6739 15 20C15 20.2652 15.1054 20.5196 15.2929 20.7071C15.4804 20.8946 15.7348 21 16 21C16.2652 21 16.5196 20.8946 16.7071 20.7071C16.8946 20.5196 17 20.2652 17 20C17 18.1435 16.2625 16.363 14.9497 15.0503C13.637 13.7375 11.8565 13 10 13Z" fill="black"/>
</svg>
