<svg width="24" height="24" viewBox="0 0 24 24" fill="none" xmlns="http://www.w3.org/2000/svg">
<path d="M21.94 16.64C21.898 16.3916 21.8344 16.1474 21.75 15.91C21.695 15.7495 21.6 15.6056 21.4741 15.4919C21.3481 15.3781 21.1953 15.2984 21.03 15.26L15.03 13.89C14.8671 13.8531 14.6976 13.8575 14.5369 13.9029C14.3762 13.9484 14.2294 14.0333 14.11 14.15C13.97 14.28 13.96 14.29 13.31 15.53C11.1541 14.5315 9.4241 12.798 8.43 10.64C9.71 10 9.72 10 9.85 9.85C9.96671 9.73056 10.0516 9.58379 10.0971 9.42308C10.1425 9.26238 10.1469 9.09286 10.11 8.93L8.74 3C8.70165 2.8347 8.62186 2.68187 8.50814 2.55591C8.39443 2.42995 8.25053 2.335 8.09 2.28C7.85647 2.19659 7.61531 2.1363 7.37 2.1C7.11725 2.0414 6.85933 2.0079 6.6 2C5.38 2 4.20998 2.48464 3.34731 3.34731C2.48464 4.20998 2 5.38 2 6.6C2.00529 10.6827 3.62949 14.5967 6.5164 17.4836C9.40331 20.3705 13.3173 21.9947 17.4 22C18.0041 22 18.6022 21.881 19.1603 21.6498C19.7184 21.4187 20.2255 21.0798 20.6527 20.6527C21.0798 20.2255 21.4187 19.7184 21.6498 19.1603C21.881 18.6022 22 18.0041 22 17.4C22.0003 17.1455 21.9802 16.8913 21.94 16.64ZM17.4 20C13.8469 19.9974 10.4401 18.5847 7.92769 16.0723C5.41528 13.5599 4.00265 10.1531 4 6.6C4.00263 5.91125 4.27741 5.25146 4.76443 4.76443C5.25146 4.27741 5.91125 4.00263 6.6 4H6.93L8 8.64L7.45 8.93C6.58 9.38 5.95 9.71 6.28 10.51C6.86622 12.1696 7.81477 13.6777 9.05674 14.9249C10.2987 16.172 11.8029 17.1269 13.46 17.72C14.3 18.06 14.63 17.43 15.08 16.56L15.37 16.01L20 17.07V17.4C19.9974 18.0888 19.7226 18.7485 19.2356 19.2356C18.7485 19.7226 18.0888 19.9974 17.4 20Z" fill="black"/>
<path d="M15.7995 8.69886C15.9958 8.89124 16.2596 8.99901 16.5345 8.99901C16.8093 8.99901 17.0732 8.89124 17.2695 8.69886L17.9995 7.99886L18.7295 8.72886C18.9284 8.92379 19.1966 9.03172 19.4751 9.02891C19.7536 9.0261 20.0195 8.91277 20.2145 8.71386C20.4094 8.51495 20.5173 8.24674 20.5145 7.96825C20.5117 7.68976 20.3984 7.42379 20.1995 7.22886L19.4695 6.49886L20.1995 5.76886C20.296 5.67234 20.3726 5.55775 20.4248 5.43164C20.477 5.30553 20.5039 5.17036 20.5039 5.03386C20.5039 4.89735 20.477 4.76219 20.4248 4.63608C20.3726 4.50997 20.296 4.39538 20.1995 4.29886C20.103 4.20234 19.9884 4.12577 19.8623 4.07353C19.7362 4.0213 19.601 3.99441 19.4645 3.99441C19.328 3.99441 19.1928 4.0213 19.0667 4.07353C18.9406 4.12577 18.826 4.20234 18.7295 4.29886L17.9995 4.99886L17.2695 4.26886C17.0706 4.07392 16.8024 3.96599 16.5239 3.9688C16.2454 3.97162 15.9794 4.08494 15.7845 4.28386C15.5895 4.48277 15.4816 4.75097 15.4844 5.02946C15.4872 5.30796 15.6006 5.57392 15.7995 5.76886L16.5295 6.49886L15.7995 7.22886C15.6071 7.42513 15.4993 7.68902 15.4993 7.96386C15.4993 8.2387 15.6071 8.50258 15.7995 8.69886Z" fill="black"/>
</svg>
