<svg width="24" height="24" viewBox="0 0 24 24" fill="none" xmlns="http://www.w3.org/2000/svg">
<path d="M19.74 4.26135C19.6573 4.1785 19.5591 4.11278 19.451 4.06793C19.3429 4.02308 19.227 4 19.11 4C18.993 4 18.8771 4.02308 18.769 4.06793C18.6609 4.11278 18.5627 4.1785 18.48 4.26135L4.26 18.4813C4.095 18.6497 4.00179 18.8756 4 19.1114C3.99973 19.2876 4.05179 19.4599 4.14956 19.6065C4.24734 19.7531 4.38644 19.8674 4.54923 19.9349C4.71202 20.0024 4.89118 20.02 5.064 19.9855C5.23682 19.9511 5.39553 19.8661 5.52 19.7414L19.74 5.52135C19.8228 5.43868 19.8886 5.34048 19.9334 5.23238C19.9783 5.12428 20.0014 5.00839 20.0014 4.89135C20.0014 4.77431 19.9783 4.65843 19.9334 4.55032C19.8886 4.44222 19.8228 4.34402 19.74 4.26135Z" fill="black"/>
<path d="M6.7 14.63C4.94813 12.3195 3.99993 9.49953 4 6.6C4.00263 5.91125 4.27741 5.25146 4.76443 4.76443C5.25146 4.27741 5.91125 4.00263 6.6 4H6.93L8 8.64L7.45 8.93C6.58 9.38 5.95 9.71 6.28 10.51C6.65338 11.5816 7.18238 12.5924 7.85 13.51L9.28 12.09C8.97649 11.6384 8.709 11.1636 8.48 10.67C9.71 10 9.72 10 9.85 9.85C9.96671 9.73056 10.0516 9.58379 10.0971 9.42308C10.1425 9.26238 10.1469 9.09286 10.11 8.93L8.74 3C8.70165 2.8347 8.62186 2.68187 8.50814 2.55591C8.39443 2.42995 8.25053 2.335 8.09 2.28C7.85647 2.19659 7.61531 2.1363 7.37 2.1C7.11725 2.0414 6.85933 2.0079 6.6 2C5.38 2 4.20998 2.48464 3.34731 3.34731C2.48464 4.20998 2 5.38 2 6.6C2.00087 10.0304 3.15227 13.3613 5.27 16.06L6.7 14.63Z" fill="black"/>
<path d="M21.9414 16.6419C21.8994 16.3936 21.8358 16.1493 21.7514 15.9119C21.6964 15.7514 21.6015 15.6075 21.4755 15.4938C21.3495 15.3801 21.1967 15.3003 21.0314 15.2619L15.0314 13.8919C14.8685 13.855 14.699 13.8595 14.5383 13.9049C14.3776 13.9503 14.2308 14.0352 14.1114 14.1519C13.9714 14.2819 13.9614 14.2919 13.3114 15.5319C12.8222 15.3007 12.3509 15.0333 11.9014 14.7319L10.4714 16.1619C11.3707 16.8215 12.3611 17.347 13.4114 17.7219C14.2514 18.0619 14.5814 17.4319 15.0314 16.5619L15.3214 16.0119L20.0014 17.0719V17.4019C19.9988 18.0907 19.724 18.7505 19.237 19.2375C18.7499 19.7245 18.0902 19.9993 17.4014 20.0019C14.5121 19.9955 11.7037 19.0476 9.40141 17.3019L7.94141 18.7319C10.6401 20.8497 13.971 22.0011 17.4014 22.0019C18.0055 22.0019 18.6037 21.883 19.1617 21.6518C19.7198 21.4206 20.2269 21.0818 20.6541 20.6546C21.0812 20.2275 21.4201 19.7204 21.6513 19.1623C21.8824 18.6042 22.0014 18.006 22.0014 17.4019C22.0017 17.1474 21.9817 16.8933 21.9414 16.6419Z" fill="black"/>
</svg>
