<svg width="24" height="24" viewBox="0 0 24 24" fill="none" xmlns="http://www.w3.org/2000/svg">
<path d="M13 2C12.7348 2 12.4804 2.10536 12.2929 2.29289C12.1054 2.48043 12 2.73478 12 3V11C12 11.2652 12.1054 11.5196 12.2929 11.7071C12.4804 11.8946 12.7348 12 13 12H21C21.2652 12 21.5196 11.8946 21.7071 11.7071C21.8946 11.5196 22 11.2652 22 11C22 8.61305 21.0518 6.32387 19.364 4.63604C17.6761 2.94821 15.3869 2 13 2ZM14 10V4.07C15.4962 4.28561 16.8824 4.97978 17.9513 6.04868C19.0202 7.11759 19.7144 8.50379 19.93 10H14Z" fill="black"/>
<path d="M20.8189 14.0616C20.6948 14.0172 20.5632 13.9978 20.4316 14.0045C20.3 14.0112 20.171 14.0438 20.0521 14.1005C19.9331 14.1572 19.8265 14.2368 19.7385 14.3348C19.6504 14.4328 19.5826 14.5473 19.5389 14.6716C19.0882 15.9455 18.3222 17.0845 17.3123 17.9824C16.3025 18.8802 15.0816 19.5076 13.7637 19.806C12.4458 20.1045 11.0738 20.0642 9.77562 19.689C8.47747 19.3138 7.29551 18.6159 6.34001 17.6604C5.38451 16.7049 4.68661 15.523 4.31142 14.2248C3.93623 12.9267 3.89598 11.5547 4.19442 10.2367C4.49286 8.91883 5.12026 7.69798 6.0181 6.68811C6.91594 5.67823 8.05495 4.91224 9.32887 4.46159C9.5795 4.37407 9.78509 4.19057 9.90043 3.95146C10.0158 3.71235 10.0314 3.43722 9.94387 3.18659C9.85635 2.93596 9.67285 2.73036 9.43374 2.61503C9.19463 2.49969 8.9195 2.48407 8.66887 2.57159C7.07591 3.13436 5.6515 4.09155 4.52858 5.35381C3.40567 6.61606 2.62085 8.14224 2.24739 9.78989C1.87393 11.4375 1.92399 13.153 2.39291 14.776C2.86183 16.3991 3.73431 17.8769 4.92893 19.0715C6.12355 20.2661 7.60136 21.1386 9.22443 21.6075C10.8475 22.0765 12.5629 22.1265 14.2106 21.7531C15.8582 21.3796 17.3844 20.5948 18.6466 19.4719C19.9089 18.349 20.8661 16.9245 21.4289 15.3316C21.5154 15.0822 21.4998 14.8088 21.3855 14.5709C21.2712 14.333 21.0676 14.1499 20.8189 14.0616Z" fill="black"/>
</svg>
