<svg width="24" height="24" viewBox="0 0 24 24" fill="none" xmlns="http://www.w3.org/2000/svg">
<path d="M12 13C12.2652 13 12.5196 12.8946 12.7071 12.7071C12.8946 12.5196 13 12.2652 13 12V2C13 1.73478 12.8946 1.48043 12.7071 1.29289C12.5196 1.10536 12.2652 1 12 1C11.7348 1 11.4804 1.10536 11.2929 1.29289C11.1054 1.48043 11 1.73478 11 2V12C11 12.2652 11.1054 12.5196 11.2929 12.7071C11.4804 12.8946 11.7348 13 12 13Z" fill="black"/>
<path d="M16.59 3.11185C16.354 2.98985 16.0791 2.96661 15.826 3.04726C15.5728 3.1279 15.362 3.30581 15.24 3.54185C15.118 3.77789 15.0948 4.05273 15.1754 4.30591C15.2561 4.55908 15.434 4.76985 15.67 4.89185C17.2635 5.71452 18.5343 7.04871 19.2785 8.68027C20.0228 10.3118 20.1972 12.1461 19.7739 13.8887C19.3506 15.6313 18.3541 17.1812 16.9444 18.2895C15.5346 19.3979 13.7933 20.0004 12 20.0004C10.2067 20.0004 8.46544 19.3979 7.05566 18.2895C5.64588 17.1812 4.64937 15.6313 4.22607 13.8887C3.80277 12.1461 3.97725 10.3118 4.72148 8.68027C5.46572 7.04871 6.73656 5.71452 8.33001 4.89185C8.44688 4.83144 8.55072 4.7486 8.63558 4.64807C8.72044 4.54753 8.78467 4.43126 8.8246 4.30591C8.86453 4.18055 8.87938 4.04855 8.86829 3.91745C8.85721 3.78636 8.82042 3.65873 8.76001 3.54185C8.6996 3.42497 8.61676 3.32114 8.51623 3.23628C8.41569 3.15141 8.29942 3.08718 8.17406 3.04726C8.0487 3.00733 7.91671 2.99248 7.78561 3.00356C7.65451 3.01465 7.52688 3.05144 7.41001 3.11185C5.4187 4.14064 3.83074 5.80858 2.90098 7.848C1.97121 9.88743 1.75355 12.1801 2.28292 14.358C2.81229 16.536 4.058 18.473 5.82013 19.8581C7.58226 21.2432 9.75864 21.9962 12 21.9962C14.2414 21.9962 16.4178 21.2432 18.1799 19.8581C19.942 18.473 21.1877 16.536 21.7171 14.358C22.2465 12.1801 22.0288 9.88743 21.099 7.848C20.1693 5.80858 18.5813 4.14064 16.59 3.11185Z" fill="black"/>
</svg>
