<svg width="24" height="24" viewBox="0 0 24 24" fill="none" xmlns="http://www.w3.org/2000/svg">
<path d="M12.8703 22.0003C12.3874 21.9997 11.9241 21.8094 11.5803 21.4703L5.1703 15.0503C5.00581 14.8868 4.90329 14.6711 4.8803 14.4403L4.0003 5.0903C3.98683 4.94383 4.00583 4.79619 4.05596 4.65791C4.10608 4.51963 4.1861 4.39411 4.2903 4.2903C4.39411 4.1861 4.51963 4.10608 4.65791 4.05596C4.79619 4.00583 4.94383 3.98683 5.0903 4.0003L14.4403 4.8803C14.6711 4.90329 14.8868 5.00581 15.0503 5.1703L21.4703 11.5803C21.8104 11.9215 22.0014 12.3835 22.0014 12.8653C22.0014 13.347 21.8104 13.8091 21.4703 14.1503L14.1503 21.4703C13.8102 21.8088 13.3501 21.9993 12.8703 22.0003ZM6.8703 13.8903L12.8703 19.8903L19.9203 12.8403L13.9203 6.8403L6.1103 6.1103L6.8703 13.8903Z" fill="black"/>
<path d="M10.5 12C11.3284 12 12 11.3284 12 10.5C12 9.67157 11.3284 9 10.5 9C9.67157 9 9 9.67157 9 10.5C9 11.3284 9.67157 12 10.5 12Z" fill="black"/>
</svg>
