<svg width="24" height="24" viewBox="0 0 24 24" fill="none" xmlns="http://www.w3.org/2000/svg">
<path fill-rule="evenodd" clip-rule="evenodd" d="M4.255 6.5C4.02161 6.5 3.79778 6.59271 3.63275 6.75775C3.46771 6.92278 3.375 7.14661 3.375 7.38V12.435C3.375 12.4522 3.38185 12.4688 3.39404 12.481C3.40623 12.4932 3.42276 12.5 3.44 12.5H10.125C10.5392 12.5 10.875 12.8358 10.875 13.25C10.875 13.6642 10.5392 14 10.125 14H3.44C3.02494 14 2.62687 13.8351 2.33338 13.5416C2.03988 13.2481 1.875 12.8501 1.875 12.435V7.38C1.875 6.74878 2.12575 6.14342 2.57209 5.69709C3.01842 5.25075 3.62378 5 4.255 5H19.7442C20.3754 5 20.9808 5.25067 21.4272 5.6969C21.8737 6.14313 22.1247 6.74839 22.125 7.37962V12.435C22.125 12.8501 21.9601 13.2481 21.6666 13.5416C21.3731 13.8351 20.9751 14 20.56 14H13.875C13.4608 14 13.125 13.6642 13.125 13.25C13.125 12.8358 13.4608 12.5 13.875 12.5H20.56C20.5772 12.5 20.5938 12.4932 20.606 12.481C20.6182 12.4688 20.625 12.4522 20.625 12.435V7.38038C20.6249 7.14685 20.532 6.92292 20.3668 6.75783C20.2017 6.59274 19.9777 6.5 19.7442 6.5H4.255Z" fill="black"/>
<path fill-rule="evenodd" clip-rule="evenodd" d="M14.4718 3.82793C14.1481 3.52446 13.7171 3.36186 13.2736 3.37583C13.2657 3.37608 13.2579 3.3762 13.25 3.3762H10.75C10.7422 3.3762 10.7344 3.37608 10.7266 3.37584C10.2831 3.36202 9.85218 3.5247 9.52841 3.82818C9.20741 4.12905 9.01773 4.54397 9 4.98327V5.0012H15V4.98313C14.9825 4.54381 14.7928 4.12881 14.4718 3.82793ZM13.239 1.8762C14.0753 1.85318 14.887 2.16118 15.4976 2.73353C16.1113 3.30875 16.4717 4.10399 16.4996 4.94465C16.4999 4.95294 16.5 4.96124 16.5 4.96954V5.7512C16.5 6.16542 16.1642 6.5012 15.75 6.5012H8.25C7.83579 6.5012 7.5 6.16542 7.5 5.7512V4.96954C7.5 4.96115 7.50014 4.95277 7.50042 4.94439C7.52861 4.1039 7.88902 3.3089 8.50259 2.73378C9.11313 2.1615 9.92473 1.85344 10.7609 1.8762H13.239Z" fill="black"/>
<path fill-rule="evenodd" clip-rule="evenodd" d="M9.77773 10.4027C10.0356 10.1449 10.3853 10 10.75 10H13.25C13.6147 10 13.9644 10.1449 14.2223 10.4027C14.4801 10.6606 14.625 11.0103 14.625 11.375V13.25C14.625 13.9462 14.3484 14.6139 13.8562 15.1062C13.3639 15.5984 12.6962 15.875 12 15.875C11.3038 15.875 10.6361 15.5984 10.1438 15.1062C9.65156 14.6139 9.375 13.9462 9.375 13.25V11.375C9.375 11.0103 9.51987 10.6606 9.77773 10.4027ZM10.875 11.5V13.25C10.875 13.5484 10.9935 13.8345 11.2045 14.0455C11.4155 14.2565 11.7016 14.375 12 14.375C12.2984 14.375 12.5845 14.2565 12.7955 14.0455C13.0065 13.8345 13.125 13.5484 13.125 13.25V11.5H10.875Z" fill="black"/>
<path fill-rule="evenodd" clip-rule="evenodd" d="M20.0092 12.5088C20.4186 12.4458 20.8015 12.7267 20.8645 13.1361L21.8928 19.8211C21.9367 20.1062 21.9183 20.3975 21.839 20.6749C21.7597 20.9523 21.6213 21.2093 21.4334 21.4281C21.2454 21.647 21.0123 21.8226 20.7501 21.9429C20.4878 22.0632 20.2027 22.1254 19.9142 22.1251H4.08156C3.79327 22.125 3.50813 22.0626 3.24623 21.9421C2.98433 21.8216 2.75157 21.646 2.56389 21.4271C2.37622 21.2083 2.23807 20.9515 2.15891 20.6743C2.07976 20.3971 2.06146 20.1061 2.10525 19.8213L3.13191 13.1363C3.19479 12.7268 3.57766 12.4459 3.98707 12.5088C4.39648 12.5717 4.67741 12.9545 4.61453 13.364L3.58786 20.049C3.57691 20.1202 3.58146 20.1931 3.60125 20.2624C3.62104 20.3317 3.65558 20.3959 3.7025 20.4506C3.74941 20.5053 3.8076 20.5492 3.87308 20.5794C3.93856 20.6095 4.00977 20.6251 4.08184 20.6251H19.9149C19.987 20.6252 20.059 20.6096 20.1246 20.5796C20.1901 20.5495 20.2484 20.5056 20.2954 20.4509C20.3424 20.3961 20.377 20.3319 20.3968 20.2626C20.4166 20.1932 20.4212 20.1204 20.4103 20.0491L19.3819 13.3641C19.319 12.9547 19.5998 12.5718 20.0092 12.5088Z" fill="black"/>
</svg>
