<svg width="24" height="24" viewBox="0 0 24 24" fill="none" xmlns="http://www.w3.org/2000/svg">
<path d="M12 2C6.48 2 2 6.48 2 12C2 17.52 6.48 22 12 22C17.52 22 22 17.52 22 12C22 6.48 17.52 2 12 2ZM12 20C7.58 20 4 16.42 4 12C4 7.58 7.58 4 12 4C16.42 4 20 7.58 20 12C20 16.42 16.42 20 12 20Z" fill="black"/>
<path d="M12 6.00007C10.07 6.00007 8.5 7.57007 8.5 9.50007C8.5 10.0501 8.95 10.5001 9.5 10.5001C10.05 10.5001 10.5 10.0501 10.5 9.50007C10.5 8.67007 11.17 8.00007 12 8.00007C12.83 8.00007 13.5 8.67007 13.5 9.50007C13.5 10.3301 12.83 11.0001 12 11.0001C11.45 11.0001 11 11.4501 11 12.0001V14.0001C11 14.5501 11.45 15.0001 12 15.0001C12.55 15.0001 13 14.5501 13 14.0001V12.8401C14.85 12.3001 15.91 10.3601 15.37 8.51007C14.93 7.02007 13.56 5.99007 12 6.00007Z" fill="black"/>
<path d="M12 18C12.5523 18 13 17.5523 13 17C13 16.4477 12.5523 16 12 16C11.4477 16 11 16.4477 11 17C11 17.5523 11.4477 18 12 18Z" fill="black"/>
</svg>
