<svg width="24" height="24" viewBox="0 0 24 24" fill="none" xmlns="http://www.w3.org/2000/svg">
<path d="M12.0006 8C11.2921 7.99895 10.6061 8.24867 10.0641 8.70493C9.52209 9.16119 9.15906 9.79455 9.03928 10.4928C8.91951 11.1911 9.05073 11.9092 9.4097 12.52C9.76868 13.1309 10.3322 13.5949 11.0006 13.83C10.9957 13.8866 10.9957 13.9434 11.0006 14V20C11.0006 20.2652 11.1059 20.5196 11.2935 20.7071C11.481 20.8946 11.7354 21 12.0006 21C12.2658 21 12.5201 20.8946 12.7077 20.7071C12.8952 20.5196 13.0006 20.2652 13.0006 20V14C13.0054 13.9434 13.0054 13.8866 13.0006 13.83C13.6689 13.5949 14.2325 13.1309 14.5914 12.52C14.9504 11.9092 15.0816 11.1911 14.9619 10.4928C14.8421 9.79455 14.479 9.16119 13.937 8.70493C13.395 8.24867 12.709 7.99895 12.0006 8ZM12.0006 12C11.8028 12 11.6094 11.9414 11.445 11.8315C11.2805 11.7216 11.1524 11.5654 11.0767 11.3827C11.001 11.2 10.9812 10.9989 11.0198 10.8049C11.0584 10.6109 11.1536 10.4327 11.2935 10.2929C11.4333 10.153 11.6115 10.0578 11.8055 10.0192C11.9995 9.98063 12.2005 10.0004 12.3833 10.0761C12.566 10.1518 12.7222 10.28 12.832 10.4444C12.9419 10.6089 13.0006 10.8022 13.0006 11C13.0006 11.2652 12.8952 11.5196 12.7077 11.7071C12.5201 11.8946 12.2658 12 12.0006 12Z" fill="black"/>
<path d="M3.5 11.0013C3.52731 9.98879 3.77815 8.9949 4.23456 8.09073C4.69096 7.18657 5.34164 6.3945 6.14 5.77125C6.34422 5.60151 6.47264 5.3576 6.49702 5.09318C6.5214 4.82875 6.43974 4.56547 6.27 4.36125C6.18595 4.26013 6.08281 4.17656 5.96647 4.1153C5.85013 4.05405 5.72285 4.0163 5.59192 4.00423C5.3275 3.97985 5.06422 4.06151 4.86 4.23125C3.83433 5.04117 3.00101 6.06842 2.42001 7.23906C1.83901 8.4097 1.5248 9.6946 1.5 11.0013C1.5248 12.3079 1.83901 13.5928 2.42001 14.7634C3.00101 15.9341 3.83433 16.9613 4.86 17.7713C4.96112 17.8553 5.0778 17.9186 5.20338 17.9576C5.32897 17.9965 5.46099 18.0103 5.59192 17.9983C5.72285 17.9862 5.85013 17.9485 5.96647 17.8872C6.08281 17.8259 6.18595 17.7424 6.27 17.6413C6.35405 17.5401 6.41735 17.4235 6.4563 17.2979C6.49526 17.1723 6.50909 17.0403 6.49702 16.9093C6.48495 16.7784 6.44721 16.6511 6.38595 16.5348C6.32469 16.4184 6.24112 16.3153 6.14 16.2313C5.34164 15.608 4.69096 14.8159 4.23456 13.9118C3.77815 13.0076 3.52731 12.0137 3.5 11.0013Z" fill="black"/>
<path d="M16.6419 6.24135C16.4373 6.1054 16.1898 6.0495 15.9467 6.08431C15.7035 6.11912 15.4817 6.2422 15.3235 6.43009C15.1653 6.61797 15.0817 6.85751 15.0888 7.10303C15.0959 7.34856 15.1931 7.58289 15.3619 7.76135C15.856 8.14814 16.2591 8.63888 16.5425 9.19879C16.8259 9.7587 16.9827 10.3741 17.0019 11.0013C16.9827 11.6286 16.8259 12.244 16.5425 12.8039C16.2591 13.3638 15.856 13.8545 15.3619 14.2413C15.2071 14.3736 15.0964 14.55 15.0446 14.7469C14.9928 14.9438 15.0024 15.1518 15.0719 15.3431C15.1415 15.5345 15.2678 15.7 15.434 15.8176C15.6002 15.9352 15.7983 15.9993 16.0019 16.0013C16.2368 15.999 16.4633 15.914 16.6419 15.7613C17.3634 15.1924 17.9494 14.4702 18.3576 13.6469C18.7657 12.8237 18.9858 11.9201 19.0019 11.0013C18.9858 10.0826 18.7657 9.17897 18.3576 8.35575C17.9494 7.53252 17.3634 6.8103 16.6419 6.24135Z" fill="black"/>
<path d="M8.76 6.3588C8.58931 6.15871 8.34667 6.03393 8.08463 6.01147C7.82259 5.98901 7.56225 6.07068 7.36 6.2388C6.63849 6.80775 6.05245 7.52997 5.6443 8.3532C5.23614 9.17643 5.01607 10.0801 5 10.9988C5.01607 11.9175 5.23614 12.8212 5.6443 13.6444C6.05245 14.4676 6.63849 15.1898 7.36 15.7588C7.56225 15.9269 7.82259 16.0086 8.08463 15.9861C8.34667 15.9637 8.58931 15.8389 8.76 15.6388C8.92812 15.4365 9.00979 15.1762 8.98733 14.9142C8.96487 14.6521 8.84008 14.4095 8.64 14.2388C8.14582 13.852 7.74275 13.3613 7.45934 12.8014C7.17593 12.2414 7.01911 11.6261 7 10.9988C7.01911 10.3715 7.17593 9.75615 7.45934 9.19624C7.74275 8.63633 8.14582 8.14559 8.64 7.7588C8.84008 7.58811 8.96487 7.34546 8.98733 7.08343C9.00979 6.82139 8.92812 6.56105 8.76 6.3588Z" fill="black"/>
<path d="M19.1413 4.23125C19.0401 4.1472 18.9235 4.0839 18.7979 4.04494C18.6723 4.00599 18.5403 3.99216 18.4093 4.00423C18.2784 4.0163 18.1511 4.05404 18.0348 4.1153C17.9184 4.17656 17.8153 4.26013 17.7313 4.36125C17.6472 4.46237 17.5839 4.57905 17.5449 4.70463C17.506 4.83022 17.4922 4.96224 17.5042 5.09317C17.5163 5.2241 17.554 5.35137 17.6153 5.46772C17.6766 5.58406 17.7601 5.6872 17.8613 5.77125C18.6596 6.3945 19.3103 7.18656 19.7667 8.09073C20.2231 8.99489 20.4739 9.98879 20.5013 11.0012C20.4739 12.0137 20.2231 13.0076 19.7667 13.9118C19.3103 14.8159 18.6596 15.608 17.8613 16.2312C17.657 16.401 17.5286 16.6449 17.5042 16.9093C17.4799 17.1738 17.5615 17.437 17.7313 17.6412C17.901 17.8455 18.1449 17.9739 18.4093 17.9983C18.6738 18.0226 18.937 17.941 19.1413 17.7712C20.1669 16.9613 21.0002 15.9341 21.5812 14.7634C22.1622 13.5928 22.4764 12.3079 22.5013 11.0012C22.4764 9.6946 22.1622 8.4097 21.5812 7.23906C21.0002 6.06842 20.1669 5.04117 19.1413 4.23125Z" fill="black"/>
</svg>
