<svg width="24" height="24" viewBox="0 0 24 24" fill="none" xmlns="http://www.w3.org/2000/svg">
<path d="M17.9119 5.00019H5.91189L7.21189 3.71019C7.4002 3.52188 7.50598 3.26649 7.50598 3.00019C7.50598 2.73388 7.4002 2.47849 7.21189 2.29019C7.02359 2.10188 6.76819 1.99609 6.50189 1.99609C6.23559 1.99609 5.9802 2.10188 5.79189 2.29019L2.79189 5.29019C2.69816 5.38315 2.62377 5.49375 2.573 5.61561C2.52223 5.73747 2.49609 5.86817 2.49609 6.00019C2.49609 6.1322 2.52223 6.2629 2.573 6.38476C2.62377 6.50662 2.69816 6.61722 2.79189 6.71019L5.79189 9.71019C5.88486 9.80391 5.99546 9.87831 6.11732 9.92908C6.23917 9.97985 6.36988 10.006 6.50189 10.006C6.6339 10.006 6.76461 9.97985 6.88647 9.92908C7.00833 9.87831 7.11893 9.80391 7.21189 9.71019C7.30562 9.61722 7.38001 9.50662 7.43078 9.38476C7.48155 9.2629 7.50769 9.1322 7.50769 9.00019C7.50769 8.86817 7.48155 8.73747 7.43078 8.61561C7.38001 8.49375 7.30562 8.38315 7.21189 8.29019L5.91189 7.00019H17.9119C18.1168 6.99621 18.3204 7.03263 18.5112 7.10737C18.702 7.18212 18.8762 7.29372 19.0238 7.4358C19.1715 7.57788 19.2897 7.74766 19.3717 7.93544C19.4538 8.12321 19.498 8.32531 19.5019 8.53019V11.0002C19.5019 11.2654 19.6072 11.5198 19.7948 11.7073C19.9823 11.8948 20.2367 12.0002 20.5019 12.0002C20.7671 12.0002 21.0215 11.8948 21.209 11.7073C21.3965 11.5198 21.5019 11.2654 21.5019 11.0002V8.53019C21.498 8.06267 21.402 7.60052 21.2195 7.1701C21.0369 6.73968 20.7714 6.34943 20.438 6.02163C20.1046 5.69384 19.71 5.43492 19.2765 5.25966C18.8431 5.0844 18.3794 4.99623 17.9119 5.00019Z" fill="black"/>
<path d="M18.21 14.29C18.0217 14.1017 17.7663 13.9959 17.5 13.9959C17.2337 13.9959 16.9783 14.1017 16.79 14.29C16.6017 14.4783 16.4959 14.7337 16.4959 15C16.4959 15.2663 16.6017 15.5217 16.79 15.71L18.09 17H6.09C5.88513 17.004 5.68148 16.9676 5.49069 16.8928C5.29989 16.8181 5.1257 16.7065 4.97804 16.5644C4.83039 16.4223 4.71218 16.2525 4.63015 16.0647C4.54813 15.877 4.5039 15.6749 4.5 15.47V13C4.5 12.7348 4.39464 12.4804 4.20711 12.2929C4.01957 12.1054 3.76522 12 3.5 12C3.23478 12 2.98043 12.1054 2.79289 12.2929C2.60536 12.4804 2.5 12.7348 2.5 13V15.47C2.50392 15.9375 2.59989 16.3997 2.78244 16.8301C2.96498 17.2605 3.23051 17.6508 3.56388 17.9785C3.89724 18.3063 4.29191 18.5653 4.72534 18.7405C5.15878 18.9158 5.62249 19.004 6.09 19H18.09L16.79 20.29C16.6963 20.383 16.6219 20.4936 16.5711 20.6154C16.5203 20.7373 16.4942 20.868 16.4942 21C16.4942 21.132 16.5203 21.2627 16.5711 21.3846C16.6219 21.5064 16.6963 21.617 16.79 21.71C16.883 21.8037 16.9936 21.8781 17.1154 21.9289C17.2373 21.9797 17.368 22.0058 17.5 22.0058C17.632 22.0058 17.7627 21.9797 17.8846 21.9289C18.0064 21.8781 18.117 21.8037 18.21 21.71L21.21 18.71C21.3037 18.617 21.3781 18.5064 21.4289 18.3846C21.4797 18.2627 21.5058 18.132 21.5058 18C21.5058 17.868 21.4797 17.7373 21.4289 17.6154C21.3781 17.4936 21.3037 17.383 21.21 17.29L18.21 14.29Z" fill="black"/>
</svg>
