<svg width="24" height="24" viewBox="0 0 24 24" fill="none" xmlns="http://www.w3.org/2000/svg">
<path d="M20.8608 10.6712L15.7608 6.46117C15.4538 6.21516 15.0838 6.06035 14.6931 6.01438C14.3023 5.96842 13.9065 6.03314 13.5508 6.20117C13.2416 6.33745 12.9782 6.55984 12.792 6.84179C12.6058 7.12373 12.5047 7.45331 12.5008 7.79117V10.3812L7.76078 6.46117C7.45375 6.21516 7.08379 6.06035 6.69305 6.01438C6.30232 5.96842 5.90653 6.03314 5.55078 6.20117C5.25096 6.34471 4.99792 6.57023 4.82094 6.85161C4.64397 7.133 4.5503 7.45875 4.55078 7.79117V16.2112C4.5503 16.5436 4.64397 16.8693 4.82094 17.1507C4.99792 17.4321 5.25096 17.6576 5.55078 17.8012C5.83665 17.9312 6.14675 17.9993 6.46078 18.0012C6.93409 18.0017 7.39316 17.8393 7.76078 17.5412L12.5008 13.6212V16.2112C12.5047 16.549 12.6058 16.8786 12.792 17.1606C12.9782 17.4425 13.2416 17.6649 13.5508 17.8012C13.8367 17.9312 14.1468 17.9993 14.4608 18.0012C14.9341 18.0017 15.3932 17.8393 15.7608 17.5412L20.8608 13.3312C21.0608 13.172 21.2223 12.9697 21.3333 12.7394C21.4443 12.5091 21.502 12.2568 21.502 12.0012C21.502 11.7455 21.4443 11.4932 21.3333 11.2629C21.2223 11.0327 21.0608 10.8304 20.8608 10.6712ZM6.50078 15.9112V8.00117L11.3208 12.0012L6.50078 15.9112ZM14.5008 15.9112V8.00117L19.3208 12.0012L14.5008 15.9112Z" fill="black"/>
</svg>
