<svg width="24" height="24" viewBox="0 0 24 24" fill="none" xmlns="http://www.w3.org/2000/svg">
<path d="M18.4512 6.20117C18.0954 6.03314 17.6996 5.96842 17.3089 6.01438C16.9182 6.06035 16.5482 6.21516 16.2412 6.46117L11.5012 10.3812V7.79117C11.4972 7.45331 11.3961 7.12373 11.21 6.84179C11.0238 6.55984 10.7604 6.33745 10.4512 6.20117C10.0954 6.03314 9.69965 5.96842 9.30891 6.01438C8.91818 6.06035 8.54821 6.21516 8.24118 6.46117L3.14118 10.6712C2.94119 10.8304 2.77967 11.0327 2.66866 11.2629C2.55765 11.4932 2.5 11.7455 2.5 12.0012C2.5 12.2568 2.55765 12.5091 2.66866 12.7394C2.77967 12.9697 2.94119 13.172 3.14118 13.3312L8.24118 17.5412C8.6088 17.8393 9.06787 18.0017 9.54118 18.0012C9.85521 17.9993 10.1653 17.9312 10.4512 17.8012C10.7604 17.6649 11.0238 17.4425 11.21 17.1606C11.3961 16.8786 11.4972 16.549 11.5012 16.2112V13.6212L16.2412 17.5412C16.6088 17.8393 17.0679 18.0017 17.5412 18.0012C17.8552 17.9993 18.1653 17.9312 18.4512 17.8012C18.7604 17.6649 19.0238 17.4425 19.21 17.1606C19.3961 16.8786 19.4972 16.549 19.5012 16.2112V7.79117C19.4972 7.45331 19.3961 7.12373 19.21 6.84179C19.0238 6.55984 18.7604 6.33745 18.4512 6.20117ZM9.50118 16.0012L4.68118 12.0012L9.50118 8.09117V16.0012ZM17.5012 16.0012L12.6812 12.0012L17.5012 8.09117V16.0012Z" fill="black"/>
</svg>
