<svg width="24" height="24" viewBox="0 0 24 24" fill="none" xmlns="http://www.w3.org/2000/svg">
<path fill-rule="evenodd" clip-rule="evenodd" d="M13.25 15.625C13.6642 15.625 14 15.9608 14 16.375V20.125C14 20.2576 14.0527 20.3848 14.1464 20.4786C14.2402 20.5723 14.3674 20.625 14.5 20.625H15.75C16.1642 20.625 16.5 20.9608 16.5 21.375C16.5 21.7892 16.1642 22.125 15.75 22.125H14.5C13.9696 22.125 13.4609 21.9143 13.0858 21.5392C12.7107 21.1641 12.5 20.6554 12.5 20.125V16.375C12.5 15.9608 12.8358 15.625 13.25 15.625Z" fill="black"/>
<path fill-rule="evenodd" clip-rule="evenodd" d="M4.53237 15.6267H5.75C6.16421 15.6267 6.5 15.9624 6.5 16.3767C6.5 16.7909 6.16421 17.1267 5.75 17.1267H4.5C4.47535 17.1267 4.45071 17.1254 4.42618 17.123C4.32335 17.1129 4.22063 17.1433 4.13994 17.2078C4.07073 17.2632 4.02244 17.3399 4.00213 17.4253C4.01206 17.5337 4.05827 17.6243 4.17095 17.737C4.32767 17.8937 4.55405 18.0345 4.88587 18.2335C4.89651 18.2399 4.90729 18.2464 4.9182 18.2529C5.20787 18.4266 5.589 18.655 5.8897 18.9557C6.22934 19.2953 6.5 19.7577 6.5 20.3767C6.5 20.4074 6.49812 20.438 6.49436 20.4685C6.43378 20.9596 6.18354 21.4076 5.7971 21.7168C5.42151 22.0173 4.94619 22.1634 4.46763 22.1267H3.25C2.83579 22.1267 2.5 21.7909 2.5 21.3767C2.5 20.9625 2.83579 20.6267 3.25 20.6267H4.5C4.52465 20.6267 4.54929 20.6279 4.57382 20.6303C4.67665 20.6405 4.77937 20.61 4.86006 20.5455C4.92927 20.4901 4.97756 20.4134 4.99787 20.328C4.98794 20.2196 4.94173 20.1291 4.82904 20.0164C4.67233 19.8597 4.44595 19.7189 4.11413 19.5198C4.10349 19.5134 4.09271 19.5069 4.0818 19.5004C3.79213 19.3268 3.411 19.0983 3.11029 18.7976C2.77066 18.458 2.5 17.9956 2.5 17.3767C2.5 17.346 2.50188 17.3153 2.50564 17.2849C2.56622 16.7937 2.81646 16.3457 3.2029 16.0365C3.57849 15.7361 4.05381 15.5899 4.53237 15.6267Z" fill="black"/>
<path fill-rule="evenodd" clip-rule="evenodd" d="M9.5 17.125C9.36739 17.125 9.24022 17.1777 9.14645 17.2714C9.05268 17.3652 9 17.4924 9 17.625V21.375C9 21.7892 8.66421 22.125 8.25 22.125C7.83579 22.125 7.5 21.7892 7.5 21.375V17.625C7.5 17.0946 7.71071 16.5859 8.08579 16.2108C8.46086 15.8357 8.96957 15.625 9.5 15.625C10.0304 15.625 10.5391 15.8357 10.9142 16.2108C11.2893 16.5859 11.5 17.0946 11.5 17.625V21.375C11.5 21.7892 11.1642 22.125 10.75 22.125C10.3358 22.125 10 21.7892 10 21.375V17.625C10 17.4924 9.94732 17.3652 9.85355 17.2714C9.75978 17.1777 9.63261 17.125 9.5 17.125Z" fill="black"/>
<path fill-rule="evenodd" clip-rule="evenodd" d="M7.5 18.875C7.5 18.4608 7.83579 18.125 8.25 18.125H10.75C11.1642 18.125 11.5 18.4608 11.5 18.875C11.5 19.2892 11.1642 19.625 10.75 19.625H8.25C7.83579 19.625 7.5 19.2892 7.5 18.875Z" fill="black"/>
<path fill-rule="evenodd" clip-rule="evenodd" d="M19.5 17.125C19.3674 17.125 19.2402 17.1777 19.1464 17.2714C19.0527 17.3652 19 17.4924 19 17.625V20.125C19 20.2576 19.0527 20.3848 19.1464 20.4786C19.2402 20.5723 19.3674 20.625 19.5 20.625H20.75C21.1642 20.625 21.5 20.9608 21.5 21.375C21.5 21.7892 21.1642 22.125 20.75 22.125H19.5C18.9696 22.125 18.4609 21.9143 18.0858 21.5392C17.7107 21.1641 17.5 20.6554 17.5 20.125V17.625C17.5 17.0946 17.7107 16.5859 18.0858 16.2108C18.4609 15.8357 18.9696 15.625 19.5 15.625H20.75C21.1642 15.625 21.5 15.9608 21.5 16.375C21.5 16.7892 21.1642 17.125 20.75 17.125H19.5Z" fill="black"/>
<path fill-rule="evenodd" clip-rule="evenodd" d="M17.5 18.875C17.5 18.4608 17.8358 18.125 18.25 18.125H20.75C21.1642 18.125 21.5 18.4608 21.5 18.875C21.5 19.2892 21.1642 19.625 20.75 19.625H18.25C17.8358 19.625 17.5 19.2892 17.5 18.875Z" fill="black"/>
<path fill-rule="evenodd" clip-rule="evenodd" d="M5.875 3.46436V13.8769C5.875 14.2911 5.53921 14.6269 5.125 14.6269C4.71079 14.6269 4.375 14.2911 4.375 13.8769V3.24955C4.3757 3.02781 4.43003 2.80952 4.53334 2.6133C4.63665 2.41709 4.78589 2.24877 4.96832 2.12271C5.15075 1.99665 5.36097 1.91658 5.58104 1.88933C5.80111 1.86208 6.0245 1.88846 6.23217 1.96622C6.26011 1.97668 6.28741 1.98881 6.31391 2.00252L13.1569 5.54428C13.3973 5.64511 13.6044 5.81239 13.7537 6.02698C13.9132 6.25623 13.9991 6.52862 14 6.80789L14 6.81026L14 13.8769C14 14.2911 13.6642 14.6269 13.25 14.6269C12.8358 14.6269 12.5 14.2911 12.5 13.8769V6.8933C12.4998 6.8932 12.5002 6.8934 12.5 6.8933L5.875 3.46436Z" fill="black"/>
<path fill-rule="evenodd" clip-rule="evenodd" d="M4.375 6.375C4.375 5.96079 4.71079 5.625 5.125 5.625H7C7.41421 5.625 7.75 5.96079 7.75 6.375C7.75 6.78921 7.41421 7.125 7 7.125H5.125C4.71079 7.125 4.375 6.78921 4.375 6.375Z" fill="black"/>
<path fill-rule="evenodd" clip-rule="evenodd" d="M4.375 8.875C4.375 8.46079 4.71079 8.125 5.125 8.125H8.25C8.66421 8.125 9 8.46079 9 8.875C9 9.28921 8.66421 9.625 8.25 9.625H5.125C4.71079 9.625 4.375 9.28921 4.375 8.875Z" fill="black"/>
<path fill-rule="evenodd" clip-rule="evenodd" d="M12.5 10.125C12.5 9.71079 12.8358 9.375 13.25 9.375H16.375C16.7892 9.375 17.125 9.71079 17.125 10.125C17.125 10.5392 16.7892 10.875 16.375 10.875H13.25C12.8358 10.875 12.5 10.5392 12.5 10.125Z" fill="black"/>
<path fill-rule="evenodd" clip-rule="evenodd" d="M12.5 12.625C12.5 12.2108 12.8358 11.875 13.25 11.875H16.375C16.7892 11.875 17.125 12.2108 17.125 12.625C17.125 13.0392 16.7892 13.375 16.375 13.375H13.25C12.8358 13.375 12.5 13.0392 12.5 12.625Z" fill="black"/>
<path fill-rule="evenodd" clip-rule="evenodd" d="M10.125 1.875C10.5392 1.875 10.875 2.21079 10.875 2.625V4.815C10.875 5.22921 10.5392 5.565 10.125 5.565C9.71079 5.565 9.375 5.22921 9.375 4.815V2.625C9.375 2.21079 9.71079 1.875 10.125 1.875Z" fill="black"/>
<path fill-rule="evenodd" clip-rule="evenodd" d="M12.5 7.625C12.5 7.21079 12.8358 6.875 13.25 6.875H18.25C18.7804 6.875 19.2891 7.08571 19.6642 7.46079C20.0393 7.83586 20.25 8.34457 20.25 8.875V13.875C20.25 14.2892 19.9142 14.625 19.5 14.625C19.0858 14.625 18.75 14.2892 18.75 13.875V8.875C18.75 8.74239 18.6973 8.61522 18.6036 8.52145C18.5098 8.42768 18.3826 8.375 18.25 8.375H13.25C12.8358 8.375 12.5 8.03921 12.5 7.625Z" fill="black"/>
</svg>
