<svg width="24" height="24" viewBox="0 0 24 24" fill="none" xmlns="http://www.w3.org/2000/svg">
<path d="M5.5 17.9987C5.2651 17.9963 5.03852 17.9113 4.86 17.7587C3.83405 16.9512 3.00037 15.9259 2.41927 14.7568C1.83817 13.5877 1.52418 12.304 1.5 10.9987C1.52418 9.69331 1.83817 8.40966 2.41927 7.24054C3.00037 6.07143 3.83405 5.04608 4.86 4.23866C4.95679 4.13631 5.07412 4.05557 5.20429 4.00172C5.33446 3.94788 5.47454 3.92214 5.61535 3.9262C5.75616 3.93026 5.89453 3.96402 6.02138 4.02527C6.14823 4.08653 6.26071 4.17389 6.35145 4.28165C6.44219 4.3894 6.50914 4.5151 6.54791 4.65053C6.58669 4.78596 6.59641 4.92805 6.57645 5.0675C6.55648 5.20694 6.50728 5.3406 6.43207 5.45971C6.35686 5.57882 6.25733 5.68069 6.14 5.75866C5.34191 6.3844 4.69158 7.17837 4.23527 8.08406C3.77897 8.98975 3.52792 9.9849 3.5 10.9987C3.52792 12.0124 3.77897 13.0076 4.23527 13.9133C4.69158 14.8189 5.34191 15.6129 6.14 16.2387C6.34156 16.4079 6.46825 16.6499 6.49258 16.912C6.51692 17.174 6.43694 17.4352 6.27 17.6387C6.17598 17.7515 6.05824 17.8423 5.92515 17.9045C5.79207 17.9668 5.64691 17.9989 5.5 17.9987Z" fill="black"/>
<path d="M12 7C12.3378 7.00518 12.6737 7.05221 13 7.14V3C13 2.73478 12.8946 2.48043 12.7071 2.29289C12.5196 2.10536 12.2652 2 12 2C11.7348 2 11.4804 2.10536 11.2929 2.29289C11.1054 2.48043 11 2.73478 11 3V7.14C11.3263 7.05221 11.6622 7.00518 12 7Z" fill="black"/>
<path d="M12 14.9994C11.6622 14.9942 11.3263 14.9472 11 14.8594V19.9994C11 20.2646 11.1054 20.5189 11.2929 20.7065C11.4804 20.894 11.7348 20.9994 12 20.9994C12.2652 20.9994 12.5196 20.894 12.7071 20.7065C12.8946 20.5189 13 20.2646 13 19.9994V14.8594C12.6737 14.9472 12.3378 14.9942 12 14.9994Z" fill="black"/>
<path d="M16.0006 15.9987C15.8537 15.9989 15.7085 15.9668 15.5754 15.9045C15.4424 15.8423 15.3246 15.7515 15.2306 15.6387C15.0637 15.4352 14.9837 15.174 15.008 14.912C15.0324 14.6499 15.159 14.4079 15.3606 14.2387C15.8548 13.8519 16.2579 13.3611 16.5413 12.8012C16.8247 12.2413 16.9815 11.6259 17.0006 10.9987C16.9815 10.3714 16.8247 9.75601 16.5413 9.1961C16.2579 8.63619 15.8548 8.14545 15.3606 7.75866C15.2433 7.68069 15.1437 7.57882 15.0685 7.45971C14.9933 7.3406 14.9441 7.20694 14.9242 7.0675C14.9042 6.92805 14.9139 6.78596 14.9527 6.65053C14.9915 6.5151 15.0584 6.3894 15.1492 6.28165C15.2399 6.17389 15.3524 6.08653 15.4792 6.02527C15.6061 5.96402 15.7444 5.93026 15.8853 5.9262C16.0261 5.92214 16.1661 5.94788 16.2963 6.00172C16.4265 6.05557 16.5438 6.13631 16.6406 6.23866C17.3621 6.80761 17.9481 7.52983 18.3563 8.35306C18.7645 9.17629 18.9845 10.0799 19.0006 10.9987C18.9845 11.9174 18.7645 12.821 18.3563 13.6443C17.9481 14.4675 17.3621 15.1897 16.6406 15.7587C16.4621 15.9113 16.2355 15.9963 16.0006 15.9987Z" fill="black"/>
<path d="M8 15.9987C7.7651 15.9963 7.53852 15.9113 7.36 15.7587C6.63849 15.1897 6.05245 14.4675 5.6443 13.6443C5.23614 12.821 5.01607 11.9174 5 10.9987C5.01607 10.0799 5.23614 9.17629 5.6443 8.35306C6.05245 7.52983 6.63849 6.80761 7.36 6.23866C7.45679 6.13631 7.57412 6.05557 7.70429 6.00172C7.83446 5.94788 7.97454 5.92214 8.11535 5.9262C8.25616 5.93026 8.39453 5.96402 8.52138 6.02527C8.64823 6.08653 8.76071 6.17389 8.85145 6.28165C8.94219 6.3894 9.00914 6.5151 9.04791 6.65053C9.08669 6.78596 9.09641 6.92805 9.07645 7.0675C9.05648 7.20694 9.00728 7.3406 8.93207 7.45971C8.85686 7.57882 8.75733 7.68069 8.64 7.75866C8.14582 8.14545 7.74275 8.63619 7.45934 9.1961C7.17593 9.75601 7.01911 10.3714 7 10.9987C7.01911 11.6259 7.17593 12.2413 7.45934 12.8012C7.74275 13.3611 8.14582 13.8519 8.64 14.2387C8.84156 14.4079 8.96825 14.6499 8.99258 14.912C9.01692 15.174 8.93694 15.4352 8.77 15.6387C8.67598 15.7515 8.55824 15.8423 8.42515 15.9045C8.29207 15.9668 8.14691 15.9989 8 15.9987Z" fill="black"/>
<path d="M18.5006 17.9987C18.3537 17.9989 18.2085 17.9668 18.0754 17.9045C17.9424 17.8423 17.8246 17.7515 17.7306 17.6387C17.5637 17.4352 17.4837 17.174 17.508 16.912C17.5324 16.6499 17.659 16.4079 17.8606 16.2387C18.6587 15.6129 19.309 14.8189 19.7653 13.9133C20.2216 13.0076 20.4727 12.0124 20.5006 10.9987C20.4727 9.9849 20.2216 8.98975 19.7653 8.08406C19.309 7.17837 18.6587 6.3844 17.8606 5.75866C17.7433 5.68069 17.6437 5.57882 17.5685 5.45971C17.4933 5.3406 17.4441 5.20694 17.4242 5.0675C17.4042 4.92805 17.4139 4.78596 17.4527 4.65053C17.4915 4.5151 17.5584 4.3894 17.6492 4.28165C17.7399 4.17389 17.8524 4.08653 17.9792 4.02527C18.1061 3.96402 18.2444 3.93026 18.3853 3.9262C18.5261 3.92214 18.6661 3.94788 18.7963 4.00172C18.9265 4.05557 19.0438 4.13631 19.1406 4.23866C20.1666 5.04608 21.0002 6.07143 21.5813 7.24054C22.1624 8.40966 22.4764 9.69331 22.5006 10.9987C22.4764 12.304 22.1624 13.5877 21.5813 14.7568C21.0002 15.9259 20.1666 16.9512 19.1406 17.7587C18.9621 17.9113 18.7355 17.9963 18.5006 17.9987Z" fill="black"/>
<path d="M12 12C11.8022 12 11.6089 11.9414 11.4444 11.8315C11.28 11.7216 11.1518 11.5654 11.0761 11.3827C11.0004 11.2 10.9806 10.9989 11.0192 10.8049C11.0578 10.6109 11.153 10.4327 11.2929 10.2929C11.4327 10.153 11.6109 10.0578 11.8049 10.0192C11.9989 9.98063 12.2 10.0004 12.3827 10.0761C12.5654 10.1518 12.7216 10.28 12.8315 10.4444C12.9414 10.6089 13 10.8022 13 11C13 11.2652 12.8946 11.5196 12.7071 11.7071C12.5196 11.8946 12.2652 12 12 12Z" fill="black"/>
</svg>
