<svg width="24" height="24" viewBox="0 0 24 24" fill="none" xmlns="http://www.w3.org/2000/svg">
<path d="M11.0042 7.05374V3.99974C11.0042 3.59574 10.7612 3.23074 10.3872 3.07574C10.0142 2.92174 9.58316 3.00674 9.29716 3.29274L2.29716 10.2927C1.90616 10.6837 1.90616 11.3157 2.29716 11.7067L9.29716 18.7067C9.58416 18.9937 10.0142 19.0787 10.3872 18.9237C10.7612 18.7687 11.0042 18.4037 11.0042 17.9997V14.9037C11.2882 14.8837 11.5692 14.8747 11.8472 14.8747C17.2732 14.8747 20.0862 18.4467 20.2092 18.6047C20.4012 18.8587 20.6982 18.9997 21.0042 18.9997C21.1102 18.9997 21.2182 18.9827 21.3222 18.9477C21.7292 18.8107 22.0042 18.4297 22.0042 17.9997C22.0042 8.87574 13.9182 7.31874 11.0042 7.05374ZM11.8472 12.8747C11.2002 12.8747 10.5352 12.9197 9.87216 13.0077C9.37516 13.0747 9.00416 13.4987 9.00416 13.9997V15.5857L4.41816 10.9997L9.00416 6.41374V7.99974C9.00416 8.55174 9.47516 8.99974 10.0262 8.99974C10.9362 8.99974 18.1402 9.20074 19.7052 15.4247C18.0512 14.2067 15.4242 12.8747 11.8472 12.8747Z" fill="black"/>
</svg>
