<svg width="24" height="24" viewBox="0 0 24 24" fill="none" xmlns="http://www.w3.org/2000/svg">
<path d="M17.9986 14.9985C17.213 14.9992 16.459 15.308 15.8986 15.8585L7.99857 12.3385V11.9985V11.6685L15.8986 8.13853C16.3934 8.62355 17.0408 8.92233 17.731 8.98414C18.4211 9.04595 19.1113 8.86697 19.6844 8.47759C20.2576 8.08822 20.6783 7.51247 20.875 6.84812C21.0718 6.18377 21.0326 5.47178 20.764 4.83308C20.4953 4.19439 20.0139 3.66836 19.4015 3.34434C18.789 3.02032 18.0833 2.91829 17.4042 3.05558C16.725 3.19286 16.1143 3.561 15.6758 4.09746C15.2373 4.63393 14.998 5.30565 14.9986 5.99853V6.33853L7.09857 9.85853C6.67693 9.44428 6.14231 9.16382 5.56183 9.05235C4.98135 8.94089 4.38088 9.00338 3.8358 9.23199C3.29071 9.46061 2.82531 9.84514 2.49801 10.3373C2.1707 10.8295 1.99609 11.4074 1.99609 11.9985C1.99609 12.5896 2.1707 13.1675 2.49801 13.6597C2.82531 14.1519 3.29071 14.5365 3.8358 14.7651C4.38088 14.9937 4.98135 15.0562 5.56183 14.9447C6.14231 14.8332 6.67693 14.5528 7.09857 14.1385L14.9986 17.6685V17.9985C14.9986 18.5919 15.1745 19.1719 15.5042 19.6652C15.8338 20.1586 16.3023 20.5431 16.8505 20.7702C17.3987 20.9972 18.0019 21.0566 18.5838 20.9409C19.1658 20.8251 19.7003 20.5394 20.1199 20.1198C20.5394 19.7003 20.8252 19.1657 20.9409 18.5838C21.0567 18.0019 20.9973 17.3987 20.7702 16.8505C20.5431 16.3023 20.1586 15.8338 19.6653 15.5041C19.1719 15.1745 18.5919 14.9985 17.9986 14.9985ZM17.9986 4.99853C18.1964 4.99853 18.3897 5.05718 18.5541 5.16706C18.7186 5.27694 18.8468 5.43312 18.9224 5.61584C18.9981 5.79857 19.0179 5.99964 18.9794 6.19362C18.9408 6.3876 18.8455 6.56578 18.7057 6.70563C18.5658 6.84549 18.3876 6.94073 18.1937 6.97931C17.9997 7.0179 17.7986 6.9981 17.6159 6.92241C17.4332 6.84672 17.277 6.71855 17.1671 6.5541C17.0572 6.38965 16.9986 6.19631 16.9986 5.99853C16.9986 5.73331 17.1039 5.47896 17.2915 5.29142C17.479 5.10388 17.7334 4.99853 17.9986 4.99853ZM4.99857 12.9985C4.80079 12.9985 4.60745 12.9399 4.443 12.83C4.27855 12.7201 4.15038 12.5639 4.07469 12.3812C3.999 12.1985 3.9792 11.9974 4.01778 11.8034C4.05637 11.6095 4.15161 11.4313 4.29146 11.2914C4.43131 11.1516 4.6095 11.0563 4.80348 11.0177C4.99746 10.9792 5.19853 10.999 5.38125 11.0746C5.56398 11.1503 5.72016 11.2785 5.83004 11.443C5.93992 11.6074 5.99857 11.8007 5.99857 11.9985C5.99857 12.2637 5.89321 12.5181 5.70568 12.7056C5.51814 12.8932 5.26379 12.9985 4.99857 12.9985ZM17.9986 18.9985C17.8008 18.9985 17.6074 18.9399 17.443 18.83C17.2785 18.7201 17.1504 18.5639 17.0747 18.3812C16.999 18.1985 16.9792 17.9974 17.0178 17.8034C17.0564 17.6095 17.1516 17.4313 17.2915 17.2914C17.4313 17.1516 17.6095 17.0563 17.8035 17.0177C17.9975 16.9792 18.1985 16.999 18.3813 17.0746C18.564 17.1503 18.7202 17.2785 18.83 17.443C18.9399 17.6074 18.9986 17.8007 18.9986 17.9985C18.9986 18.2637 18.8932 18.5181 18.7057 18.7056C18.5181 18.8932 18.2638 18.9985 17.9986 18.9985Z" fill="black"/>
</svg>
