<svg width="24" height="24" viewBox="0 0 24 24" fill="none" xmlns="http://www.w3.org/2000/svg">
<path d="M12.0001 21.8508C11.6506 21.8562 11.3058 21.77 11.0001 21.6008L10.7001 21.4308C8.36335 20.1087 6.41934 18.1902 5.06655 15.8712C3.71377 13.5521 3.00067 10.9156 3.00008 8.23076V8.09076C2.99691 7.73665 3.08782 7.38805 3.26351 7.08058C3.43921 6.77311 3.69339 6.51781 4.00008 6.34076L11.0001 2.40076C11.3041 2.22523 11.649 2.13281 12.0001 2.13281C12.3512 2.13281 12.696 2.22523 13.0001 2.40076L20.0001 6.34076C20.3068 6.51781 20.561 6.77311 20.7366 7.08058C20.9123 7.38805 21.0033 7.73665 21.0001 8.09076V8.23076C20.9975 10.9175 20.2814 13.5554 18.925 15.8747C17.5686 18.1939 15.6205 20.1113 13.2801 21.4308L12.9801 21.6008C12.6802 21.7667 12.3428 21.8528 12.0001 21.8508ZM12.0001 4.15076L5.00008 8.09076V8.23076C5.00176 10.5619 5.62308 12.8506 6.80038 14.8626C7.97769 16.8745 9.66866 18.5374 11.7001 19.6808L12.0001 19.8508L12.3001 19.6808C14.3315 18.5374 16.0225 16.8745 17.1998 14.8626C18.3771 12.8506 18.9984 10.5619 19.0001 8.23076V8.09076L12.0001 4.15076Z" fill="black"/>
</svg>
