<svg width="24" height="24" viewBox="0 0 24 24" fill="none" xmlns="http://www.w3.org/2000/svg">
<path d="M4.71019 3.29019C4.61695 3.19695 4.50626 3.12299 4.38443 3.07253C4.26261 3.02207 4.13204 2.99609 4.00019 2.99609C3.86833 2.99609 3.73776 3.02207 3.61594 3.07253C3.49411 3.12299 3.38342 3.19695 3.29019 3.29019C3.10188 3.47849 2.99609 3.73388 2.99609 4.00019C2.99609 4.26649 3.10188 4.52188 3.29019 4.71019L19.2902 20.7102C19.3831 20.8039 19.4937 20.8783 19.6156 20.9291C19.7375 20.9798 19.8682 21.006 20.0002 21.006C20.1322 21.006 20.2629 20.9798 20.3848 20.9291C20.5066 20.8783 20.6172 20.8039 20.7102 20.7102C20.8039 20.6172 20.8783 20.5066 20.9291 20.3848C20.9798 20.2629 21.006 20.1322 21.006 20.0002C21.006 19.8682 20.9798 19.7375 20.9291 19.6156C20.8783 19.4937 20.8039 19.3831 20.7102 19.2902L4.71019 3.29019Z" fill="black"/>
<path d="M12.3 19.6786L12 19.8486L11.7 19.6786C9.66858 18.5352 7.97761 16.8724 6.8003 14.8604C5.623 12.8484 5.00168 10.5597 5 8.22859V8.08859L5.16 7.99859L3.73 6.55859C3.5037 6.7446 3.32102 6.97804 3.19488 7.24242C3.06873 7.50681 3.00221 7.79567 3 8.08859V8.22859C3.00259 10.9154 3.7187 13.5532 5.07511 15.8725C6.43152 18.1917 8.37955 20.1091 10.72 21.4286L11.02 21.5986C11.324 21.7741 11.6689 21.8665 12.02 21.8665C12.3711 21.8665 12.716 21.7741 13.02 21.5986L13.32 21.4286C14.41 20.7989 15.4177 20.0364 16.32 19.1586L14.9 17.7386C14.1208 18.4949 13.2469 19.147 12.3 19.6786Z" fill="black"/>
<path d="M20.0003 6.34076L13.0003 2.40076C12.6963 2.22523 12.3514 2.13281 12.0003 2.13281C11.6492 2.13281 11.3044 2.22523 11.0003 2.40076L7.32031 4.49076L8.78031 6.00076L12.0003 4.15076L19.0003 8.09076V8.23076C19.0016 10.4384 18.4406 12.6099 17.3703 14.5408L18.8403 16.0008C20.2524 13.6549 20.9991 10.9688 21.0003 8.23076V8.09076C21.0035 7.73665 20.9126 7.38805 20.7369 7.08058C20.5612 6.77311 20.307 6.51781 20.0003 6.34076Z" fill="black"/>
</svg>
