<svg width="24" height="24" viewBox="0 0 24 24" fill="none" xmlns="http://www.w3.org/2000/svg">
<path d="M18.0019 9.31C18.0019 9.57522 18.1072 9.82957 18.2948 10.0171C18.4823 10.2046 18.7367 10.31 19.0019 10.31C19.2671 10.31 19.5215 10.2046 19.709 10.0171C19.8965 9.82957 20.0019 9.57522 20.0019 9.31V5C20.0019 4.73478 19.8965 4.48043 19.709 4.29289C19.5215 4.10536 19.2671 4 19.0019 4H14.7019C14.4367 4 14.1823 4.10536 13.9948 4.29289C13.8072 4.48043 13.7019 4.73478 13.7019 5C13.7019 5.26522 13.8072 5.51957 13.9948 5.70711C14.1823 5.89464 14.4367 6 14.7019 6H16.5919L12.0019 10.59L6.16189 4.76C5.97059 4.59617 5.72451 4.51057 5.47284 4.52029C5.22116 4.53001 4.98242 4.63434 4.80433 4.81244C4.62623 4.99053 4.5219 5.22927 4.51218 5.48095C4.50246 5.73262 4.58807 5.9787 4.75189 6.17L10.5819 12L4.29189 18.29C4.19816 18.383 4.12377 18.4936 4.073 18.6154C4.02223 18.7373 3.99609 18.868 3.99609 19C3.99609 19.132 4.02223 19.2627 4.073 19.3846C4.12377 19.5064 4.19816 19.617 4.29189 19.71C4.38486 19.8037 4.49546 19.8781 4.61732 19.9289C4.73917 19.9797 4.86988 20.0058 5.00189 20.0058C5.1339 20.0058 5.26461 19.9797 5.38647 19.9289C5.50833 19.8781 5.61893 19.8037 5.71189 19.71L18.0019 7.42V9.31Z" fill="black"/>
<path d="M19.0019 13.6819C18.7367 13.6819 18.4823 13.7873 18.2948 13.9748C18.1073 14.1623 18.0019 14.4167 18.0019 14.6819V16.5919L15.2219 13.8019C15.0336 13.6136 14.7782 13.5078 14.5119 13.5078C14.2456 13.5078 13.9902 13.6136 13.8019 13.8019C13.6136 13.9902 13.5078 14.2456 13.5078 14.5119C13.5078 14.7782 13.6136 15.0336 13.8019 15.2219L16.5719 18.0019H14.6919C14.4267 18.0019 14.1723 18.1073 13.9848 18.2948C13.7973 18.4823 13.6919 18.7367 13.6919 19.0019C13.6919 19.2671 13.7973 19.5215 13.9848 19.709C14.1723 19.8965 14.4267 20.0019 14.6919 20.0019H19.0019C19.143 20.0028 19.2827 19.9737 19.4118 19.9168C19.5409 19.8598 19.6565 19.7761 19.7509 19.6713C19.8454 19.5664 19.9166 19.4428 19.9598 19.3084C20.0031 19.1741 20.0174 19.0322 20.0019 18.8919V14.6819C20.0019 14.4167 19.8965 14.1623 19.709 13.9748C19.5215 13.7873 19.2671 13.6819 19.0019 13.6819Z" fill="black"/>
</svg>
