<svg width="24" height="24" viewBox="0 0 24 24" fill="none" xmlns="http://www.w3.org/2000/svg">
<path d="M16.45 6.20117C16.0943 6.03314 15.6985 5.96842 15.3077 6.01438C14.917 6.06035 14.547 6.21516 14.24 6.46117L9.14 10.6712L9 10.8212V7.00117C9 6.73595 8.89464 6.4816 8.70711 6.29406C8.51957 6.10652 8.26522 6.00117 8 6.00117C7.73478 6.00117 7.48043 6.10652 7.29289 6.29406C7.10536 6.4816 7 6.73595 7 7.00117V17.0012C7 17.2664 7.10536 17.5207 7.29289 17.7083C7.48043 17.8958 7.73478 18.0012 8 18.0012C8.26522 18.0012 8.51957 17.8958 8.70711 17.7083C8.89464 17.5207 9 17.2664 9 17.0012V13.1812L9.14 13.3312L14.24 17.5412C14.6076 17.8393 15.0667 18.0017 15.54 18.0012C15.854 17.9993 16.1641 17.9312 16.45 17.8012C16.7592 17.6649 17.0226 17.4425 17.2088 17.1606C17.395 16.8786 17.4961 16.549 17.5 16.2112V7.79117C17.4961 7.45331 17.395 7.12373 17.2088 6.84179C17.0226 6.55984 16.7592 6.33745 16.45 6.20117ZM15.5 16.0012L10.68 12.0012L15.5 8.09117V16.0012Z" fill="black"/>
</svg>
