<svg width="24" height="24" viewBox="0 0 24 24" fill="none" xmlns="http://www.w3.org/2000/svg">
<path d="M16.0008 6.00117C15.7356 6.00117 15.4812 6.10652 15.2937 6.29406C15.1061 6.4816 15.0008 6.73595 15.0008 7.00117V10.8212L14.8608 10.6712L9.76078 6.46117C9.45375 6.21516 9.08379 6.06035 8.69305 6.01438C8.30232 5.96842 7.90653 6.03314 7.55078 6.20117C7.25096 6.34471 6.99792 6.57023 6.82094 6.85161C6.64397 7.133 6.5503 7.45875 6.55078 7.79117V16.2112C6.5503 16.5436 6.64397 16.8693 6.82094 17.1507C6.99792 17.4321 7.25096 17.6576 7.55078 17.8012C7.83665 17.9312 8.14675 17.9993 8.46078 18.0012C8.93409 18.0017 9.39316 17.8393 9.76078 17.5412L14.8608 13.3312L15.0008 13.1812V17.0012C15.0008 17.2664 15.1061 17.5207 15.2937 17.7083C15.4812 17.8958 15.7356 18.0012 16.0008 18.0012C16.266 18.0012 16.5204 17.8958 16.7079 17.7083C16.8954 17.5207 17.0008 17.2664 17.0008 17.0012V7.00117C17.0008 6.73595 16.8954 6.4816 16.7079 6.29406C16.5204 6.10652 16.266 6.00117 16.0008 6.00117ZM8.50078 15.9112V8.00117L13.3208 12.0012L8.50078 15.9112Z" fill="black"/>
</svg>
