<svg width="24" height="24" viewBox="0 0 24 24" fill="none" xmlns="http://www.w3.org/2000/svg">
<path d="M17.5588 21.0002C17.3989 21.0008 17.2411 20.9631 17.0988 20.8902L11.9988 18.2202L6.89879 20.8902C6.73318 20.9773 6.54646 21.0162 6.35986 21.0024C6.17326 20.9887 5.99426 20.9228 5.84321 20.8124C5.69217 20.702 5.57513 20.5514 5.5054 20.3778C5.43567 20.2041 5.41606 20.0144 5.44879 19.8302L6.44879 14.2002L2.32879 10.2002C2.20024 10.0719 2.10906 9.91107 2.06501 9.7349C2.02097 9.55872 2.02573 9.37388 2.07879 9.2002C2.13675 9.02248 2.24336 8.86456 2.38654 8.74436C2.52971 8.62417 2.70371 8.54651 2.88879 8.5202L8.58879 7.6902L11.0988 2.5602C11.1807 2.39113 11.3085 2.24855 11.4677 2.14878C11.6269 2.04901 11.8109 1.99609 11.9988 1.99609C12.1866 1.99609 12.3707 2.04901 12.5299 2.14878C12.689 2.24855 12.8169 2.39113 12.8988 2.5602L15.4388 7.6802L21.1388 8.5102C21.3239 8.53651 21.4979 8.61417 21.641 8.73436C21.7842 8.85456 21.8908 9.01248 21.9488 9.1902C22.0018 9.36388 22.0066 9.54872 21.9626 9.7249C21.9185 9.90107 21.8273 10.0619 21.6988 10.1902L17.5788 14.1902L18.5788 19.8202C18.6145 20.0077 18.5958 20.2015 18.5249 20.3787C18.454 20.5559 18.3339 20.7091 18.1788 20.8202C17.9977 20.9471 17.7797 21.0104 17.5588 21.0002ZM11.9988 16.1002C12.1591 16.0962 12.3177 16.1341 12.4588 16.2102L16.2288 18.2102L15.5088 14.0002C15.4809 13.8395 15.4927 13.6743 15.5432 13.5192C15.5938 13.364 15.6815 13.2236 15.7988 13.1102L18.7988 10.1802L14.5988 9.5602C14.4448 9.5292 14.3002 9.46233 14.1769 9.36504C14.0535 9.26775 13.9548 9.14276 13.8888 9.0002L11.9988 5.2502L10.1088 9.0002C10.0364 9.14391 9.93048 9.26803 9.79991 9.36204C9.66934 9.45605 9.51802 9.51717 9.35879 9.5402L5.15879 10.1602L8.15879 13.0902C8.27606 13.2036 8.3638 13.344 8.41435 13.4992C8.4649 13.6543 8.47672 13.8195 8.44879 13.9802L7.72879 18.1402L11.4988 16.1402C11.6585 16.0808 11.8316 16.067 11.9988 16.1002Z" fill="black"/>
</svg>
