<svg width="24" height="24" viewBox="0 0 24 24" fill="none" xmlns="http://www.w3.org/2000/svg">
<path fill-rule="evenodd" clip-rule="evenodd" d="M3.875 3.375C3.59886 3.375 3.375 3.59886 3.375 3.875V20.125C3.375 20.4011 3.59886 20.625 3.875 20.625H20.125C20.4011 20.625 20.625 20.4011 20.625 20.125V3.875C20.625 3.59886 20.4011 3.375 20.125 3.375H3.875ZM1.875 3.875C1.875 2.77043 2.77043 1.875 3.875 1.875H20.125C21.2296 1.875 22.125 2.77043 22.125 3.875V20.125C22.125 21.2296 21.2296 22.125 20.125 22.125H3.875C2.77043 22.125 1.875 21.2296 1.875 20.125V3.875Z" fill="black"/>
<path fill-rule="evenodd" clip-rule="evenodd" d="M10.0797 8.50871L8.32136 12.9046C8.20746 13.1894 7.93168 13.3761 7.625 13.3761H5.125C4.71079 13.3761 4.375 13.0403 4.375 12.6261C4.375 12.2119 4.71079 11.8761 5.125 11.8761H7.11723L8.81291 7.63687C8.91729 7.37845 9.09778 7.15788 9.33043 7.00442C9.56308 6.85096 9.83689 6.77187 10.1155 6.77764C10.3942 6.78341 10.6645 6.87377 10.8906 7.03673C11.1167 7.1997 11.2879 7.42756 11.3815 7.69008L11.3822 7.69225L14.0347 15.2057L15.724 12.2536C15.8576 12.0201 16.106 11.8761 16.375 11.8761H18.875C19.2892 11.8761 19.625 12.2119 19.625 12.6261C19.625 13.0403 19.2892 13.3761 18.875 13.3761H16.8099L15.201 16.1878C15.0701 16.4162 14.8763 16.6025 14.6428 16.7241C14.4093 16.8457 14.1458 16.8978 13.8836 16.874C13.6214 16.8503 13.3716 16.7517 13.1637 16.5902C12.9559 16.4286 12.7988 16.2108 12.7111 15.9625L10.0797 8.50871Z" fill="black"/>
</svg>
