<svg width="24" height="24" viewBox="0 0 24 24" fill="none" xmlns="http://www.w3.org/2000/svg">
<path d="M4 9.00117H17L15.4 10.2012C15.2949 10.28 15.2064 10.3787 15.1395 10.4917C15.0726 10.6047 15.0286 10.7297 15.0101 10.8597C14.9915 10.9897 14.9987 11.1221 15.0313 11.2493C15.0639 11.3766 15.1212 11.4961 15.2 11.6012C15.2931 11.7254 15.4139 11.8262 15.5528 11.8956C15.6916 11.965 15.8448 12.0012 16 12.0012C16.2164 12.0012 16.4269 11.931 16.6 11.8012L20.6 8.80117C20.7223 8.70784 20.8214 8.58756 20.8897 8.44967C20.9579 8.31178 20.9934 8.16001 20.9934 8.00617C20.9934 7.85232 20.9579 7.70055 20.8897 7.56266C20.8214 7.42478 20.7223 7.30449 20.6 7.21117L16.74 4.21117C16.5305 4.04806 16.2647 3.97486 16.0013 4.00768C15.7378 4.0405 15.4981 4.17664 15.335 4.38617C15.1719 4.59569 15.0987 4.86142 15.1315 5.12491C15.1643 5.3884 15.3005 5.62806 15.51 5.79117L17.08 7.00117H4C3.73478 7.00117 3.48043 7.10652 3.29289 7.29406C3.10536 7.4816 3 7.73595 3 8.00117C3 8.26638 3.10536 8.52074 3.29289 8.70827C3.48043 8.89581 3.73478 9.00117 4 9.00117Z" fill="black"/>
<path d="M20.0012 16H7.0012L8.6012 14.8C8.81338 14.6409 8.95365 14.404 8.99115 14.1414C9.02866 13.8789 8.96033 13.6122 8.8012 13.4C8.64207 13.1878 8.40518 13.0476 8.14262 13.0101C7.88007 12.9725 7.61338 13.0409 7.4012 13.2L3.4012 16.2C3.2789 16.2933 3.17977 16.4136 3.11154 16.5515C3.04331 16.6894 3.00781 16.8412 3.00781 16.995C3.00781 17.1488 3.04331 17.3006 3.11154 17.4385C3.17977 17.5764 3.2789 17.6967 3.4012 17.79L7.2612 20.79C7.43575 20.9255 7.65025 20.9993 7.8712 21C8.02392 20.9996 8.17453 20.9643 8.31147 20.8967C8.44841 20.8291 8.56805 20.731 8.6612 20.61C8.82359 20.4015 8.89687 20.1373 8.86502 19.8749C8.83316 19.6126 8.69877 19.3735 8.4912 19.21L6.9212 18H20.0012C20.2664 18 20.5208 17.8946 20.7083 17.7071C20.8958 17.5196 21.0012 17.2652 21.0012 17C21.0012 16.7348 20.8958 16.4804 20.7083 16.2929C20.5208 16.1054 20.2664 16 20.0012 16Z" fill="black"/>
</svg>
