<svg width="24" height="24" viewBox="0 0 24 24" fill="none" xmlns="http://www.w3.org/2000/svg">
<path d="M21.6596 10.369C21.6932 10.31 21.7168 10.2458 21.7296 10.179L22.4796 6.17902C22.5273 5.91381 22.4678 5.64049 22.314 5.41919C22.1602 5.1979 21.9248 5.04676 21.6596 4.99902C21.3944 4.95128 21.1211 5.01086 20.8998 5.16464C20.6785 5.31842 20.5273 5.55381 20.4796 5.81902L20.1096 7.81902C19.2772 6.29894 18.0332 5.04423 16.5204 4.19881C15.0075 3.35338 13.287 2.95147 11.5561 3.03916C9.8253 3.12685 8.15421 3.70059 6.73454 4.69459C5.31486 5.68859 4.20408 7.0626 3.52959 8.65902C3.43065 8.90439 3.43298 9.17897 3.53606 9.42263C3.63915 9.66629 3.83459 9.85916 4.07959 9.95902C4.20165 10.0096 4.3325 10.0354 4.46461 10.0351C4.59671 10.0348 4.72744 10.0083 4.84925 9.95712C4.97105 9.90598 5.08152 9.83121 5.17426 9.73714C5.26701 9.64306 5.34019 9.53154 5.38959 9.40902C5.92812 8.08583 6.85435 6.9565 8.04657 6.16942C9.23878 5.38234 10.6412 4.97434 12.0696 4.99902C13.3329 4.99313 14.5753 5.32112 15.6711 5.94978C16.7668 6.57845 17.6771 7.48547 18.3096 8.57902L16.6596 8.30902C16.5283 8.28801 16.3941 8.29307 16.2647 8.32391C16.1354 8.35476 16.0133 8.41078 15.9056 8.48878C15.7979 8.56678 15.7066 8.66523 15.6369 8.77852C15.5673 8.8918 15.5206 9.0177 15.4996 9.14902C15.4786 9.28034 15.4836 9.41452 15.5145 9.54389C15.5453 9.67325 15.6013 9.79528 15.6793 9.90299C15.7573 10.0107 15.8558 10.102 15.9691 10.1717C16.0824 10.2413 16.2083 10.288 16.3396 10.309L20.5896 11.019H20.7496C20.8657 11.0204 20.981 11.0001 21.0896 10.959C21.1262 10.9451 21.1601 10.9248 21.1896 10.899C21.2613 10.8724 21.3287 10.8353 21.3896 10.789L21.4696 10.689C21.5215 10.6405 21.5684 10.5869 21.6096 10.529C21.6339 10.4784 21.6508 10.4245 21.6596 10.369Z" fill="black"/>
<path d="M19.8802 14.0695C19.7575 14.0192 19.6261 13.9938 19.4935 13.9948C19.3609 13.9958 19.2299 14.0232 19.108 14.0753C18.9861 14.1274 18.8757 14.2032 18.7834 14.2984C18.6911 14.3935 18.6186 14.5061 18.5702 14.6295C18.0279 15.9388 17.1051 17.0552 15.9213 17.8343C14.7375 18.6133 13.3472 19.0193 11.9302 18.9995C10.6669 19.0054 9.42446 18.6774 8.32868 18.0487C7.23291 17.42 6.32269 16.513 5.69017 15.4195L7.34017 15.6895H7.50017C7.76539 15.7107 8.02817 15.6257 8.23071 15.4531C8.43325 15.2806 8.55895 15.0347 8.58017 14.7695C8.60139 14.5042 8.51638 14.2415 8.34384 14.0389C8.17131 13.8364 7.92539 13.7107 7.66017 13.6895L3.41017 12.9995C3.30109 12.9793 3.18925 12.9793 3.08017 12.9995H3.00017C2.887 13.0296 2.77909 13.0768 2.68017 13.1395C2.61275 13.1915 2.55226 13.252 2.50017 13.3195L2.41017 13.4195C2.37926 13.4797 2.35576 13.5435 2.34017 13.6095C2.30513 13.6606 2.28127 13.7185 2.27017 13.7795L1.52017 17.7795C1.48805 17.9124 1.48353 18.0504 1.50688 18.1852C1.53023 18.3199 1.58097 18.4484 1.65594 18.5627C1.73092 18.6771 1.82855 18.7748 1.94279 18.8499C2.05704 18.925 2.18548 18.9759 2.32017 18.9995H2.50017C2.73696 19.0033 2.96743 18.923 3.15056 18.7729C3.33368 18.6227 3.45757 18.4124 3.50017 18.1795L3.87017 16.1795C4.70169 17.6999 5.94488 18.9552 7.45718 19.8015C8.96948 20.6477 10.6897 21.0506 12.4205 20.964C14.1513 20.8773 15.8226 20.3046 17.2428 19.3116C18.6631 18.3186 19.7747 16.9453 20.4502 15.3495C20.5418 15.104 20.5334 14.8323 20.4268 14.5929C20.3202 14.3536 20.1239 14.1656 19.8802 14.0695Z" fill="black"/>
</svg>
