<svg width="24" height="24" viewBox="0 0 24 24" fill="none" xmlns="http://www.w3.org/2000/svg">
<path d="M21.0012 12.0012C21.0012 11.736 20.8959 11.4817 20.7084 11.2941C20.5208 11.1066 20.2665 11.0012 20.0012 11.0012C19.736 11.0012 19.4817 11.1066 19.2941 11.2941C19.1066 11.4817 19.0012 11.736 19.0012 12.0012V14.3012L14.7612 9.30125C14.6082 9.12232 14.3969 9.00315 14.1645 8.96474C13.9322 8.92632 13.6938 8.97112 13.4912 9.09125L9.22125 11.7012L4.77125 6.36125C4.6872 6.26013 4.58406 6.17656 4.46772 6.1153C4.35137 6.05404 4.2241 6.0163 4.09317 6.00423C3.96224 5.99216 3.83022 6.00599 3.70463 6.04494C3.57905 6.0839 3.46237 6.1472 3.36125 6.23125C3.26013 6.3153 3.17656 6.41844 3.1153 6.53478C3.05404 6.65112 3.0163 6.7784 3.00423 6.90933C2.99216 7.04026 3.00599 7.17228 3.04494 7.29787C3.0839 7.42345 3.1472 7.54013 3.23125 7.64125L8.23125 13.6412C8.38349 13.8243 8.59604 13.947 8.83067 13.9873C9.06531 14.0277 9.30663 13.9829 9.51125 13.8612L13.7912 11.2912L17.7913 16.0012H15.0012C14.736 16.0012 14.4817 16.1066 14.2941 16.2941C14.1066 16.4817 14.0012 16.736 14.0012 17.0012C14.0012 17.2665 14.1066 17.5208 14.2941 17.7084C14.4817 17.8959 14.736 18.0012 15.0012 18.0012H20.0012C20.1243 17.9982 20.246 17.9746 20.3612 17.9312L20.5012 17.8512C20.5534 17.825 20.6035 17.7949 20.6512 17.7612C20.706 17.7118 20.7532 17.6545 20.7913 17.5912C20.8247 17.5469 20.8548 17.5001 20.8812 17.4513C20.9057 17.3972 20.9225 17.34 20.9312 17.2812C20.9718 17.1931 20.9955 17.0981 21.0012 17.0012V12.0012Z" fill="black"/>
</svg>
