<svg width="24" height="24" viewBox="0 0 24 24" fill="none" xmlns="http://www.w3.org/2000/svg">
<path d="M18 6.00019H14.41L16.71 3.71019C16.8032 3.61695 16.8772 3.50626 16.9277 3.38443C16.9781 3.26261 17.0041 3.13204 17.0041 3.00019C17.0041 2.86833 16.9781 2.73776 16.9277 2.61594C16.8772 2.49411 16.8032 2.38342 16.71 2.29019C16.6168 2.19695 16.5061 2.12299 16.3842 2.07253C16.2624 2.02207 16.1319 1.99609 16 1.99609C15.7337 1.99609 15.4783 2.10188 15.29 2.29019L12 5.59019L8.71 2.29019C8.61676 2.19695 8.50607 2.12299 8.38425 2.07253C8.26243 2.02207 8.13186 1.99609 8 1.99609C7.86814 1.99609 7.73757 2.02207 7.61575 2.07253C7.49393 2.12299 7.38324 2.19695 7.29 2.29019C7.1017 2.47849 6.99591 2.73388 6.99591 3.00019C6.99591 3.13204 7.02188 3.26261 7.07234 3.38443C7.1228 3.50626 7.19676 3.61695 7.29 3.71019L9.59 6.00019H6C5.20435 6.00019 4.44129 6.31626 3.87868 6.87887C3.31607 7.44147 3 8.20454 3 9.00019V19.0002C3 19.7958 3.31607 20.5589 3.87868 21.1215C4.44129 21.6841 5.20435 22.0002 6 22.0002H18C18.7956 22.0002 19.5587 21.6841 20.1213 21.1215C20.6839 20.5589 21 19.7958 21 19.0002V9.00019C21 8.20454 20.6839 7.44147 20.1213 6.87887C19.5587 6.31626 18.7956 6.00019 18 6.00019ZM19 19.0002C19 19.2654 18.8946 19.5198 18.7071 19.7073C18.5196 19.8948 18.2652 20.0002 18 20.0002H6C5.73478 20.0002 5.48043 19.8948 5.29289 19.7073C5.10536 19.5198 5 19.2654 5 19.0002V9.00019C5 8.73497 5.10536 8.48062 5.29289 8.29308C5.48043 8.10554 5.73478 8.00019 6 8.00019H18C18.2652 8.00019 18.5196 8.10554 18.7071 8.29308C18.8946 8.48062 19 8.73497 19 9.00019V19.0002Z" fill="black"/>
</svg>
