<svg width="24" height="24" viewBox="0 0 24 24" fill="none" xmlns="http://www.w3.org/2000/svg">
<path d="M8.51156 20.0015H8.43156C6.81992 19.9874 5.23158 19.6151 3.78156 18.9115C3.51483 18.7862 3.29521 18.5788 3.15486 18.3197C3.01451 18.0606 2.96078 17.7633 3.00156 17.4715C3.0459 17.1777 3.18194 16.9053 3.39026 16.6934C3.59858 16.4815 3.86853 16.3408 4.16156 16.2915C5.06017 16.1716 5.92464 15.8687 6.70156 15.4015C5.35272 14.3469 4.31431 12.9471 3.69638 11.3503C3.07844 9.75353 2.90401 8.01933 3.19156 6.33149C3.23054 6.06414 3.34552 5.81362 3.5228 5.60974C3.70009 5.40587 3.93221 5.25722 4.19156 5.18149C4.44387 5.10224 4.7139 5.09886 4.96812 5.17175C5.22235 5.24464 5.44956 5.39059 5.62156 5.59149C6.20556 6.35727 6.93945 6.99605 7.77846 7.46885C8.61747 7.94165 9.54401 8.23857 10.5016 8.34149C10.5473 7.16334 11.0536 6.0502 11.9116 5.24149C12.34 4.83126 12.8457 4.5104 13.3994 4.29759C13.953 4.08479 14.5435 3.9843 15.1364 4.00199C15.7292 4.01967 16.3127 4.15517 16.8526 4.4006C17.3926 4.64602 17.8784 4.99646 18.2816 5.43149C18.3866 5.52435 18.5171 5.58354 18.6562 5.60137C18.7953 5.6192 18.9365 5.59485 19.0616 5.53149C19.3 5.41903 19.5655 5.3767 19.8271 5.40943C20.0886 5.44216 20.3355 5.5486 20.5389 5.71633C20.7423 5.88406 20.8938 6.10617 20.9757 6.35674C21.0576 6.60731 21.0666 6.87601 21.0016 7.13149C20.7709 8.0816 20.3339 8.96928 19.7216 9.73148C19.5866 12.5762 18.3324 15.2523 16.2325 17.1761C14.1326 19.0999 11.3572 20.1155 8.51156 20.0015ZM8.51156 18.0015H8.59156C9.75422 18.0415 10.9133 17.8503 12.0015 17.439C13.0897 17.0276 14.0855 16.4044 14.931 15.6054C15.7765 14.8063 16.4551 13.8474 16.9272 12.7842C17.3994 11.7209 17.6558 10.5746 17.6816 9.41149C17.6981 9.09274 17.8295 8.79077 18.0516 8.56149C18.2955 8.25273 18.5035 7.91724 18.6716 7.56149C18.3113 7.56217 17.955 7.48681 17.6258 7.34034C17.2967 7.19387 17.0022 6.97958 16.7616 6.71149C16.5302 6.48204 16.2553 6.30106 15.9531 6.17915C15.6509 6.05724 15.3274 5.99684 15.0016 6.00149C14.6725 5.99298 14.3449 6.04955 14.0377 6.16796C13.7306 6.28637 13.4498 6.46428 13.2116 6.69149C12.8901 6.99649 12.6545 7.38055 12.5281 7.80525C12.4017 8.22995 12.3891 8.68039 12.4916 9.11149L12.7516 10.2515L11.5816 10.3315C10.3826 10.4292 9.17682 10.2652 8.04757 9.85085C6.91832 9.43644 5.89264 8.78154 5.04156 7.93149C5.00506 9.24788 5.33436 10.5486 5.99285 11.6891C6.65134 12.8295 7.61323 13.765 8.77156 14.3915L9.72156 14.9315L9.09156 15.8315C8.41025 16.725 7.47674 17.3938 6.41156 17.7515C7.09487 17.9228 7.79713 18.0068 8.50156 18.0015H8.51156Z" fill="black"/>
</svg>
