<svg width="24" height="24" viewBox="0 0 24 24" fill="none" xmlns="http://www.w3.org/2000/svg">
<path d="M20.2189 21.0015C19.9905 21.0082 19.7667 20.9364 19.5847 20.7981C19.4028 20.6598 19.2737 20.4634 19.2189 20.2415C18.7687 18.4575 17.7772 16.8567 16.3805 15.6588C14.9839 14.4609 13.2507 13.7248 11.4189 13.5515V14.6715C11.4188 15.0218 11.3153 15.3643 11.1214 15.656C10.9275 15.9477 10.6518 16.1758 10.3289 16.3115C9.9788 16.4725 9.58962 16.5289 9.20819 16.4739C8.82677 16.4189 8.46936 16.2549 8.17895 16.0015L3.11895 11.5915C2.92491 11.4263 2.76908 11.2209 2.66221 10.9896C2.55535 10.7582 2.5 10.5064 2.5 10.2515C2.5 9.99669 2.55535 9.74488 2.66221 9.51352C2.76908 9.28216 2.92491 9.07676 3.11895 8.91154L8.17895 4.49154C8.47318 4.23385 8.83651 4.06809 9.22398 4.01477C9.61145 3.96145 10.006 4.02291 10.3589 4.19154C10.6818 4.32732 10.9575 4.55536 11.1514 4.84708C11.3453 5.13881 11.4488 5.48126 11.4489 5.83154V7.00154C14.1652 7.21155 16.704 8.43201 18.5645 10.4221C20.425 12.4122 21.472 15.0274 21.4989 17.7515C21.4976 18.5911 21.3935 19.4273 21.1889 20.2415C21.1342 20.4634 21.0051 20.6598 20.8232 20.7981C20.6412 20.9364 20.4174 21.0082 20.1889 21.0015H20.2189ZM10.4489 11.5015C12.1457 11.4889 13.8226 11.8665 15.3502 12.6052C16.8778 13.3438 18.2152 14.4238 19.2589 15.7615C18.758 13.8118 17.6179 12.0863 16.0208 10.8608C14.4237 9.63536 12.4619 8.98072 10.4489 9.00154C10.1837 9.00154 9.92938 8.89618 9.74184 8.70865C9.55431 8.52111 9.44895 8.26676 9.44895 8.00154V6.08154L4.62895 10.2515L9.44895 14.4615V12.4615C9.45928 12.2033 9.56919 11.9591 9.75562 11.7802C9.94204 11.6012 10.1905 11.5013 10.4489 11.5015Z" fill="black"/>
</svg>
