<svg width="24" height="24" viewBox="0 0 24 24" fill="none" xmlns="http://www.w3.org/2000/svg">
<path d="M5.17844 13.7635C5.45307 13.7629 5.71922 13.8586 5.93069 14.0338L12.2308 19.2996L18.5426 14.2219C18.6629 14.1242 18.8012 14.0513 18.9497 14.0073C19.0982 13.9633 19.2539 13.9491 19.4079 13.9655C19.5619 13.9819 19.7112 14.0285 19.8471 14.1028C19.983 14.177 20.1029 14.2774 20.1999 14.3982C20.2976 14.5184 20.3705 14.6567 20.4145 14.8052C20.4585 14.9537 20.4727 15.1095 20.4563 15.2635C20.4399 15.4175 20.3933 15.5667 20.319 15.7027C20.2447 15.8386 20.1444 15.9585 20.0236 16.0555L12.9713 21.7326C12.761 21.9055 12.4972 22 12.2249 22C11.9527 22 11.6888 21.9055 11.4785 21.7326L4.42619 15.8557C4.30717 15.757 4.20879 15.6358 4.13668 15.4991C4.06456 15.3623 4.02014 15.2127 4.00594 15.0587C3.99175 14.9048 4.00807 14.7495 4.05396 14.6019C4.09985 14.4543 4.17442 14.3171 4.27339 14.1984C4.38276 14.0635 4.52065 13.9546 4.67714 13.8794C4.83363 13.8042 5.00483 13.7646 5.17844 13.7635Z" fill="black"/>
<path d="M19.2845 10.2365C19.0098 10.2371 18.7437 10.1414 18.5322 9.96619L12.2321 4.70044L5.92027 9.77813C5.80004 9.87577 5.6617 9.94868 5.5132 9.99267C5.3647 10.0367 5.20897 10.0509 5.05496 10.0345C4.90095 10.0181 4.7517 9.97146 4.61578 9.8972C4.47987 9.82295 4.35996 9.72257 4.26297 9.60182C4.16533 9.48159 4.09242 9.34326 4.04842 9.19476C4.00443 9.04626 3.99021 8.89053 4.0066 8.73652C4.02298 8.58251 4.06964 8.43326 4.14389 8.29734C4.21815 8.16142 4.31853 8.04152 4.43927 7.94452L11.4916 2.26739C11.7019 2.09451 11.9657 2 12.238 2C12.5102 2 12.774 2.09451 12.9844 2.26739L20.0367 8.14434C20.1557 8.24301 20.2541 8.36419 20.3262 8.50095C20.3983 8.6377 20.4428 8.78734 20.4569 8.94129C20.4711 9.09523 20.4548 9.25047 20.4089 9.3981C20.363 9.54574 20.2885 9.68287 20.1895 9.80164C20.0801 9.93647 19.9422 10.0454 19.7858 10.1206C19.6293 10.1958 19.4581 10.2354 19.2845 10.2365Z" fill="black"/>
</svg>
