<svg width="24" height="24" viewBox="0 0 24 24" fill="none" xmlns="http://www.w3.org/2000/svg">
<path d="M17.0002 15.5902L15.0002 13.5902L8.41019 7.00019L6.41019 5.00019L4.71019 3.29019C4.61695 3.19695 4.50626 3.12299 4.38443 3.07253C4.26261 3.02207 4.13204 2.99609 4.00019 2.99609C3.86833 2.99609 3.73776 3.02207 3.61594 3.07253C3.49411 3.12299 3.38342 3.19695 3.29019 3.29019C3.10188 3.47849 2.99609 3.73388 2.99609 4.00019C2.99609 4.26649 3.10188 4.52188 3.29019 4.71019L3.83019 5.24019L5.59019 7.00019L14.9302 16.3402L16.3902 17.8002L19.2902 20.7102C19.3831 20.8039 19.4937 20.8783 19.6156 20.9291C19.7375 20.9798 19.8682 21.006 20.0002 21.006C20.1322 21.006 20.2629 20.9798 20.3848 20.9291C20.5066 20.8783 20.6172 20.8039 20.7102 20.7102C20.8039 20.6172 20.8783 20.5066 20.9291 20.3848C20.9798 20.2629 21.006 20.1322 21.006 20.0002C21.006 19.8682 20.9798 19.7375 20.9291 19.6156C20.8783 19.4937 20.8039 19.3831 20.7102 19.2902L17.0002 15.5902Z" fill="black"/>
<path d="M14 17.0008H5C4.73478 17.0008 4.48043 16.8954 4.29289 16.7079C4.10536 16.5204 4 16.266 4 16.0008V8.00078C4.00306 7.84893 4.04067 7.69977 4.10998 7.56462C4.17929 7.42947 4.27847 7.31188 4.4 7.22078L3 5.80078C2.68988 6.0781 2.44084 6.4169 2.26868 6.79564C2.09653 7.17438 2.00503 7.58478 2 8.00078V16.0008C2 16.7964 2.31607 17.5595 2.87868 18.1221C3.44129 18.6847 4.20435 19.0008 5 19.0008H14C14.5921 19.0018 15.1706 18.824 15.66 18.4908L14.14 17.0008C14.0935 17.0055 14.0465 17.0055 14 17.0008Z" fill="black"/>
<path d="M20.9981 7.15C20.6943 7.0132 20.357 6.9687 20.028 7.02204C19.6991 7.07537 19.3932 7.22419 19.1481 7.45L16.9981 9.45V8C16.9981 7.20435 16.6821 6.44129 16.1194 5.87868C15.5568 5.31607 14.7938 5 13.9981 5H7.82812L9.82812 7H13.9981C14.2633 7 14.5177 7.10536 14.7052 7.29289C14.8928 7.48043 14.9981 7.73478 14.9981 8V12.17L19.7181 16.89C19.91 16.9619 20.1132 16.9992 20.3181 17C20.5562 16.9994 20.7913 16.9483 21.0081 16.85C21.3031 16.7307 21.5557 16.5262 21.7339 16.2625C21.912 15.9989 22.0075 15.6882 22.0081 15.37V8.63C22.0067 8.31069 21.9097 7.99911 21.7297 7.73536C21.5497 7.47161 21.2949 7.26774 20.9981 7.15ZM19.9981 14.6L17.1881 12L19.9981 9.4V14.6Z" fill="black"/>
</svg>
