<svg width="24" height="24" viewBox="0 0 24 24" fill="none" xmlns="http://www.w3.org/2000/svg">
<path d="M20.7795 8.36874C20.6124 8.16187 20.37 8.02985 20.1056 8.00172C19.8411 7.97359 19.5764 8.05166 19.3695 8.21874C19.1626 8.38583 19.0306 8.62825 19.0025 8.89268C18.9744 9.1571 19.0524 9.42187 19.2195 9.62874C19.7247 10.3157 19.9972 11.146 19.9972 11.9987C19.9972 12.8514 19.7247 13.6818 19.2195 14.3687C19.1003 14.5157 19.0252 14.6935 19.003 14.8814C18.9808 15.0693 19.0124 15.2597 19.0941 15.4304C19.1757 15.6011 19.3042 15.7451 19.4645 15.8457C19.6247 15.9463 19.8103 15.9994 19.9995 15.9987C20.1489 15.9993 20.2965 15.9663 20.4315 15.9023C20.5665 15.8382 20.6854 15.7448 20.7795 15.6287C21.5727 14.5848 22.0022 13.3098 22.0022 11.9987C22.0022 10.6877 21.5727 9.41266 20.7795 8.36874Z" fill="black"/>
<path d="M16.47 3.11835C16.318 3.03058 16.1455 2.98438 15.97 2.98438C15.7945 2.98438 15.622 3.03058 15.47 3.11835L9 7.56835H4C3.73478 7.56835 3.48043 7.67371 3.29289 7.86124C3.10536 8.04878 3 8.30313 3 8.56835V15.4284C3 15.6936 3.10536 15.9479 3.29289 16.1355C3.48043 16.323 3.73478 16.4284 4 16.4284H9L15.41 20.8284C15.5856 20.942 15.7909 21.0011 16 20.9984C16.2652 20.9984 16.5196 20.893 16.7071 20.7055C16.8946 20.5179 17 20.2636 17 19.9984V3.99835C16.9995 3.81745 16.95 3.64006 16.8566 3.48509C16.7633 3.33012 16.6297 3.20337 16.47 3.11835ZM15 18.0984L9.9 14.5984C9.73164 14.4852 9.53285 14.4259 9.33 14.4284H5V9.56835H9.33C9.53285 9.57081 9.73164 9.51152 9.9 9.39835L15 5.89835V18.0984Z" fill="black"/>
</svg>
