<svg width="24" height="24" viewBox="0 0 24 24" fill="none" xmlns="http://www.w3.org/2000/svg">
<path d="M18.2795 8.36874C18.1124 8.16187 17.87 8.02985 17.6056 8.00172C17.3411 7.97359 17.0764 8.05166 16.8695 8.21874C16.6626 8.38583 16.5306 8.62825 16.5025 8.89268C16.4744 9.1571 16.5524 9.42187 16.7195 9.62874C17.2247 10.3157 17.4972 11.146 17.4972 11.9987C17.4972 12.8514 17.2247 13.6818 16.7195 14.3687C16.6003 14.5157 16.5252 14.6935 16.503 14.8814C16.4808 15.0693 16.5124 15.2597 16.5941 15.4304C16.6757 15.6011 16.8042 15.7451 16.9645 15.8457C17.1247 15.9463 17.3103 15.9994 17.4995 15.9987C17.6489 15.9993 17.7965 15.9663 17.9315 15.9023C18.0665 15.8382 18.1854 15.7448 18.2795 15.6287C19.0727 14.5848 19.5022 13.3098 19.5022 11.9987C19.5022 10.6877 19.0727 9.41266 18.2795 8.36874Z" fill="black"/>
<path d="M19.6418 5.23125C19.5406 5.1472 19.424 5.0839 19.2984 5.04494C19.1728 5.00599 19.0408 4.99216 18.9098 5.00423C18.7789 5.0163 18.6516 5.05404 18.5353 5.1153C18.4189 5.17656 18.3158 5.26013 18.2318 5.36125C18.1477 5.46237 18.0844 5.57905 18.0455 5.70463C18.0065 5.83022 17.9927 5.96224 18.0047 6.09317C18.0168 6.2241 18.0546 6.35137 18.1158 6.46772C18.1771 6.58406 18.2606 6.6872 18.3618 6.77125C19.1638 7.39112 19.8171 8.18246 20.2739 9.08736C20.7307 9.99227 20.9793 10.9878 21.0018 12.0012C20.9793 13.0147 20.7307 14.0102 20.2739 14.9151C19.8171 15.82 19.1638 16.6114 18.3618 17.2312C18.2605 17.3152 18.1768 17.4183 18.1154 17.5346C18.0541 17.651 18.0163 17.7783 18.0042 17.9093C17.9921 18.0403 18.006 18.1723 18.0451 18.2979C18.0841 18.4235 18.1476 18.5402 18.2318 18.6412C18.3258 18.7541 18.4435 18.8449 18.5766 18.9071C18.7097 18.9694 18.8549 19.0015 19.0018 19.0012C19.2354 19.0017 19.4618 18.9203 19.6418 18.7712C20.6722 17.9657 21.5089 16.9393 22.0904 15.7677C22.6719 14.5961 22.9833 13.3091 23.0018 12.0012C22.9833 10.6934 22.6719 9.40636 22.0904 8.23476C21.5089 7.06316 20.6722 6.03682 19.6418 5.23125Z" fill="black"/>
<path d="M14.9995 3.11835C14.8475 3.03058 14.6751 2.98438 14.4995 2.98438C14.324 2.98438 14.1516 3.03058 13.9995 3.11835L7.51953 7.56835H2.51953C2.25431 7.56835 1.99996 7.67371 1.81242 7.86124C1.62489 8.04878 1.51953 8.30313 1.51953 8.56835V15.4284C1.51953 15.6936 1.62489 15.9479 1.81242 16.1355C1.99996 16.323 2.25431 16.4284 2.51953 16.4284H7.51953L13.9295 20.8284C14.0994 20.9383 14.2972 20.9972 14.4995 20.9984C14.7647 20.9984 15.0191 20.893 15.2066 20.7055C15.3942 20.5179 15.4995 20.2636 15.4995 19.9984V3.99835C15.502 3.82045 15.457 3.64511 15.3691 3.49042C15.2812 3.33573 15.1536 3.20729 14.9995 3.11835ZM13.5295 18.1184L8.39953 14.5984C8.23117 14.4852 8.03238 14.4259 7.82953 14.4284H3.49953V9.56835H7.82953C8.03238 9.57081 8.23117 9.51152 8.39953 9.39835L13.4995 5.89835L13.5295 18.1184Z" fill="black"/>
</svg>
