<svg width="24" height="24" viewBox="0 0 24 24" fill="none" xmlns="http://www.w3.org/2000/svg">
<path d="M4.71019 3.29019C4.61695 3.19695 4.50626 3.12299 4.38443 3.07253C4.26261 3.02207 4.13204 2.99609 4.00019 2.99609C3.86833 2.99609 3.73776 3.02207 3.61594 3.07253C3.49411 3.12299 3.38342 3.19695 3.29019 3.29019C3.10188 3.47849 2.99609 3.73388 2.99609 4.00019C2.99609 4.26649 3.10188 4.52188 3.29019 4.71019L19.2902 20.7102C19.3831 20.8039 19.4937 20.8783 19.6156 20.9291C19.7375 20.9798 19.8682 21.006 20.0002 21.006C20.1322 21.006 20.2629 20.9798 20.3848 20.9291C20.5066 20.8783 20.6172 20.8039 20.7102 20.7102C20.8039 20.6172 20.8783 20.5066 20.9291 20.3848C20.9798 20.2629 21.006 20.1322 21.006 20.0002C21.006 19.8682 20.9798 19.7375 20.9291 19.6156C20.8783 19.4937 20.8039 19.3831 20.7102 19.2902L4.71019 3.29019Z" fill="black"/>
<path d="M16.9087 14.0787L18.3487 15.5187C19.1058 14.4772 19.5078 13.2197 19.4952 11.9322C19.4826 10.6446 19.0561 9.39526 18.2787 8.36874C18.1117 8.16187 17.8692 8.02985 17.6048 8.00172C17.3404 7.97359 17.0756 8.05166 16.8687 8.21874C16.6619 8.38583 16.5299 8.62825 16.5017 8.89268C16.4736 9.1571 16.5517 9.42187 16.7187 9.62874C17.188 10.2681 17.4566 11.0325 17.4904 11.8249C17.5243 12.6172 17.3218 13.4017 16.9087 14.0787Z" fill="black"/>
<path d="M21.0012 12.0012C20.9803 13.6362 20.3448 15.2034 19.2212 16.3912L20.6412 17.8112C22.1371 16.2445 22.9808 14.1673 23.0012 12.0012C22.9828 10.6934 22.6714 9.40636 22.0899 8.23476C21.5084 7.06316 20.6717 6.03682 19.6412 5.23125C19.5401 5.1472 19.4235 5.0839 19.2979 5.04494C19.1723 5.00599 19.0403 4.99216 18.9093 5.00423C18.7784 5.0163 18.6511 5.05404 18.5348 5.1153C18.4184 5.17656 18.3153 5.26013 18.2312 5.36125C18.1472 5.46237 18.0839 5.57905 18.0449 5.70463C18.006 5.83022 17.9922 5.96224 18.0042 6.09317C18.0163 6.2241 18.054 6.35137 18.1153 6.46772C18.1766 6.58406 18.2601 6.6872 18.3613 6.77125C19.1633 7.39112 19.8166 8.18246 20.2734 9.08736C20.7301 9.99227 20.9788 10.9878 21.0012 12.0012Z" fill="black"/>
<path d="M13.5 18.1003L8.4 14.6003C8.23164 14.4871 8.03285 14.4279 7.83 14.4303H3.5V9.57031H6.74L4.74 7.57031H2.5C2.23478 7.57031 1.98043 7.67567 1.79289 7.86321C1.60536 8.05074 1.5 8.3051 1.5 8.57031V15.4303C1.5 15.6955 1.60536 15.9499 1.79289 16.1374C1.98043 16.325 2.23478 16.4303 2.5 16.4303H7.5L13.91 20.8303C14.0799 20.9402 14.2777 20.9992 14.48 21.0003C14.7452 21.0003 14.9996 20.895 15.1871 20.7074C15.3746 20.5199 15.48 20.2655 15.48 20.0003V18.3303L13.48 16.3303L13.5 18.1003Z" fill="black"/>
<path d="M13.5005 5.90057V10.6706L15.5005 12.6706V4.00057C15.502 3.81729 15.4531 3.63711 15.3592 3.47972C15.2653 3.32234 15.1299 3.19379 14.9679 3.10813C14.8058 3.02246 14.6234 2.98298 14.4404 2.99399C14.2575 3.00501 14.0811 3.06609 13.9305 3.17057L9.23047 6.40057L10.6705 7.84057L13.5005 5.90057Z" fill="black"/>
</svg>
