<svg width="24" height="24" viewBox="0 0 24 24" fill="none" xmlns="http://www.w3.org/2000/svg">
<path d="M17 20.9993C16.7977 20.9982 16.5999 20.9393 16.43 20.8293L10 16.4293H5C4.73478 16.4293 4.48043 16.324 4.29289 16.1365C4.10536 15.9489 4 15.6946 4 15.4293V8.56935C4 8.30413 4.10536 8.04978 4.29289 7.86224C4.48043 7.67471 4.73478 7.56935 5 7.56935H10L16.41 3.16935C16.5606 3.0592 16.7391 2.99339 16.9252 2.97938C17.1113 2.96538 17.2976 3.00372 17.463 3.09008C17.6285 3.17644 17.7664 3.30736 17.8613 3.46805C17.9562 3.62874 18.0043 3.81278 18 3.99935V19.9993C18 20.2646 17.8946 20.5189 17.7071 20.7065C17.5196 20.894 17.2652 20.9993 17 20.9993ZM6 14.4293H10.33C10.5328 14.4269 10.7316 14.4862 10.9 14.5993L16 18.0993V5.89935L10.9 9.39935C10.7316 9.51252 10.5328 9.57181 10.33 9.56935H6V14.4293Z" fill="black"/>
</svg>
