<svg width="24" height="24" viewBox="0 0 24 24" fill="none" xmlns="http://www.w3.org/2000/svg">
<path d="M12 20C12.5523 20 13 19.5523 13 19C13 18.4477 12.5523 18 12 18C11.4477 18 11 18.4477 11 19C11 19.5523 11.4477 20 12 20Z" fill="black"/>
<path d="M12.4402 11.0002L10.5402 9.11019L8.08019 6.67019L6.53019 5.12019L4.71019 3.29019C4.61695 3.19695 4.50626 3.12299 4.38443 3.07253C4.26261 3.02207 4.13204 2.99609 4.00019 2.99609C3.86833 2.99609 3.73776 3.02207 3.61594 3.07253C3.49411 3.12299 3.38342 3.19695 3.29019 3.29019C3.10188 3.47849 2.99609 3.73388 2.99609 4.00019C2.99609 4.26649 3.10188 4.52188 3.29019 4.71019L4.67019 6.08019L6.13019 7.54019L8.36019 9.78019L9.91019 11.3202L12.6502 14.0602L15.4402 16.8602L19.2902 20.7102C19.3831 20.8039 19.4937 20.8783 19.6156 20.9291C19.7375 20.9798 19.8682 21.006 20.0002 21.006C20.1322 21.006 20.2629 20.9798 20.3848 20.9291C20.5066 20.8783 20.6172 20.8039 20.7102 20.7102C20.8039 20.6172 20.8783 20.5066 20.9291 20.3848C20.9798 20.2629 21.006 20.1322 21.006 20.0002C21.006 19.8682 20.9798 19.7375 20.9291 19.6156C20.8783 19.4937 20.8039 19.3831 20.7102 19.2902L12.4402 11.0002Z" fill="black"/>
<path d="M21.7186 7.93002C19.114 5.40418 15.6268 3.99421 11.9986 4.00002C10.4891 4.00411 8.98998 4.25058 7.55859 4.73002L9.17859 6.35002C11.1404 5.85983 13.1948 5.87806 15.1476 6.40301C17.1004 6.92795 18.887 7.94225 20.3386 9.35002C20.524 9.5287 20.7711 9.62899 21.0286 9.63002C21.1633 9.6295 21.2965 9.60178 21.4202 9.54851C21.544 9.49524 21.6556 9.41752 21.7486 9.32002C21.9249 9.12969 22.0203 8.87831 22.0147 8.61895C22.0091 8.3596 21.9029 8.11257 21.7186 7.93002Z" fill="black"/>
<path d="M3.81989 6.64844C3.27732 7.03865 2.76273 7.46636 2.27989 7.92844C2.11113 8.11609 2.01957 8.36062 2.02356 8.61297C2.02756 8.86531 2.12683 9.10682 2.30145 9.28903C2.47607 9.47124 2.71313 9.58069 2.96508 9.59542C3.21703 9.61015 3.46523 9.52907 3.65989 9.36844C4.15859 8.89717 4.69358 8.46584 5.25989 8.07844L3.81989 6.64844Z" fill="black"/>
<path d="M16.9998 13.14C17.0925 13.2345 17.2029 13.3097 17.3248 13.3612C17.4467 13.4127 17.5775 13.4395 17.7098 13.44C17.9053 13.4393 18.0962 13.3813 18.259 13.2732C18.4218 13.1651 18.5494 13.0117 18.626 12.832C18.7026 12.6522 18.7249 12.4539 18.69 12.2616C18.6551 12.0693 18.5647 11.8914 18.4298 11.75C17.5958 10.8858 16.5972 10.1972 15.4929 9.72492C14.3886 9.25262 13.2009 9.00614 11.9998 9H11.8398L14.1898 11.35C15.2569 11.7118 16.2209 12.3259 16.9998 13.14Z" fill="black"/>
<path d="M7.43046 10.2617C6.73168 10.6687 6.09233 11.1701 5.53047 11.7517C5.34614 11.9467 5.2468 12.2068 5.2543 12.475C5.2618 12.7432 5.37553 12.9974 5.57047 13.1817C5.7654 13.366 6.02557 13.4654 6.29375 13.4579C6.56193 13.4504 6.81614 13.3367 7.00047 13.1417C7.58305 12.5625 8.25921 12.0858 9.00047 11.7317L7.43046 10.2617Z" fill="black"/>
<path d="M8.52837 15.4003C8.33741 15.5846 8.2275 15.8373 8.22281 16.1026C8.21812 16.368 8.31904 16.6244 8.50337 16.8153C8.68769 17.0063 8.94033 17.1162 9.20569 17.1209C9.47106 17.1256 9.72741 17.0246 9.91837 16.8403C10.4332 16.3655 11.0953 16.0817 11.7942 16.0362C12.493 15.9907 13.1863 16.1863 13.7584 16.5903L11.2384 14.0703C10.2196 14.2238 9.2731 14.6884 8.52837 15.4003Z" fill="black"/>
</svg>
