<svg width="24" height="24" viewBox="0 0 24 24" fill="none" xmlns="http://www.w3.org/2000/svg">
<path d="M12 20C12.5523 20 13 19.5523 13 19C13 18.4477 12.5523 18 12 18C11.4477 18 11 18.4477 11 19C11 19.5523 11.4477 20 12 20Z" fill="black"/>
<path d="M11.9984 14C10.7041 14 9.46024 14.5018 8.52837 15.4C8.33741 15.5843 8.2275 15.837 8.22281 16.1023C8.21812 16.3677 8.31904 16.624 8.50337 16.815C8.68769 17.006 8.94033 17.1159 9.20569 17.1206C9.47106 17.1252 9.72741 17.0243 9.91837 16.84C10.4863 16.32 11.2284 16.0316 11.9984 16.0316C12.7684 16.0316 13.5105 16.32 14.0784 16.84C14.2693 17.0243 14.5257 17.1252 14.791 17.1206C15.0564 17.1159 15.309 17.006 15.4934 16.815C15.6777 16.624 15.7786 16.3677 15.7739 16.1023C15.7692 15.837 15.6593 15.5843 15.4684 15.4C14.5365 14.5018 13.2926 14 11.9984 14Z" fill="black"/>
<path d="M12.0005 9.00006C10.7927 9.00086 9.5974 9.24475 8.48585 9.7172C7.37429 10.1897 6.36921 10.881 5.53046 11.7501C5.4392 11.8466 5.36783 11.9601 5.32045 12.0842C5.27306 12.2083 5.25059 12.3406 5.2543 12.4733C5.25802 12.6061 5.28785 12.7369 5.3421 12.8582C5.39634 12.9794 5.47394 13.0888 5.57046 13.1801C5.7654 13.3644 6.02557 13.4637 6.29375 13.4562C6.42654 13.4525 6.55729 13.4227 6.67855 13.3684C6.79981 13.3142 6.9092 13.2366 7.00046 13.1401C7.65345 12.4626 8.43632 11.9237 9.30228 11.5557C10.1682 11.1876 11.0995 10.9979 12.0405 10.9979C12.9814 10.9979 13.9127 11.1876 14.7786 11.5557C15.6446 11.9237 16.4275 12.4626 17.0805 13.1401C17.1731 13.2346 17.2835 13.3097 17.4054 13.3612C17.5273 13.4127 17.6582 13.4395 17.7905 13.4401C17.9859 13.4393 18.1768 13.3813 18.3396 13.2733C18.5025 13.1652 18.6301 13.0118 18.7066 12.832C18.7832 12.6522 18.8055 12.4539 18.7706 12.2617C18.7358 12.0694 18.6453 11.8915 18.5105 11.7501C17.667 10.8761 16.6555 10.182 15.5367 9.70936C14.4179 9.23675 13.215 8.99547 12.0005 9.00006Z" fill="black"/>
<path d="M21.7199 7.92811C19.1103 5.41069 15.6258 4.00391 11.9999 4.00391C8.37397 4.00391 4.88947 5.41069 2.27989 7.92811C2.11113 8.11577 2.01957 8.36029 2.02356 8.61264C2.02756 8.86499 2.12683 9.10649 2.30145 9.28871C2.47607 9.47092 2.71313 9.58037 2.96508 9.5951C3.21703 9.60982 3.46523 9.52874 3.65989 9.36811C5.89749 7.20523 8.88784 5.99623 11.9999 5.99623C15.1119 5.99623 18.1023 7.20523 20.3399 9.36811C20.5253 9.54679 20.7724 9.64709 21.0299 9.64811C21.1646 9.6476 21.2978 9.61987 21.4215 9.5666C21.5453 9.51333 21.6569 9.43562 21.7499 9.33811C21.9322 9.14682 22.0314 8.89113 22.0258 8.62692C22.0202 8.36272 21.9102 8.11148 21.7199 7.92811Z" fill="black"/>
</svg>
