<svg width="40" height="40" viewBox="0 0 40 40" fill="none" xmlns="http://www.w3.org/2000/svg">
<path fill-rule="evenodd" clip-rule="evenodd" d="M21.1905 5.73472L25.0505 13.4997C25.2439 13.8914 25.6172 14.1647 26.0505 14.2281L34.6922 15.4764C35.0422 15.5231 35.3572 15.7064 35.5722 15.9864C35.9755 16.5114 35.9139 17.2547 35.4305 17.7064L29.1672 23.7631C28.8489 24.0631 28.7072 24.5031 28.7905 24.9314L30.2905 33.4781C30.3955 34.1864 29.9122 34.8497 29.2039 34.9647C28.9105 35.0097 28.6105 34.9631 28.3439 34.8314L20.6472 30.7964C20.2605 30.5864 19.7972 30.5864 19.4105 30.7964L11.6572 34.8531C11.0089 35.1831 10.2155 34.9381 9.86221 34.3031C9.72721 34.0464 9.68054 33.7547 9.72721 33.4697L11.2272 24.9231C11.3022 24.4964 11.1605 24.0581 10.8505 23.7564L4.55387 17.7014C4.04054 17.1914 4.03721 16.3614 4.54887 15.8481C4.55054 15.8464 4.55221 15.8431 4.55387 15.8414C4.76554 15.6497 5.02554 15.5214 5.30721 15.4714L13.9505 14.2231C14.3822 14.1547 14.7539 13.8847 14.9505 13.4931L18.8072 5.73472C18.9622 5.41972 19.2372 5.17805 19.5705 5.06805C19.9055 4.95638 20.2722 4.98305 20.5872 5.14138C20.8455 5.26972 21.0572 5.47805 21.1905 5.73472Z" stroke="#2C77C0" stroke-width="1.5" stroke-linecap="round" stroke-linejoin="round"/>
</svg>
