<svg width="16" height="16" viewBox="0 0 16 16" fill="none" xmlns="http://www.w3.org/2000/svg">
<g clip-path="url(#clip0_36433:15796)">
<path d="M6.01555 8.37638C6.59741 8.37638 6.88835 8.66731 6.88835 9.24918L6.88835 11.6154C6.88835 12.1973 6.59741 12.4883 6.01555 12.4882L3.76565 12.4882C3.18379 12.4882 2.89285 12.1973 2.89285 11.6154L2.89285 9.24918C2.89285 7.89149 3.04155 6.70189 3.33895 5.68039C3.62342 4.67182 4.19236 3.78608 5.04577 3.02319C5.33023 2.77751 5.56945 2.74519 5.7634 2.92621L6.63621 3.74083C6.83016 3.92185 6.78491 4.14167 6.50044 4.40028C6.0608 4.78819 5.70522 5.3442 5.43368 6.0683C5.14921 6.80533 5.00697 7.57469 5.00697 8.37638L6.01555 8.37638ZM12.4161 8.37638C12.998 8.37638 13.2889 8.66731 13.2889 9.24918L13.2889 11.6154C13.2889 12.1973 12.998 12.4883 12.4161 12.4883L10.1662 12.4883C9.58434 12.4883 9.2934 12.1973 9.2934 11.6154L9.2934 9.24918C9.2934 7.89149 9.4421 6.70189 9.7395 5.68039C10.024 4.67182 10.5929 3.78608 11.4463 3.02319C11.7308 2.77751 11.97 2.74519 12.164 2.92621L13.0368 3.74083C13.2307 3.92185 13.1855 4.14167 12.901 4.40028C12.4614 4.78819 12.1058 5.3442 11.8342 6.0683C11.5498 6.80534 11.4075 7.57469 11.4075 8.37638L12.4161 8.37638Z" fill="#2C77C0"/>
</g>
<defs>
<clipPath id="clip0_36433:15796">
<rect width="15" height="15" fill="white" transform="translate(0.5 0.746094)"/>
</clipPath>
</defs>
</svg>
