<svg width="20" height="20" viewBox="0 0 20 20" fill="none" xmlns="http://www.w3.org/2000/svg">
<path d="M11.3005 17.5212C10.446 17.6757 9.55262 17.6757 8.69812 17.5212C8.37949 17.4636 8.07484 17.675 8.01726 17.9935C7.95969 18.3119 8.17113 18.6168 8.48957 18.6744C9.46887 18.8514 10.4963 18.8575 11.5091 18.6744C11.8275 18.6168 12.0389 18.3119 11.9814 17.9935C11.9238 17.6751 11.619 17.4637 11.3005 17.5212Z" fill="#131416"/>
<path d="M2.16816 11.1157C2.17324 11.1157 2.17835 11.1157 2.18347 11.1155C2.50695 11.1073 2.76249 10.8383 2.75417 10.5148C2.70257 8.49156 3.56804 6.37579 5.25385 4.91387C5.49835 4.70184 5.52467 4.33181 5.31264 4.08731C5.10061 3.84282 4.73061 3.81653 4.48608 4.02853C2.53913 5.71696 1.52144 8.16766 1.58269 10.5448C1.59085 10.8632 1.85152 11.1157 2.16816 11.1157Z" fill="#131416"/>
<path d="M14.745 4.9139C16.4253 6.37101 17.2956 8.48183 17.2447 10.515C17.2366 10.8386 17.4922 11.1074 17.8157 11.1156C17.8208 11.1157 17.8258 11.1158 17.8308 11.1158C18.1475 11.1158 18.4082 10.8631 18.4163 10.5446C18.4765 8.17433 17.4661 5.72237 15.5128 4.02854C15.2684 3.81651 14.8983 3.84284 14.6863 4.08733C14.4742 4.33182 14.5006 4.7019 14.745 4.9139Z" fill="#131416"/>
<path d="M5.16676 15.645C5.49504 15.2636 5.69414 14.7679 5.69414 14.2264C5.69414 13.0254 4.71703 12.0483 3.51605 12.0483C2.31508 12.0483 1.33797 13.0254 1.33797 14.2264C1.33797 14.7679 1.53707 15.2636 1.86535 15.645C0.756445 16.2372 0 17.4062 0 18.7487V19.4144C0 19.738 0.262344 20.0003 0.585938 20.0003H6.44621C6.7698 20.0003 7.03215 19.738 7.03215 19.4144V18.7487C7.03215 17.4062 6.2757 16.2372 5.16676 15.645ZM2.50984 14.2264C2.50984 13.6716 2.96125 13.2202 3.51605 13.2202C4.07086 13.2202 4.52227 13.6716 4.52227 14.2264C4.52227 14.7812 4.07086 15.2326 3.51605 15.2326C2.96125 15.2326 2.50984 14.7813 2.50984 14.2264ZM5.86027 18.8284H1.17188C1.17188 17.3478 2.30371 16.4045 3.51605 16.4045C4.73074 16.4045 5.86027 17.3497 5.86027 18.8284Z" fill="#131416"/>
<path d="M18.1355 15.645C18.4638 15.2636 18.6629 14.7679 18.6629 14.2264C18.6629 13.0254 17.6858 12.0483 16.4848 12.0483C15.2839 12.0483 14.3068 13.0254 14.3068 14.2264C14.3068 14.7679 14.5059 15.2636 14.8341 15.645C13.7252 16.2372 12.9688 17.4062 12.9688 18.7487V19.4144C12.9688 19.738 13.2311 20.0003 13.5547 20.0003H19.415C19.7386 20.0003 20.0009 19.738 20.0009 19.4144V18.7487C20.0009 17.4062 19.2445 16.2372 18.1355 15.645ZM15.4786 14.2264C15.4786 13.6716 15.93 13.2202 16.4848 13.2202C17.0396 13.2202 17.491 13.6716 17.491 14.2264C17.491 14.7812 17.0396 15.2326 16.4848 15.2326C15.93 15.2326 15.4786 14.7813 15.4786 14.2264ZM18.829 18.8284H14.1406C14.1406 17.3474 15.2729 16.4045 16.4848 16.4045C17.6998 16.4045 18.829 17.3501 18.829 18.8284Z" fill="#131416"/>
<path d="M7.07031 7.9532H12.9305C13.254 7.9532 13.5164 7.69086 13.5164 7.36727V6.70039C13.5164 5.35789 12.7599 4.18891 11.651 3.59676C11.9793 3.21531 12.1785 2.71969 12.1785 2.17812C12.1785 0.977109 11.2014 0 10.0004 0C8.79937 0 7.8223 0.977109 7.8223 2.17809C7.8223 2.71965 8.02144 3.21527 8.34972 3.59672C7.24082 4.18887 6.48438 5.35785 6.48438 6.70035V7.36723C6.48438 7.69086 6.74672 7.9532 7.07031 7.9532ZM10.0004 1.17188C10.5552 1.17188 11.0066 1.62328 11.0066 2.17809C11.0066 2.73289 10.5552 3.18434 10.0004 3.18434C9.44554 3.18434 8.99417 2.73293 8.99417 2.17812C8.99417 1.62332 9.44554 1.17188 10.0004 1.17188ZM7.65625 6.70039C7.65625 5.40785 8.70781 4.35625 10.0004 4.35625C11.293 4.35625 12.3445 5.40781 12.3445 6.70039V6.78133H7.65625V6.70039Z" fill="#131416"/>
</svg>
