<svg width="14" height="14" viewBox="0 0 14 14" fill="none" xmlns="http://www.w3.org/2000/svg">
<g clip-path="url(#clip0_36433:15800)">
<path d="M4.29232 12.6615H2.66732C2.38 12.6615 2.10445 12.5473 1.90129 12.3442C1.69812 12.141 1.58398 11.8654 1.58398 11.5781V7.78646C1.58398 7.49914 1.69812 7.22359 1.90129 7.02043C2.10445 6.81726 2.38 6.70313 2.66732 6.70313H4.29232M8.08398 5.61979V3.45313C8.08398 3.02215 7.91278 2.60882 7.60803 2.30408C7.30329 1.99933 6.88996 1.82813 6.45898 1.82812L4.29232 6.70313V12.6615H10.4023C10.6636 12.6644 10.9171 12.5728 11.1162 12.4036C11.3153 12.2344 11.4465 11.9989 11.4857 11.7406L12.2332 6.86563C12.2567 6.71036 12.2462 6.55183 12.2025 6.40101C12.1587 6.2502 12.0826 6.1107 11.9796 5.9922C11.8765 5.87369 11.7489 5.779 11.6057 5.7147C11.4624 5.6504 11.3069 5.61801 11.1498 5.61979H8.08398Z" stroke="#2C77C0" stroke-width="1.08333" stroke-linecap="round" stroke-linejoin="round"/>
</g>
<defs>
<clipPath id="clip0_36433:15800">
<rect width="13" height="13" fill="white" transform="translate(0.5 0.746094)"/>
</clipPath>
</defs>
</svg>
