<svg width="62" height="62" viewBox="0 0 62 62" fill="none" xmlns="http://www.w3.org/2000/svg">
<path d="M26.0672 27.8659C27.1015 27.8659 28.1125 27.5592 28.9725 26.9846C29.8324 26.41 30.5027 25.5932 30.8985 24.6377C31.2942 23.6822 31.3978 22.6307 31.196 21.6164C30.9943 20.602 30.4962 19.6702 29.7649 18.9389C29.0335 18.2075 28.1018 17.7095 27.0874 17.5077C26.073 17.3059 25.0216 17.4095 24.066 17.8053C23.1105 18.2011 22.2938 18.8713 21.7192 19.7313C21.1446 20.5912 20.8379 21.6023 20.8379 22.6365C20.8395 24.023 21.3909 25.3521 22.3713 26.3325C23.3516 27.3128 24.6808 27.8643 26.0672 27.8659ZM26.0672 19.3447C26.7183 19.3447 27.3547 19.5378 27.896 19.8995C28.4374 20.2612 28.8593 20.7753 29.1084 21.3768C29.3576 21.9783 29.4228 22.6402 29.2958 23.2787C29.1687 23.9173 28.8552 24.5038 28.3949 24.9642C27.9345 25.4246 27.3479 25.7381 26.7094 25.8651C26.0709 25.9921 25.409 25.9269 24.8075 25.6778C24.206 25.4286 23.6919 25.0067 23.3302 24.4654C22.9685 23.924 22.7754 23.2876 22.7754 22.6365C22.7764 21.7638 23.1235 20.9271 23.7406 20.31C24.3578 19.6929 25.1945 19.3457 26.0672 19.3447Z" fill="black"/>
<path d="M54.9766 40.9277H50.7383V36.6895C50.7383 36.4325 50.6362 36.1861 50.4545 36.0044C50.2729 35.8228 50.0265 35.7207 49.7695 35.7207C49.5126 35.7207 49.2662 35.8228 49.0845 36.0044C48.9028 36.1861 48.8008 36.4325 48.8008 36.6895V40.9277H44.6836C44.4267 40.9277 44.1803 41.0298 43.9986 41.2115C43.8169 41.3931 43.7148 41.6396 43.7148 41.8965C43.7148 42.1534 43.8169 42.3998 43.9986 42.5815C44.1803 42.7632 44.4267 42.8652 44.6836 42.8652H48.8008V46.9824C48.8008 47.2393 48.9028 47.4858 49.0845 47.6674C49.2662 47.8491 49.5126 47.9512 49.7695 47.9512C50.0265 47.9512 50.2729 47.8491 50.4545 47.6674C50.6362 47.4858 50.7383 47.2393 50.7383 46.9824V42.8652H54.9766C55.2335 42.8652 55.4799 42.7632 55.6616 42.5815C55.8432 42.3998 55.9453 42.1534 55.9453 41.8965C55.9453 41.6396 55.8432 41.3931 55.6616 41.2115C55.4799 41.0298 55.2335 40.9277 54.9766 40.9277Z" fill="black"/>
<path d="M57.1563 33.0723V14.7381C57.1563 11.533 54.5175 8.95901 51.3124 8.95901H6.63026C5.87053 8.95669 5.11783 9.10457 4.41544 9.39413C3.71304 9.68369 3.07481 10.1092 2.53743 10.6463C2.00005 11.1833 1.57413 11.8213 1.28414 12.5235C0.99415 13.2257 0.845819 13.9784 0.847673 14.7381V43.9344C0.847673 47.1399 3.42527 49.7676 6.63026 49.7676H41.8547C43.4401 51.3507 45.4591 52.4284 47.6567 52.8646C49.8542 53.3008 52.1317 53.076 54.2016 52.2185C56.2714 51.361 58.0407 49.9093 59.2859 48.0468C60.5312 46.1843 61.1965 43.9945 61.1979 41.7541C61.1979 38.2739 59.5781 35.1507 57.1563 33.0723ZM6.63026 10.8965H51.3124C53.4491 10.8965 55.2188 12.6014 55.2188 14.7381V31.761C53.5756 30.8814 51.74 30.4231 49.8762 30.427C49.453 30.4272 49.0302 30.4506 48.6096 30.4974L40.4938 24.751C40.308 24.6196 40.082 24.5575 39.8552 24.5757C39.6283 24.5939 39.4151 24.6912 39.2527 24.8505L28.315 35.5996L15.6029 29.4045C15.4627 29.3349 15.3072 29.3014 15.1507 29.3072C14.9942 29.3129 14.8417 29.3576 14.7069 29.4373L2.78517 36.3606V14.7381C2.78304 14.2327 2.88106 13.7319 3.07359 13.2646C3.26611 12.7974 3.54931 12.3729 3.90683 12.0157C4.26435 11.6585 4.68911 11.3757 5.15656 11.1836C5.62401 10.9915 6.12489 10.8939 6.63026 10.8965ZM2.78517 43.9344V38.6005L15.2325 31.3723L26.8555 37.0508L15.8913 47.8301H6.63026C5.60387 47.8231 4.62228 47.4087 3.90126 46.6782C3.18024 45.9477 2.77879 44.9608 2.78517 43.9344ZM18.6554 47.8301L40.0309 26.8106L46.0721 31.0853C43.8694 31.8719 41.9635 33.3198 40.615 35.231C39.2666 37.1421 38.5415 39.4231 38.5388 41.7621C38.5388 43.9902 39.1859 46.0139 40.3016 47.8303L18.6554 47.8301ZM49.8605 51.1331C48.0043 51.1331 46.1899 50.5826 44.6465 49.5514C43.1032 48.5202 41.9003 47.0544 41.19 45.3395C40.4797 43.6247 40.2939 41.7377 40.6561 39.9172C41.0182 38.0967 41.9121 36.4245 43.2247 35.112C44.5372 33.7996 46.2095 32.9058 48.03 32.5438C49.8505 32.1817 51.7375 32.3677 53.4523 33.0781C55.1671 33.7885 56.6328 34.9914 57.6639 36.5348C58.6951 38.0782 59.2454 39.8927 59.2452 41.7489C59.2424 44.237 58.2528 46.6223 56.4934 48.3816C54.734 50.1409 52.3486 51.1304 49.8605 51.1331Z" fill="black"/>
</svg>
