<svg width="16" height="16" viewBox="0 0 16 16" fill="none" xmlns="http://www.w3.org/2000/svg">
<g clip-path="url(#clip0_36383:18033)">
<path d="M10.538 4.97266H4.0859C3.89034 4.97317 3.703 5.0514 3.56516 5.19016C3.4264 5.328 3.34817 5.51534 3.34766 5.7109V10.2912C3.34853 10.6994 3.67927 11.0301 4.08749 11.031H10.538C10.7335 11.0303 10.9208 10.9521 11.0587 10.8135C11.1975 10.6757 11.2757 10.4883 11.2762 10.2928V5.71249C11.2753 5.30487 10.9456 4.9744 10.538 4.97266ZM10.665 10.2912C10.6653 10.325 10.6522 10.3576 10.6285 10.3817C10.6044 10.4054 10.5718 10.4185 10.538 10.4182H4.0859C4.01612 10.4173 3.95976 10.361 3.95889 10.2912V5.71249C3.95869 5.67871 3.97183 5.6462 3.9954 5.62199C4.01961 5.59842 4.05212 5.58528 4.0859 5.58548H10.538C10.6077 5.58635 10.6641 5.64271 10.665 5.71249V10.2912Z" fill="#B68E5C"/>
<path d="M15.6936 6.45257C15.8628 6.45257 16 6.3154 16 6.14616V4.03304C15.9991 3.62483 15.6684 3.29409 15.2602 3.29321V3.29004H0.739829C0.544791 3.29095 0.358127 3.36918 0.220679 3.50754C0.0795793 3.64602 7.93808e-05 3.83535 0 4.03304V6.14775C0 6.31699 0.13717 6.45416 0.30641 6.45416C1.16174 6.45416 1.85513 7.14755 1.85513 8.00288C1.85513 8.85821 1.16174 9.5516 0.30641 9.5516C0.13717 9.5516 0 9.68877 0 9.85801V11.9711C0.000873189 12.3793 0.331613 12.7101 0.739829 12.711H15.2618C15.4557 12.7103 15.6417 12.6333 15.7793 12.4966C15.9204 12.3581 15.9999 12.1688 16 11.9711V9.85642C16 9.68718 15.8628 9.55001 15.6936 9.55001C14.8383 9.55001 14.1449 8.85662 14.1449 8.00129C14.1449 7.14596 14.8383 6.45257 15.6936 6.45257ZM13.5578 8.30961C13.6948 9.25741 14.4393 10.002 15.3872 10.139V11.9711C15.3875 12.0049 15.3744 12.0375 15.3507 12.0616C15.3266 12.0854 15.294 12.0985 15.2602 12.0981H0.739829C0.670054 12.0973 0.613693 12.0409 0.61282 11.9711V10.1406C1.79389 9.9699 2.61294 8.87404 2.44223 7.69298C2.30522 6.74517 1.56067 6.00058 0.61282 5.86357V4.03304C0.612622 3.99927 0.625759 3.96676 0.649335 3.94255C0.673546 3.91897 0.706053 3.90584 0.739829 3.90603H12.1929V4.82685C12.2051 4.99566 12.3518 5.12259 12.5205 5.11044C12.6724 5.09949 12.7932 4.97871 12.8041 4.82685V3.90286H15.2602C15.3299 3.90373 15.3863 3.96009 15.3872 4.02987V5.86198C14.2061 6.03269 13.3871 7.12854 13.5578 8.30961Z" fill="#B68E5C"/>
<path d="M12.4978 9.4082C12.3286 9.4082 12.1914 9.54537 12.1914 9.71461V10.9387C12.2036 11.1075 12.3503 11.2344 12.5191 11.2223C12.6709 11.2113 12.7917 11.0905 12.8026 10.9387V9.71461C12.8026 9.54601 12.6664 9.40908 12.4978 9.4082Z" fill="#B68E5C"/>
<path d="M12.4978 6.34863C12.3286 6.34863 12.1914 6.4858 12.1914 6.65504V7.8791C12.2036 8.0479 12.3503 8.17483 12.5191 8.16269C12.6709 8.15173 12.7917 8.03095 12.8026 7.8791V6.65504C12.8026 6.48644 12.6664 6.34951 12.4978 6.34863Z" fill="#B68E5C"/>
</g>
<defs>
<clipPath id="clip0_36383:18033">
<rect width="16" height="16" fill="white"/>
</clipPath>
</defs>
</svg>
