<svg width="113" height="23" viewBox="0 0 113 23" fill="none" xmlns="http://www.w3.org/2000/svg">
<path d="M84.2376 9.04331C83.9641 9.04331 83.7248 8.88302 83.6435 8.64426L82.287 4.66395C82.1798 4.35011 81.8786 4.14679 81.5192 4.14595H81.5164C81.1579 4.14595 80.8566 4.34674 80.7476 4.65889L76.2144 17.6375C76.1294 17.8805 75.8947 18.0366 75.6157 18.0332C75.3366 18.0307 75.1047 17.8712 75.0261 17.6265L70.2638 2.92773C70.1594 2.60461 69.8517 2.39623 69.4839 2.39961C69.1152 2.40214 68.8122 2.61305 68.7124 2.93701L65.9477 11.9235C65.8535 12.2298 65.5671 12.3377 65.349 12.3377H65.3444C65.1254 12.3361 64.8371 12.2247 64.7475 11.9142L64.3169 10.4218C64.2023 10.0253 63.8253 9.85996 63.5019 9.87346C63.1785 9.88611 62.8181 10.0793 62.7414 10.4834L60.6874 21.2821C60.6153 21.6625 60.2771 21.8321 59.9722 21.8321H59.9675C59.6617 21.8304 59.3226 21.6566 59.2551 21.2736L55.8187 1.70023C55.7337 1.21597 55.3059 1 54.9188 1H54.9151C54.527 1.00169 54.0992 1.22019 54.0179 1.70613L52.2382 12.3335C52.1855 12.6474 51.9148 12.7874 51.6995 12.811C51.4833 12.8346 51.1839 12.7596 51.0499 12.4668L49.1714 8.37936C49.0365 8.08661 48.727 7.90861 48.3786 7.92885C48.0312 7.94826 47.7457 8.15748 47.6505 8.46288L44.179 19.6209C44.0838 19.9263 43.7992 20.0335 43.5802 20.0335C43.5775 20.0335 43.5756 20.0335 43.5728 20.0335C43.3538 20.0309 43.0656 19.9179 42.9778 19.6083L39.1339 6.04078C39.0443 5.72357 38.7541 5.50675 38.3956 5.48988C38.0362 5.47385 37.7239 5.65945 37.5973 5.96569L34.3789 13.7694C34.269 14.036 34.0112 14.1339 33.807 14.1372C33.6037 14.1389 33.3413 14.0495 33.2221 13.7863L30.9573 8.78853C30.8354 8.52025 30.5628 8.34646 30.2449 8.3338C29.9271 8.31946 29.6397 8.47469 29.4937 8.732C29.3865 8.92182 29.1749 9.03993 28.9411 9.03993H1.00277H1V9.20782L1.00277 9.20866H28.9402C29.2433 9.20866 29.5186 9.05596 29.6572 8.80962C29.77 8.61052 29.9917 8.49241 30.2366 8.50253C30.4815 8.51181 30.6921 8.64595 30.7855 8.85264L33.0502 13.8504C33.1777 14.1322 33.4623 14.3051 33.795 14.3051C33.7996 14.3051 33.8042 14.3051 33.8088 14.3051C34.147 14.3001 34.4316 14.117 34.5508 13.8276L37.7691 6.0239C37.8662 5.78768 38.1082 5.64342 38.3845 5.65692C38.6608 5.67042 38.8844 5.83746 38.9537 6.08212L42.7976 19.6496C42.8918 19.9812 43.1949 20.198 43.5691 20.2022C43.9452 20.2098 44.2529 19.9963 44.3555 19.6665L47.827 8.50844C47.9157 8.22244 48.1753 8.10855 48.3879 8.09674C48.6004 8.08493 48.873 8.17014 48.9986 8.44432L50.8771 12.5318C51.0204 12.8448 51.3521 13.0194 51.7198 12.9781C52.0885 12.9367 52.3629 12.6929 52.4193 12.358L54.199 1.7306C54.2636 1.34336 54.6046 1.16873 54.9141 1.16789H54.9169C55.2255 1.16789 55.5665 1.33999 55.6339 1.72638L59.0703 21.2998C59.1544 21.7807 59.5804 21.9975 59.9639 22H59.9703C60.3529 22 60.777 21.7874 60.8675 21.3099L62.9216 10.5112C62.9844 10.1789 63.2774 10.0498 63.5074 10.0413C63.7375 10.0329 64.0415 10.1375 64.1358 10.464L64.5663 11.9564C64.6615 12.2871 64.9655 12.5031 65.3407 12.5056H65.3481C65.7195 12.5056 66.0235 12.2956 66.1242 11.9682L68.8889 2.98088C68.9822 2.67717 69.2677 2.56749 69.483 2.56665C69.702 2.56496 69.9857 2.67126 70.0836 2.97329L74.846 17.6721C74.9485 17.9893 75.2488 18.1968 75.611 18.2002C75.9769 18.2019 76.2782 18.0028 76.3881 17.6873L80.9213 4.70866C81.0054 4.46822 81.2373 4.31299 81.5136 4.31299H81.5164C81.7936 4.31384 82.0255 4.47075 82.1078 4.71204L83.4642 8.69235C83.5695 9.00197 83.8791 9.21035 84.2348 9.21035H111.881V9.04162H84.2376V9.04331Z" stroke="#B68E5C" stroke-width="1.53056"/>
</svg>
