<svg width="24" height="24" viewBox="0 0 24 24" fill="none" xmlns="http://www.w3.org/2000/svg">
<path d="M9.86106 18.0009C9.72395 18.0004 9.58838 17.9718 9.4628 17.9168C9.33722 17.8617 9.2243 17.7814 9.13106 17.6809L4.27106 12.5109C4.08939 12.3173 3.99207 12.0594 4.00051 11.7941C4.00895 11.5287 4.12245 11.2776 4.31606 11.0959C4.50967 10.9142 4.76752 10.8169 5.03288 10.8253C5.29825 10.8338 5.54939 10.9473 5.73106 11.1409L9.85106 15.5309L18.2611 6.33089C18.3464 6.22461 18.4526 6.1369 18.5731 6.07315C18.6935 6.0094 18.8258 5.97095 18.9617 5.96017C19.0975 5.94938 19.2342 5.96649 19.3632 6.01044C19.4922 6.05439 19.6109 6.12425 19.7119 6.21573C19.813 6.30722 19.8943 6.41839 19.9508 6.54243C20.0073 6.66647 20.0378 6.80075 20.0406 6.93703C20.0433 7.0733 20.0181 7.2087 19.9666 7.3349C19.9151 7.4611 19.8384 7.57543 19.7411 7.67089L10.6011 17.6709C10.5087 17.7732 10.3962 17.8554 10.2706 17.9122C10.1449 17.969 10.0089 17.9992 9.87106 18.0009H9.86106Z" fill="black"/>
</svg>
