<svg width="40" height="40" viewBox="0 0 40 40" fill="none" xmlns="http://www.w3.org/2000/svg">
<ellipse cx="19.2983" cy="12.1304" rx="7.96339" ry="7.96339" stroke="#2C77C0" stroke-width="1.5" stroke-linecap="round" stroke-linejoin="round"/>
<path fill-rule="evenodd" clip-rule="evenodd" d="M6.66702 31.1693C6.66488 30.6094 6.79008 30.0565 7.03315 29.5522C7.79593 28.0266 9.94696 27.2181 11.7319 26.8519C13.0191 26.5772 14.3242 26.3937 15.6373 26.3027C18.0684 26.0892 20.5135 26.0892 22.9447 26.3027C24.2577 26.3948 25.5626 26.5783 26.8501 26.8519C28.635 27.2181 30.786 27.9503 31.5488 29.5522C32.0376 30.5802 32.0376 31.7736 31.5488 32.8016C30.786 34.4034 28.635 35.1357 26.8501 35.4866C25.5643 35.7727 24.2588 35.9613 22.9447 36.051C20.9659 36.2188 18.978 36.2494 16.995 36.1426C16.5373 36.1426 16.0949 36.1426 15.6373 36.051C14.328 35.9624 13.0275 35.7737 11.7471 35.4866C9.94696 35.1357 7.81118 34.4034 7.03315 32.8016C6.79132 32.2915 6.66625 31.7338 6.66702 31.1693Z" stroke="#2C77C0" stroke-width="1.5" stroke-linecap="round" stroke-linejoin="round"/>
</svg>
